<?xml version="1.0" encoding="UTF-8"?><svg id="christine-klik" xmlns="http://www.w3.org/2000/svg" width="180" height="300" viewBox="0 0 180 300"><defs><style>.cls-1{fill:#e6e6e6;}.cls-2{fill:#ffef99;}.cls-3{fill:#f35c8b;}.cls-4{fill:#ff7b5e;}.cls-5{fill:#fec3a5;}.cls-6{fill:#ff8171;}.cls-7{fill:#999;}.cls-8{fill:#736357;}.cls-9{fill:#a67c52;}.cls-10{fill:#c19a60;}.cls-11{fill:#c69c6d;}.cls-12{fill:gray;}.cls-13{fill:#603813;}.cls-14{fill:#754c24;}.cls-15{fill:#fff;stroke:#534741;stroke-miterlimit:10;stroke-width:.25px;}.cls-16,.cls-17{opacity:.7;}.cls-17{fill:#ffb1b5;}</style></defs><rect id="hals" class="cls-5" x="74" y="135.42" width="37" height="23.72" rx="8.5" ry="8.5"/><path class="cls-1" d="M155.49,161.88c-37.61-24.44-106.35-22.14-131.67-.04-4.71,4.11-8.79,6.17-12.97-5.55C-.23,125.2-3.77,94.91,4.7,62.17c3.19-12.35,4.47-15.51,13.4-15.97,48.03-2.44,92.98,.95,141.2-3.52,8.96-.83,11,.82,14.07,13.26,8.12,32.98,9.87,56.88-.94,88.96-4.08,12.1-9.95,21.52-16.94,16.98Z"/><ellipse class="cls-1" cx="91" cy="70.18" rx="85" ry="70.18"/><g id="hoved-2"><g><g><ellipse class="cls-5" cx="90" cy="83.52" rx="77" ry="63.76"/><path class="cls-11" d="M90,147.4c-20.6,0-39.96-6.64-54.53-18.7-14.57-12.07-22.6-28.11-22.6-45.18s8.03-33.11,22.6-45.18c14.57-12.06,33.93-18.7,54.53-18.7s39.96,6.64,54.53,18.7c14.57,12.07,22.6,28.11,22.6,45.18s-8.03,33.11-22.6,45.18c-14.57,12.06-33.93,18.7-54.53,18.7Zm0-127.51c-20.54,0-39.85,6.62-54.37,18.64-14.51,12.02-22.51,27.99-22.51,44.99s7.99,32.97,22.51,44.99c14.52,12.02,33.83,18.64,54.37,18.64s39.85-6.62,54.37-18.64c14.51-12.02,22.51-27.99,22.51-44.99s-7.99-32.97-22.51-44.99c-14.52-12.02-33.83-18.64-54.37-18.64Z"/></g><g><path class="cls-9" d="M90,147.4c-20.6,0-39.96-6.64-54.53-18.7-14.57-12.07-22.6-28.11-22.6-45.18s8.03-33.11,22.6-45.18c14.57-12.06,33.93-18.7,54.53-18.7s39.96,6.64,54.53,18.7c14.57,12.07,22.6,28.11,22.6,45.18s-8.03,33.11-22.6,45.18c-14.57,12.06-33.93,18.7-54.53,18.7Zm0-127.51c-20.54,0-39.85,6.62-54.37,18.64-14.51,12.02-22.51,27.99-22.51,44.99s7.99,32.97,22.51,44.99c14.52,12.02,33.83,18.64,54.37,18.64s39.85-6.62,54.37-18.64c14.51-12.02,22.51-27.99,22.51-44.99s-7.99-32.97-22.51-44.99c-14.52-12.02-33.83-18.64-54.37-18.64Z"/><path class="cls-11" d="M90,147.53c-20.63,0-40.02-6.65-54.61-18.73-14.6-12.09-22.64-28.17-22.64-45.27s8.04-33.18,22.64-45.27c14.59-12.08,33.98-18.73,54.61-18.73s40.02,6.65,54.61,18.73c14.6,12.09,22.64,28.17,22.64,45.27s-8.04,33.18-22.64,45.27c-14.59,12.08-33.98,18.73-54.61,18.73Zm0-127.51c-20.51,0-39.79,6.61-54.29,18.62-14.49,11.99-22.46,27.94-22.46,44.89s7.98,32.9,22.46,44.89c14.5,12,33.78,18.62,54.29,18.62s39.79-6.61,54.29-18.62c14.49-11.99,22.46-27.94,22.46-44.89s-7.98-32.9-22.46-44.89c-14.5-12-33.78-18.62-54.29-18.62Z"/></g></g><g><g><path class="cls-10" d="M90,147.4c-20.6,0-39.96-6.64-54.53-18.7-14.57-12.07-22.6-28.11-22.6-45.18s8.03-33.11,22.6-45.18c14.57-12.06,33.93-18.7,54.53-18.7s39.96,6.64,54.53,18.7c14.57,12.07,22.6,28.11,22.6,45.18s-8.03,33.11-22.6,45.18c-14.57,12.06-33.93,18.7-54.53,18.7Zm0-127.51c-20.54,0-39.85,6.62-54.37,18.64-14.51,12.02-22.51,27.99-22.51,44.99s7.99,32.97,22.51,44.99c14.52,12.02,33.83,18.64,54.37,18.64s39.85-6.62,54.37-18.64c14.51-12.02,22.51-27.99,22.51-44.99s-7.99-32.97-22.51-44.99c-14.52-12.02-33.83-18.64-54.37-18.64Z"/><path class="cls-11" d="M90,147.53c-20.63,0-40.02-6.65-54.61-18.73-14.6-12.09-22.64-28.17-22.64-45.27s8.04-33.18,22.64-45.27c14.59-12.08,33.98-18.73,54.61-18.73s40.02,6.65,54.61,18.73c14.6,12.09,22.64,28.17,22.64,45.27s-8.04,33.18-22.64,45.27c-14.59,12.08-33.98,18.73-54.61,18.73Zm0-127.51c-20.51,0-39.79,6.61-54.29,18.62-14.49,11.99-22.46,27.94-22.46,44.89s7.98,32.9,22.46,44.89c14.5,12,33.78,18.62,54.29,18.62s39.79-6.61,54.29-18.62c14.49-11.99,22.46-27.94,22.46-44.89s-7.98-32.9-22.46-44.89c-14.5-12-33.78-18.62-54.29-18.62Z"/></g><g><path class="cls-9" d="M90,147.53c-20.63,0-40.02-6.65-54.61-18.73-14.6-12.09-22.64-28.17-22.64-45.27s8.04-33.18,22.64-45.27c14.59-12.08,33.98-18.73,54.61-18.73s40.02,6.65,54.61,18.73c14.6,12.09,22.64,28.17,22.64,45.27s-8.04,33.18-22.64,45.27c-14.59,12.08-33.98,18.73-54.61,18.73Zm0-127.51c-20.51,0-39.79,6.61-54.29,18.62-14.49,11.99-22.46,27.94-22.46,44.89s7.98,32.9,22.46,44.89c14.5,12,33.78,18.62,54.29,18.62s39.79-6.61,54.29-18.62c14.49-11.99,22.46-27.94,22.46-44.89s-7.98-32.9-22.46-44.89c-14.5-12-33.78-18.62-54.29-18.62Z"/><path class="cls-11" d="M90,147.65c-20.66,0-40.08-6.66-54.69-18.76-14.63-12.11-22.69-28.22-22.69-45.37s8.06-33.25,22.69-45.37c14.61-12.1,34.03-18.76,54.69-18.76s40.08,6.66,54.69,18.76c14.63,12.11,22.69,28.22,22.69,45.37s-8.06,33.25-22.69,45.37c-14.61,12.1-34.03,18.76-54.69,18.76Zm0-128c-20.6,0-39.96,6.64-54.53,18.7-14.57,12.07-22.6,28.11-22.6,45.18s8.03,33.11,22.6,45.18c14.57,12.06,33.93,18.7,54.53,18.7s39.96-6.64,54.53-18.7c14.57-12.07,22.6-28.11,22.6-45.18s-8.03-33.11-22.6-45.18c-14.57-12.06-33.93-18.7-54.53-18.7Zm0,127.51c-20.54,0-39.85-6.62-54.37-18.64-14.51-12.02-22.51-27.99-22.51-44.99s7.99-32.97,22.51-44.99c14.52-12.02,33.83-18.64,54.37-18.64s39.85,6.62,54.37,18.64c14.51,12.02,22.51,27.99,22.51,44.99s-7.99,32.97-22.51,44.99c-14.52,12.02-33.83,18.64-54.37,18.64Zm0-127.02c-20.48,0-39.73,6.6-54.21,18.59-14.46,11.97-22.42,27.88-22.42,44.8s7.96,32.83,22.42,44.8c14.48,11.99,33.73,18.59,54.21,18.59s39.73-6.6,54.21-18.59c14.46-11.97,22.42-27.88,22.42-44.8s-7.96-32.83-22.42-44.8c-14.48-11.99-33.73-18.59-54.21-18.59Z"/></g></g></g><ellipse id="naese" class="cls-4" cx="88.5" cy="97.86" rx="9.5" ry="3.95"/><path class="cls-8" d="M54.53,51.58c.46,1.56,1.15,3.06,2.09,4.39,.13,.18,.35,.25,.55,.14,.17-.11,.26-.37,.14-.55-.91-1.28-1.57-2.7-2.01-4.2-.15-.5-.92-.27-.77,.23h0Z"/><path class="cls-8" d="M57.58,49.81c.41,1.57,1.06,3.09,1.97,4.45,.12,.18,.35,.26,.55,.15,.18-.1,.27-.37,.15-.55-.87-1.3-1.5-2.74-1.89-4.26-.13-.5-.91-.3-.78,.21h0Z"/><path class="cls-8" d="M51.77,56.12c1.1,1.56,2.33,2.93,3.65,3.99,.18,.14,.38,.12,.45-.12,.07-.21,0-.56-.18-.7-1.27-1.01-2.44-2.31-3.5-3.81-.35-.5-.78,.14-.43,.64h0Z"/><path class="cls-8" d="M106.63,50.86c.49,1.55,1.21,3.04,2.18,4.35,.13,.17,.36,.25,.55,.13,.17-.11,.26-.38,.13-.55-.93-1.26-1.63-2.67-2.1-4.16-.16-.49-.92-.25-.76,.24h0Z"/><path class="cls-8" d="M108.66,49.05c.41,1.57,1.06,3.09,1.97,4.45,.12,.18,.35,.26,.55,.15,.18-.1,.27-.37,.15-.55-.87-1.3-1.5-2.74-1.89-4.26-.13-.5-.91-.3-.78,.21h0Z"/><path class="cls-8" d="M103.92,54.29c1.1,1.56,2.33,2.93,3.65,3.99,.18,.14,.38,.12,.45-.12,.07-.21,0-.56-.18-.7-1.27-1.01-2.44-2.31-3.5-3.81-.35-.5-.78,.14-.43,.64h0Z"/><ellipse class="cls-15" cx="115.65" cy="69.31" rx="11.23" ry="17.67"/><path class="cls-14" d="M120.96,72.36c-.2,2.96-1.03,10.59-5.44,10-4.4-.59-4.17-7.38-3.93-10.74,.25-3.35,.89-10.57,5.13-11.1,4.24-.53,4.44,8.87,4.24,11.84Z"/><ellipse class="cls-15" cx="64.32" cy="69.31" rx="11.23" ry="17.67"/><path class="cls-14" d="M68.81,71.6c.02,2.97-.24,10.64-4.67,10.38-4.43-.26-4.72-7.05-4.72-10.41,0-3.36,.09-10.61,4.28-11.46,4.19-.85,5.09,8.52,5.11,11.49Z"/><ellipse id="kind2" class="cls-17" cx="42" cy="100.33" rx="9" ry="5.44"/><ellipse id="kind1" class="cls-17" cx="129" cy="100.33" rx="9" ry="5.44"/><g id="briller"><path class="cls-13" d="M63,94.89c-12.91,0-23.41-10.64-23.41-23.72s10.5-23.72,23.41-23.72,23.41,10.64,23.41,23.72-10.5,23.72-23.41,23.72Zm0-46.46c-12.36,0-22.41,10.2-22.41,22.73s10.05,22.73,22.41,22.73,22.41-10.2,22.41-22.73-10.05-22.73-22.41-22.73Z"/><path class="cls-13" d="M115.51,94.07c-12.91,0-23.41-10.64-23.41-23.72s10.5-23.72,23.41-23.72,23.41,10.64,23.41,23.72-10.5,23.72-23.41,23.72Zm0-46.46c-12.36,0-22.41,10.2-22.41,22.73s10.05,22.73,22.41,22.73,22.41-10.2,22.41-22.73-10.05-22.73-22.41-22.73Z"/><rect class="cls-13" x="25" y="72.16" width="15" height="1.98"/><rect class="cls-13" x="138" y="70.18" width="15" height="1.98"/><path class="cls-13" d="M91.89,71.84c-2.23-2.25-2.94-2.27-5.45-.12l-1.31-1.49c3.29-2.83,5.21-2.78,8.19,.23l-1.43,1.38Z"/></g><path class="cls-1" d="M32.68,25.72C16.54,35.25-1.71,83.83,3.07,96.15c4.77,12.32,31.18-39.36,44.06-45.98,12.88-6.62,48.77-19.85,38.72-35.25-10.05-15.41-37.02,1.28-53.16,10.81Z"/><path class="cls-1" d="M121.96,46.01c14.27,2.19,37.96,53.93,48.25,46.78,10.29-7.15-17.91-58.51-33.59-64.08-15.69-5.58-38.41-29.07-48.61-15.86-10.19,13.21,19.68,30.98,33.95,33.17Z"/><path class="cls-1" d="M89.14,22.79c.05-2.18-1.27-3.88-1.56-5.96s.98-4.07,1.73-5.88c1.25-3,1.52-7.44-1.88-9.17-1.72-.87-3.24,1.72-1.51,2.59,2.79,1.41,.53,5.65-.29,7.56-.75,1.77-1.29,3.59-.97,5.53,.3,1.82,1.52,3.45,1.47,5.32s2.96,1.93,3,0h0Z"/><path class="cls-1" d="M85.88,2.73l-.33,19.3c-.03,1.93,2.97,1.93,3,0l.33-19.3c.03-1.93-2.97-1.93-3,0h0Z"/><path class="cls-7" d="M87.16,23.97c-.08-.05-.17-.05-.27-.06-1-7.64,3.89-9.04-.7-23.61,.08-.02,.16-.03,.23-.06,4.85,14.4-.37,16.71,.74,23.73Z"/><rect class="cls-5" x="65" y="250.88" width="16" height="42.97" rx="7.91" ry="7.91"/><rect class="cls-5" x="105" y="252.41" width="16" height="45.11" rx="7.91" ry="7.91"/><path d="M73.5,288.87c-3.77,.45-12.32,.17-15.53,.42-4.17,.33-9.8,.98-9.64,5.31-.62,.03-.51,.03,0,0,.15,4.32,5.88,4.52,9.92,4.35,3.11-.14,11.94,.06,15.3-.04,4.36-.14,9.78,.12,10.06-5.41,.57,.05,.49,.12,0,0,.28-5.53-5.2-5.2-10.1-4.62Z"/><path class="cls-5" d="M82,289.65c.18,3.07-10.51,4.61-13.04,4.03-2.53-.58-12.33,.69-12.39-2.5-.06-3.19,10.35-2.88,12.59-2.3,2.25,.59,12.65-2.3,12.84,.77Z"/><path d="M112.92,289.89c3.77,.45,12.32,.17,15.53,.42,4.17,.33,9.8,.98,9.64,5.31,.62,.03,.51,.03,0,0-.15,4.32-5.88,4.52-9.92,4.35-3.11-.14-11.94,.06-15.3-.04-4.36-.14-9.78,.12-10.06-5.41-.57,.05-.49,.12,0,0-.28-5.53,5.2-5.2,10.1-4.62Z"/><path class="cls-5" d="M104.42,290.67c-.18,3.07,10.51,4.61,13.04,4.03,2.53-.58,12.33,.69,12.39-2.5,.06-3.19-10.35-2.88-12.59-2.3-2.25,.59-12.65-2.3-12.84,.77Z"/><path id="arm" class="cls-5" d="M155.71,138.17l1.9,1.99c2.49,2.6,2.42,6.78-.15,9.29l-32.55,31.87c-2.57,2.51-6.71,2.44-9.19-.16l-1.9-1.99c-2.49-2.6-2.42-6.78,.15-9.29l32.55-31.87c2.57-2.51,6.71-2.44,9.19,.16Z"/><g id="hånd"><ellipse class="cls-5" cx="159" cy="136.55" rx="12" ry="11.86"/><path class="cls-11" d="M159,148.54c-6.69,0-12.13-5.38-12.13-11.98s5.44-11.98,12.13-11.98,12.12,5.38,12.12,11.98-5.44,11.98-12.12,11.98Zm0-23.72c-6.55,0-11.88,5.27-11.88,11.74s5.33,11.74,11.88,11.74,11.87-5.27,11.87-11.74-5.33-11.74-11.87-11.74Z"/></g><path id="arm-2" class="cls-5" d="M22.52,143.33l-1.37,2.39c-1.79,3.12-.72,7.16,2.38,8.98l39.27,23.1c3.1,1.82,7.1,.76,8.89-2.37l1.37-2.39c1.79-3.12,.72-7.16-2.38-8.98l-39.27-23.1c-3.1-1.82-7.1-.76-8.89,2.37Z"/><g id="hånd-2"><ellipse class="cls-5" cx="18.83" cy="142.26" rx="12" ry="11.86"/><path class="cls-11" d="M6.7,142.26c0-6.61,5.44-11.98,12.13-11.98,6.69,0,12.12,5.38,12.12,11.98s-5.44,11.98-12.13,11.98c-6.69,0-12.12-5.38-12.12-11.98Zm.25,0c0,6.47,5.33,11.74,11.87,11.74,6.55,0,11.88-5.27,11.88-11.74s-5.33-11.74-11.87-11.74c-6.55,0-11.88,5.27-11.88,11.74Z"/></g><g id="_rme"><path class="cls-2" d="M75.28,157.09c-6.79,2.63-7.05,15.06-8.92,21.26-11.18-3.41-22.41-6.6-33.64-9.83,2.17-8.12,4.58-16.17,6.78-24.28,11.7,3.51,26.11,4.82,35.78,12.84Z"/></g><path class="cls-2" d="M108.21,162.33c7.34,1.29,10.72,14.02,14.13,20,10.13-5.83,20.37-11.44,30.59-17.09-4.18-7.89-8.58-15.67-12.79-23.55-10.61,6.04-24.46,10.38-31.94,20.63Z"/><g id="kjole"><path class="cls-2" d="M132.44,261.61c-25.61,3.37-56.57,2.03-82.35,.95-11.74-.49-13.44-4.68-10.72-14.38,8.26-29.39,12.36-62.43,23.69-90.14,3.74-9.14,6.92-5.7,13.01-4.83,13.37,1.92,17.79,5.06,31.47,1.93,6.23-1.42,12.71-1.94,15.54,6.97,8.57,27.02,12.33,56.96,19.25,84.97,2.28,9.24,1.76,12.98-9.89,14.52Z"/></g><g id="_rme-streg"><polygon class="cls-12" points="54.53 174.82 54.62 174.69 62.4 176.93 62.31 177.07 54.53 174.82"/></g><g id="_rme-streg2"><polygon class="cls-12" points="129.91 177.92 122.68 181.71 122.62 181.56 129.85 177.76 129.91 177.92"/></g><g class="cls-16"><g><path class="cls-6" d="M109.05,121.1c2.65,6.61-11.7,14.76-18.01,14.78-6.31,.02-20.69-7.36-18.3-13.86,2.39-6.5,14.62,0,19.07-.16,4.46-.17,14.59-7.36,17.24-.75Z"/><path class="cls-3" d="M91.02,136.01c-4.9,0-14.06-4.21-17.38-8.96-1.25-1.79-1.59-3.49-1.01-5.07,1.7-4.62,8.21-2.83,13.45-1.4,2.26,.62,4.4,1.2,5.73,1.15,1.35-.05,3.27-.77,5.31-1.54,4.53-1.7,10.18-3.82,12.05,.87,.67,1.67,.33,3.51-.99,5.47-3.38,5-12.39,9.47-17.13,9.48h-.02Zm-13.22-16.75c-2.3,0-4.17,.7-4.94,2.81-.55,1.5-.22,3.13,.98,4.84,3.29,4.69,12.33,8.85,17.18,8.85h.02c4.68-.01,13.59-4.43,16.93-9.37,1.28-1.89,1.6-3.65,.97-5.24h0c-1.79-4.46-7.07-2.48-11.73-.72-2.05,.77-3.99,1.5-5.38,1.55-1.39,.05-3.43-.51-5.81-1.16-2.68-.73-5.7-1.56-8.21-1.56Z"/></g></g></svg>