<?xml version="1.0" encoding="UTF-8"?><svg id="ellie-klik" xmlns="http://www.w3.org/2000/svg" width="115" height="175" viewBox="0 0 115 175"><defs><style>.cls-1{fill:#000010;}.cls-2{fill:#ff1f1f;}.cls-3{fill:#ff8171;}.cls-4{fill:#c69c6d;}.cls-5{fill:#42210b;}.cls-6,.cls-7{fill:#965529;}.cls-8{fill:#603813;}.cls-9{fill:#fff;}.cls-9,.cls-7,.cls-10{stroke-miterlimit:10;stroke-width:.25px;}.cls-9,.cls-10{stroke:#42210b;}.cls-7{stroke:#603813;}.cls-10{fill:#736357;}.cls-11{opacity:.36;}</style></defs><g id="hals"><path d="M74.64,73.15c-14,2.49-29.54,2.92-43.63,.59-3.34-.55-3.77-1.54-3.09-4.1,1.21-4.54,3.67-8.99,4.91-13.38,.7-2.48,1.89-3.45,4.36-2.99,10.44,1.94,20.33,2.4,30.78,.6,2.47-.43,3.19,.31,3.97,2.67,1.38,4.18,4.45,8.2,5.71,12.58,.71,2.47,.31,3.45-3,4.04Z"/><path class="cls-1" d="M65.95,67.53c-8.68,.65-18.43,.49-27.02-.9-3.87-.63-5.17-2.27-5.28-6.2-.17-6.26,2.13-14.17,3.84-19.98,1.07-3.64,2.75-5.46,6.09-5,7.44,1.02,13.55,1.16,21.01-.06,3.35-.55,5.26,1.28,6.11,5.15,1.37,6.19,1.43,14.82,1,21.27-.27,4.04-1.84,5.42-5.75,5.71Z"/></g><rect id="numse" class="cls-6" x="37.13" y="130.72" width="35.42" height="34.4"/><g id="torso"><path class="cls-6" d="M72.57,141.03c-10.14-.77-26,.79-35.12-.47-6.34-.88-9.85-4.36-12.53-7.78-6.18-7.9-2.85-46.69,.95-56.72,1.65-4.34,3.65-9.84,10.45-10.04,9.79-.28,22.59-1.44,32.52-1.53,6.9-.06,8.79,4.62,11.29,9.3,5.78,10.79,3.12,43.03,3.26,57.23,.06,6.14-3.77,10.54-10.81,10.01Z"/></g><g id="bagben-v"><ellipse class="cls-6" cx="22.1" cy="146.35" rx="14.14" ry="24.42" transform="translate(-92.98 53.27) rotate(-42.45)"/><ellipse class="cls-7" cx="15.57" cy="167.63" rx="15.71" ry="4.3" transform="translate(-27.56 4.9) rotate(-9.54)"/></g><g id="bagben-h"><ellipse class="cls-6" cx="83.02" cy="146.58" rx="24.42" ry="14.14" transform="translate(-81.18 108.91) rotate(-47.55)"/><ellipse class="cls-7" cx="89.8" cy="166.9" rx="4.3" ry="15.71" transform="translate(-89.67 227.8) rotate(-80.46)"/></g><g id="mave"><path class="cls-4" d="M68.31,113.25c2.7,10.53-3.19,40.08-14.3,38.57-11.11-1.51-19.52-26.58-15.64-38.9,3.88-12.33-9.7-46.09,15.57-47,25.27-.92,11.67,36.81,14.37,47.34Z"/></g><g id="hale"><path class="cls-6" d="M97.46,101.03c.06,.02,0-.03,0-.03,3.1-.86,.49-3.78,5.53-1.32,24.57,12,6.43,23.69-8.71,32.58-3.11,1.82-4.98,1.4-7.07,.14-.27,.2,0,0,0,0-2.09-1.26-1.08-3.74,.96-4.68,9.96-4.59,35.36-14.26,11.28-21.91-4.94-1.57-1.05-2.27-1.99-4.77Z"/><path d="M100.22,102.35c-.41,1.1-.41,2.33-.87,3.41-2.67-.77-10.45-3.77-9.26-7.41,1.2-3.64,9.54-.4,11.76,.94-.39,1.09-1.21,1.96-1.63,3.06Z"/><path d="M92.56,102.33c-2.27-1.29-2.97-2.92-3.92-5.29,2.59-1.22,5.2,.09,5.52-.05"/><path d="M101.55,99c.74,.42,.92,.9,1.15,1.59-.96,.26-1.82-.17-1.94-.15"/><path d="M100.37,99.88c.89,.43,1.11,.93,1.39,1.66-1.14,.3-2.17-.14-2.31-.11"/><path d="M99.69,101c.89,.43,1.11,.93,1.39,1.66-1.14,.3-2.17-.14-2.31-.11"/><path d="M99.69,102.76c.89,.43,1.11,.93,1.39,1.66-1.14,.3-2.17-.14-2.31-.11"/><path d="M99.55,104.69c.53,.59,1.03,.7,1.24,1.51-.92-.17-1.26-.27-2.06-.83"/></g><g id="pels-hals"><polyline points="63.69 63.67 61.41 65.5 59.13 64.34"/><polyline points="66 64.16 63.72 65.99 61.44 64.83"/><polyline points="73.1 63.11 70.6 66.29 68.4 64.65"/><polyline points="75.84 66.38 72.69 66.83 71.56 64.5"/><polyline points="76.97 67.2 74.64 67.55 73.82 65.84"/><polyline points="75.77 68.45 76.33 67.47 76.74 67.93"/><polyline points="57.57 63.53 54.95 66.93 52.67 65.19"/><polyline points="59.74 64 57.33 66.58 55.1 65.16"/><polyline points="51.23 62.59 48.54 66.95 46.41 64.89"/><polyline points="53.53 63.2 50.83 67.56 48.7 65.5"/><polyline points="48.85 63.72 46.15 68.11 44.02 66.04"/><polyline points="46.02 65.11 43.74 66.93 41.46 65.78"/><polyline points="43.65 65.84 40.16 66.85 39.85 64.67"/><polyline points="41.58 63.88 38.88 68.27 36.75 66.2"/><polyline points="55.75 63.01 53.22 66.35 51.03 64.65"/><polyline points="39.18 65.57 35.5 67.59 34.77 65.26"/><polyline points="36.14 65.16 33.67 68.1 31.46 66.55"/><polyline points="33.56 66.17 31.03 69.51 28.84 67.81"/><polyline points="31.05 67.37 29.47 70.93 28.49 69.4"/><polyline points="68.66 63.28 66.38 65.1 64.1 63.95"/><polyline points="70.43 63.28 68.09 65.44 65.84 64.16"/></g><g id="forben-h"><g><path class="cls-6" d="M72.92,116.22c-.71-.07-1.94,.01-2.62,.18-1.49,.36-2.63,.87-2.48,2.81,1.11,13.99,2.4,28.48,1.26,42.71-.16,1.97,1.66,2.23,3.37,1.03,.77-.54,1.95-.49,2.78-.13,1.85,.81,3.25,.33,3.1-1.62-1.12-14.1-1.38-28.5-2.62-42.47-.17-1.94-1.23-2.35-2.8-2.51Z"/><path class="cls-8" d="M70.5,163.79c-.31,0-.59-.07-.83-.2-.51-.29-.76-.89-.7-1.67,1.08-13.43-.02-27.12-1.07-40.36l-.19-2.33c-.17-2.09,1.18-2.59,2.56-2.93,.7-.17,1.93-.26,2.65-.18h0c1.66,.17,2.73,.66,2.9,2.61,.66,7.48,1.05,15.21,1.43,22.68,.33,6.51,.67,13.24,1.19,19.8,.07,.85-.15,1.49-.64,1.83-.59,.42-1.52,.38-2.61-.1-.75-.33-1.9-.43-2.67,.12-.7,.49-1.42,.75-2.03,.75Zm1.84-47.48c-.67,0-1.5,.08-2.01,.2-1.66,.4-2.53,.95-2.39,2.7l.19,2.33c1.06,13.25,2.15,26.95,1.07,40.4-.06,.71,.15,1.21,.59,1.47,.62,.35,1.65,.14,2.61-.54,.84-.59,2.09-.49,2.89-.14,1.02,.45,1.87,.49,2.39,.12,.42-.3,.61-.86,.55-1.63-.52-6.56-.86-13.29-1.19-19.8-.38-7.47-.77-15.2-1.43-22.67-.16-1.81-1.07-2.25-2.7-2.41h0c-.17-.02-.36-.02-.57-.02Z"/></g><g><ellipse class="cls-6" cx="73.24" cy="168.2" rx="6.66" ry="10.44" transform="translate(-100.02 228.5) rotate(-85.66)"/><path class="cls-8" d="M73.99,175c-.42,0-.84-.02-1.27-.05-2.8-.21-5.38-1.11-7.27-2.53-1.9-1.43-2.87-3.21-2.73-5.03,.14-1.81,1.37-3.43,3.47-4.55,2.08-1.12,4.77-1.61,7.57-1.4,5.8,.44,10.29,3.83,10,7.56-.14,1.81-1.37,3.43-3.47,4.55-1.76,.95-3.97,1.45-6.3,1.45Zm-1.5-13.39c-2.3,0-4.46,.49-6.2,1.42-2.03,1.09-3.22,2.64-3.35,4.38-.13,1.74,.81,3.45,2.64,4.83,1.85,1.39,4.39,2.28,7.15,2.48,2.76,.22,5.4-.28,7.45-1.37,2.03-1.09,3.22-2.64,3.35-4.38h0c.28-3.6-4.12-6.89-9.8-7.32-.42-.03-.84-.05-1.25-.05Z"/></g><path class="cls-6" d="M71.75,119.47c-1.34,.47-2.73-.33-4.07-.53,.12-2.9,.29-6.97,3.21-7.3,2.91-.33,3.76,3.66,4.67,5.98,0,.01,.03,.03-.03,.07-1.21,.62-2.43,1.32-3.77,1.78Z"/></g><g id="forben-v"><g><path class="cls-6" d="M34.96,116.17c.71-.07,1.94,.01,2.62,.18,1.49,.36,2.63,.87,2.48,2.81-1.11,13.99-2.4,28.48-1.26,42.71,.16,1.97-1.66,2.23-3.37,1.03-.77-.54-1.95-.49-2.78-.13-1.85,.81-3.25,.33-3.1-1.62,1.12-14.1,1.38-28.5,2.62-42.47,.17-1.94,1.23-2.35,2.8-2.51Z"/><path class="cls-8" d="M37.38,163.74c-.61,0-1.33-.26-2.03-.75-.77-.54-1.93-.44-2.67-.12-1.1,.48-2.02,.51-2.61,.1-.49-.34-.71-.98-.64-1.83,.52-6.56,.86-13.29,1.19-19.8,.38-7.47,.77-15.2,1.43-22.68,.17-1.95,1.24-2.44,2.9-2.61h0c.73-.08,1.96,.01,2.65,.18,1.39,.34,2.73,.84,2.56,2.93l-.19,2.33c-1.06,13.24-2.15,26.93-1.07,40.36,.06,.79-.19,1.38-.7,1.67-.24,.13-.52,.2-.83,.2Zm-3.38-1.35c.52,0,1.06,.12,1.49,.42,.97,.68,1.99,.89,2.61,.54,.44-.25,.64-.76,.59-1.47-1.08-13.45,.02-27.15,1.07-40.4l.19-2.33c.14-1.74-.73-2.29-2.39-2.7-.66-.16-1.89-.24-2.58-.18h0c-1.63,.16-2.54,.59-2.7,2.41-.66,7.47-1.05,15.2-1.43,22.67-.33,6.51-.67,13.24-1.19,19.8-.06,.77,.13,1.34,.55,1.63,.52,.37,1.37,.33,2.39-.12,.39-.17,.9-.29,1.41-.29Z"/></g><g><ellipse class="cls-6" cx="34.64" cy="168.15" rx="10.44" ry="6.66" transform="translate(-12.62 3.1) rotate(-4.34)"/><path class="cls-8" d="M33.89,174.96c-2.34,0-4.54-.5-6.3-1.45-2.1-1.12-3.33-2.74-3.47-4.55-.29-3.73,4.2-7.12,10-7.56,5.8-.44,10.75,2.23,11.04,5.95,.29,3.73-4.2,7.12-10,7.56-.43,.03-.85,.05-1.27,.05Zm1.48-13.39c-.41,0-.82,.02-1.24,.05-5.68,.43-10.07,3.72-9.8,7.32,.13,1.74,1.32,3.29,3.35,4.38,2.04,1.09,4.69,1.58,7.45,1.37,5.68-.43,10.07-3.72,9.79-7.32-.26-3.34-4.43-5.8-9.56-5.8Z"/></g><path class="cls-6" d="M36.13,119.42c1.34,.47,2.73-.33,4.07-.53-.12-2.9-.29-6.97-3.21-7.3s-3.76,3.66-4.67,5.98c0,.01-.03,.03,.03,.07,1.21,.62,2.43,1.32,3.77,1.78Z"/></g><g id="hoved-2"><path class="cls-6" d="M76.97,51.6c-10.79,8.96-26.02,13.06-34.16,5.53-8.15-7.53-6.02-24.78,1.77-36.54,7.78-11.76,23.55-16.78,36.26-4.72,12.71,12.06,6.92,26.77-3.86,35.73Z"/></g><g id="_re-v"><path class="cls-8" d="M43.22,7.69c0-.68-.13-1.7,.15-2.52,1-2.93,1.95-4.42,5.88-4.97,5.72-.81,13,.93,17.69,4.3,3.23,2.32,4.45,5.03,1.07,6.88-.94,.52-3.28,.75-3.97,.88-2.48,.45-6.43,1.1-8.2-.49-2.57-2.31-5.46-1.21-8.72-.84-2.24,.26-3.89-.8-3.89-3.25Z"/><path class="cls-8" d="M41.6,22.09c-.58-5.11,2.83-10.05,2.01-15.1,6.1-.85,14.62-3.08,16.1,4.95-7.63,1.97,.58-21.64-1.63,.4-3.77,4.36-10.54,9.11-16.48,9.75Z"/></g><g id="_re-h"><path class="cls-8" d="M91.81,52.94c.73-.02,1.81,.08,2.67-.25,3.07-1.15,4.62-2.2,5.08-6.35,.66-6.04-1.44-13.63-5.17-18.44-2.57-3.31-5.5-4.5-7.34-.88-.51,1.01-.69,3.47-.8,4.21-.4,2.62-.95,6.8,.8,8.6,2.54,2.62,1.48,5.7,1.19,9.14-.2,2.37,.98,4.06,3.58,3.98Z"/><g id="_re-h-2"><path class="cls-8" d="M76.58,55.14c5.44,.44,10.57-3.32,15.96-2.64,.69-6.44,2.77-15.48-5.81-16.75-1.83,8.08,22.96-1.37-.37,1.73-4.5,4.12-9.31,11.39-9.79,17.66Z"/></g></g><ellipse id="snude-2" cx="51.89" cy="46.85" rx="3.28" ry="4.1" transform="translate(-17.98 49.16) rotate(-43.97)"/><g id="knurhår-h"><polygon points="57.01 48.9 57.1 48.69 65.5 51.94 65.41 52.15 57.01 48.9"/><polygon points="56.27 50.23 56.43 50.06 62.97 56.18 62.81 56.36 56.27 50.23"/><polygon points="60.19 58.84 54.84 51.64 55.02 51.5 60.38 58.7 60.19 58.84"/></g><g id="knurhår-v"><polygon points="38.82 42.03 38.91 41.82 47.3 45.06 47.21 45.28 38.82 42.03"/><polygon points="41.35 37.78 41.51 37.61 48.05 43.74 47.89 43.91 41.35 37.78"/><polygon points="49.29 42.47 43.94 35.27 44.12 35.13 49.48 42.32 49.29 42.47"/></g><g id="_je-v"><g><path class="cls-9" d="M62.66,29.23c-.55,1.1-4.8-2.66-5.73-4.13-.93-1.48,.06-5.55,2.76-6.11,2.7-.56,4.95,1.24,5.38,3.59,.43,2.35-1.85,5.55-2.4,6.65Z"/><path class="cls-10" d="M58.34,26.9c-.67-.65-1.24-1.29-1.51-1.73-.53-.83-.47-2.44,.14-3.83,.59-1.34,1.55-2.22,2.69-2.46,2.88-.6,5.1,1.44,5.51,3.68,.36,1.95-1.09,4.43-1.95,5.91-.19,.33-.36,.61-.46,.81h0c-.06,.11-.17,.25-.42,.26-.82,.06-2.64-1.33-4-2.65Zm5.32-6.67c-.95-.93-2.35-1.46-3.95-1.12-1.45,.3-2.2,1.58-2.52,2.32-.58,1.32-.64,2.84-.15,3.61,.86,1.37,4.26,4.36,5.31,4.28,.14-.01,.2-.08,.22-.13,.11-.21,.27-.5,.46-.83,.85-1.45,2.27-3.89,1.93-5.75-.16-.88-.62-1.73-1.29-2.38Z"/></g><path class="cls-5" d="M63.58,28.32c-1.18,1.45-.57,1.85-3.09,.27-2.52-1.58-1.75-3.91-.74-5.93,1.02-2.02,2.37-2.27,4.38-.64,2.01,1.63,.63,4.86-.55,6.31Z"/></g><g id="_je-h"><g><path class="cls-9" d="M67.34,33.27c-1.08,.59,2.81,4.72,4.31,5.61,1.5,.89,5.53-.24,6-2.96,.47-2.72-1.4-4.92-3.75-5.27-2.35-.35-5.47,2.04-6.55,2.62Z"/><path class="cls-10" d="M69.81,37.52c-1.36-1.32-2.81-3.1-2.78-3.93,0-.25,.14-.37,.25-.43h0c.2-.11,.48-.28,.79-.48,1.45-.91,3.87-2.45,5.83-2.15,2.24,.34,4.35,2.5,3.85,5.4-.2,1.16-1.04,2.15-2.36,2.78-1.36,.65-2.97,.77-3.81,.27-.45-.26-1.1-.81-1.77-1.46Zm-2.42-4.15h0c-.05,.03-.12,.08-.13,.23-.04,1.05,3.05,4.37,4.44,5.18,.79,.46,2.3,.35,3.6-.27,.72-.35,1.97-1.15,2.23-2.61,.38-2.2-.88-4.72-3.66-5.14-1.87-.28-4.25,1.22-5.67,2.12-.32,.2-.6,.38-.81,.49Z"/></g><path class="cls-5" d="M68.22,32.32c-1.41,1.23-1.83,.64-.17,3.11,1.66,2.47,3.96,1.63,5.94,.55s2.19-2.45,.5-4.41c-1.69-1.96-4.86-.48-6.27,.76Z"/></g><path class="cls-3" d="M48.42,52.53c-.96-.74-1.4-1.47-2.08-2.24-2.95,1.04-9.3,9.06-5.58,12.25,3.72,3.2,9.46-5.47,10.79-8.03-.87-.86-2.16-1.24-3.13-1.98Z"/><g class="cls-11"><polygon class="cls-2" points="40.63 62.33 40.43 62.17 47.43 53.08 47.63 53.23 40.63 62.33"/></g></svg>