<?xml version="1.0" encoding="UTF-8"?><svg id="ellie" xmlns="http://www.w3.org/2000/svg" width="115" height="175" viewBox="0 0 115 175"><defs><style>.cls-1{fill:#000010;}.cls-2{fill:#c69c6d;}.cls-3{fill:#42210b;}.cls-4,.cls-5{fill:#965529;}.cls-6{fill:#603813;}.cls-7{fill:#fff;}.cls-7,.cls-5,.cls-8{stroke-miterlimit:10;stroke-width:.25px;}.cls-7,.cls-8{stroke:#42210b;}.cls-5{stroke:#603813;}.cls-8{fill:#736357;}</style></defs><g id="krop-2"><g id="hals"><path d="M74.94,73.45c-13.92,2.76-30.12,3.1-44.1,.54-3.31-.61-3.72-1.71-3.05-4.01,1.18-4.07,3.27-8.99,3.91-13.11,.36-2.32,1.4-3.48,3.92-3.02,10.64,1.96,20.75,2.38,31.34-.08,2.51-.58,3.38,.42,4.19,2.67,1.44,3.98,5.09,8.87,6.56,12.89,.83,2.27,.52,3.46-2.77,4.11Z"/><path class="cls-1" d="M65.75,67.85c-8.34,.52-19.18,.47-27.42-.8-3.7-.57-5.15-2.29-5.52-5.96-.6-5.86,.48-14.28,1.68-20,.75-3.58,2.65-5.6,6-5.13,7.46,1.06,14.36,1.1,21.73-.8,3.31-.85,5.43,1.14,6.65,4.9,1.95,6.01,2.24,15.7,2.44,22.02,.12,3.96-1.81,5.53-5.56,5.77Z"/></g><rect id="numse" class="cls-4" x="37.13" y="130.85" width="35.42" height="34.31"/><g id="torso"><path class="cls-4" d="M72.57,141.13c-10.14-.77-26,.78-35.12-.47-6.34-.87-9.85-4.34-12.53-7.76-6.18-7.88-2.85-46.55,.95-56.55,1.65-4.33,3.65-9.82,10.45-10.01,9.79-.28,22.59-1.44,32.52-1.52,6.9-.06,8.79,4.61,11.29,9.27,5.78,10.76,3.12,42.91,3.26,57.07,.06,6.13-3.77,10.51-10.81,9.98Z"/></g><g id="bagben-v"><ellipse class="cls-4" cx="22.1" cy="146.43" rx="14.12" ry="24.38" transform="translate(-93.31 53.63) rotate(-42.61)"/><ellipse class="cls-5" cx="15.57" cy="167.65" rx="15.71" ry="4.29" transform="translate(-27.47 4.87) rotate(-9.51)"/></g><g id="bagben-h"><ellipse class="cls-4" cx="83.02" cy="146.67" rx="24.38" ry="14.12" transform="translate(-81.13 108.46) rotate(-47.39)"/><ellipse class="cls-5" cx="89.8" cy="166.92" rx="4.29" ry="15.71" transform="translate(-89.66 227.92) rotate(-80.49)"/></g><g id="mave"><path class="cls-2" d="M68.31,113.43c2.7,10.5-3.19,39.96-14.3,38.46-11.11-1.51-19.52-26.5-15.64-38.79,3.88-12.29-9.7-45.95,15.57-46.87,25.27-.91,11.67,36.7,14.37,47.2Z"/></g><g id="hale"><path class="cls-4" d="M97.46,101.24c.06,.02,0-.03,0-.03,3.1-.86,.49-3.77,5.53-1.32,24.57,11.97,6.43,23.62-8.71,32.48-3.11,1.82-4.98,1.39-7.07,.14-.27,.2,0,0,0,0-2.09-1.26-1.08-3.73,.96-4.66,9.96-4.57,35.36-14.22,11.28-21.84-4.94-1.56-1.05-2.26-1.99-4.76Z"/><path d="M100.22,102.56c-.41,1.1-.41,2.32-.87,3.4-2.67-.77-10.45-3.76-9.26-7.39,1.2-3.63,9.54-.4,11.76,.94-.39,1.09-1.21,1.95-1.63,3.05Z"/><path d="M92.56,102.54c-2.27-1.28-2.97-2.92-3.92-5.28,2.59-1.22,5.2,.09,5.52-.05"/><path d="M101.55,99.22c.74,.42,.92,.9,1.15,1.58-.96,.26-1.82-.17-1.94-.14"/><path d="M100.37,100.1c.89,.43,1.11,.93,1.39,1.65-1.14,.3-2.17-.14-2.31-.11"/><path d="M99.69,101.21c.89,.43,1.11,.93,1.39,1.65-1.14,.3-2.17-.14-2.31-.11"/><path d="M99.69,102.97c.89,.43,1.11,.93,1.39,1.65-1.14,.3-2.17-.14-2.31-.11"/><path d="M99.55,104.89c.53,.59,1.03,.7,1.24,1.51-.92-.17-1.26-.26-2.06-.83"/></g><g id="pels-hals"><polyline points="63.69 64 61.41 65.82 59.13 64.66"/><polyline points="66 64.48 63.72 66.3 61.44 65.15"/><polyline points="73.1 63.44 70.6 66.61 68.4 64.97"/><polyline points="75.84 66.7 72.69 67.14 71.56 64.82"/><polyline points="76.97 67.51 74.64 67.86 73.82 66.15"/><polyline points="75.77 68.76 76.33 67.78 76.74 68.24"/><polyline points="57.57 63.85 54.95 67.24 52.67 65.51"/><polyline points="59.74 64.32 57.33 66.9 55.1 65.47"/><polyline points="51.23 62.92 48.54 67.26 46.41 65.21"/><polyline points="53.53 63.53 50.83 67.87 48.7 65.82"/><polyline points="48.85 64.04 46.15 68.42 44.02 66.35"/><polyline points="46.02 65.43 43.74 67.25 41.46 66.09"/><polyline points="43.65 66.15 40.16 67.16 39.85 64.99"/><polyline points="41.58 64.2 38.88 68.58 36.75 66.51"/><polyline points="55.75 63.34 53.22 66.66 51.03 64.97"/><polyline points="39.18 65.88 35.5 67.91 34.77 65.58"/><polyline points="36.14 65.48 33.67 68.41 31.46 66.86"/><polyline points="33.56 66.49 31.03 69.81 28.84 68.12"/><polyline points="31.05 67.68 29.47 71.23 28.49 69.71"/><polyline points="68.66 63.6 66.38 65.42 64.1 64.27"/><polyline points="70.43 63.6 68.09 65.75 65.84 64.48"/></g></g><g id="forben"><g id="forben-h"><g><path class="cls-4" d="M72.92,116.39c-.71-.07-1.94,.01-2.62,.18-1.49,.36-2.63,.87-2.48,2.81,1.11,13.95,2.4,28.4,1.26,42.59-.16,1.97,1.66,2.22,3.37,1.02,.77-.54,1.95-.49,2.78-.13,1.85,.81,3.25,.33,3.1-1.62-1.12-14.06-1.38-28.42-2.62-42.35-.17-1.93-1.23-2.34-2.8-2.5Z"/><path class="cls-6" d="M70.5,163.82c-.31,0-.59-.07-.83-.2-.51-.29-.76-.88-.7-1.67,1.08-13.4-.02-27.05-1.07-40.25l-.19-2.32c-.17-2.08,1.18-2.58,2.56-2.92,.7-.17,1.93-.25,2.65-.18h0c1.66,.16,2.73,.66,2.9,2.6,.66,7.45,1.05,15.16,1.43,22.61,.33,6.49,.67,13.2,1.19,19.74,.07,.85-.15,1.48-.64,1.82-.59,.41-1.52,.38-2.61-.1-.75-.33-1.9-.43-2.67,.12-.7,.49-1.42,.75-2.03,.75Zm1.84-47.35c-.67,0-1.5,.08-2.01,.2-1.66,.4-2.53,.95-2.39,2.69l.19,2.32c1.06,13.21,2.15,26.87,1.07,40.28-.06,.71,.15,1.21,.59,1.46,.62,.35,1.65,.14,2.61-.54,.84-.59,2.09-.49,2.89-.14,1.02,.44,1.87,.49,2.39,.12,.42-.3,.61-.86,.55-1.63-.52-6.54-.86-13.25-1.19-19.74-.38-7.45-.77-15.16-1.43-22.61-.16-1.81-1.07-2.24-2.7-2.4h0c-.17-.02-.36-.02-.57-.02Z"/></g><g><ellipse class="cls-4" cx="73.24" cy="168.22" rx="6.65" ry="10.44" transform="translate(-100.01 228.61) rotate(-85.69)"/><path class="cls-6" d="M73.99,175c-.42,0-.84-.02-1.27-.05-2.8-.21-5.38-1.11-7.27-2.52-1.9-1.42-2.87-3.2-2.73-5.01,.14-1.81,1.37-3.42,3.47-4.54,2.08-1.11,4.77-1.6,7.57-1.39,5.8,.44,10.29,3.82,10,7.54-.14,1.81-1.37,3.42-3.47,4.54-1.76,.94-3.97,1.44-6.3,1.44Zm-1.5-13.35c-2.3,0-4.46,.49-6.2,1.42-2.03,1.08-3.22,2.63-3.35,4.37-.13,1.73,.81,3.44,2.64,4.82,1.85,1.39,4.39,2.27,7.15,2.48,2.76,.22,5.4-.28,7.45-1.37,2.03-1.08,3.22-2.63,3.35-4.36h0c.28-3.59-4.12-6.87-9.8-7.3-.42-.03-.84-.05-1.25-.05Z"/></g><path class="cls-4" d="M71.75,119.63c-1.34,.47-2.73-.32-4.07-.53,.12-2.9,.29-6.95,3.21-7.28,2.91-.33,3.76,3.65,4.67,5.96,0,.01,.03,.03-.03,.07-1.21,.62-2.43,1.31-3.77,1.78Z"/></g><g id="forben-v"><g><path class="cls-4" d="M34.96,116.34c.71-.07,1.94,.01,2.62,.18,1.49,.36,2.63,.87,2.48,2.81-1.11,13.95-2.4,28.4-1.26,42.59,.16,1.97-1.66,2.22-3.37,1.02-.77-.54-1.95-.49-2.78-.13-1.85,.81-3.25,.33-3.1-1.62,1.12-14.06,1.38-28.42,2.62-42.35,.17-1.93,1.23-2.34,2.8-2.5Z"/><path class="cls-6" d="M37.38,163.78c-.61,0-1.33-.26-2.03-.75-.77-.54-1.93-.44-2.67-.12-1.1,.48-2.02,.51-2.61,.1-.49-.34-.71-.97-.64-1.82,.52-6.54,.86-13.25,1.19-19.74,.38-7.45,.77-15.16,1.43-22.61,.17-1.94,1.24-2.44,2.9-2.6h0c.73-.08,1.96,.01,2.65,.18,1.39,.34,2.73,.84,2.56,2.92l-.19,2.33c-1.06,13.2-2.15,26.85-1.07,40.24,.06,.79-.19,1.38-.7,1.67-.24,.13-.52,.2-.83,.2Zm-3.38-1.35c.52,0,1.06,.12,1.49,.42,.97,.68,1.99,.89,2.61,.54,.44-.25,.64-.75,.59-1.46-1.08-13.41,.02-27.07,1.07-40.28l.19-2.33c.14-1.74-.73-2.29-2.39-2.69-.66-.16-1.89-.24-2.58-.18h0c-1.63,.16-2.54,.59-2.7,2.4-.66,7.45-1.05,15.16-1.43,22.61-.33,6.49-.67,13.2-1.19,19.75-.06,.77,.13,1.33,.55,1.63,.52,.37,1.37,.32,2.39-.12,.39-.17,.9-.29,1.41-.29Z"/></g><g><ellipse class="cls-4" cx="34.64" cy="168.17" rx="10.44" ry="6.65" transform="translate(-12.54 3.08) rotate(-4.31)"/><path class="cls-6" d="M33.89,174.96c-2.34,0-4.54-.5-6.3-1.44-2.1-1.12-3.33-2.73-3.47-4.54-.29-3.71,4.2-7.09,10-7.54,5.8-.44,10.75,2.22,11.04,5.94,.29,3.71-4.2,7.09-10,7.54-.43,.03-.85,.05-1.27,.05Zm1.48-13.35c-.41,0-.82,.02-1.24,.05-5.68,.43-10.07,3.71-9.8,7.3,.13,1.73,1.32,3.28,3.35,4.37,2.04,1.09,4.69,1.58,7.45,1.37,5.68-.43,10.07-3.71,9.79-7.3-.26-3.33-4.43-5.78-9.56-5.78Z"/></g><path class="cls-4" d="M36.13,119.59c1.34,.47,2.73-.32,4.07-.53-.12-2.9-.29-6.95-3.21-7.28s-3.76,3.65-4.67,5.96c0,.01-.03,.03,.03,.07,1.21,.62,2.43,1.31,3.77,1.78Z"/></g></g><g id="hoved"><g id="hoved-2"><path class="cls-4" d="M75.8,29.23c-1.54,13.92-9.64,27.45-20.71,27.72-11.07,.27-21.51-13.57-24.07-27.41C28.46,15.7,36.31,1.14,53.8,.95c17.5-.19,23.54,14.37,22,28.29Z"/></g><g id="_re-v"><path class="cls-6" d="M19.51,21.48c-.51-.52-1.35-1.2-1.75-2.03-1.41-2.96-1.8-4.79,.76-8.08C22.23,6.57,29,2.6,35.02,1.75c4.14-.59,7.07,.6,5.88,4.47-.33,1.08-1.91,2.97-2.34,3.57-1.53,2.16-4.03,5.53-6.54,5.61-3.64,.11-5.01,3.06-7.19,5.72-1.5,1.83-3.52,2.22-5.33,.36Z"/><path class="cls-6" d="M28.92,33.65c-4.21-3.47-5.29-9.73-9.64-12.99,3.97-5.1,8.74-13.01,15.79-7.96-4.29,7.06-15.55-16.95-.93,1.49,.38,6.08-1.21,14.64-5.21,19.46Z"/></g><g id="_re-h"><path class="cls-6" d="M87.39,19.87c.51-.52,1.35-1.2,1.75-2.03,1.41-2.96,1.8-4.79-.76-8.08C84.67,4.97,77.9,.99,71.88,.14c-4.14-.59-7.07,.6-5.88,4.47,.33,1.08,1.91,2.97,2.34,3.57,1.53,2.16,4.03,5.53,6.54,5.61,3.64,.11,5.01,3.06,7.19,5.72,1.5,1.83,3.52,2.22,5.33,.36Z"/><g id="_re-h-2"><path class="cls-6" d="M77.98,32.04c4.21-3.47,5.29-9.73,9.64-12.99-3.97-5.1-8.74-13.01-15.79-7.96,4.29,7.06,15.55-16.95,.93,1.49-.38,6.08,1.21,14.64,5.21,19.46Z"/></g></g><g id="snude"><ellipse id="snude-2" cx="54.48" cy="43.27" rx="3.27" ry="4.09" transform="translate(9.72 96.53) rotate(-88.41)"/><g id="knurhår-h"><polygon points="59.59 41.18 59.5 40.97 67.79 37.46 67.87 37.67 59.59 41.18"/><polygon points="59.97 42.65 59.97 42.42 68.92 42.26 68.92 42.49 59.97 42.65"/><polygon points="68.77 46.09 59.93 44.66 59.96 44.43 68.8 45.86 68.77 46.09"/></g><g id="knurhår-v"><polygon points="41.75 48.91 41.66 48.69 49.95 45.19 50.04 45.4 41.75 48.91"/><polygon points="40.62 44.11 40.62 43.88 49.57 43.72 49.57 43.95 40.62 44.11"/><polygon points="49.58 41.94 40.74 40.51 40.77 40.28 49.61 41.71 49.58 41.94"/></g></g><g id="_je-v"><g><path class="cls-7" d="M50.01,23.16c.37,1.17-5.29,1.43-6.98,1.02-1.69-.41-3.81-4.01-2.26-6.29,1.55-2.28,4.42-2.55,6.35-1.17,1.94,1.38,2.52,5.26,2.89,6.44Z"/><path class="cls-8" d="M45.28,24.49c-.94,0-1.78-.07-2.29-.19-.96-.23-2.03-1.43-2.56-2.84-.51-1.37-.43-2.66,.23-3.63,1.65-2.43,4.67-2.51,6.51-1.2,1.61,1.15,2.29,3.93,2.7,5.6,.09,.37,.17,.69,.24,.9h0c.04,.12,.05,.3-.12,.48-.55,.61-2.82,.88-4.72,.88Zm-.8-8.47c-1.33,0-2.7,.59-3.62,1.95-.83,1.22-.48,2.67-.21,3.42,.5,1.35,1.51,2.48,2.39,2.7,1.56,.38,6.08,.16,6.78-.63,.1-.11,.08-.19,.07-.25-.07-.22-.15-.54-.24-.92-.4-1.63-1.07-4.36-2.6-5.46-.73-.52-1.64-.81-2.58-.81Z"/></g><path class="cls-3" d="M50.03,21.86c.16,1.86,.87,1.73-2.04,2.34-2.91,.62-3.98-1.58-4.64-3.74s.12-3.28,2.7-3.51c2.58-.23,3.82,3.04,3.98,4.9Z"/></g><g id="_je-h"><g><path class="cls-7" d="M56.17,22.8c-.37,1.17,5.29,1.43,6.98,1.02,1.69-.41,3.81-4.01,2.26-6.29-1.55-2.28-4.42-2.55-6.35-1.17-1.94,1.38-2.52,5.26-2.89,6.44Z"/><path class="cls-8" d="M60.89,24.13c-1.9,0-4.17-.27-4.72-.88-.16-.18-.15-.36-.12-.48h0c.07-.21,.15-.53,.24-.9,.41-1.66,1.09-4.45,2.7-5.59,1.85-1.32,4.86-1.24,6.51,1.2,.66,.97,.74,2.26,.23,3.63-.53,1.42-1.6,2.61-2.56,2.84-.5,.12-1.35,.19-2.28,.19Zm-4.62-1.29h0c-.02,.05-.03,.14,.07,.25,.7,.78,5.22,1.01,6.78,.63,.89-.21,1.9-1.35,2.4-2.7,.28-.75,.62-2.19-.21-3.41-1.25-1.84-3.91-2.77-6.2-1.14-1.54,1.1-2.21,3.83-2.6,5.46-.09,.37-.17,.69-.24,.92Z"/></g><path class="cls-3" d="M56.14,21.5c-.16,1.86-.87,1.73,2.04,2.34,2.91,.62,3.98-1.58,4.64-3.74s-.12-3.28-2.7-3.51c-2.58-.23-3.82,3.04-3.98,4.9Z"/></g></g></svg>