<?xml version="1.0" encoding="UTF-8"?><svg id="baggrund" xmlns="http://www.w3.org/2000/svg" width="500" height="500" viewBox="0 0 500 500"><defs><style>.cls-1,.cls-2{fill:#ffec55;}.cls-3{opacity:.56;}.cls-2{opacity:.43;}</style></defs><g id="sol"><ellipse class="cls-1" cx="237.55" cy="249.21" rx="123.58" ry="120.84"/><ellipse class="cls-2" cx="252.02" cy="258.06" rx="123.58" ry="120.84"/><path class="cls-1" d="M101.91,311.31c-31.54,13.96-67.82,22.46-101.91,28.57,22.53-26.55,47.76-55.95,71.65-81.26"/><path class="cls-1" d="M308.12,397.9c3.98,33.19,1.09,69.03-3.48,102.1-19.22-28.86-40.4-61.08-57.96-90.81"/><path class="cls-1" d="M419.13,294.95c28.46,19.13,54.42,44.97,77.13,70.18-35.19-5.29-74.3-11.38-109.07-18.43"/><path class="cls-1" d="M179.02,411.91c-26.08,22.04-58.34,40.16-89.2,55.38,13.72-31.64,29.18-66.74,44.57-97.56"/><path class="cls-1" d="M357.18,130.82c27.75-20.07,61.35-35.77,93.32-48.68-16.18,30.54-34.37,64.41-52.16,94.01"/><path class="cls-1" d="M199.05,100.93c.26-33.41,7.68-68.64,16.41-100.93,15.41,30.91,32.34,65.38,46,96.95"/><path class="cls-1" d="M95.93,185.76c-29.95-16.9-57.96-40.67-82.67-64.07,35.52,2.58,75,5.67,110.24,10.04"/><g class="cls-3"><path class="cls-1" d="M317.86,397.01c3.98,33.19,1.09,69.03-3.48,102.1-19.22-28.86-40.4-61.08-57.96-90.81"/></g><g class="cls-3"><path class="cls-1" d="M424.14,289.22c28.11,19.6,53.61,45.86,75.86,71.45-35.09-5.87-74.08-12.61-108.72-20.23"/></g><g class="cls-3"><path class="cls-1" d="M366.28,140c25.86-22.28,57.93-40.7,88.64-56.2-13.4,31.76-28.51,67.01-43.6,97.97"/></g><g class="cls-3"><path class="cls-1" d="M201.39,101.17c2.82-33.3,12.9-67.91,24.08-99.49,13,31.91,27.25,67.49,38.46,99.94"/></g><g class="cls-3"><path class="cls-1" d="M86.82,201.01c-26.99-21.01-51-48.54-71.81-75.23,34.72,7.65,73.28,16.38,107.45,25.76"/></g><g class="cls-3"><path class="cls-1" d="M107.79,316.12c-31.11,14.82-67.13,24.32-101.02,31.36,21.73-27.16,46.08-57.24,69.22-83.19"/></g><g class="cls-3"><path class="cls-1" d="M178.66,412.57c-23.85,24.28-54.22,45.19-83.48,63.09,10.61-32.72,22.63-69.05,34.99-101.12"/></g></g></svg>