<?xml version="1.0" encoding="UTF-8"?><svg xmlns="http://www.w3.org/2000/svg" width="250" height="150" viewBox="0 0 250 150"><defs><style>.bs{fill:#f2f2f2;}.bt{fill:#0071bc;}.bu{fill:#fff;}.bv{fill:#efc5a2;}.bw{fill:#fbb03b;}.bx{fill:#ff1d25;}.by{fill:#fddbb4;}.c`{fill:#b3b3b3;}.ca{fill:#29abe2;}</style></defs><g id="a"/><g id="b"/><g id="c"><g id="d"/><g id="e"/><g id="f"/><g id="g"/></g><g id="h"><g id="i"/><g id="j"><g id="k"/><g id="l"/><g id="m"/><g id="n"/></g><g id="o"/><g id="p"><g id="q"><g id="r"><g id="s"/><g id="t"/></g></g><g id="u"/></g></g><g id="v"/><g id="w"><g id="x"/><g id="y"/><g id="a`"/><g id="aa"/><g id="ab"/><g id="ac"/><g id="ad"/></g><g id="ae"><g id="af"/><g id="ag"/><g id="ah"/><g id="ai"/><g id="aj"/></g><g id="ak"><g id="al"/><g id="am"/></g><g id="an"><path class="bx" d="M117.07,146.72c-14.38,2.1-14.8-7.1-27.14,1.15-9.31,6.22-10.03-2.53-17.3-8.62-1.1-.92-2.04-1.7-2.51-2.97-3.14-8.38-3.44-6.96,2.69-14.78,8.13-10.37,22.42-6.21,32.62-2.03,7.69,3.15,16.37,5.42,24.13,6.92,1.18,.23,3.81,2.55,3.16,4.19-4.33,10.85-4.8,14.55-15.65,16.13Z"/><g id="ao"><path class="bs" d="M82.09,96.73c-1.53,15.23-15.31,27.3-32.02,27.64-19.54,.39-31.46-3.62-33.81-28.24"/><path class="bt" d="M16.73,96.72c-.05-1.3-.44-1.81-.4-3.25,.56-22.46,12.42-26.32,31.85-27.87,19.43-1.55,24.6,7.94,33.16,24.21,1.71,3.24,1.36,4.03,1.44,7.26"/><path class="bt" d="M6.02,92.84c1.56-.08,3.1,2.47,4.21,3.24,2.35,1.61,6.07,2.97,6.86-.74,1.9-8.93,6.02-15.81,11.75-22.32,2.37-2.7,1.66-4.14-.41-6.27-.98-1-2.46-1.94-3.84-2.24-2.92-.64-3.85-.74-6.65,1.49-6.74,5.38-10.27,15.32-14.33,23.2-1.68,3.27-.89,3.8,2.41,3.63Z"/><path class="bt" d="M91.02,91c-1.54-.03-3.18,2.76-4.15,3.43-2.06,1.43-5.7,3.45-6.43-.05-1.76-8.43-5.52-14.03-10.76-20-2.17-2.48-.94-4.27,.84-6.3,.84-.96,2.59-2.36,3.72-2.95,2.41-1.25,4.26-2.02,6.25,.67,4.79,6.49,9.39,13.39,13.23,21.51,1.59,3.37,.56,3.75-2.71,3.69Z"/><path class="by" d="M82.9,96.93c.09,3.38-29.13,7.19-33.37,7.52-4.24,.33-33.08-4.1-33.27-7.35-.19-3.25,28.73-4.2,33.07-4.32,4.33-.13,33.49,.77,33.58,4.15Z"/><path d="M82.86,93.55c-.06,0-.12,.01-.19,.02-3.06-8.08-3-7.92-7.97-14.85,.04-.05,.08-.1,.12-.15,5,6.97,4.95,6.86,8.03,14.98Z"/><path d="M15.28,93.05c.06,0,.13,.02,.19,.02,3.04-8.1,2.97-7.93,7.97-14.85-.04-.05-.09-.1-.13-.15-5.03,6.96-4.98,6.84-8.03,14.98Z"/><ellipse class="by" cx="8.53" cy="97.86" rx="8.53" ry="8.64"/><ellipse class="by" cx="89.81" cy="97" rx="8.53" ry="8.64"/><ellipse class="by" cx="26.56" cy="114.96" rx="10.46" ry="12.96" transform="translate(-42.39 19.22) rotate(-22.75)"/><ellipse class="by" cx="70.61" cy="115.37" rx="12.96" ry="10.46" transform="translate(-63.09 135.87) rotate(-67.25)"/><ellipse class="bv" cx="49.17" cy="99.59" rx="1.22" ry="1.73"/></g><path class="bx" d="M89.11,68.65c-.16,.31-.76,.35-1.15,.14s-.8-.53-1.09-.83c-.08,.19-.02,.34-.33,.45-.71,.25-1.42,.17-2.15-.03-.24-.07-.45-.17-.67-.26,.31,.66,.56,1.36,.68,2.05,.06,.33-.32,.56-.74,.41-.94-.33-1.35-.95-1.67-1.63-.32-.68-.59-2.34-2.02-2.03-1.42,.31-.16,1.99,.16,2.68,.32,.69,.3,1.52-.02,2.18-.32,.66-.75,1.04-1.69,1.13-.93,.09-1.47-.56-1.83-.98-.36-.42-.52-.71-.8-1.05s-.28-.76-.77-.92-.82,.34-1.23,.39c-.41,.05-.62-.16-.93-.3-.35,1.57-1.67,2.12-3.64,2.7-.3,.09-.64-.01-.83-.23-.36-.4-.39-.85-.6-1.3-.34-.73-.58-1.17-1.74-1.4-1.52-.3-3.34-.41-4.94-.58,.66,1.01,1.37,1.87,1.03,3.03-.25,.84-1.22,1.34-2.46,1.23-.72-.06-1.13-.52-1.66-.88-.54-.36-1.54-.86-2.1-1.19-.98-.58-2.92-1.79-3.58-2.1s-.07-.03-.27-.12-.14-.05-.18-.02c-.94,.64-1.68,1.32-2.78,1.84-.56,.26-1.2,.61-1.94,.45-1.54-.34-2.23-1.35-2.96-2.29-.48-.62-.87-1.14-1.37-1.72,0,0-.02-.04-.03-.02-.01,.02,0,.08,0,.12-.02,.44,.15,1.01-.16,1.4-.5,.62-1.61,.88-2.45,.97-1.39,.15-2.09-.15-3.1-.73-1.01-.58-1.88-1.28-2.89-1.86-.85,.86-1.65,1.7-3.25,1.68-.95,0-.97-.71-1.29-1.23-.32-.52-.76-1.11-1.19-1.6-.35,.4-.57,.72-1.01,1.11-.44,.39-.95,.92-1.74,1-.79,.08-1.31-.33-1.63-.79-.48-.68-.94-1.31-1.43-1.98-.28,.19-.5,.44-.75,.64-.46,.37-1.06,.31-1.32-.13-.14-.25-.13-.56-.22-.76-.08-.2-.07-.25-.14-.42-1.33,.63-2.44,1.41-3.55,2.22-.47,.34-1.15,.05-1.05-.4,.26-1.25,.76-2.38,1.9-3.36,.57-.49,1.38-.79,2.11-1.14,.72-.35,1.48-.61,2.22-.95,.17-.83,1.06-1.32,2.17-1.08,1.11,.24,1.89,.65,2.94,.92,1.4,.03,2.58,.39,3.66,.99,.42,.23,1,.28,1.38,.38,1.98,.51,3.39,.86,5.63,1.02,0,0-4,.08,2.21-.1,6.22-.19,27.96,.97,37.03,1.21,2.61-.77,4.32-.52,6.72-.77,1.13-.12,1.72,.26,2.11,1.01,.79,.61,1.7,1.14,2.43,1.78,.73,.64,1.38,1.21,.94,2.07Z"/><ellipse class="by" cx="154.7" cy="79.64" rx="58.92" ry="62.17"/><g><path class="bx" d="M96.97,64.93c.27-.65,1.29-.53,1.62,.08,.33,.61,.13,1.4-.24,1.99-.37,.59-.89,1.06-1.25,1.65-.36,.59-.56,1.39-.21,1.99,.24,.43,.7,.66,1.04,1.01,.77,.76,.9,2.13,.29,3.05-.63,.94-1.91,1.43-2.13,2.55-.23,1.21,.92,2.17,1.47,3.27,.55,1.09,.47,2.5-.2,3.52-.27,.41-.63,.77-.82,1.23-.41,1.02,.18,2.19,.93,2.97,.75,.77,1.7,1.36,2.28,2.28,.76,1.19,.8,2.75,.54,4.17s-.78,2.76-1.03,4.18c-.12,.66-.17,1.38,.13,1.98,.5,1.01,1.76,1.27,2.56,2.04,2,1.91,.39,5.86,2.16,8,.47,.58,1.14,.94,1.63,1.51,1.29,1.51,1.05,4.11,2.54,5.39,1.07,.92,2.74,.87,3.63,1.97,.99,1.22,.52,3.22,1.43,4.51,1.2,1.71,4.23,1.36,4.99,3.33,.13,.32,.17,.69,.37,.97,.32,.45,.92,.54,1.46,.59-.32,.71-1.26,.77-1.99,.6-3.84-.86-6.35-4.66-8.45-8.17-5.07-8.49-10.12-17.22-12.5-26.94-.76-3.1-1.23-6.27-1.71-9.43-.26-1.72-.52-3.45-.4-5.19,.11-1.69,.57-3.34,.72-5.03,.32-3.59-.68-7.57,1.18-10.6"/><path class="bx" d="M97.23,65.15l1.17,.81c-.08,.42-.25,.79-.51,1.11-.2,.28-.44,.53-.65,.81-.32,.42-.62,.84-.77,1.37-.42,1.55,.6,1.82,1.38,2.84,1.93,2.56-2.9,3.62-1.96,6.33,.51,1.46,1.85,2.27,1.68,4.01-.14,1.47-1.64,2.29-1.48,3.83,.1,1.01,.75,1.85,1.43,2.51,1.36,1.3,2.56,2.26,2.59,4.38,.02,1.69-.63,3.28-1.01,4.9-.28,1.19-.5,2.51,.37,3.49,.8,.91,2.07,1.1,2.72,2.2,.69,1.18,.57,2.72,.66,4.05,.07,.97,.2,1.97,.68,2.82,.31,.54,.74,.91,1.2,1.31,.82,.71,1.32,1.44,1.65,2.5,.36,1.15,.58,2.42,1.4,3.33,.77,.86,1.84,1.04,2.82,1.49,1.94,.89,1.45,2.84,2.13,4.56,.39,.97,1.17,1.55,2.07,1.94,.99,.43,2.39,.65,3.05,1.63,.36,.53,.34,1.22,.84,1.66,.39,.34,.94,.41,1.43,.47l-.2-.57c-.75,1.15-2.62,.26-3.5-.21s-1.63-1.06-2.33-1.75c-1.45-1.41-2.58-3.15-3.65-4.89-2.71-4.44-5.34-8.96-7.65-13.64-2.25-4.58-4.16-9.36-5.34-14.38-.62-2.63-1.04-5.31-1.44-7.99s-.75-5.08-.34-7.68c.37-2.3,.63-4.45,.57-6.78-.06-2.39-.17-4.9,1.06-7.01,.22-.38-.29-.82-.52-.44-2.15,3.7-.8,8.37-1.48,12.44-.21,1.27-.47,2.54-.51,3.83-.05,1.47,.15,2.92,.36,4.37,.42,2.85,.85,5.71,1.46,8.52,1.24,5.67,3.39,11.04,5.97,16.16,2.46,4.88,5.16,9.73,8.14,14.28,1.28,1.95,2.75,3.87,4.69,5.13,1.27,.83,3.92,2.16,5.04,.45,.13-.2,.06-.54-.2-.57-.36-.04-.83-.06-1.12-.32-.31-.28-.37-.87-.56-1.24-.17-.34-.41-.62-.7-.86-.8-.67-1.86-.88-2.79-1.28-1.57-.69-1.83-1.85-2.12-3.49-.2-1.13-.54-2.1-1.52-2.71-1.09-.68-2.49-.7-3.33-1.82-.93-1.23-.91-2.99-1.68-4.31s-2.2-1.79-2.65-3.3c-.41-1.37-.23-2.86-.44-4.27-.13-.87-.39-1.72-.96-2.37-.36-.41-.81-.68-1.27-.95-1.18-.72-1.74-1.38-1.5-2.94,.43-2.81,2.17-5.89,.43-8.61-.72-1.12-1.95-1.71-2.71-2.78s-.61-1.91,.08-2.96c.35-.54,.65-1.04,.78-1.69,.22-1.18-.11-2.23-.74-3.2-.56-.88-1.48-1.84-.75-2.94,.36-.55,.99-.89,1.43-1.37,.7-.75,1-1.77,.7-2.81-.18-.61-.52-1-.96-1.41-1.38-1.32-.54-2.23,.34-3.36,.64-.83,1.37-2.22,.51-3.18-.56-.62-1.53-.6-1.99,.11-.24,.37,.28,.81,.52,.44h0Z"/></g><ellipse class="bu" cx="143.89" cy="54.21" rx="25.4" ry="30.1" transform="translate(40.27 167.82) rotate(-68.28)"/><ellipse class="bu" cx="155.99" cy="106.4" rx="30.8" ry="24.83" transform="translate(-25.19 159.58) rotate(-50.66)"/><path d="M113.11,113.85c6.95-11.48,3.95-26.8-2.9-37.59-1.92-3.02-4.35-5.63-7.37-7.45-.39-.23-.74,.39-.35,.63,6.74,4.05,10.53,12.29,12.55,19.85,2.17,8.14,1.88,16.91-2.53,24.2-.24,.4,.36,.76,.6,.37h0Z"/><path d="M212.25,89.01c2.37,.82,4.88,1.47,7.37,1.67,1.27,.1,3.49-.18,3.61-1.93,.11-1.6-2.98-1.95-4-1.54-1.82,.72-1.48,3.24-.94,4.75,1.57,4.46,6.37,6.37,10.62,6.24,1.68-.05,2.2-1.74,1.2-3.07-.38-.51-1.16-1.34-1.85-1.32-.83,.02-1.24,1.21-1.53,1.83-1.01,2.21-.8,4.7,.49,6.74s3.46,3.32,5.7,4c.43,.13,.63-.56,.2-.69-3.57-1.08-7.4-4.39-6.15-8.75,.22-.75,.78-2.62,1.74-2.15,.3,.15,.85,.75,1.02,1.05,.57,1.01-.15,1.55-1.14,1.64-1.85,.18-4.05-.43-5.68-1.3s-3.1-2.33-3.84-4.15c-.34-.83-.58-1.84-.48-2.75,.2-1.79,1.91-1.61,3.12-1.17,.68,.25,1.08,.57,.48,1.29-.29,.34-.82,.47-1.23,.54-.77,.13-1.55,.02-2.31-.09-2.1-.29-4.16-.82-6.18-1.51-.43-.15-.63,.55-.2,.69h0Z"/><path d="M209.52,77.64c3.33,1.83,7.02,2.84,10.79,2.87,1.5,.01,3.86,.16,5.07-.94,.84-.76,.93-2.21-.15-2.77-1.22-.63-3.19-.57-4.1,.59-.96,1.21-.73,3.11-.22,4.46,1.25,3.3,4.56,5.04,7.82,5.15,2.95,.1,9.41-.93,8.94-5.29-.05-.46-.74-.47-.69-.01,.43,3.95-5.96,4.73-8.59,4.56-3.33-.22-7.05-2.6-7.21-6.44-.06-1.35,.53-2.55,1.97-2.65,.4-.03,.9,0,1.28,.13,1,.33,1.09,1.16,.34,1.86-.63,.59-2.08,.54-2.87,.59s-1.64,.06-2.46,.02c-3.35-.17-6.61-1.12-9.57-2.75-.39-.22-.75,.41-.35,.63h0Z"/><ellipse class="ca" cx="111.34" cy="103.47" rx="8.86" ry="9.35"/><ellipse class="bt" cx="111.34" cy="103.47" rx="3.54" ry="3.74"/><path class="bt" d="M104.31,107.53c-.15-.66-.08-1.38,.21-2.1,.39-.95,1.12-1.78,2.07-2.35,2-1.18,4.35-.78,5.24,.9,.89,1.67-.02,4-2.02,5.18-.95,.56-2.01,.79-2.98,.64-1.01-.16-1.82-.7-2.26-1.53-.12-.23-.21-.48-.27-.73Zm6.93-2.6c-.04-.17-.1-.34-.18-.49-.65-1.23-2.46-1.47-4.03-.54-.78,.46-1.38,1.13-1.69,1.9-.29,.72-.29,1.43,.02,2.01,.3,.57,.88,.95,1.61,1.07,.78,.12,1.64-.07,2.42-.53h0c1.37-.81,2.12-2.25,1.86-3.41Z"/><g><path class="by" d="M119.23,37.52c10.51-11.72,23.54-14.56,37-7.09,13.46,7.47,20.7,21.75,14.96,36.62-16.71-10.9-34.83-19.52-51.96-29.52Z"/><path class="c`" d="M118.87,37.58l.2-.22c10.74-11.98,23.98-14.51,37.26-7.14,14.44,8.01,20.5,22.85,15.06,36.91l-.1,.26-.22-.14c-10.24-6.68-21.19-12.6-31.77-18.32-6.66-3.6-13.55-7.33-20.18-11.2l-.25-.15Zm53.4,13.35c-1.83-8.13-7.44-15.46-16.14-20.29-13.01-7.22-25.98-4.8-36.54,6.83,6.54,3.81,13.34,7.49,19.92,11.04,10.52,5.69,21.39,11.56,31.58,18.19,1.99-5.29,2.33-10.69,1.18-15.78Z"/></g><g><path class="by" d="M141.68,133.6c14.38,5.49,27.23,1.85,36.08-11.2,8.84-13.05,9.23-29.25-2.23-39.81-10.29,17.66-22.8,33.95-33.85,51.01Z"/><path class="c`" d="M141.5,133.47c4.27-6.6,8.84-13.19,13.26-19.57,7.02-10.13,14.28-20.61,20.58-31.43l.14-.24,.2,.18c10.84,9.99,11.75,26.11,2.26,40.12-8.73,12.89-21.63,16.9-36.33,11.29l-.27-.1,.16-.25Zm34.08-50.52c-6.28,10.75-13.49,21.16-20.47,31.22-4.36,6.3-8.87,12.8-13.09,19.31,14.38,5.38,27,1.4,35.55-11.22,5.72-8.44,7.61-17.65,5.78-25.78-1.14-5.09-3.74-9.75-7.77-13.53Z"/></g><g><polygon points="139.37 69.5 139.06 70.77 149.54 74.56 149.85 73.3 139.37 69.5"/><polygon points="141.53 76.49 140.71 75.51 148.46 67.15 149.28 68.13 141.53 76.49"/></g><g><polygon points="143.31 86.42 143 87.69 153.48 91.48 153.79 90.22 143.31 86.42"/><polygon points="145.47 93.41 144.65 92.43 152.4 84.06 153.22 85.05 145.47 93.41"/></g><path class="bt" d="M211.32,9.55c9.43-6.26,22.57,5.64,25.74,10.92,3.18,5.28,8.29,24.04-1.06,30.26-9.36,6.22-23.24-6.73-26.4-12.02-3.17-5.29-7.7-22.9,1.72-29.16Z"/><path class="bw" d="M235.21,22.95c-4.35,6.35-8.71,12.7-13.07,19.04-4.35,6.35-8.71,12.69-13.06,19.03-3.22-5.03-6.43-10.07-9.64-15.1s-6.43-10.07-9.64-15.11c7.57-1.31,15.14-2.62,22.7-3.92,7.57-1.31,15.14-2.62,22.7-3.93Z"/><path class="bw" d="M193.74,46.85c5.56,7.98,10.74,16.2,15.25,24.88,13.66-8.53,27.38-16.96,41.02-25.53"/><path class="bw" d="M196.57,53.64c-5.31-8.85-10.61-17.7-15.91-26.56,13.6-9.03,27.21-18.05,40.81-27.08"/><ellipse class="bw" cx="195.25" cy="49.03" rx="8.65" ry="26.39" transform="translate(2.12 105.84) rotate(-30.49)"/><g><path class="bx" d="M95.92,96.81c-1.92,.34-3.7,1.44-4.94,3.03-1.23,1.59-1.9,3.65-1.85,5.7,.03,1.06,.38,2.29,1.33,2.64,.34,.12,.71,.11,1.06,.02,1.48-.38,2.3-2.03,2.82-3.55,.86-2.51,1.4-5.14,1.61-7.81"/><path class="bx" d="M95.82,96.48c-3.96,.76-6.93,4.4-7.02,8.65-.04,1.64,.64,3.76,2.56,3.47,1.72-.26,2.66-2.06,3.22-3.6,.94-2.61,1.48-5.37,1.7-8.15,.04-.45-.63-.42-.66,.03-.17,2.11-.55,4.19-1.13,6.21-.43,1.5-.94,3.4-2.22,4.37-.65,.49-1.61,.71-2.22,.03-.55-.61-.62-1.59-.6-2.39,.04-1.88,.71-3.75,1.87-5.17,1.21-1.48,2.87-2.44,4.68-2.79,.42-.08,.22-.75-.2-.67h0Z"/></g><g><path class="bx" d="M83.45,64.43c.11-2.05-.51-4.13-1.71-5.75s-2.95-2.76-4.86-3.16c-.99-.21-2.2-.11-2.74,.79-.19,.32-.26,.71-.26,1.09,.03,1.61,1.37,2.82,2.65,3.69,2.13,1.44,4.44,2.58,6.86,3.38"/><path class="bx" d="M83.78,64.41c.17-4.24-2.53-8.1-6.45-9.14-1.51-.4-3.62-.17-3.77,1.87-.14,1.82,1.31,3.2,2.62,4.11,2.21,1.54,4.64,2.71,7.16,3.56,.41,.14,.52-.55,.12-.69-1.91-.64-3.75-1.49-5.49-2.54-1.3-.78-2.94-1.72-3.55-3.25-.31-.78-.3-1.82,.46-2.29,.69-.43,1.61-.28,2.34-.09,1.72,.46,3.31,1.56,4.36,3.07s1.62,3.49,1.54,5.43c-.02,.45,.64,.39,.66-.05h0Z"/></g><g><path class="bx" d="M93.44,72.1c.54-1.85,.35-4.12-.53-6.28-.88-2.16-2.44-4.18-4.31-5.59-.97-.73-2.23-1.31-2.97-.76-.26,.2-.42,.51-.49,.87-.31,1.51,.8,3.37,1.94,4.88,1.88,2.5,4,4.82,6.3,6.88"/><path class="bx" d="M93.79,72.25c1.07-3.85-.89-8.92-4.67-12.01-1.46-1.2-3.66-2.13-4.25-.31-.53,1.62,.67,3.69,1.81,5.25,1.93,2.64,4.17,5.05,6.57,7.21,.39,.35,.65-.23,.27-.58-1.82-1.64-3.52-3.43-5.08-5.35-1.16-1.43-2.64-3.2-2.95-4.95-.15-.89,.07-1.86,.95-1.88,.79-.02,1.7,.61,2.41,1.19,1.67,1.36,3.05,3.25,3.82,5.23,.8,2.06,.92,4.13,.43,5.89-.11,.41,.58,.72,.69,.31h0Z"/></g><g><path class="bx" d="M92.85,75.09c-2.56,.06-5.04,1.06-6.85,2.76-1.81,1.71-2.92,4.11-3.08,6.63-.08,1.31,.24,2.88,1.45,3.49,.43,.22,.92,.28,1.39,.23,2-.19,3.27-2.05,4.12-3.8,1.42-2.91,2.43-6.03,3.01-9.25"/><path class="bx" d="M92.76,74.66c-5.3,.18-9.62,4.06-10.23,9.26-.24,2.01,.41,4.73,2.98,4.74,2.29,0,3.74-2.01,4.65-3.8,1.54-3.02,2.56-6.3,3.18-9.66,.1-.54-.78-.63-.88-.09-.47,2.55-1.2,5.03-2.2,7.39-.74,1.76-1.62,3.99-3.42,4.93-.91,.48-2.2,.57-2.92-.38-.65-.85-.63-2.07-.52-3.04,.27-2.29,1.37-4.45,3.06-5.97s4.05-2.44,6.48-2.52c.56-.02,.38-.88-.18-.86h0Z"/></g><g><path class="bx" d="M93.37,64.33c1.4-1.61,2.26-4.06,2.37-6.77,.11-2.71-.54-5.65-1.78-8.12-.64-1.28-1.66-2.57-2.66-2.4-.36,.06-.66,.3-.9,.63-1.02,1.39-.74,3.92-.29,6.09,.75,3.6,1.83,7.16,3.21,10.54"/><path class="bx" d="M93.65,64.68c2.87-3.39,3.23-9.68,.82-14.94-.93-2.03-2.73-4.2-4.17-2.65-1.28,1.39-1.03,4.17-.59,6.41,.74,3.78,1.9,7.49,3.33,11.02,.23,.57,.77,.12,.54-.45-1.09-2.68-1.99-5.46-2.68-8.3-.52-2.11-1.2-4.74-.7-6.72,.26-1,.93-1.87,1.84-1.42,.81,.41,1.45,1.56,1.9,2.55,1.06,2.32,1.59,5.02,1.45,7.49s-.98,4.76-2.29,6.31c-.3,.36,.25,1.05,.56,.7h0Z"/></g></g><g id="ap"><g id="aq"/><g id="ar"><g id="as"/></g></g><g id="at"><g id="au"/><g id="av"/><g id="aw"/><g id="ax"/></g><g id="ay"><g id="b`"/><g id="ba"/><g id="bb"/></g><g id="bc"><g id="bd"/><g id="be"/></g><g id="bf"/><g id="bg"><g id="bh"/><g id="bi"/><g id="bj"/><g id="bk"><g id="bl"/><g id="bm"/><g id="bn"/><g id="bo"/></g><g id="bp"/><g id="bq"/><g id="br"/></g></svg>