<?xml version="1.0" encoding="UTF-8"?><svg xmlns="http://www.w3.org/2000/svg" width="120" height="220" viewBox="0 0 120 220"><defs><style>.bs{fill:#f2f2f2;}.bt{fill:#0071bc;}.bu{fill:#fff;}.bv{fill:#efc5a2;}.bw{fill:#fbb03b;}.bx{fill:#fddbb4;}.by{fill:#29abe2;}</style></defs><g id="a"/><g id="b"/><g id="c"><g id="d"/><g id="e"/><g id="f"/><g id="g"/></g><g id="h"><g id="i"/><g id="j"><g id="k"/><g id="l"/><g id="m"/><g id="n"/></g><g id="o"/><g id="p"><g id="q"><g id="r"><g id="s"/><g id="t"/></g></g><g id="u"/></g></g><g id="v"/><g id="w"><g id="x"/><g id="y"/><g id="a`"/><g id="aa"/><g id="ab"/><g id="ac"/><g id="ad"/></g><g id="ae"><g id="af"/><g id="ag"/><g id="ah"/><g id="ai"/><g id="aj"/></g><g id="ak"><g id="al"><path class="bs" d="M93.83,187.16c-1.69,16.01-17,28.69-35.55,29.04-21.69,.41-34.92-3.8-37.53-29.67"/><path class="bt" d="M21.27,187.15c-.06-1.36-.49-1.9-.45-3.41,.63-23.6,13.79-27.66,35.36-29.29,21.57-1.63,27.31,8.34,36.82,25.44,1.9,3.41,1.51,4.24,1.6,7.63"/><path class="bt" d="M9.39,183.06c1.73-.08,3.44,2.6,4.67,3.4,2.61,1.69,6.74,3.12,7.62-.77,2.11-9.39,6.69-16.62,13.04-23.45,2.64-2.84,1.85-4.35-.46-6.58-1.09-1.05-2.73-2.03-4.26-2.35-3.24-.67-4.27-.78-7.38,1.57-7.48,5.65-11.4,16.09-15.91,24.37-1.87,3.43-.99,4,2.68,3.82Z"/><path class="bt" d="M103.75,181.14c-1.71-.03-3.53,2.9-4.61,3.6-2.29,1.5-6.32,3.63-7.13-.05-1.95-8.85-6.13-14.74-11.94-21.02-2.41-2.61-1.04-4.49,.93-6.62,.93-1,2.87-2.48,4.13-3.1,2.68-1.32,4.73-2.12,6.94,.7,5.32,6.82,10.42,14.07,14.68,22.6,1.77,3.54,.62,3.94-3.01,3.88Z"/><path class="bx" d="M94.74,187.36c.1,3.55-32.34,7.56-37.05,7.9s-36.72-4.31-36.94-7.72,31.9-4.41,36.71-4.54c4.81-.14,37.18,.81,37.28,4.36Z"/><path d="M94.69,183.82c-.07,0-.14,.02-.21,.02-3.4-8.49-3.32-8.32-8.85-15.61,.05-.05,.09-.11,.14-.16,5.55,7.33,5.5,7.2,8.92,15.74Z"/><path d="M19.67,183.29c.07,0,.14,.02,.21,.03,3.37-8.51,3.3-8.34,8.84-15.61-.05-.05-.09-.11-.14-.16-5.58,7.31-5.52,7.19-8.91,15.74Z"/><ellipse class="bx" cx="12.18" cy="188.34" rx="9.47" ry="9.08"/><ellipse class="bx" cx="102.41" cy="187.44" rx="9.47" ry="9.08"/><ellipse class="bx" cx="32.2" cy="206.31" rx="11.49" ry="13.76" transform="translate(-96.3 41.72) rotate(-29.11)"/><ellipse class="bx" cx="81.09" cy="206.74" rx="13.76" ry="11.49" transform="translate(-138.98 177.01) rotate(-60.89)"/><ellipse class="bv" cx="57.29" cy="190.16" rx="1.35" ry="1.82"/></g><g id="am"><path class="bt" d="M7.5,30.35C3.84,19.54,18.1,9.11,23.81,7.13c5.71-1.98,24.53-2.88,28.16,7.85,3.64,10.72-11.79,21.66-17.5,23.63-5.71,1.97-23.31,2.54-26.98-8.26Z"/><path class="bw" d="M25.7,9.53c4.94,5.76,9.87,11.53,14.81,17.3,4.93,5.77,9.87,11.53,14.8,17.29-5.48,2.08-10.97,4.15-16.45,6.23-5.48,2.08-10.97,4.15-16.46,6.22,.55-7.84,1.1-15.68,1.65-23.52,.55-7.84,1.1-15.68,1.64-23.52Z"/><path class="bw" d="M38.39,56.25c8.8-3.75,17.74-7.08,26.95-9.62-4.8-15.54-9.49-31.1-14.33-46.63"/><path class="bw" d="M45.43,54.95c-9.56,3.31-19.12,6.61-28.68,9.91C11.47,49.27,6.2,33.68,.92,18.1"/><ellipse class="bw" cx="40.79" cy="55.23" rx="25.86" ry="8.73" transform="translate(-15.75 16.27) rotate(-18.98)"/><ellipse class="bx" cx="60" cy="102.53" rx="60" ry="60.39"/><ellipse class="bu" cx="33.58" cy="107.6" rx="30.62" ry="24.7" transform="translate(-76.71 84.33) rotate(-60.75)"/><ellipse class="bu" cx="85.43" cy="107.24" rx="24.7" ry="30.62" transform="translate(-41.51 55.41) rotate(-29.25)"/><path d="M37.63,144.24c9.04,9.39,23.8,9.9,35.49,5.74,3.5-1.25,6.71-3.13,9.25-5.87,.33-.35-.2-.88-.53-.53-5.52,5.94-14.49,7.9-22.32,8.09s-15.77-2.14-21.37-7.96c-.34-.35-.87,.18-.53,.53h0Z"/><path d="M86.12,49.32c1.28-2.08,2.43-4.33,3.17-6.68,.37-1.19,.62-3.37-.94-3.86-1.43-.45-2.44,2.42-2.3,3.48,.25,1.89,2.6,2.11,4.1,1.93,4.4-.53,7.21-4.7,8.05-8.78,.33-1.62-1.09-2.48-2.51-1.8-.55,.26-1.48,.82-1.62,1.48-.17,.8,.82,1.45,1.32,1.86,1.77,1.44,4.08,1.78,6.22,1,2.18-.8,3.79-2.58,4.91-4.57,.21-.38-.37-.73-.58-.34-1.78,3.18-5.64,6.11-9.32,3.97-.63-.37-2.2-1.32-1.56-2.13,.2-.25,.87-.65,1.18-.74,1.05-.32,1.37,.48,1.23,1.45-.25,1.8-1.31,3.77-2.46,5.14-1.18,1.41-2.81,2.46-4.63,2.77-.83,.14-1.8,.16-2.61-.14-1.58-.58-1.03-2.17-.36-3.23,.38-.6,.76-.9,1.28-.17,.25,.35,.24,.89,.21,1.29-.06,.76-.33,1.48-.6,2.18-.74,1.94-1.68,3.8-2.76,5.57-.23,.37,.36,.72,.58,.34h0Z"/><path d="M75.19,49.47c2.41-2.78,4.15-6.09,5.03-9.67,.35-1.43,1.02-3.65,.29-5.04-.5-.97-1.8-1.37-2.55-.46-.85,1.02-1.23,2.92-.39,4.04,.88,1.18,2.65,1.37,4,1.17,3.27-.48,5.6-3.26,6.43-6.34,.75-2.8,1.27-9.18-2.79-9.68-.43-.05-.6,.61-.17,.66,3.68,.45,2.95,6.71,2.21,9.18-.95,3.13-3.95,6.17-7.47,5.48-1.24-.24-2.2-1.06-1.96-2.45,.07-.39,.21-.86,.4-1.19,.53-.89,1.3-.79,1.77,.08,.39,.73,.02,2.1-.11,2.86s-.32,1.58-.54,2.35c-.9,3.16-2.5,6.06-4.65,8.54-.29,.33,.2,.8,.49,.47h0Z"/><ellipse cx="48.27" cy="107.98" rx="2.71" ry="2.72"/><ellipse cx="70.38" cy="108.43" rx="2.71" ry="2.72"/><ellipse class="by" cx="72.18" cy="151.11" rx="9.02" ry="9.08"/><ellipse class="bt" cx="72.18" cy="151.11" rx="3.61" ry="3.63"/><path class="bt" d="M74.35,159.03c-.65,0-1.32-.23-1.92-.68-.8-.6-1.41-1.52-1.71-2.59-.64-2.26,.29-4.51,2.07-5.02,1.78-.51,3.75,.91,4.39,3.17,.3,1.07,.27,2.18-.1,3.11-.39,.98-1.09,1.65-1.97,1.91-.25,.07-.5,.11-.75,.11Zm-.81-7.5c-.17,0-.34,.02-.5,.07-1.3,.37-1.96,2.12-1.45,3.9,.25,.88,.74,1.63,1.39,2.11,.61,.45,1.28,.61,1.89,.43,.61-.17,1.1-.66,1.38-1.37,.3-.75,.32-1.65,.07-2.53h0c-.44-1.55-1.61-2.62-2.77-2.62Z"/></g></g><g id="an"><g id="ao"/></g><g id="ap"><g id="aq"/><g id="ar"><g id="as"/></g></g><g id="at"><g id="au"/><g id="av"/><g id="aw"/><g id="ax"/></g><g id="ay"><g id="b`"/><g id="ba"/><g id="bb"/></g><g id="bc"><g id="bd"/><g id="be"/></g><g id="bf"/><g id="bg"><g id="bh"/><g id="bi"/><g id="bj"/><g id="bk"><g id="bl"/><g id="bm"/><g id="bn"/><g id="bo"/></g><g id="bp"/><g id="bq"/><g id="br"/></g></svg>