<?xml version="1.0" encoding="UTF-8"?><svg xmlns="http://www.w3.org/2000/svg" width="1920" height="1080" xmlns:xlink="http://www.w3.org/1999/xlink" viewBox="0 0 1920 1080"><defs><style>.cb{fill:none;}.cc{fill:#006837;}.cd{fill:#0071a6;}.ce{fill:#fbb03b;}.cf{fill:#99846d;}.cg{fill:#8c6239;}.ch{fill:#333;}.ci{fill:#b18759;}.cj{fill:#c69c6d;}.ck{fill:#144e27;}.cl{fill:#177e00;}.cm{fill:#42210b;}.cn{fill:#142f14;}.co{fill:#1d1d1b;}.cp{fill:#193540;}.cq{fill:#732706;}.cr{fill:#8a372d;}.cs{fill:#634436;}.ct{fill:#5d5d5c;}.cu{fill:#462e1a;}.cv{fill:#754c24;}.cw{fill:#4d4d4d;}.cx{opacity:.52;}.cy{opacity:.56;}.d`{opacity:.8;}.da{opacity:.99;}.db{clip-path:url(#p);}</style><clipPath id="p"><rect class="cb" x=".98" width="1917.9" height="1080"/></clipPath></defs><g id="a"/><g id="b"/><g id="c"><g id="d"/><g id="e"/><g id="f"/><g id="g"/></g><g id="h"><g id="i"/><g id="j"><g id="k"/><g id="l"/><g id="m"/><g id="n"/></g><g id="o"/><g class="db"><g><g id="q" class="d`"><rect class="cp" x="-140.04" y="-64.21" width="2208.45" height="1080"/></g><g id="r"><rect class="cs" x="1.23" y="494.62" width="1917.47" height="584.14" rx="12" ry="12"/></g><g class="cy"><polygon class="cm" points="1910.55 963.13 18.83 963.13 208.35 750.52 1742.91 732.23 1910.55 963.13"/></g><g id="s" class="cy"><polygon class="cm" points="1911.59 955.99 25.86 955.99 214.78 635.29 1744.48 607.7 1911.59 955.99"/></g><g id="t"><path class="cl" d="M1923.96,682.69C1691.32,790.71,347.03,768.74,.67,716.7c7.04-91.75-11.38-135.2,37.93-222.08,212.69,98.76,1537.92,67.08,1892.88,10.22-7.82,59.14-12.57,118.23-7.52,177.85Z"/></g><path class="cn" d="M975.89,408.32c-15.38,42.17-71.37,59.41-116.84,64.97-45.48,5.56-126.34-51.21-135.58-77.13-9.24-25.92,88.39-47.74,116.27-60.93,27.88-13.19,151.53,30.93,136.15,73.1Z"/><path class="cn" d="M1416.5,385.99c-15.38,42.17-71.37,59.41-116.84,64.97-45.48,5.56-126.34-51.21-135.58-77.13-9.24-25.92,88.39-47.74,116.27-60.93,27.88-13.19,151.53,30.93,136.15,73.1Z"/><path class="cn" d="M592.29,393.19c-21.37,40.51-150.98,81.15-196.71,80.37-45.72-.78-129.1-50.25-147.13-77.42-18.03-27.17,105.65-46.77,126.42-60.99,20.77-14.23,238.8,17.53,217.42,58.04Z"/><path class="cn" d="M1923.01,516.75c-16.19,7.56-33.25,12.32-49.04,15.07-45.48,7.92-126.34-72.97-135.58-109.91-9.24-36.93,88.39-68.03,116.27-86.82,11.76-7.93,40.54-1.33,68.74,13.45l-.39,168.22Z"/><g id="u"><g id="v"><ellipse class="cf" cx="1235.59" cy="563.19" rx="43.55" ry="64.08" transform="translate(157.45 1388.71) rotate(-61.94)"/><ellipse class="cf" cx="1311.55" cy="604" rx="22.73" ry="63.64" transform="translate(608.02 1864.95) rotate(-85.57)"/><ellipse class="cf" cx="1353.61" cy="608.07" rx="63.64" ry="18.3"/><ellipse class="cf" cx="1467.24" cy="601.91" rx="17.56" ry="63.64" transform="translate(821.27 2050.29) rotate(-88.27)"/><ellipse class="cf" cx="1424.87" cy="604.99" rx="63.64" ry="18.3" transform="translate(-26.91 67.78) rotate(-2.7)"/><ellipse class="cf" cx="1521.44" cy="601.98" rx="55.05" ry="18.3"/><ellipse class="cf" cx="1583.08" cy="598.89" rx="55.07" ry="18.29" transform="translate(-31.12 89.79) rotate(-3.22)"/><ellipse class="cf" cx="1647.6" cy="594.13" rx="17.56" ry="63.64" transform="translate(1003.96 2223.02) rotate(-88.27)"/><ellipse class="cf" cx="1605.23" cy="597.21" rx="63.64" ry="18.3" transform="translate(-26.34 76.26) rotate(-2.7)"/><ellipse class="cf" cx="1701.8" cy="594.2" rx="55.05" ry="18.3"/><ellipse class="cf" cx="1753.33" cy="600.62" rx="18.3" ry="36.6" transform="translate(596.38 2048.5) rotate(-70.28)"/><ellipse class="cf" cx="1856.15" cy="624.11" rx="61.03" ry="19.12"/><ellipse class="cf" cx="1798.65" cy="622.11" rx="15.86" ry="36.08" transform="translate(714.46 2186.3) rotate(-74.35)"/><rect class="cf" x="1889.37" y="608.07" width="30.63" height="30.67"/></g></g><g><path class="ck" d="M1926.7,506.15c-2.34,19.52-4.92,38.99-7.44,58.48-160.32-38.64-383.23,34.27-524.13-15.73-2.93-.15-5.87-.28-8.83-.4,.24,.38,.48,.77,.71,1.15l-31.94-1.88c-135.95-1.19-289.71,21.6-403.29,2.85h0c-194.12,4-399.62,71.84-641.95-2.65-96.24,15.43-198.17,40.87-311.94,3.48,3.85-8.74,5.86-18.05,6.71-27.56l-9.16-.14c1.07-11.94,.28-24.18-.96-35.95-2.64-24.88-8.33-50.15-5.56-75.25,.1-.83,0-1.55-.23-2.16,0-.31,.02-.61,.03-.92,44.59-44.16,124.06-95.51,153.69-91.69,30.73,3.96,187.07,87.55,250.76,143.61,83.86-43,196.17-93.56,220.01-110.63,28.23-20.23,122.01,26.8,190.53,68.76,82.76-40.83,178.7-75.26,212.94-99.48,52.28-37,164.58,33.36,240.88,93.02,93.7-63.76,250.08-121.87,291.08-142.66,66.04-33.5,230.98,132.14,285.06,164.31,18.98,11.29,43.04,39.87,60.46,67.45,11.14,1.02,22.01,2.34,32.58,3.99Z"/><path d="M552.37,583.22h-.17c-87.08-.02-166.37-11.38-242.4-34.74-11.73,1.88-23.78,3.95-35.44,5.96-48.93,8.41-98.81,16.97-150.9,16.97-40.37,0-82.06-5.14-125.71-19.49l-.52-.17,.22-.5c3.5-7.94,5.67-16.73,6.62-26.87l-9.16-.14,.05-.54c1.15-12.81,.09-25.89-.96-35.85-.69-6.52-1.61-13.19-2.5-19.65-2.51-18.26-5.11-37.14-3.07-55.71,.08-.7,.02-1.35-.2-1.93l-.04-.09,.04-1.22,.14-.14c22.05-21.83,52.9-45.72,82.54-63.91,32.27-19.8,57.68-29.71,71.56-27.92,15.12,1.95,60.61,22.98,113.2,52.33,58.84,32.84,108.95,66.05,137.57,91.18,33.53-17.19,72.38-35.96,106.66-52.53,52.97-25.6,98.73-47.7,112.98-57.91,33.63-24.1,154.26,46.21,190.85,68.6,35.04-17.28,72.99-33.65,106.48-48.1,46.4-20.02,86.47-37.3,106.15-51.22,23.56-16.68,61.22-13.24,111.93,10.22,47.68,22.06,96.56,57.04,129.26,82.59,68.39-46.46,169.11-89.55,235.8-118.07,24.56-10.51,43.96-18.8,55.03-24.42,48.62-24.66,148.96,56.7,222.22,116.1,26.21,21.26,48.85,39.61,63.33,48.22,17.4,10.35,41.13,36.79,60.5,67.4,11.2,1.03,22.09,2.37,32.36,3.97l.48,.07-.06,.48c-1.82,15.2-3.82,30.63-5.76,45.55-.56,4.31-1.12,8.62-1.68,12.93l-.07,.55-.54-.13c-76.54-18.45-168.19-11.38-256.81-4.54-99.59,7.68-193.65,14.94-267.3-11.18-2.59-.13-5.2-.25-7.81-.36,.07,.12,.14,.24,.21,.35l.49,.81-32.89-1.94c-50.13-.44-103.32,2.42-154.77,5.19-90.94,4.89-176.84,9.5-248.56-2.34-57.92,1.2-116.08,8-177.66,15.19-71.14,8.31-144.72,16.91-221.68,16.91Zm-242.51-35.76l.11,.03c75.97,23.35,155.2,34.71,242.22,34.73h.17c76.9,0,150.44-8.59,221.56-16.9,61.61-7.2,119.79-14,177.84-15.19h.1c71.63,11.83,157.47,7.22,248.35,2.34,51.47-2.77,104.68-5.63,154.86-5.19l31.01,1.82c-.07-.11-.14-.22-.2-.33l-.51-.8,.95,.04c2.96,.12,5.91,.25,8.83,.4l.14,.03c73.46,26.07,167.45,18.82,266.96,11.15,88.49-6.82,179.99-13.88,256.58,4.44,.53-4.13,1.07-8.25,1.61-12.38,1.92-14.76,3.9-30.02,5.71-45.06-10.19-1.58-20.97-2.9-32.07-3.91l-.24-.02-.13-.21c-19.31-30.58-42.98-56.99-60.29-67.29-14.54-8.65-37.2-27.02-63.44-48.3-35.35-28.66-79.34-64.33-119.68-89.09-47.05-28.87-80.23-37.67-101.46-26.9-11.1,5.63-30.51,13.93-55.09,24.45-66.75,28.55-167.61,71.69-235.93,118.18l-.3,.21-.29-.22c-32.66-25.54-81.61-60.61-129.35-82.7-50.36-23.3-87.68-26.76-110.94-10.31-19.76,13.98-59.88,31.28-106.33,51.32-33.56,14.48-71.59,30.88-106.68,48.2l-.25,.12-.23-.14c-40.06-24.53-79.24-45.01-110.3-57.67-40.27-16.4-67.08-20.14-79.68-11.11-14.32,10.26-60.11,32.38-113.13,58-34.39,16.62-73.36,35.45-106.95,52.67l-.3,.16-.26-.22c-62-54.57-219.16-139.45-250.49-143.49-28.96-3.74-108.34,47.11-153.13,91.41l-.02,.62c.25,.7,.32,1.48,.22,2.3-2.03,18.44,.56,37.26,3.06,55.46,.89,6.46,1.81,13.14,2.5,19.68,1.04,9.87,2.08,22.79,1.01,35.51l9.16,.14-.05,.54c-.92,10.25-3.05,19.16-6.53,27.21,99.53,32.55,189.05,17.18,275.61,2.31,11.7-2.01,23.8-4.09,35.57-5.98l.11-.02Z"/></g><rect class="ct" x="1143.35" y="381.48" width="168.19" height="126.34"/><rect class="ct" x="1015.36" y="444.25" width="424.17" height="130.31"/><rect class="ct" x="924.39" y="340.17" width="101.55" height="234.4"/><rect class="ct" x="1418.37" y="360.03" width="101.55" height="214.53"/><g><rect class="ct" x="1034.4" y="425.18" width="21.16" height="20.66"/><path d="M1055.68,445.97h-21.41v-20.91h21.41v20.91Zm-21.16-.25h20.91v-20.41h-20.91v20.41Z"/></g><g><rect class="ct" x="1075.65" y="425.18" width="21.16" height="20.66"/><path d="M1096.94,445.97h-21.41v-20.91h21.41v20.91Zm-21.16-.25h20.91v-20.41h-20.91v20.41Z"/></g><g><rect class="ct" x="1114.79" y="425.18" width="21.16" height="20.66"/><path d="M1136.07,445.97h-21.41v-20.91h21.41v20.91Zm-21.16-.25h20.91v-20.41h-20.91v20.41Z"/></g><g><rect class="ct" x="1390.87" y="425.18" width="21.16" height="20.66"/><path d="M1412.15,445.97h-21.41v-20.91h21.41v20.91Zm-21.16-.25h20.91v-20.41h-20.91v20.41Z"/></g><g><rect class="ct" x="1355.96" y="425.18" width="21.16" height="20.66"/><path d="M1377.24,445.97h-21.41v-20.91h21.41v20.91Zm-21.16-.25h20.91v-20.41h-20.91v20.41Z"/></g><g><rect class="ct" x="1321.06" y="425.18" width="21.16" height="20.66"/><path d="M1342.34,445.97h-21.41v-20.91h21.41v20.91Zm-21.16-.25h20.91v-20.41h-20.91v20.41Z"/></g><g><polygon class="ch" points="1147.38 443.2 1149.79 448.01 1022.68 448.01 1024.24 443.2 1147.38 443.2"/><path d="M1149.99,448.14h-127.48l1.65-5.06h123.3l.03,.07,2.5,5Zm-127.14-.25h126.73l-2.29-4.56h-122.96l-1.48,4.56Z"/></g><g><polygon class="ch" points="1419.15 443.44 1421.27 448.25 1309.52 448.25 1310.89 443.44 1419.15 443.44"/><path d="M1421.46,448.38h-112.1l1.45-5.06h108.43l.03,.07,2.2,4.99Zm-111.77-.25h111.39l-2.01-4.56h-108.08l-1.3,4.56Z"/></g><g><path class="cu" d="M1280.33,574.56c0-62.53-23.92-113.23-53.42-113.23-29.5,0-53.42,50.69-53.42,113.23"/><path d="M1280.86,574.56h-1.06c0-62.21-23.73-112.83-52.89-112.83s-52.89,50.61-52.89,112.83h-1.06c0-62.65,24.2-113.62,53.95-113.62s53.95,50.97,53.95,113.62Z"/></g><rect x="1226.92" y="461.73" width="1.06" height="112.83"/><rect x="1213.17" y="464.91" width="0" height="109.65"/><rect x="1199.41" y="476.83" width="0" height="97.73" transform="translate(2398.83 1051.4) rotate(180)"/><rect x="1186.72" y="499.08" width="0" height="75.48"/><rect x="1239.7" y="464.91" width="0" height="109.65" transform="translate(2479.4 1039.48) rotate(180)"/><rect x="1253.45" y="476.83" width="0" height="97.73"/><rect x="1266.15" y="499.08" width="0" height="75.48" transform="translate(2532.29 1073.64) rotate(180)"/><path class="ce" d="M1213.69,534.04c-4.38,0-7.93,2.67-7.93,5.96s3.55,5.96,7.93,5.96,7.93-2.67,7.93-5.96-3.55-5.96-7.93-5.96Zm0,11.12c-3.8,0-6.88-2.31-6.88-5.16s3.08-5.16,6.88-5.16,6.88,2.31,6.88,5.16-3.08,5.16-6.88,5.16Z"/><path class="ce" d="M1240.07,533.85c-4.38,0-7.93,2.67-7.93,5.96s3.55,5.96,7.93,5.96,7.93-2.67,7.93-5.96-3.55-5.96-7.93-5.96Zm0,11.12c-3.8,0-6.88-2.31-6.88-5.16s3.08-5.16,6.88-5.16,6.88,2.31,6.88,5.16-3.08,5.16-6.88,5.16Z"/><ellipse class="ce" cx="1213.69" cy="534.44" rx="1.59" ry="1.19"/><ellipse class="ce" cx="1240.14" cy="534.44" rx="1.59" ry="1.19"/><g><rect class="cw" x="1224.97" y="515.83" width="2.24" height="114.49" transform="translate(653.01 1799.16) rotate(-90)"/><path d="M1284.04,574.33h-115.9v-2.52h115.9v2.52Zm-114.49-.28h113.08v-1.96h-113.08v1.96Z"/></g><path class="cq" d="M1050.27,359.94c-26.66,.16-53.64,.09-80.41,.07-26.77-.03-53.81,.21-80.37-.15,12.27-18.67,28.16-42.69,39.56-60.03,11.4-17.33,23.1-42.71,39.65-51.57,20.55,10.83,29.35,32.45,41.7,51.18,12.35,18.73,27.12,41.04,39.87,60.51Z"/><path class="cq" d="M1544.28,359.77c-26.66,.16-53.64,.09-80.41,.07-26.77-.03-53.81,.21-80.37-.15,12.27-18.67,28.16-42.69,39.56-60.03,11.4-17.33,23.1-42.71,39.65-51.57,20.55,10.83,29.35,32.45,41.7,51.18,12.35,18.73,27.12,41.04,39.87,60.51Z"/><path class="cq" d="M1325.29,385.86c-32.45,.16-65.29,.09-97.87,.07-32.58-.03-65.5,.21-97.82-.15,14.93-18.67,34.28-42.69,48.15-60.03,13.87-17.33,28.11-42.71,48.25-51.57,25.02,10.83,35.73,32.45,50.76,51.18,15.03,18.73,33,41.04,48.53,60.51Z"/><path class="cr" d="M942.31,278.36c-.51,2.75,2.87,4.78,6.34,4.55,4.37-.29,7.15-3.06,9.25-5.66l-.62,.06c2.58,1.74,3.28,5.12,6.69,6.15,1.81,.54,3.76,.08,5.19-.84,1.91-1.24,2.63-3.14,3.27-4.89h-.76c.7,2.32,1.9,5.34,5.47,5.9s6.8-2.06,8.24-4.32h-.69c1.37,2.14,3.13,4.61,6.58,5.03,3.19,.39,5.15-1.61,6.6-3.42,.26-.33-.42-.63-.69-.3-1.4,1.74-3.38,3.78-6.48,3.01-2.79-.69-4.15-2.76-5.33-4.61-.12-.19-.56-.2-.69,0-1.32,2.07-4.23,4.74-7.71,3.97-3.01-.66-3.94-3.4-4.55-5.42-.09-.29-.66-.28-.76,0-.59,1.6-1.21,3.37-2.91,4.53-1.7,1.16-4.09,1.37-5.82,.16-2.17-1.51-2.87-3.87-5.1-5.37-.19-.13-.49-.11-.62,.06-1.71,2.11-3.75,4.33-7.03,5.12-3.19,.77-7.66-.57-7.11-3.55,.07-.38-.69-.54-.76-.16h0Z"/><path class="cr" d="M932.81,294.27c.32,2.04,2.63,3.79,5.46,3.77s5.08-1.83,5.33-3.87l-.74,.15c2.24,3.06,6.06,6.16,11.04,6.28,4.04,.1,8.29-2.03,8.55-5.22l-.78,.08c1.38,2.9,4.88,5.25,9.09,5.4,4.01,.14,7.9-1.93,8.9-4.86h-.76c1.03,2.26,3.9,3.95,7.14,3.95s6.1-1.7,7.12-3.97h-.76c.94,2.24,3.77,3.94,6.95,3.91s5.97-1.76,6.85-4.02c.14-.37-.62-.53-.76-.16-.78,2-3.25,3.55-6.08,3.58s-5.35-1.48-6.19-3.47c-.12-.29-.64-.28-.76,0-.91,2.01-3.48,3.53-6.36,3.53s-5.46-1.5-6.37-3.51c-.12-.27-.66-.3-.76,0-.92,2.69-4.46,4.55-8.14,4.42s-7.07-2.32-8.32-4.96c-.15-.32-.75-.26-.78,.08-.26,3.09-4.76,4.97-8.55,4.57-4.35-.46-7.55-3.19-9.56-5.93-.2-.28-.71-.13-.74,.15-.21,1.72-2.17,3.25-4.53,3.28s-4.39-1.45-4.66-3.17c-.06-.38-.85-.38-.79,0h0Z"/><path class="cr" d="M921.9,310.25c.65,2.9,4,5.31,7.95,5.51s7.68-1.87,8.85-4.67h-.76c1.28,2.87,4.41,5.49,8.58,5.88,3.66,.34,7.46-1.19,8.73-3.83l-.73,.07c1.61,2.77,5.45,4.7,9.52,4.57s7.5-2.14,8.94-4.91l-.73,.07c4.03,4.49,13.37,5.2,18.49,1.38l-.62-.06c.83,1.09,2.09,1.83,3.56,2.4,1.75,.68,3.74,1.29,5.66,1.6,2.79,.45,6.92-.5,6.45-3.19l-.74,.15c1.38,2.06,4.36,3.54,7.5,3.21,2.91-.3,5.22-2.1,5.54-4.28,.06-.38-.74-.38-.79,0-.29,2.01-2.66,3.63-5.35,3.72s-5.05-1.22-6.21-2.96c-.17-.25-.79-.15-.74,.15,.21,1.18-.88,2.18-2.34,2.57-1.63,.43-3.41,.05-4.98-.36-2.54-.68-5.47-1.46-6.88-3.31-.13-.17-.44-.19-.62-.06-4.74,3.54-13.5,2.91-17.24-1.26-.2-.22-.6-.17-.73,.07-1.35,2.6-4.8,4.48-8.55,4.47-3.68,0-7-1.79-8.45-4.28-.15-.26-.62-.14-.73,.07-1.18,2.48-4.95,3.83-8.32,3.35-3.65-.52-6.33-2.85-7.46-5.4-.12-.28-.64-.29-.76,0-1.07,2.55-4.47,4.43-8.08,4.24s-6.6-2.43-7.19-5.07c-.08-.38-.85-.22-.76,.16h0Z"/><path class="cr" d="M909.05,329.85c1.64,3.12,5.41,5.57,9.96,5.86s8.94-1.81,11.08-4.79h-.69c1.77,2.78,3.97,5.41,8.49,5.55s8.04-2,11.2-4.04l-.62-.06c1.61,2.45,4.89,4.27,8.61,4.27,1.72,0,3.44-.39,4.9-1.06,.8-.37,1.54-.83,2.16-1.35,.23-.19,.51-.6,.79-.76,1.35-.72,1.83-.06,2.44,.49,2.36,2.15,5.78,4.16,9.71,3.99,3.32-.15,6.32-1.83,7.12-4.28h-.76c1.47,2.64,4.48,4.8,8.28,5.39,4,.63,8.12-.6,10.74-2.9h-.56c2.42,2.1,5.47,4.62,9.56,4.27,3.7-.32,5.32-3.11,6.51-5.4l-.73,.07c1.4,2.02,3.15,4.47,6.49,4.81,3.56,.37,4.84-1.88,5.25-4.13l-.73,.07c.75,.88,1.79,2.07,3.39,2.01,1.19-.05,2.16-.77,2.06-1.67-.04-.38-.84-.38-.79,0,.11,1.01-1.43,1.27-2.36,.82-.71-.35-1.17-.94-1.62-1.46-.16-.19-.68-.2-.73,.07-.18,.99-.35,2.16-1.27,2.93-.96,.8-2.48,.94-3.8,.65-2.65-.59-4.04-2.71-5.21-4.41-.17-.25-.61-.15-.73,.07-1.14,2.17-2.75,5.02-6.43,4.99s-6.15-2.24-8.32-4.12c-.13-.12-.43-.12-.56,0-2.43,2.13-6.23,3.34-9.97,2.75-3.51-.56-6.35-2.53-7.72-4.98-.14-.25-.66-.32-.76,0-.91,2.8-4.86,4.33-8.5,3.7-1.94-.33-3.68-1.16-5.14-2.16-1.1-.75-2.11-2.24-3.56-2.6s-2.02,.83-2.8,1.46c-1.27,1.02-2.95,1.74-4.78,2.01-4,.6-7.77-1.2-9.51-3.86-.12-.18-.44-.18-.62-.06-2.9,1.86-6.21,3.85-10.22,3.87-4.43,.01-6.52-2.59-8.22-5.26-.13-.2-.55-.19-.69,0-1.96,2.73-5.8,4.66-10.02,4.52s-8.02-2.5-9.56-5.44c-.19-.35-.95-.2-.76,.16h0Z"/><path class="cr" d="M897.65,347.71c4.73,2.65,11.84,1.83,15.41-1.66h-.69c1.77,2.93,5.55,5.06,9.83,5.41,4.43,.36,8.81-1.27,11.34-3.98l-.62,.06c5.34,4.15,15.21,3.9,20.15-.54h-.56c4.69,3.62,13.3,3.38,17.6-.52l-.62-.06c1.84,2.78,5.96,4.27,10,4.25,4.83-.03,9.15-2.11,12.55-4.53l-.66-.13c1.06,2.24,3.73,3.94,6.92,4.19s6.45-1.13,8.01-3.27l-.62,.06,5.12,3.93c1.2,.92,2.36,1.96,4.25,1.73,1.69-.21,3.35-1.09,4.68-1.85,1.42-.82,2.64-1.77,3.71-2.84l-.54,.11c2.97,.94,3.96,3.87,7.28,4.41,2.9,.47,4.14-1.66,4.71-3.38l-.66,.13c1.57,1.08,3.5,2.37,5.8,2.18,1.69-.14,3.14-.99,3.29-2.3,.04-.38-.75-.38-.79,0-.15,1.35-2.25,1.94-3.81,1.64s-2.78-1.15-3.93-1.94c-.21-.15-.59-.09-.66,.13-.28,.84-.6,1.81-1.44,2.44-1.39,1.05-3.3,.42-4.55-.41-1.68-1.12-2.66-2.72-4.83-3.41-.22-.07-.4-.04-.54,.11-1,1-2.15,1.89-3.47,2.65-1.24,.72-3.03,1.72-4.65,1.79-1.75,.07-3.27-1.59-4.37-2.43l-4.02-3.08c-.17-.13-.5-.11-.62,.06-1.36,1.87-4.07,3.12-6.95,3s-5.55-1.7-6.53-3.77c-.1-.21-.44-.29-.66-.13-3.15,2.25-7.13,4.21-11.62,4.35-3.9,.11-7.9-1.26-9.68-3.95-.11-.16-.47-.2-.62-.06-4.02,3.66-12.06,3.93-16.47,.52-.14-.11-.42-.12-.56,0-4.66,4.2-13.96,4.48-19.02,.54-.19-.15-.48-.09-.62,.06-2.4,2.57-6.61,4.07-10.79,3.67s-7.38-2.39-9.01-5.1c-.14-.23-.53-.16-.69,0-3.32,3.26-9.97,3.88-14.32,1.45-.41-.23-.81,.29-.4,.51h0Z"/><path class="cr" d="M955.13,260.03c.67,1.87,2.32,3.72,5.1,3.93s4.5-1.67,5.66-3.34h-.69c2.15,3.66,8.98,3.73,11.28,.13l-.62,.06c1.02,.66,1.31,1.65,2.12,2.43,.7,.67,1.74,1.11,2.86,1.23,2.14,.23,4.01-.79,4.74-2.26,.18-.36-.59-.52-.76-.16-.82,1.67-3.48,2.41-5.47,1.35-1.4-.75-1.62-2.18-2.92-3.02-.18-.12-.5-.12-.62,.06-2.06,3.22-8,3.13-9.91-.13-.12-.2-.56-.18-.69,0-.95,1.37-2.21,3.09-4.58,3.06-2.61-.03-4.13-1.82-4.73-3.51-.13-.37-.9-.21-.76,.16h0Z"/><path class="cr" d="M1436.11,281.16c-.53,2.8,2.95,4.86,6.52,4.63,4.49-.29,7.36-3.12,9.52-5.77l-.64,.06c2.65,1.77,3.37,5.22,6.89,6.27,1.86,.55,3.87,.08,5.34-.86,1.96-1.26,2.7-3.2,3.37-4.98h-.79c.72,2.36,1.95,5.44,5.63,6.01s7-2.09,8.48-4.4h-.7c1.41,2.18,3.22,4.69,6.77,5.12,3.28,.39,5.29-1.64,6.79-3.48,.27-.34-.43-.64-.7-.31-1.44,1.78-3.48,3.85-6.67,3.07-2.87-.7-4.26-2.81-5.49-4.7-.13-.2-.58-.2-.7,0-1.36,2.11-4.35,4.83-7.93,4.05-3.1-.68-4.05-3.46-4.68-5.52-.09-.3-.68-.28-.79,0-.61,1.63-1.25,3.43-3,4.61-1.74,1.18-4.21,1.4-5.99,.17-2.23-1.54-2.95-3.94-5.25-5.47-.2-.13-.5-.11-.64,.06-1.76,2.15-3.86,4.41-7.24,5.22s-7.88-.58-7.31-3.61c.07-.38-.71-.55-.79-.16h0Z"/><path class="cr" d="M1426.34,297.37c.33,2.08,2.71,3.86,5.61,3.84s5.23-1.86,5.48-3.95l-.76,.15c2.31,3.11,6.23,6.27,11.35,6.39,4.16,.1,8.53-2.06,8.8-5.32l-.8,.08c1.42,2.95,5.02,5.35,9.35,5.5s8.13-1.96,9.16-4.95h-.79c1.06,2.3,4.01,4.03,7.35,4.02s6.28-1.73,7.33-4.04h-.79c.97,2.28,3.88,4.01,7.16,3.98s6.14-1.79,7.04-4.09c.15-.38-.64-.54-.79-.16-.8,2.04-3.35,3.62-6.26,3.65s-5.51-1.51-6.37-3.54c-.12-.29-.66-.28-.79,0-.93,2.05-3.58,3.59-6.54,3.6s-5.61-1.53-6.56-3.58c-.13-.27-.68-.31-.79,0-.94,2.74-4.59,4.64-8.37,4.5s-7.27-2.36-8.56-5.05c-.16-.32-.77-.27-.8,.08-.26,3.14-4.89,5.06-8.8,4.65-4.48-.47-7.77-3.25-9.83-6.04-.21-.28-.73-.13-.76,.15-.21,1.76-2.23,3.31-4.66,3.34s-4.52-1.48-4.8-3.23c-.06-.38-.88-.39-.82,0h0Z"/><path class="cr" d="M1415.11,313.65c.67,2.96,4.11,5.41,8.18,5.61,4.08,.2,7.9-1.91,9.11-4.76h-.79c1.32,2.93,4.53,5.59,8.83,5.99,3.76,.35,7.68-1.21,8.98-3.9l-.75,.07c1.65,2.82,5.61,4.79,9.79,4.66s7.72-2.18,9.19-5l-.75,.07c4.14,4.57,13.75,5.3,19.02,1.4l-.64-.06c.85,1.11,2.15,1.87,3.66,2.45,1.8,.69,3.85,1.32,5.83,1.63,2.87,.46,7.12-.51,6.64-3.25l-.76,.15c1.42,2.1,4.49,3.6,7.72,3.27,2.99-.31,5.37-2.14,5.7-4.36,.06-.39-.76-.38-.82,0-.3,2.05-2.74,3.7-5.5,3.79s-5.19-1.24-6.39-3.01c-.17-.26-.81-.15-.76,.15,.21,1.2-.91,2.22-2.4,2.61-1.68,.44-3.51,.06-5.12-.37-2.62-.69-5.62-1.48-7.08-3.37-.13-.17-.46-.2-.64-.06-4.88,3.6-13.89,2.97-17.74-1.28-.21-.23-.62-.17-.75,.07-1.39,2.65-4.94,4.56-8.8,4.56s-7.2-1.82-8.69-4.36c-.15-.26-.64-.15-.75,.07-1.22,2.52-5.09,3.9-8.56,3.41-3.75-.53-6.51-2.9-7.68-5.5-.13-.28-.66-.29-.79,0-1.1,2.6-4.6,4.51-8.32,4.31-3.73-.2-6.79-2.48-7.39-5.17-.09-.38-.87-.22-.79,.16h0Z"/><path class="cr" d="M1401.89,333.61c1.69,3.18,5.57,5.68,10.24,5.97,4.73,.3,9.2-1.84,11.4-4.88h-.7c1.82,2.83,4.09,5.51,8.74,5.66s8.27-2.04,11.52-4.11l-.64-.06c1.65,2.5,5.03,4.35,8.86,4.35,1.77,0,3.54-.4,5.04-1.08,.82-.38,1.58-.84,2.23-1.37,.24-.2,.52-.62,.82-.77,1.38-.73,1.88-.06,2.51,.5,2.43,2.19,5.95,4.24,9.99,4.06,3.41-.15,6.5-1.86,7.33-4.36h-.79c1.52,2.69,4.61,4.88,8.52,5.5,4.12,.64,8.35-.62,11.05-2.96h-.58c2.49,2.13,5.63,4.71,9.83,4.35,3.81-.32,5.47-3.17,6.7-5.5l-.75,.07c1.44,2.06,3.25,4.55,6.68,4.9,3.67,.38,4.98-1.92,5.4-4.2l-.75,.07c.77,.9,1.84,2.11,3.49,2.05,1.22-.05,2.22-.78,2.12-1.7-.04-.39-.86-.39-.82,0,.11,1.03-1.47,1.3-2.42,.83-.73-.36-1.21-.95-1.67-1.49-.17-.19-.7-.21-.75,.07-.18,1-.36,2.2-1.31,2.99-.99,.82-2.55,.96-3.91,.66-2.73-.6-4.15-2.76-5.36-4.49-.18-.25-.63-.15-.75,.07-1.17,2.21-2.83,5.11-6.62,5.09s-6.32-2.28-8.56-4.2c-.14-.12-.44-.12-.58,0-2.5,2.17-6.41,3.41-10.25,2.8-3.61-.57-6.54-2.57-7.95-5.07-.14-.25-.68-.32-.79,0-.94,2.85-5,4.41-8.74,3.77-2-.34-3.79-1.18-5.28-2.2-1.13-.77-2.17-2.28-3.66-2.65s-2.07,.85-2.88,1.49c-1.31,1.04-3.04,1.77-4.92,2.05-4.11,.61-8-1.23-9.79-3.93-.12-.19-.46-.18-.64-.06-2.98,1.9-6.39,3.93-10.51,3.94-4.55,.01-6.71-2.64-8.46-5.36-.13-.21-.57-.19-.7,0-2.01,2.78-5.97,4.75-10.31,4.6s-8.25-2.54-9.84-5.54c-.19-.36-.98-.2-.79,.16h0Z"/><path class="cr" d="M1390.16,351.8c4.87,2.7,12.19,1.87,15.85-1.69h-.7c1.82,2.99,5.71,5.15,10.12,5.51s9.06-1.29,11.67-4.05l-.64,.06c5.5,4.23,15.65,3.97,20.73-.55h-.58c4.83,3.69,13.68,3.45,18.1-.53l-.64-.06c1.9,2.83,6.13,4.35,10.29,4.33,4.97-.03,9.42-2.15,12.91-4.61l-.68-.13c1.09,2.28,3.84,4.01,7.12,4.26s6.64-1.15,8.24-3.33l-.64,.06,5.27,4c1.23,.94,2.43,1.99,4.37,1.76,1.74-.21,3.45-1.11,4.81-1.88,1.46-.83,2.71-1.81,3.82-2.9l-.56,.11c3.06,.96,4.07,3.94,7.49,4.49,2.98,.48,4.25-1.69,4.85-3.45l-.68,.13c1.62,1.1,3.6,2.41,5.97,2.22,1.74-.14,3.23-1.01,3.39-2.34,.04-.39-.77-.39-.82,0-.16,1.38-2.31,1.97-3.92,1.67s-2.86-1.17-4.04-1.98c-.22-.15-.6-.1-.68,.13-.29,.86-.61,1.84-1.49,2.49-1.43,1.07-3.4,.43-4.69-.42-1.73-1.15-2.74-2.77-4.97-3.47-.22-.07-.41-.04-.56,.11-1.03,1.01-2.22,1.92-3.57,2.7-1.28,.73-3.12,1.75-4.78,1.82-1.8,.07-3.36-1.62-4.5-2.48l-4.14-3.14c-.18-.14-.52-.11-.64,.06-1.4,1.91-4.19,3.17-7.15,3.05s-5.71-1.73-6.72-3.84c-.1-.21-.45-.3-.68-.13-3.25,2.29-7.34,4.29-11.95,4.43-4.01,.12-8.13-1.28-9.96-4.02-.11-.16-.48-.21-.64-.06-4.14,3.73-12.41,4-16.95,.53-.14-.11-.44-.13-.58,0-4.79,4.28-14.36,4.56-19.57,.55-.2-.15-.49-.09-.64,.06-2.47,2.62-6.8,4.15-11.1,3.74-4.08-.39-7.59-2.43-9.27-5.19-.14-.23-.54-.16-.7,0-3.42,3.32-10.26,3.96-14.73,1.48-.42-.23-.83,.29-.41,.52h0Z"/><path class="cr" d="M1449.3,262.49c.69,1.9,2.38,3.79,5.24,4s4.62-1.7,5.82-3.4h-.7c2.21,3.73,9.24,3.8,11.61,.13l-.64,.06c1.05,.67,1.34,1.69,2.18,2.48,.72,.68,1.79,1.13,2.95,1.26,2.2,.23,4.13-.8,4.87-2.3,.18-.37-.61-.53-.79-.16-.85,1.7-3.58,2.46-5.63,1.37-1.44-.76-1.67-2.22-3-3.07-.18-.12-.52-.13-.64,.06-2.12,3.28-8.23,3.19-10.2-.13-.12-.21-.57-.19-.7,0-.98,1.39-2.28,3.15-4.71,3.12-2.68-.03-4.25-1.86-4.87-3.58-.14-.38-.92-.22-.79,.16h0Z"/><path class="cr" d="M1194.4,305c-.63,3.01,3.54,5.22,7.82,4.97,5.39-.32,8.82-3.35,11.41-6.19l-.77,.07c3.18,1.9,4.04,5.6,8.26,6.73,2.23,.6,4.64,.09,6.4-.92,2.35-1.35,3.24-3.43,4.04-5.35h-.94c.87,2.54,2.34,5.84,6.75,6.45s8.39-2.25,10.16-4.72h-.84c1.69,2.34,3.86,5.04,8.12,5.5,3.93,.42,6.34-1.76,8.14-3.74,.33-.36-.52-.69-.84-.33-1.73,1.91-4.17,4.13-8,3.29-3.44-.76-5.11-3.02-6.58-5.05-.15-.21-.69-.21-.84,0-1.63,2.26-5.21,5.18-9.51,4.34-3.72-.73-4.85-3.72-5.61-5.92-.11-.32-.82-.3-.94,0-.73,1.75-1.5,3.68-3.59,4.95-2.09,1.27-5.04,1.5-7.18,.18-2.67-1.66-3.54-4.23-6.29-5.87-.24-.14-.6-.12-.77,.07-2.1,2.31-4.63,4.73-8.67,5.6s-9.45-.62-8.76-3.88c.09-.41-.86-.59-.94-.17h0Z"/><path class="cr" d="M1182.69,322.4c.4,2.23,3.24,4.15,6.73,4.12s6.27-2,6.57-4.24l-.91,.16c2.77,3.34,7.47,6.73,13.61,6.86,4.99,.11,10.22-2.21,10.55-5.71l-.96,.09c1.7,3.17,6.02,5.74,11.21,5.9s9.74-2.11,10.98-5.31h-.94c1.27,2.47,4.81,4.32,8.8,4.32,4,0,7.52-1.86,8.78-4.34h-.94c1.16,2.45,4.65,4.3,8.58,4.28,3.93-.03,7.36-1.92,8.44-4.39,.18-.4-.77-.58-.94-.17-.96,2.19-4.01,3.89-7.5,3.91s-6.6-1.62-7.63-3.8c-.15-.31-.79-.3-.94,0-1.12,2.2-4.29,3.86-7.84,3.86s-6.73-1.64-7.86-3.84c-.15-.29-.82-.33-.94,0-1.13,2.94-5.51,4.98-10.03,4.84s-8.71-2.54-10.26-5.42c-.19-.35-.93-.29-.96,.09-.32,3.37-5.86,5.44-10.55,5-5.37-.5-9.31-3.49-11.79-6.48-.25-.3-.87-.14-.91,.16-.26,1.88-2.68,3.56-5.59,3.58s-5.42-1.59-5.75-3.47c-.07-.41-1.05-.42-.98,0h0Z"/><path class="cr" d="M1169.23,339.87c.8,3.17,4.93,5.8,9.8,6.02s9.46-2.05,10.91-5.11h-.94c1.58,3.14,5.43,6,10.58,6.43,4.51,.37,9.2-1.3,10.76-4.19l-.89,.08c1.98,3.03,6.73,5.14,11.73,5s9.25-2.34,11.02-5.37l-.89,.08c4.97,4.91,16.48,5.68,22.8,1.51l-.77-.07c1.02,1.19,2.58,2,4.39,2.62,2.16,.74,4.61,1.41,6.98,1.75,3.45,.49,8.54-.54,7.95-3.49l-.91,.16c1.7,2.25,5.38,3.87,9.25,3.51,3.59-.33,6.44-2.3,6.83-4.68,.07-.42-.91-.41-.98,0-.36,2.2-3.29,3.97-6.6,4.07s-6.22-1.33-7.66-3.23c-.21-.27-.98-.16-.91,.16,.25,1.29-1.09,2.39-2.88,2.81-2.01,.47-4.21,.06-6.14-.4-3.14-.74-6.74-1.59-8.48-3.62-.16-.18-.55-.21-.77-.07-5.85,3.87-16.65,3.19-21.26-1.38-.25-.25-.74-.19-.89,.08-1.66,2.84-5.92,4.9-10.55,4.89s-8.63-1.95-10.42-4.68c-.18-.28-.77-.16-.89,.08-1.46,2.71-6.1,4.19-10.26,3.66-4.49-.57-7.8-3.11-9.2-5.9-.15-.3-.8-.31-.94,0-1.32,2.79-5.52,4.85-9.97,4.63s-8.13-2.66-8.86-5.55c-.1-.41-1.05-.24-.94,.17h0Z"/><path class="cr" d="M1153.38,361.3c2.02,3.41,6.67,6.09,12.28,6.41s11.03-1.98,13.66-5.24h-.84c2.18,3.04,4.9,5.92,10.47,6.07s9.91-2.19,13.81-4.41l-.77-.07c1.98,2.68,6.03,4.67,10.61,4.67,2.12,0,4.24-.42,6.05-1.16,.99-.4,1.9-.9,2.67-1.48,.29-.21,.63-.66,.98-.83,1.66-.78,2.26-.07,3.01,.54,2.91,2.35,7.13,4.55,11.97,4.36,4.09-.16,7.8-2,8.78-4.68h-.94c1.82,2.88,5.53,5.24,10.21,5.9,4.93,.69,10.01-.66,13.24-3.18h-.69c2.98,2.29,6.74,5.05,11.79,4.67,4.57-.35,6.56-3.41,8.03-5.91l-.89,.08c1.73,2.21,3.89,4.88,8,5.26,4.39,.4,5.97-2.06,6.47-4.51l-.89,.08c.92,.96,2.21,2.27,4.18,2.2,1.46-.05,2.67-.84,2.54-1.82-.05-.42-1.03-.42-.98,0,.14,1.11-1.76,1.39-2.9,.89-.87-.38-1.45-1.02-2-1.6-.2-.21-.83-.22-.89,.08-.22,1.08-.43,2.37-1.57,3.21-1.19,.88-3.06,1.03-4.69,.71-3.27-.64-4.98-2.96-6.43-4.82-.21-.27-.75-.16-.89,.08-1.4,2.37-3.39,5.49-7.93,5.46s-7.58-2.45-10.26-4.51c-.16-.13-.53-.13-.69,0-3,2.33-7.69,3.66-12.29,3.01-4.33-.61-7.84-2.76-9.53-5.44-.17-.27-.82-.35-.94,0-1.13,3.06-5.99,4.73-10.48,4.05-2.39-.36-4.54-1.27-6.33-2.36-1.35-.83-2.6-2.45-4.39-2.84s-2.49,.91-3.46,1.6c-1.57,1.12-3.64,1.9-5.9,2.2-4.93,.65-9.58-1.32-11.73-4.22-.15-.2-.55-.19-.77-.07-3.57,2.04-7.65,4.21-12.6,4.23-5.46,.02-8.04-2.83-10.14-5.76-.16-.22-.68-.2-.84,0-2.41,2.99-7.16,5.1-12.36,4.94-5.32-.16-9.89-2.73-11.79-5.95-.23-.39-1.17-.22-.94,.17h0Z"/><path class="cr" d="M1139.33,380.83c5.83,2.9,14.61,2.01,19-1.82h-.84c2.18,3.21,6.85,5.53,12.13,5.91s10.86-1.39,13.98-4.35l-.77,.07c6.59,4.54,18.76,4.27,24.84-.59h-.69c5.79,3.96,16.4,3.7,21.7-.57l-.77-.07c2.27,3.04,7.34,4.67,12.33,4.65,5.96-.03,11.29-2.31,15.47-4.95l-.82-.14c1.31,2.45,4.6,4.31,8.53,4.58s7.96-1.23,9.88-3.57l-.77,.07,6.31,4.29c1.48,1.01,2.91,2.14,5.24,1.89,2.08-.23,4.13-1.19,5.77-2.02,1.75-.89,3.25-1.94,4.58-3.11l-.67,.12c3.67,1.03,4.88,4.23,8.97,4.82,3.57,.51,5.1-1.81,5.81-3.7l-.82,.14c1.94,1.18,4.32,2.59,7.15,2.39,2.08-.15,3.88-1.09,4.06-2.52,.05-.42-.93-.42-.98,0-.19,1.48-2.77,2.12-4.7,1.79s-3.43-1.26-4.84-2.12c-.26-.16-.72-.1-.82,.14-.35,.92-.74,1.97-1.78,2.67-1.72,1.14-4.07,.46-5.62-.45-2.08-1.23-3.28-2.97-5.95-3.73-.27-.08-.49-.04-.67,.12-1.23,1.09-2.66,2.07-4.28,2.9-1.53,.79-3.74,1.88-5.73,1.96-2.16,.08-4.03-1.74-5.39-2.66l-4.96-3.37c-.22-.15-.62-.12-.77,.07-1.68,2.05-5.02,3.41-8.57,3.28-3.66-.14-6.84-1.85-8.06-4.12-.12-.23-.54-.32-.82-.14-3.89,2.46-8.8,4.61-14.32,4.75-4.81,.12-9.74-1.38-11.94-4.32-.13-.18-.57-.22-.77-.07-4.96,4-14.87,4.29-20.31,.57-.17-.12-.52-.13-.69,0-5.75,4.59-17.21,4.89-23.46,.59-.23-.16-.59-.1-.77,.07-2.96,2.81-8.15,4.45-13.31,4.01s-9.1-2.61-11.12-5.58c-.17-.25-.65-.17-.84,0-4.09,3.56-12.3,4.25-17.66,1.58-.5-.25-.99,.31-.49,.56h0Z"/><path class="cr" d="M1210.21,284.95c.82,2.04,2.86,4.07,6.29,4.3s5.54-1.82,6.98-3.65h-.84c2.65,4,11.07,4.08,13.91,.14l-.77,.07c1.26,.72,1.61,1.81,2.61,2.66,.86,.73,2.15,1.22,3.53,1.35,2.63,.25,4.95-.86,5.84-2.47,.22-.39-.73-.56-.94-.17-1.01,1.82-4.29,2.64-6.75,1.47-1.73-.82-2-2.38-3.6-3.3-.22-.13-.62-.14-.77,.07-2.54,3.52-9.86,3.42-12.22-.14-.15-.22-.69-.2-.84,0-1.18,1.5-2.73,3.38-5.64,3.35-3.21-.03-5.09-1.99-5.84-3.84-.16-.4-1.11-.23-.94,.17h0Z"/><g class="da"><path class="cd" d="M1495.99,421.59c0-27.46-11.9-49.73-26.57-49.73-14.68,0-26.57,22.26-26.57,49.73"/><path d="M1496.52,421.59h-1.06c0-27.2-11.68-49.33-26.04-49.33s-26.04,22.13-26.04,49.33h-1.06c0-27.64,12.16-50.12,27.1-50.12s27.1,22.49,27.1,50.12Z"/></g><g class="da"><path class="cd" d="M996.72,520.18c0-27.46-11.9-49.73-26.57-49.73-14.68,0-26.57,22.26-26.57,49.73"/><path d="M997.25,520.18h-1.06c0-27.2-11.68-49.33-26.04-49.33s-26.04,22.13-26.04,49.33h-1.06c0-27.64,12.16-50.12,27.1-50.12s27.1,22.49,27.1,50.12Z"/></g><g class="da"><path class="cd" d="M1495.99,520.18c0-27.46-11.9-49.73-26.57-49.73-14.68,0-26.57,22.26-26.57,49.73"/><path d="M1496.52,520.18h-1.06c0-27.2-11.68-49.33-26.04-49.33s-26.04,22.13-26.04,49.33h-1.06c0-27.64,12.16-50.12,27.1-50.12s27.1,22.49,27.1,50.12Z"/></g><g class="da"><path class="cd" d="M1253.76,433.13c0-23.92-11.9-43.31-26.57-43.31s-26.57,19.39-26.57,43.31"/><path d="M1254.29,433.13h-1.06c0-23.66-11.68-42.92-26.04-42.92s-26.04,19.25-26.04,42.92h-1.06c0-24.1,12.16-43.71,27.1-43.71s27.1,19.61,27.1,43.71Z"/></g><g><rect class="cw" x="1225.06" y="403.25" width="4.77" height="64.52" transform="translate(791.93 1662.96) rotate(-90)"/><path d="M1260.1,438.2h-65.32v-5.36h65.32v5.36Zm-64.52-.6h63.73v-4.17h-63.73v4.17Z"/></g><g><rect class="cw" x="968.08" y="389.08" width="4.77" height="64.52" transform="translate(549.13 1391.8) rotate(-90)"/><path d="M1003.12,424.02h-65.32v-5.36h65.32v5.36Zm-64.52-.6h63.73v-4.17h-63.73v4.17Z"/></g><g><rect class="cw" x="1466.29" y="487.6" width="4.77" height="64.52" transform="translate(948.81 1988.54) rotate(-90)"/><path d="M1501.33,522.55h-65.32v-5.36h65.32v5.36Zm-64.52-.6h63.73v-4.17h-63.73v4.17Z"/></g><g><rect class="cw" x="1466.29" y="391.46" width="4.77" height="64.52" transform="translate(1044.95 1892.4) rotate(-90)"/><path d="M1501.33,426.4h-65.32v-5.36h65.32v5.36Zm-64.52-.6h63.73v-4.17h-63.73v4.17Z"/></g><g><rect class="cw" x="967.13" y="490.29" width="4.77" height="64.52" transform="translate(446.96 1492.06) rotate(-90)"/><path d="M1002.17,525.23h-65.32v-5.36h65.32v5.36Zm-64.52-.6h63.73v-4.17h-63.73v4.17Z"/></g><g class="da"><path class="cd" d="M996.45,419.33c0-27.46-11.9-49.73-26.57-49.73-14.68,0-26.57,22.26-26.57,49.73"/><path d="M996.98,419.33h-1.06c0-27.2-11.68-49.33-26.04-49.33s-26.04,22.13-26.04,49.33h-1.06c0-27.64,12.16-50.12,27.1-50.12s27.1,22.49,27.1,50.12Z"/></g><rect class="cv" x="98.66" y="599.31" width="40.35" height="50.33"/><g><path class="cc" d="M243.98,563.68c-98.91,56.12-151.97,51.87-251.96,5.57,26.19-19.07,43.48-34.18,58.44-50.04-13.54-4.62-27.95-10.54-43.74-17.66,32.13-22.79,48.5-38.73,65.92-59.62-11.39-3.27-23.56-7.68-37.07-13.13,39.68-25.17,47.64-38,79.05-73.15,1.7,.02,3.41,.08,5.11,.14,30.46,33.82,40.07,46.45,78.11,69.89-14.8,7.31-28.01,12.8-40.37,16.58,16.98,19.2,33.57,34.12,63.41,54.67-12.78,7.06-24.65,12.97-35.91,17.77,15.45,15.85,32.92,30.53,59.01,48.97Z"/><path class="co" d="M117.64,605.38c-34.66,0-71.2-10.37-125.84-35.67l-.77-.36,.69-.5c24.86-18.11,42.21-32.93,57.84-49.42-12.48-4.29-26.58-10-43.05-17.42l-.8-.36,.71-.51c32.82-23.27,48.91-39.31,65.34-58.95-10.54-3.07-22.13-7.19-36.38-12.93l-.9-.36,.82-.52c33.38-21.17,44.16-33.48,65.65-57.99,3.92-4.47,8.35-9.54,13.3-15.06l.15-.17h.23c1.5,.02,2.99,.07,4.49,.12l.84,.03,.14,.16c2.77,3.07,5.36,5.97,7.82,8.71,24.48,27.34,35.66,39.82,70.19,61.08l.77,.47-.81,.4c-14.87,7.34-27.87,12.71-39.7,16.38,17.92,20.18,35.02,34.88,62.81,54.01l.67,.46-.71,.39c-12.84,7.1-24.39,12.83-35.28,17.5,15.82,16.15,33.34,30.65,58.43,48.39l.64,.45-.69,.39c-50.69,28.76-88.31,41.09-125.82,41.26-.25,0-.51,0-.76,0ZM-7,569.16c54.46,25.16,90.86,35.4,125.4,35.22,37.16-.16,74.47-12.35,124.65-40.74-25.06-17.76-42.57-32.31-58.43-48.58l-.51-.52,.67-.29c10.85-4.63,22.36-10.31,35.15-17.35-27.73-19.15-44.81-33.91-62.84-54.3l-.51-.58,.74-.23c11.77-3.6,24.69-8.89,39.48-16.15-34.05-21.05-45.27-33.58-69.64-60.79-2.42-2.7-4.96-5.54-7.67-8.55h-.42c-1.41-.06-2.83-.11-4.24-.13-4.88,5.46-9.26,10.47-13.14,14.89-21.37,24.39-32.18,36.73-65.04,57.66,14.13,5.68,25.63,9.73,36.12,12.75l.74,.21-.49,.59c-16.53,19.83-32.55,35.91-65.3,59.2,16.43,7.38,30.47,13.04,42.9,17.28l.74,.25-.53,.57c-15.67,16.61-32.99,31.48-57.82,49.6Z"/></g><rect class="cv" x="1798.38" y="552.84" width="32.03" height="40.12"/><g><path class="cc" d="M1921.6,541.13c-84.17,47.96-129.32,44.33-214.41,4.76,22.28-16.3,37-29.21,49.73-42.76-11.52-3.95-23.79-9.01-37.22-15.09,27.35-19.48,41.27-33.09,56.1-50.95-9.69-2.8-20.05-6.57-31.54-11.22,33.77-21.51,40.54-32.48,67.27-62.51,1.45,.02,2.9,.07,4.35,.12,25.92,28.91,34.1,39.7,66.47,59.72-12.6,6.25-23.83,10.94-34.35,14.17,14.45,16.41,28.57,29.16,53.96,46.72-10.87,6.03-20.98,11.08-30.56,15.18,13.15,13.54,28.02,26.09,50.21,41.85Z"/><path class="co" d="M1814.09,576.83c-29.5,0-60.61-8.86-107.11-30.49l-.77-.36,.68-.5c21.11-15.45,35.86-28.09,49.13-42.14-10.6-3.66-22.56-8.53-36.54-14.86l-.79-.36,.71-.5c27.87-19.85,41.57-33.54,55.52-50.28-8.95-2.62-18.78-6.13-30.86-11.02l-.9-.36,.82-.52c28.4-18.09,37.57-28.6,55.85-49.55,3.33-3.82,7.11-8.15,11.31-12.87l.15-.17h.23c1.27,.02,2.55,.06,3.82,.1l.75,.03,.14,.16c2.35,2.62,4.56,5.1,6.65,7.44,20.83,23.36,30.34,34.02,59.71,52.19l.77,.47-.81,.4c-12.61,6.26-23.64,10.83-33.69,13.97,15.22,17.2,29.76,29.74,53.36,46.06l.66,.46-.7,.39c-10.89,6.04-20.69,10.93-29.93,14.92,13.44,13.76,28.33,26.14,49.63,41.27l.64,.45-.68,.39c-43.14,24.58-75.18,35.13-107.11,35.27-.21,0-.43,0-.65,0Zm-105.92-31.04c82.84,38.43,127.69,43.44,212.5-4.71-21.28-15.15-36.16-27.57-49.64-41.46l-.51-.52,.67-.29c9.2-3.94,18.96-8.78,29.81-14.77-23.54-16.33-38.06-28.95-53.39-46.35l-.51-.58,.74-.23c9.98-3.06,20.93-7.56,33.47-13.74-28.9-17.96-38.45-28.67-59.17-51.9-2.05-2.3-4.21-4.72-6.51-7.28h-.33c-1.19-.05-2.38-.09-3.57-.11-4.14,4.65-7.86,8.92-11.16,12.7-18.16,20.82-27.37,31.37-55.25,49.21,11.97,4.82,21.71,8.27,30.6,10.84l.73,.21-.49,.59c-14.05,16.93-27.68,30.66-55.48,50.53,13.93,6.29,25.84,11.1,36.39,14.72l.73,.25-.53,.56c-13.31,14.18-28.03,26.86-49.12,42.33Z"/></g><rect class="cv" x="829.86" y="549.4" width="40.35" height="50.33"/><g><path class="cc" d="M949.85,540.26c-82.13,44.32-126.19,40.97-209.21,4.4,21.74-15.07,36.1-27,48.52-39.53-11.24-3.65-23.21-8.33-36.32-13.95,26.68-18,40.27-30.59,54.74-47.09-9.46-2.59-19.57-6.07-30.78-10.37,32.95-19.88,39.56-30.02,65.63-57.78,1.41,.02,2.83,.07,4.24,.11,25.29,26.72,33.27,36.69,64.86,55.2-12.29,5.77-23.26,10.11-33.52,13.1,14.1,15.17,27.87,26.95,52.65,43.19-10.61,5.58-20.47,10.24-29.81,14.03,12.83,12.52,27.34,24.12,48.99,38.68Z"/><path class="co" d="M844.95,573.29c-28.79,0-59.13-8.19-104.51-28.18l-.82-.36,.73-.51c20.57-14.25,34.94-25.92,47.88-38.89-10.33-3.39-21.98-7.88-35.59-13.71l-.84-.36,.76-.51c27.16-18.33,40.52-30.97,54.11-46.41-8.72-2.42-18.3-5.66-30.06-10.17l-.96-.37,.88-.53c27.71-16.72,36.66-26.43,54.49-45.79,3.25-3.53,6.94-7.53,11.04-11.9l.15-.16h.22c1.23,.02,2.47,.06,3.7,.1l.76,.02,.14,.15c2.29,2.42,4.45,4.71,6.49,6.88,20.32,21.59,29.6,31.44,58.26,48.23l.82,.48-.86,.4c-12.28,5.77-23.03,9.99-32.81,12.9,14.83,15.86,29.01,27.45,52.01,42.52l.71,.47-.75,.4c-10.6,5.57-20.15,10.08-29.15,13.77,13.1,12.7,27.62,24.13,48.37,38.09l.69,.46-.73,.39c-42.1,22.72-73.35,32.47-104.5,32.6-.21,0-.42,0-.63,0Zm-103.29-28.73c80.76,35.48,124.53,40.11,207.22-4.35-20.74-13.98-35.23-25.46-48.38-38.27l-.55-.53,.71-.29c8.97-3.64,18.46-8.1,29.02-13.62-22.94-15.08-37.09-26.73-52.03-42.8l-.55-.59,.78-.23c9.72-2.83,20.38-6.97,32.59-12.67-28.14-16.57-37.47-26.48-57.66-47.93-2-2.12-4.1-4.36-6.35-6.73h-.35c-1.15-.05-2.31-.09-3.46-.1-4.04,4.3-7.67,8.25-10.88,11.73-17.71,19.22-26.68,28.97-53.83,45.44,11.64,4.44,21.12,7.62,29.78,9.99l.77,.21-.53,.6c-13.7,15.63-26.98,28.32-54.07,46.66,13.56,5.79,25.16,10.24,35.44,13.57l.77,.25-.57,.58c-12.98,13.09-27.32,24.81-47.86,39.08Z"/></g><rect class="cv" x="298.19" y="555.91" width="20.72" height="26.85"/><g><path class="cc" d="M376.07,543.02c-50.81,29.94-78.06,27.68-129.42,2.97,13.45-10.18,22.33-18.24,30.02-26.7-6.96-2.46-14.36-5.62-22.47-9.42,16.51-12.16,24.91-20.66,33.86-31.81-5.85-1.75-12.1-4.1-19.04-7.01,20.38-13.43,24.47-20.28,40.6-39.03,.87,.01,1.75,.04,2.62,.08,15.65,18.05,20.58,24.79,40.12,37.29-7.6,3.9-14.39,6.83-20.73,8.85,8.72,10.25,17.24,18.21,32.57,29.17-6.56,3.77-12.66,6.92-18.44,9.48,7.94,8.45,16.91,16.29,30.31,26.13Z"/><path class="co" d="M311.05,565.58c-19.68,0-39.2-6.9-64.61-19.13l-.74-.35,.65-.49c12.64-9.56,21.49-17.4,29.44-26.08-6.34-2.28-13.48-5.29-21.8-9.19l-.76-.36,.68-.5c16.69-12.3,24.95-20.8,33.3-31.15-5.34-1.63-11.2-3.8-18.38-6.81l-.87-.36,.78-.52c17.12-11.28,22.65-17.83,33.67-30.9,2.05-2.43,4.29-5.09,6.83-8.04l.15-.18h.23c.77,.01,1.54,.04,2.31,.07l.54,.02,.14,.16c1.42,1.64,2.75,3.18,4.01,4.65,12.56,14.57,18.29,21.22,36,32.55l.73,.47-.77,.4c-7.51,3.85-14.09,6.69-20.1,8.65,9.11,10.62,17.86,18.4,31.99,28.52l.63,.45-.68,.39c-6.49,3.73-12.33,6.74-17.84,9.22,8.06,8.51,17,16.19,29.76,25.56l.61,.45-.65,.39c-25.91,15.27-45.68,22.12-65.28,22.12Zm-63.44-19.67c49.68,23.8,76.69,26.89,127.56-2.93-12.74-9.39-21.67-17.12-29.76-25.74l-.48-.51,.64-.29c5.48-2.43,11.28-5.4,17.72-9.07-14.09-10.13-22.82-17.98-32.03-28.8l-.49-.57,.72-.23c5.94-1.89,12.45-4.64,19.88-8.42-17.26-11.12-23.03-17.82-35.48-32.27-1.22-1.42-2.5-2.9-3.87-4.48h-.11c-.68-.03-1.37-.05-2.05-.06-2.47,2.88-4.66,5.47-6.67,7.86-10.91,12.94-16.47,19.53-33.1,30.57,7.07,2.94,12.85,5.05,18.12,6.63l.71,.21-.47,.58c-8.45,10.53-16.64,19.08-33.28,31.4,8.28,3.86,15.37,6.82,21.66,9.05l.71,.25-.51,.56c-7.99,8.8-16.83,16.69-29.43,26.27Z"/></g><rect class="cv" x="716.45" y="573.86" width="20.72" height="26.85"/><g><path class="cc" d="M794.34,560.98c-50.81,29.94-78.06,27.68-129.42,2.97,13.45-10.18,22.33-18.24,30.02-26.7-6.96-2.46-14.36-5.62-22.47-9.42,16.51-12.16,24.91-20.66,33.86-31.81-5.85-1.75-12.1-4.1-19.04-7.01,20.38-13.43,24.47-20.28,40.6-39.03,.87,.01,1.75,.04,2.62,.08,15.65,18.05,20.58,24.79,40.12,37.29-7.6,3.9-14.39,6.83-20.73,8.85,8.72,10.25,17.24,18.21,32.57,29.17-6.56,3.77-12.66,6.92-18.44,9.48,7.94,8.45,16.91,16.29,30.31,26.13Z"/><path class="co" d="M729.31,583.53c-19.68,0-39.2-6.9-64.61-19.13l-.74-.35,.65-.49c12.63-9.56,21.49-17.4,29.44-26.08-6.34-2.28-13.48-5.29-21.8-9.19l-.76-.36,.68-.5c16.69-12.3,24.95-20.8,33.3-31.15-5.34-1.63-11.2-3.8-18.38-6.81l-.87-.36,.78-.52c17.12-11.28,22.65-17.83,33.67-30.9,2.05-2.43,4.29-5.09,6.83-8.04l.15-.18h.23c.77,.01,1.54,.04,2.31,.07l.55,.02,.14,.16c1.42,1.64,2.75,3.18,4.01,4.65,12.56,14.57,18.29,21.22,36,32.55l.73,.47-.77,.4c-7.51,3.85-14.09,6.69-20.1,8.65,9.11,10.62,17.86,18.41,31.99,28.52l.63,.45-.67,.39c-6.49,3.72-12.33,6.74-17.84,9.22,8.06,8.51,17,16.19,29.76,25.56l.61,.45-.65,.39c-25.91,15.27-45.68,22.12-65.28,22.12Zm-63.44-19.67c49.68,23.8,76.69,26.89,127.56-2.93-12.74-9.39-21.67-17.11-29.76-25.74l-.48-.51,.64-.29c5.48-2.43,11.28-5.4,17.72-9.07-14.09-10.13-22.82-17.98-32.03-28.8l-.49-.57,.72-.23c5.94-1.89,12.45-4.64,19.88-8.42-17.26-11.12-23.03-17.82-35.49-32.27-1.22-1.41-2.5-2.9-3.87-4.48h-.11c-.68-.03-1.37-.05-2.05-.06-2.47,2.88-4.66,5.47-6.67,7.86-10.91,12.94-16.47,19.53-33.1,30.57,7.07,2.94,12.85,5.05,18.12,6.63l.71,.21-.47,.58c-8.45,10.53-16.64,19.08-33.28,31.4,8.28,3.86,15.37,6.82,21.66,9.05l.71,.25-.51,.56c-8,8.81-16.83,16.69-29.43,26.27Z"/></g><g id="w"><path class="cl" d="M1898.9,1084.73c-61.35-10.63-1827.12-10.27-1893.8,1.73-.91,.16-13.12-.71-12.97-4.31,.19-4.78-1.71-11.91-3.33-16.5-1.22-3.46,8.82-6.36,10.97-6.63,156.96-19.87,1770.97-17.02,1921.82,3.39,2.07,.28,8.48,3.32,5.4,6.05-4.09,3.63-10.72,9.25-13.62,13.15-2.19,2.94-13.62,3.27-14.46,3.12Z"/></g></g></g><g id="x"><g id="y"><g id="a`"><g id="aa"><g><rect class="cv" x="191.42" y="819.24" width="44.91" height="78.38"/><path d="M236.83,898.13h-45.91v-79.38h45.91v79.38Zm-44.91-1h43.91v-77.38h-43.91v77.38Z"/></g><g><rect class="cg" x="198.96" y="815.91" width="43.33" height="81.72"/><path d="M242.79,898.13h-44.33v-82.72h44.33v82.72Zm-43.33-1h42.33v-80.72h-42.33v80.72Z"/></g><g><rect class="cv" x="84.09" y="781.35" width="49.8" height="168.4"/><path d="M134.39,950.24h-50.8v-169.4h50.8v169.4Zm-49.8-1h48.81v-167.4h-48.81v167.4Z"/></g><g><rect class="cg" x="79.47" y="781.07" width="41.75" height="168.68"/><path d="M121.72,950.24h-42.75v-169.68h42.75v169.68Zm-41.75-1h40.75v-167.68h-40.75v167.68Z"/></g><g><rect class="cv" x="1831.09" y="780.89" width="49.8" height="168.4"/><path d="M1881.4,949.79h-50.8v-169.4h50.8v169.4Zm-49.8-1h48.81v-167.4h-48.81v167.4Z"/></g><g><rect class="cv" x="1694.18" y="817.58" width="44.91" height="78.38"/><path d="M1739.6,896.46h-45.91v-79.38h45.91v79.38Zm-44.91-1h43.91v-77.38h-43.91v77.38Z"/></g><g><rect class="cg" x="1839.15" y="780.61" width="41.75" height="168.68"/><path d="M1881.4,949.79h-42.75v-169.68h42.75v169.68Zm-41.75-1h40.75v-167.68h-40.75v167.68Z"/></g><g><rect class="cg" x="1701.73" y="814.24" width="43.33" height="81.72"/><path d="M1745.55,896.46h-44.33v-82.72h44.33v82.72Zm-43.33-1h42.33v-80.72h-42.33v80.72Z"/></g></g><g id="ab"/><g><polygon class="cj" points="1918.7 846.35 19.12 846.35 12.36 809.71 1913.32 805.67 1918.7 846.35"/><path d="M1919.84,847.35H18.29l-7.13-38.64h1.2l1901.84-4.04,5.65,42.68Zm-1899.89-2H1917.56l-5.12-38.68L13.56,810.71l6.4,34.64Z"/></g><g><polygon class="cg" points="1918.7 804.95 1898.13 805.01 1897.15 805.01 1893.35 805.03 1892.98 805.03 1765.51 805.38 1760.97 805.41 1756.75 805.41 1627.72 805.78 1621.31 805.78 1500.66 806.13 1496.3 806.15 1493.31 806.15 1362.05 806.53 1360.49 806.53 1356.4 806.55 1355.37 806.55 1240.08 806.87 1235.32 806.87 1102.29 807.25 1099.67 807.27 1096.77 807.27 966.5 807.65 961.88 807.65 959.16 807.67 819.87 808.05 815.77 808.07 809.41 808.07 703.79 808.39 699.46 808.39 562.56 808.8 555.67 808.8 432.59 809.14 432.35 809.14 426.78 809.17 425.83 809.17 292.37 809.54 289.54 809.54 285.77 809.57 283.07 809.57 157.17 809.92 153.87 809.94 149.69 809.94 18.35 810.32 15.58 810.32 13.28 810.34 12.35 810.34 1.23 810.37 8.36 803.43 8.74 803.06 11.03 800.81 12.99 798.89 93.94 719.91 97.11 716.82 104.69 709.42 106.96 707.21 175.71 640.13 196.26 640.02 196.55 640.02 197.76 640 198.05 640 335.79 639.22 339.01 639.22 341.05 639.2 462.41 638.53 467.11 638.5 467.61 638.5 470.15 638.47 607.65 637.7 607.96 637.7 612.48 637.67 613.09 637.67 740.13 636.95 742.56 636.95 745.2 636.93 747.47 636.93 869.42 636.23 871.21 636.23 873.01 636.21 1734.14 625.96 1864.9 756.51 1865.93 757.44 1880.43 770.49 1881.8 771.72 1918.7 804.95"/><path d="M0,810.87l12.64-12.34,162.87-158.91,22.55-.13,137.74-.77,5.25-.03,126.57-.69,2.53-.03,269.98-1.52,7.34-.03,121.94-.69,3.59-.03,861.35-10.25,.15,.15,130.76,130.55,16.88,15.2,37.86,34.1L0,810.87Zm175.91-170.24L13.33,799.25l-10.87,10.62,15.88-.05,131.35-.37,7.47-.03,128.6-.35,6.6-.03,134.41-.37,5.81-.03,123.08-.35h6.89l136.89-.4h4.33l105.62-.32,10.46-.03,139.3-.37,7.34-.03,130.26-.37,5.52-.03,133.04-.37h4.76l116.32-.32,5.65-.03,131.27-.37,7.34-.03,120.65-.35h6.42l129.02-.37,8.77-.03,127.84-.35,4.78-.03,19.28-.05-52.84-47.58-130.63-130.42-860.92,10.25-3.6,.03-121.94,.69-7.34,.03-269.98,1.52-7.74,.05-121.36,.67-5.26,.03-138.03,.77-1.51,.03-20.34,.11Z"/></g><g class="cx"><polygon class="ci" points="1917.83 828.91 18.25 828.91 11.48 810.59 1912.44 808.57 1917.83 828.91"/><path class="cg" d="M1918.47,829.41H17.9l-7.13-19.32h.72l1901.34-2.02,5.65,21.34Zm-1899.88-1H1917.18l-5.12-19.34-1899.86,2.02,6.4,17.32Z"/></g></g><g id="ac"><path d="M245.45,639.12c-48,68.13-100.83,135.45-157.08,200.01,47.97-68.15,100.86-135.44,157.08-200.01h0Z"/><path d="M324.05,639.12c-8.83,17.14-18.28,34.08-27.96,50.94-4.78,8.45-9.78,16.82-14.68,25.23l-15.04,25.11-15.38,25c-5.25,8.29-10.37,16.62-15.74,24.88-10.61,16.55-21.44,33.02-32.9,49.28,8.82-17.15,18.27-34.08,27.95-50.94,4.78-8.45,9.79-16.82,14.68-25.23l15.04-25.11,15.39-25c5.24-8.29,10.38-16.62,15.74-24.88,10.61-16.55,21.43-33.02,32.89-49.28Z"/><path d="M405.62,638.69c-7.38,17.43-15.4,34.69-23.65,51.88-4.06,8.61-8.36,17.16-12.55,25.73l-12.91,25.63-13.26,25.53c-4.54,8.48-8.97,16.99-13.63,25.43-9.2,16.92-18.64,33.77-28.72,50.45,7.37-17.44,15.39-34.69,23.64-51.88,4.06-8.61,8.37-17.16,12.55-25.73l12.92-25.63,13.27-25.53c4.54-8.48,8.97-16.99,13.63-25.43,9.21-16.92,18.64-33.77,28.71-50.45Z"/><path d="M491.99,637.06c-5.2,17.34-11.07,34.54-17.16,51.69-2.99,8.59-6.21,17.13-9.32,25.69l-9.7,25.61c-6.57,17.05-13.42,34.04-20.49,50.98-7.08,16.94-14.39,33.83-22.37,50.58,5.19-17.34,11.05-34.55,17.15-51.7,6.1-17.15,12.42-34.25,19.03-51.3l10.07-25.53c3.47-8.48,6.84-16.99,10.44-25.45,7.08-16.94,14.39-33.83,22.36-50.58Z"/><path d="M572.33,637.06c-3.75,17.32-7.98,34.51-12.38,51.64-2.15,8.58-4.48,17.11-6.72,25.66l-6.99,25.58c-4.74,17.03-9.68,34-14.78,50.93-5.11,16.92-10.38,33.8-16.14,50.53,3.75-17.33,7.97-34.51,12.37-51.64,4.4-17.13,8.96-34.22,13.73-51.24l7.26-25.5c2.51-8.48,4.93-16.98,7.53-25.42,5.11-16.92,10.38-33.8,16.13-50.53Z"/><path d="M637.13,633.56c-.68,17.81-1.7,35.5-2.84,53.14-.54,8.83-1.2,17.62-1.81,26.43l-2,26.36c-1.39,17.56-2.93,35.06-4.58,52.52-1.66,17.46-3.43,34.88-5.56,52.17,.67-17.81,1.69-35.5,2.84-53.14,1.15-17.64,2.41-35.24,3.82-52.79l2.2-26.29c.79-8.74,1.53-17.5,2.39-26.22,1.66-17.46,3.43-34.88,5.56-52.17Z"/><path d="M714.24,633.56c-.68,17.81-1.7,35.5-2.84,53.14-.54,8.83-1.2,17.62-1.81,26.43l-2,26.36c-1.39,17.56-2.93,35.06-4.58,52.52-1.66,17.46-3.43,34.88-5.56,52.17,.67-17.81,1.69-35.5,2.84-53.14,1.15-17.64,2.41-35.24,3.82-52.79l2.2-26.29c.79-8.74,1.53-17.5,2.39-26.22,1.66-17.46,3.43-34.88,5.56-52.17Z"/><path d="M785.14,625.96c.4,17.98,.07,35.95-.5,53.92-.22,8.98-.7,17.96-1.06,26.94l-1.46,26.93c-1.09,17.95-2.49,35.9-4.13,53.85-1.64,17.94-3.55,35.88-6.17,53.81-.4-17.98-.09-35.95,.49-53.92,.58-17.96,1.4-35.92,2.53-53.88l1.87-26.93c.75-8.97,1.38-17.95,2.27-26.92,1.65-17.94,3.54-35.88,6.16-53.81Z"/><path d="M860.41,635.54c.3,17.82,.25,35.52,.08,53.18-.05,8.84-.23,17.64-.36,26.47l-.55,26.4c-.42,17.58-1,35.12-1.69,52.61-.7,17.5-1.52,34.95-2.69,52.29-.31-17.82-.26-35.52-.08-53.19,.18-17.66,.47-35.29,.91-52.86l.75-26.34c.31-8.76,.57-17.54,.95-26.27,.7-17.5,1.52-34.95,2.69-52.29Z"/><path d="M934.44,633.39c.3,17.82,.25,35.52,.08,53.18-.05,8.84-.23,17.64-.36,26.47l-.55,26.4c-.42,17.58-1,35.12-1.69,52.61-.7,17.5-1.52,34.95-2.69,52.29-.31-17.82-.26-35.52-.08-53.19,.18-17.66,.47-35.29,.91-52.86l.75-26.34c.31-8.76,.57-17.54,.95-26.27,.7-17.5,1.52-34.95,2.69-52.29Z"/><path d="M1006.64,632.67c-.65,17.95-1.67,35.79-2.82,53.58-.54,8.91-1.22,17.77-1.83,26.65l-2.04,26.59c-1.42,17.71-3,35.36-4.7,52.97-1.7,17.61-3.54,35.18-5.76,52.63,.64-17.96,1.66-35.79,2.81-53.58,1.15-17.79,2.43-35.54,3.87-53.24l2.25-26.52c.82-8.82,1.57-17.66,2.46-26.45,1.71-17.61,3.54-35.18,5.75-52.63Z"/><path d="M1056.41,631.34c2.23,17.88,4.06,35.68,5.76,53.45,.89,8.89,1.63,17.75,2.44,26.63l2.22,26.58c1.42,17.7,2.67,35.37,3.8,53.01,1.12,17.64,2.1,35.24,2.69,52.76-2.23-17.89-4.07-35.68-5.77-53.45-1.7-17.77-3.26-35.5-4.66-53.2l-2.01-26.53c-.6-8.83-1.26-17.67-1.79-26.48-1.12-17.64-2.1-35.24-2.7-52.76Z"/><path d="M1134.66,631.18c1.34,17.93,2.3,35.77,3.13,53.57,.45,8.91,.76,17.78,1.13,26.68l.91,26.62c.55,17.73,.93,35.42,1.19,53.08,.25,17.66,.37,35.28,.09,52.8-1.35-17.93-2.31-35.77-3.13-53.57-.82-17.8-1.51-35.57-2.04-53.29l-.7-26.57c-.16-8.84-.39-17.69-.48-26.51-.25-17.66-.37-35.28-.1-52.8Z"/><path d="M1184.25,630.65c4.67,17.65,8.62,35.38,12.33,53.13,1.92,8.87,3.58,17.77,5.36,26.66l4.96,26.7c3.2,17.81,6.09,35.66,8.74,53.54,2.65,17.88,5.04,35.78,6.72,53.77-4.67-17.65-8.63-35.38-12.34-53.13-3.7-17.76-7.16-35.54-10.32-53.36l-4.57-26.75c-1.39-8.93-2.91-17.85-4.16-26.79-2.65-17.88-5.04-35.78-6.73-53.77Z"/><path d="M1271.41,629.34c11.91,67.58,19.72,136.4,23.12,204.52-11.95-67.57-19.69-136.4-23.12-204.52h0Z"/><path d="M1336.82,631.51c3.58,17.95,6.73,35.82,9.73,53.66,1.54,8.93,2.93,17.83,4.39,26.75l4.15,26.71c2.7,17.79,5.22,35.55,7.6,53.29,2.38,17.74,4.6,35.45,6.41,53.08-3.58-17.95-6.74-35.82-9.74-53.67-3-17.85-5.86-35.67-8.54-53.46l-3.92-26.67c-1.23-8.88-2.53-17.76-3.68-26.62-2.38-17.74-4.61-35.45-6.41-53.08Z"/><path d="M1389.64,627.9c7.08,17.45,13.42,35.03,19.49,52.65,3.11,8.8,5.94,17.64,8.91,26.47l8.48,26.54c5.54,17.71,10.75,35.48,15.72,53.29,4.96,17.81,9.65,35.66,13.59,53.64-7.09-17.45-13.43-35.03-19.5-52.65-6.06-17.62-11.88-35.29-17.38-53.01l-8.06-26.61c-2.55-8.89-5.23-17.76-7.64-26.68-4.96-17.81-9.65-35.66-13.6-53.64Z"/><path d="M1467.65,623.87c35.78,69.01,67.51,139.85,94.2,210.52-35.82-69-67.48-139.85-94.2-210.52h0Z"/><path d="M1547.87,624.72c8.19,18.58,15.99,37.14,23.67,55.68,3.87,9.27,7.6,18.53,11.4,27.8l11.19,27.78c7.4,18.52,14.63,37.02,21.73,55.51,7.1,18.49,14.07,36.97,20.65,55.42-8.19-18.58-16-37.14-23.67-55.68-7.67-18.54-15.21-37.07-22.58-55.59l-10.97-27.77c-3.59-9.25-7.24-18.5-10.76-27.75-7.1-18.49-14.07-36.97-20.65-55.42Z"/><path d="M1625.4,625.49c8.19,18.58,15.99,37.14,23.67,55.68,3.87,9.27,7.6,18.53,11.4,27.8l11.19,27.78c7.4,18.52,14.63,37.02,21.73,55.51,7.1,18.49,14.07,36.97,20.65,55.42-8.19-18.58-16-37.14-23.67-55.68-7.67-18.54-15.21-37.07-22.58-55.59l-10.97-27.77c-3.59-9.25-7.24-18.5-10.76-27.75-7.1-18.49-14.07-36.97-20.65-55.42Z"/><path d="M1696.24,625.44c10.37,18.74,20.19,36.22,30.04,55.41,4.93,9.61,9.89,20.38,15.81,30.84,4.44,7.83,14.03,22.14,18.76,29.22,12.61,18.86,26.87,35.09,40.84,51.65,13.96,16.56,24.72,31.01,36.68,47.97-13.42-16.62-25.16-30.96-39.85-47.46-14.68-16.5-29.07-32.83-41.83-51.9-4.78-7.14-14.26-21.61-18.57-29.48-5.74-10.48-10.45-21.36-15.08-30.9-9.28-19.1-18.03-36.45-26.81-55.35Z"/></g></g><g id="ad"><g><polygon class="ci" points="1059.28 1066.51 1056.28 741.73 1066.94 741.66 1069.94 1066.44 1059.28 1066.51"/><path class="cg" d="M1058.79,1067.01v-.5l-3.01-325.28,11.66-.08v.5l3.01,325.28-11.66,.08Zm-2-324.78l2.99,323.78,9.66-.06-2.99-323.78-9.66,.06Z"/></g><g><polygon class="cg" points="1062.45 1063.18 1058.82 741.85 1071.69 741.78 1075.31 1063.12 1062.45 1063.18"/><path d="M1061.71,1063.94v-.75l-3.64-322.09,14.36-.08v.75l3.64,322.09-14.36,.08Zm-2.12-321.35l3.6,319.84,11.36-.06-3.6-319.84-11.36,.06Z"/></g><g><polygon class="ci" points="921.88 1066.51 918.88 745.52 929.54 745.45 932.54 1066.44 921.88 1066.51"/><path class="cg" d="M921.39,1067.01v-.5l-3.01-321.49,11.66-.08v.5l3.01,321.49-11.66,.08Zm-2-321l2.99,319.99,9.66-.06-2.99-319.99-9.66,.06Z"/></g><g><polygon class="cg" points="925.06 1062.86 921.44 745.38 934.3 745.32 937.92 1062.79 925.06 1062.86"/><path d="M924.32,1063.61v-.75l-3.64-318.23,14.36-.08v.75l3.64,318.23-14.36,.08Zm-2.12-317.48l3.6,315.97,11.36-.06-3.6-315.97-11.36,.06Z"/></g><g><polygon class="ci" points="912.74 913.08 1076.25 905.19 1077.87 937.03 910.05 938.52 912.74 913.08"/><path class="cg" d="M909.49,939.03l2.79-26.43,164.45-7.93,.02,.5,1.64,32.36h-.52l-168.38,1.5Zm3.7-25.47l-2.59,24.46,166.74-1.48-1.56-30.82-162.59,7.84Z"/></g><g><polygon class="cg" points="912.75 910.03 1076.9 903.21 1078.52 930.74 910.05 932.03 912.75 910.03"/><path d="M909.2,932.78l2.88-23.47,165.53-6.88,1.71,29.05-170.12,1.3Zm4.21-22.03l-2.52,20.52,166.83-1.28-1.53-26-162.79,6.76Z"/></g><g><polygon class="ci" points="904.26 998.7 1084.98 990.81 1086.76 1022.65 901.29 1024.14 904.26 998.7"/><path class="cg" d="M900.73,1024.65l3.09-26.43,181.63-7.93,1.84,32.85h-.52l-186.03,1.5Zm3.98-25.47l-2.86,24.46,184.38-1.48-1.72-30.82-179.8,7.85Z"/></g><g><polygon class="cg" points="904.27 995.65 1085.69 988.83 1087.48 1016.35 901.29 1017.64 904.27 995.65"/><path d="M900.43,1018.4l3.18-23.48,.63-.02,182.15-6.85,1.89,29.05-187.85,1.3Zm4.5-22.03l-2.78,20.51,184.53-1.28-1.69-26-180.06,6.77Z"/></g><g><polygon class="ci" points="897.79 834.54 1078.51 826.65 1080.29 858.49 894.82 859.98 897.79 834.54"/><path class="cg" d="M894.26,860.49l3.09-26.43,181.63-7.93,1.84,32.85h-.52l-186.03,1.5Zm3.98-25.47l-2.86,24.46,184.38-1.48-1.72-30.82-179.8,7.85Z"/></g><g><polygon class="cg" points="897.81 831.49 1079.23 824.67 1081.01 852.2 894.82 853.49 897.81 831.49"/><path d="M893.96,854.24l3.18-23.48,.63-.02,182.15-6.85,1.89,29.05-187.85,1.3Zm4.5-22.02l-2.78,20.51,184.53-1.28-1.69-26-180.06,6.77Z"/></g></g></g></g><g id="ae"/><g id="af"><g id="ag"/><g id="ah"/><g id="ai"/><g id="aj"/><g id="ak"/><g id="al"/><g id="am"/></g><g id="an"><g id="ao"/><g id="ap"/><g id="aq"/><g id="ar"/><g id="as"/></g><g id="at"><g id="au"/><g id="av"/></g><g id="aw"><g id="ax"/></g><g id="ay"><g id="b`"/><g id="ba"><g id="bb"/></g></g><g id="bc"><g id="bd"/><g id="be"/><g id="bf"/><g id="bg"/></g><g id="bh"><g id="bi"/><g id="bj"/><g id="bk"/></g><g id="bl"><g id="bm"/><g id="bn"/></g><g id="bo"/><g id="bp"><g id="bq"/><g id="br"/><g id="bs"/><g id="bt"><g id="bu"/><g id="bv"/><g id="bw"/><g id="bx"/></g><g id="by"/><g id="c`"/><g id="ca"/></g></svg>