<?xml version="1.0" encoding="UTF-8"?><svg xmlns="http://www.w3.org/2000/svg" width="325" height="260" viewBox="0 0 325 260"><defs><style>.bt{fill:#f4a593;}.bu{fill:#f76b00;}.bv{fill:#fff;}.bw{fill:#fbb03b;}.bx{fill:#ff1d25;}.by{fill:#fddbb4;}.c`{fill:#b3b3b3;}.ca{fill:#336;}.cb{fill:#231f20;}.cc{fill:#823abc;}</style></defs><g id="a"/><g id="b"/><g id="c"><g id="d"/><g id="e"/><g id="f"/><g id="g"/></g><g id="h"><g id="i"/><g id="j"><g id="k"/><g id="l"/><g id="m"/><g id="n"/></g><g id="o"/><g id="p"><g id="q"><g id="r"><g id="s"/><g id="t"/></g></g><g id="u"/></g></g><g id="v"/><g id="w"><g id="x"/><g id="y"/><g id="a`"/><g id="aa"/><g id="ab"/><g id="ac"/><g id="ad"/></g><g id="ae"><g id="af"/><g id="ag"/><g id="ah"/><g id="ai"/><g id="aj"/></g><g id="ak"><g id="al"/><g id="am"/></g><g id="an"><g id="ao"/></g><g id="ap"><g id="aq"><g id="ar"><path class="bu" d="M165.84,191.16c-2.11-27.3-14.47-60.79-12.71-88.19C157.11,41.36,194.8-9.01,252.73,1.6c57.93,10.62,84.44,77.07,66.96,141.49-8.56,31.55-41.31,62.15-60.67,86.32"/></g><rect class="by" x="14.91" y="150.52" width="128.45" height="47.86"/><path class="ca" d="M116.37,72.86c-1.08,.6-1.11,1.45-2.43,1.35-21.95-1.73-43.88-2.97-65.81-.59-1.47,.16-1.51-.6-2.39-1.5C23.92,98.5,2.1,157.47,12.36,196.3c14.67-6.51,47.53-8.93,66.21-5.05,18.68,3.87,41.16-12.46,66.43,1.16,.83-46.32-5.31-83.11-28.64-119.55Z"/><path class="ca" d="M28.43,126.12c-2.76-1.31-8.92-1.54-11.08-1.75-2.76-.27-7.07,4.91-6.77-2.26,.8-19.02,3.13-35.14,14.98-50.05,4.47-5.62,7.71-4.5,11.59-2.05,3.05,1.92,5.04,5.67,6.81,8.3,2.26,3.35,3.78,7,.87,11.33-7.73,11.49-7.73,17.71-8.98,31.84-.47,5.33-3.91,6.32-7.42,4.65Z"/><path class="ca" d="M133.14,124.82c2.39-1.36,7.98-1.84,9.94-2.13,2.49-.37,6.93,4.38,5.95-2.44-2.59-18.06-6.29-33.31-18.56-46.99-4.63-5.16-7.47-3.96-10.77-1.46-2.59,1.96-4.04,5.6-5.4,8.18-1.73,3.28-2.77,6.81,.32,10.81,8.17,10.61,8.78,16.52,11.31,29.91,.95,5.05,4.18,5.85,7.22,4.11Z"/><path d="M135.73,94.08c2.74,5.31,4.4,11.32,4.52,17.59,.01,.67,.87,.67,.86,0-.12-6.46-1.82-12.66-4.63-18.12-.29-.57-1.04-.05-.74,.53h0Z"/><path d="M29.13,98.19c-2.74,5.31-4.4,11.32-4.52,17.59-.01,.67-.87,.67-.86,0,.12-6.46,1.82-12.66,4.63-18.12,.29-.57,1.04-.05,.74,.53h0Z"/><path d="M94.24,127.09c5.61,5.49,12.44,7.34,18.95,6.63,6.77-.73,13.31-4.4,19.06-10.06,3.14-3.1,6.05-6.78,8.7-10.88,.38-.59-.2-1.51-.58-.92-9.35,14.48-22.42,23.49-35.62,19.94-3.55-.96-7.01-2.82-10.08-5.83-.45-.44-.87,.69-.42,1.13h0Z"/><path d="M66.62,128.21c-5.02,4.41-11.15,5.89-16.98,5.32-6.07-.58-11.93-3.53-17.07-8.07-2.82-2.49-5.42-5.44-7.79-8.73-.34-.47,.18-1.21,.52-.74,8.38,11.62,20.09,18.85,31.92,16,3.18-.77,6.28-2.27,9.03-4.68,.41-.36,.78,.55,.37,.9h0Z"/><ellipse class="by" cx="13.19" cy="122.77" rx="13.19" ry="15.95"/><ellipse class="by" cx="145.08" cy="125.55" rx="13.19" ry="15.95"/><path class="by" d="M124,73.47c.48,13.4-34.47,22.94-44.68,23.07-10.21,.13-43.53-10.48-43.03-23.34"/><path d="M75.07,89.91c3.76,.1,7.02,4.13,7.03,8.68l.84-.14c-.47-2.73-.99-6.35,1.08-8.34,1.77-1.7,4.41-1.29,6.43-.6,.53,.18,.76-.82,.23-1-2.35-.81-5.29-1.13-7.3,.89-2.28,2.3-1.8,6.22-1.27,9.33,.1,.58,.85,.44,.84-.14-.02-5.12-3.67-9.6-7.89-9.72-.55-.02-.55,1.03,0,1.04h0Z"/><path class="cb" d="M13.19,199.07c0-4.21,15.28-7.63,34.12-7.63s34.12,3.42,34.12,7.63"/><path class="cb" d="M78.57,198.38c0-3.83,14.89-6.94,33.25-6.94s33.25,3.11,33.25,6.94"/><path d="M79.7,196.49c.82-1.77,1.1-3.68,.96-5.54-.02-.26-.57-.26-.55,0,.14,1.83-.13,3.7-.94,5.44-.12,.25,.42,.35,.53,.11h0Z"/><path class="bx" d="M130.03,79.94c-.22,.62-1.05,.7-1.58,.28s-1.1-1.07-1.5-1.66c-.1,.38-.03,.69-.45,.91-.97,.5-1.96,.33-2.96-.06-.33-.13-.62-.34-.92-.52,.43,1.33,.77,2.72,.93,4.1,.08,.67-.44,1.13-1.02,.83-1.29-.66-1.85-1.9-2.29-3.27-.44-1.37-.82-4.7-2.77-4.08-1.95,.62-.22,3.99,.22,5.37,.43,1.38,.41,3.04-.03,4.36-.44,1.32-1.03,2.09-2.32,2.27-1.28,.17-2.02-1.13-2.52-1.97-.5-.84-.71-1.42-1.1-2.1s-.38-1.53-1.05-1.84c-.68-.3-1.12,.69-1.69,.79-.57,.1-.85-.33-1.28-.6-.47,3.16-2.3,4.25-5,5.41-.41,.18-.88-.03-1.15-.45-.5-.8-.54-1.71-.83-2.61-.47-1.46-.8-2.34-2.4-2.8-2.09-.6-4.6-.83-6.79-1.16,.91,2.02,1.89,3.74,1.42,6.08-.34,1.69-1.68,2.69-3.38,2.47-.98-.13-1.55-1.03-2.29-1.75-.74-.72-2.12-1.73-2.88-2.39-1.34-1.16-4.02-3.59-4.92-4.22-.9-.63-.09-.05-.37-.24s-.19-.1-.24-.04c-1.29,1.28-2.31,2.65-3.82,3.68-.77,.53-1.64,1.23-2.66,.9-2.12-.68-3.06-2.71-4.06-4.58-.66-1.24-1.2-2.28-1.89-3.45,0-.01-.03-.09-.05-.04-.02,.05,.01,.15,.01,.23-.02,.89,.21,2.02-.22,2.8-.69,1.24-2.22,1.76-3.37,1.94-1.91,.31-2.87-.3-4.26-1.46-1.39-1.16-2.59-2.57-3.97-3.73-1.17,1.72-2.26,3.4-4.47,3.37-1.31-.02-1.33-1.43-1.77-2.47-.44-1.04-1.04-2.22-1.64-3.2-.48,.8-.78,1.44-1.39,2.22-.61,.78-1.3,1.84-2.4,2.01-1.09,.17-1.8-.66-2.24-1.57-.66-1.37-1.3-2.63-1.96-3.97-.38,.38-.68,.88-1.03,1.28-.63,.74-1.46,.62-1.81-.25-.2-.49-.18-1.13-.3-1.53-.11-.41-.1-.5-.19-.84-1.83,1.26-3.35,2.84-4.88,4.45-.65,.68-1.58,.1-1.45-.81,.36-2.51,1.04-4.76,2.62-6.74,.79-.99,1.9-1.58,2.9-2.29,.99-.7,2.04-1.23,3.05-1.9,.24-1.67,1.45-2.65,2.98-2.17,1.52,.48,2.6,1.3,4.05,1.85,1.92,.07,3.54,.78,5.03,1.99,.58,.47,1.38,.56,1.9,.75,2.73,1.02,4.65,1.72,7.74,2.04,.01,0-5.5,.17,3.04-.21,8.54-.37,38.43,1.94,50.9,2.42,3.58-1.55,5.94-1.03,9.23-1.55,1.56-.24,2.36,.52,2.9,2.02,1.08,1.22,2.34,2.29,3.35,3.57,1.01,1.28,1.9,2.43,1.29,4.15Z"/></g><g id="as"><g><ellipse class="by" cx="237.75" cy="110" rx="72.12" ry="97.1" transform="translate(-23.44 89.92) rotate(-20.43)"/><path d="M184.44,163.33c-29.79-43.19-30.11-102.25-.71-131.65,29.4-29.41,77.54-18.19,107.33,24.99,29.79,43.19,30.11,102.25,.71,131.65-29.4,29.41-77.55,18.19-107.33-24.99Zm106.18-106.22c-29.58-42.89-77.37-54.07-106.52-24.9-29.15,29.16-28.8,87.78,.78,130.68,29.58,42.89,77.37,54.07,106.52,24.9,29.15-29.16,28.8-87.78-.78-130.68Z"/></g><path class="bu" d="M209.75,42.05c-9.11,2.37-53.01,61.91-48.66,28.77,4.34-33.14,32.66-53.25,52.2-58.25,19.54-5,51.52-4.55,57.89,16.69,6.38,21.24-52.32,10.42-61.43,12.79Z"/><path class="bu" d="M220.92,49.22c-8.85,.79-35.07,.68-27.94-12.28,7.13-12.96,6.9-20.48,26.3-21.99,19.4-1.51,26.09-3.76,36.97,18.78,10.88,22.55-26.48,14.7-35.33,15.49Z"/><path class="bu" d="M316.33,112.68c-9.42,8.69-37.57-29.37-42.93-40.56-5.36-11.19-26.79-33.08-17.56-45.08,9.22-11.99,34.8,19.65,39.04,28.51,4.24,8.86,30.87,48.43,21.46,57.12Z"/><path class="bu" d="M291.46,162.56c-4.96,9-45.76,60.41-22.8,51.8,22.96-8.61,36.6-31.66,45.11-50.53,8.51-18.86,13.76-53.95-.09-64.31-13.85-10.36-17.27,54.04-22.23,63.04Z"/><path class="bu" d="M289.87,139.23c-.82,10.87,.39,40.62,11.9,31.89,11.51-8.73,13.53-6.78,15.89-25.53,2.36-18.75,5.08-24.65-11.72-37.62-16.8-12.98-15.26,20.38-16.08,31.26Z"/><ellipse class="bv" cx="255.74" cy="126.26" rx="31.91" ry="22.66" transform="translate(71.47 343.96) rotate(-76.03)"/><ellipse class="bv" cx="228.45" cy="86.44" rx="27.67" ry="24.86" transform="translate(11.2 198.06) rotate(-47.92)"/><g><polygon points="252.5 113.87 252.04 112.6 241.64 117.81 242.1 119.08 252.5 113.87"/><polygon points="246.89 109.91 248.08 110.06 246.64 122.97 245.45 122.82 246.89 109.91"/></g><g><polygon points="239.48 96.79 239.02 95.52 228.62 100.72 229.08 102 239.48 96.79"/><polygon points="233.87 92.83 235.06 92.98 233.62 105.89 232.43 105.74 233.87 92.83"/></g><g><path class="by" d="M254.95,82.99c-3.47-16.1-9.24-23.46-23.43-23.61-14.19-.15-23.64,8.32-28.87,23.69,17.44-.71,34.88,.46,52.31-.08Z"/><path class="c`" d="M254.94,83.26c-6.73,.15-13.43,.23-20.17,.1-10.7-.21-21.43-.45-32.14-.03-.06,0-.21,.03-.22,.01-.01-.02,0-.22,.03-.29,5.53-15.53,14.4-23.97,29.24-23.89,13.66,.07,20.26,7.63,23.44,23.78,.01,.07,.09,.28,.05,.3-.04,.03-.18,.02-.24,.02Zm-52.07-.4c10.69-.43,21.31-.11,31.95,.04,6.65,.1,13.28,.11,19.87-.12-3.23-16.09-9.68-22.64-23.06-23.28-8.95-.43-15.12,3.17-21.53,9.31-4.01,3.84-5.38,8.71-7.23,14.05Z"/></g><g><path class="by" d="M265.11,95.93c12.5,7.06,17.45,15.24,14.97,32.07-2.48,16.83-11.13,26.46-24.63,29.84,3.78-20.51,6.03-41.38,9.66-61.91Z"/><path class="c`" d="M264.94,95.61s.18,.09,.24,.12c12.6,6.73,17.55,15.93,15.11,32.11-2.66,17.58-11.18,26.54-24.87,30.23-.06,.02-.23,0-.24-.02-.01-.02,.04-.19,.05-.26,2.31-12.6,4.08-25.34,5.87-38.05,1.13-8,2.43-15.92,3.79-23.86,.01-.08,.03-.24,.06-.28Zm3.51,56.01c6.18-6.46,10.26-13.11,11.55-23.78,1.93-15.97-2.23-24.8-14.77-31.57-1.4,7.76-2.6,15.61-3.74,23.51-1.82,12.62-3.51,25.25-5.83,37.83,4.69-1.21,8.92-1.94,12.79-5.98Z"/></g><path class="bw" d="M317.85,125.45c-33.82-9.04-71.37-82.73-85.72-118.47-1.64-4.07-2.4-5.65,1.32-6.34,.29-.05-.83-.58,0,0,3.73-.68,7.88-1.78,10.03,2.52,18.89,37.74,45.79,85.52,75.82,109.84,3.42,2.77,3.49,2.55,4.24,6.9q.8-.19,0,0c.75,4.35-1.84,6.58-5.69,5.55Z"/><ellipse class="bw" cx="288.26" cy="59.13" rx="21.62" ry="14.73" transform="translate(73.09 259.86) rotate(-54.6)"/><ellipse class="bw" cx="266.6" cy="41.58" rx="12.17" ry="19.32" transform="translate(10.82 127.5) rotate(-27.43)"/><ellipse class="bw" cx="297.22" cy="92.01" rx="12.18" ry="19.95" transform="translate(-8.26 151.09) rotate(-28.15)"/><polygon class="bx" points="290.52 79.73 276.34 78.15 277.69 60.59 291.87 62.17 290.52 79.73"/><polygon class="cc" points="264.14 53.18 264.95 42.66 274.09 43.67 273.28 54.2 264.14 53.18"/><polygon class="cc" points="294.85 97.54 295.66 87.02 304.8 88.04 303.99 98.56 294.85 97.54"/><ellipse cx="204.02" cy="143.45" rx="8.63" ry="16.48" transform="translate(-44.59 123.59) rotate(-30.55)"/><path class="bt" d="M213.38,155.93c-3.7,9.08-10.02,14.49-14.1,12.07-4.09-2.42-4.4-11.74-.7-20.82"/><g id="at"><g><path class="bx" d="M164.05,103.75c-.87,1.27-2.26,1.97-3.24,3.14-.98,1.17-1.35,3.35-.14,4.21,.45,.32,1,.37,1.51,.54,3,.97,3.75,5.34,3.49,8.83-.26,3.48-.86,7.44,1.16,10.11,1.28,1.69,3.43,2.5,4.36,4.46,1.08,2.29,.07,5.04-.72,7.48-.79,2.43-1.18,5.62,.65,7.21,1.86,1.62,5.01,.54,6.56,2.54,.48,.62,.7,1.44,.85,2.24,.43,2.27,.42,4.64-.04,6.89-.53,2.6-1.48,5.79,.3,7.55,.99,.98,2.51,1.01,3.77,.55,1.26-.46,2.36-1.34,3.53-2.03,.41-.24,.85-.47,1.31-.41,.51,.07,.92,.48,1.23,.93,1.74,2.55,.83,6.18,1.11,9.38,.25,2.84,1.6,5.61,3.76,7.13,2.16,1.52,5.11,1.64,7.24,.06,.35-.26,.72-.57,1.14-.52,.42,.05,.72,.46,.96,.85,1.67,2.69,2.73,5.87,3.03,9.13,.04,.47,.09,.99,.41,1.3,.32,.31,.8,.29,1.22,.22,1.1-.2,2.17-.66,3.11-1.35,.55-.4,1.09-.9,1.74-.98,1.3-.16,2.24,1.31,2.87,2.6l3.64,7.42c.91,1.85,2.19,3.95,4.07,3.88,2.35-.08,3.36-3.32,5.08-5.12,.76,1.03,1.75,1.85,2.86,2.36,.64-3.2-2.07-6.08-4.83-7.15s-5.84-1.12-8.43-2.64c-3.08-1.81-4.98-5.41-7.71-7.82-1.54-1.36-3.33-2.33-5-3.5-4.79-3.36-8.48-8.33-12.09-13.21-3.23-4.37-6.52-8.84-8.42-14.1-1.09-3.03-1.71-6.28-3.07-9.17-1.3-2.74-3.21-5.03-4.9-7.48-4.08-5.91-6.92-12.88-8.24-20.2-.95-5.28-1.25-11.09-4.36-15.21"/><path class="bx" d="M163.33,102.88c-1.52,2.08-4.14,2.9-4.41,6.07-.11,1.27,.29,2.54,1.23,3.21,.94,.66,2.08,.52,2.94,1.4,1.49,1.52,1.7,4.35,1.59,6.54-.14,2.83-.66,5.75,.09,8.52,.36,1.32,.99,2.51,1.87,3.42,.9,.92,1.96,1.57,2.86,2.49,2.28,2.35,.5,5.71-.23,8.44-.64,2.4-.82,5.5,.87,7.36,1.74,1.91,4.04,1.2,6.06,2.19,1.16,.57,1.38,2.11,1.54,3.46,.21,1.85,.07,3.71-.31,5.51-.52,2.48-1.31,5.52,.18,7.74,1.67,2.51,4.6,1.95,6.72,.73,.59-.34,1.16-.73,1.73-1.1,.63-.4,1.21-.88,1.77-.11,.81,1.13,.89,2.74,.89,4.16,0,3.02-.18,5.85,1.05,8.61,1.16,2.59,3.24,4.56,5.65,5.15,1.21,.3,2.46,.31,3.67-.02,.59-.16,1.17-.42,1.71-.75,.24-.15,.52-.46,.77-.54,.35-.11,.42,.18,.64,.55,.78,1.31,1.42,2.76,1.87,4.28,.22,.75,.41,1.52,.55,2.29,.14,.79,.16,1.63,.33,2.41,.77,3.54,4.88,1.26,6.51,.06,.46-.34,.94-.73,1.48-.44,.53,.28,.91,.96,1.2,1.52,.82,1.55,1.56,3.17,2.34,4.75,1.21,2.46,2.38,5.8,4.68,7.06s4.14-.19,5.53-2.21c.66-.96,1.25-1.97,2.02-2.8h-1.44c.93,1.22,2.04,2.06,3.31,2.68,.49,.24,1.15-.26,1.25-.85,.72-4.21-2.41-7.38-5.42-8.6-1.8-.73-3.7-.98-5.54-1.48-1.83-.5-3.47-1.33-4.93-2.78-1.27-1.26-2.37-2.75-3.56-4.11-1.38-1.58-2.91-2.83-4.58-3.93-1.7-1.12-3.38-2.22-4.95-3.6-1.52-1.34-2.92-2.85-4.26-4.43-2.69-3.18-5.2-6.62-7.64-10.08-2.51-3.55-4.8-7.35-6.16-11.75-.71-2.27-1.29-4.6-2.18-6.78-.85-2.06-2.03-3.87-3.27-5.61-2.55-3.57-4.93-7.13-6.76-11.32-1.96-4.5-3.13-9.28-3.9-14.26-.71-4.62-1.49-9.29-4.16-12.91-.87-1.18-2.3,.55-1.44,1.73,2.34,3.18,2.97,7.47,3.59,11.51,.65,4.26,1.56,8.36,3.02,12.34,1.51,4.12,3.51,7.95,5.89,11.42,1.23,1.79,2.58,3.45,3.72,5.32,1.15,1.88,1.95,3.93,2.6,6.12,.64,2.15,1.24,4.32,2.08,6.38,.83,2.01,1.84,3.89,2.95,5.68,2.27,3.68,4.86,7.09,7.43,10.47,2.46,3.22,5.05,6.31,8.04,8.81,1.56,1.31,3.24,2.33,4.9,3.45,1.61,1.09,2.97,2.4,4.28,3.95,1.32,1.57,2.6,3.2,4.13,4.47,1.68,1.39,3.61,2.06,5.59,2.53,1.97,.47,4.08,.74,5.85,1.93,1.42,.95,3.07,2.71,2.69,4.89l1.25-.85c-.93-.45-1.73-1.16-2.41-2.05-.39-.5-1.04-.43-1.44,0-.74,.8-1.32,1.77-1.95,2.7-.56,.82-1.22,1.83-2.15,2.03-2.25,.47-3.64-3.63-4.53-5.44l-2.32-4.72c-.57-1.17-1.19-2.39-2.17-3.13-1.03-.78-2.19-.7-3.25-.04-1.18,.74-2.19,1.59-3.55,1.8-.68,.11-.51-.63-.6-1.3-.1-.79-.24-1.56-.42-2.33-.35-1.47-.85-2.9-1.47-4.24-.55-1.19-1.27-2.92-2.38-3.46-1.23-.6-2.12,.58-3.2,1.05-2.22,.96-4.82,.26-6.5-1.71-1.79-2.09-2.15-4.78-2.08-7.66,.07-2.72,.16-5.99-1.71-7.97-2.22-2.35-4.74,1.02-6.95,1.71-1,.31-2.35,.29-2.97-.88-.52-.98-.29-2.36-.1-3.42,.26-1.42,.62-2.79,.77-4.23,.19-1.77,.13-3.57-.17-5.32-.23-1.38-.65-2.71-1.59-3.6-.79-.75-1.77-1.04-2.75-1.22-1.88-.33-4.32-.36-4.41-3.31-.09-2.88,1.5-5.39,1.79-8.21,.32-3.13-1.15-5.11-3.17-6.74-.95-.76-1.91-1.5-2.46-2.74-.51-1.17-.61-2.53-.6-3.82,.02-2.65,.52-5.23,.2-7.88-.28-2.28-1.1-4.56-2.75-5.84-.39-.31-.84-.54-1.29-.7s-1.28-.14-1.56-.67c-.47-.9,.5-2.11,1.01-2.59,.92-.88,1.96-1.55,2.75-2.62,.86-1.18-.57-2.91-1.44-1.73h0Z"/></g><g><path class="bx" d="M140.2,78.16c.08-1.79-.39-3.6-1.3-5.01-.91-1.41-2.26-2.41-3.71-2.75-.76-.18-1.68-.1-2.09,.69-.14,.28-.2,.62-.2,.95,.02,1.4,1.04,2.46,2.03,3.22,1.63,1.25,3.39,2.25,5.24,2.95"/><path class="bx" d="M140.45,78.14c.13-3.7-1.94-7.06-4.92-7.96-1.15-.35-2.76-.15-2.88,1.63-.11,1.59,1,2.79,2,3.58,1.68,1.35,3.54,2.36,5.46,3.1,.31,.12,.4-.48,.09-.6-1.46-.56-2.87-1.3-4.2-2.21-.99-.68-2.24-1.5-2.71-2.83-.24-.68-.23-1.58,.35-2,.52-.37,1.23-.25,1.79-.08,1.32,.4,2.52,1.36,3.33,2.68,.84,1.37,1.24,3.04,1.18,4.73-.01,.39,.49,.34,.51-.05h0Z"/></g><g><path class="bx" d="M151.22,100.04c-.88-2.14-3.03-4.55-5.92-6.67-2.9-2.12-6.53-3.92-10.02-4.97-1.81-.55-3.86-.86-4.31-.08-.16,.28-.09,.66,.12,1.06,.88,1.72,3.82,3.45,6.49,4.8,4.42,2.24,9,4.22,13.57,5.87"/><path class="bx" d="M151.78,100.12c-1.9-4.44-8.57-9.43-15.85-11.84-2.81-.93-6.32-1.39-5.53,.73,.71,1.89,3.92,3.83,6.65,5.23,4.6,2.37,9.4,4.42,14.18,6.16,.77,.28,.62-.41-.15-.69-3.62-1.32-7.24-2.83-10.78-4.52-2.64-1.26-5.95-2.8-7.8-4.63-.94-.93-1.47-2.03-.4-2.27,.96-.22,2.62,.24,3.98,.69,3.21,1.06,6.51,2.76,9.11,4.71,2.71,2.03,4.6,4.24,5.47,6.27,.2,.47,1.31,.63,1.11,.16h0Z"/></g><g><path class="bx" d="M148.01,85.9c1.64-2.61,2.53-6.7,2.45-11.29-.07-4.6-1.11-9.66-2.86-13.99-.91-2.25-2.28-4.53-3.52-4.35-.44,.06-.81,.45-1.08,.98-1.17,2.27-.63,6.59,.1,10.34,1.21,6.21,2.84,12.37,4.84,18.26"/><path class="bx" d="M148.39,86.52c3.34-5.49,3.31-16.17-.11-25.36-1.32-3.55-3.75-7.42-5.44-4.91-1.51,2.23-.97,7-.25,10.85,1.21,6.5,2.95,12.93,5.02,19.09,.33,.99,.98,.28,.64-.71-1.57-4.67-2.91-9.5-4-14.39-.81-3.64-1.87-8.19-1.39-11.51,.25-1.68,1.03-3.1,2.2-2.24,1.05,.77,1.93,2.8,2.57,4.52,1.51,4.05,2.38,8.71,2.39,12.88,.01,4.34-.86,8.01-2.39,10.53-.35,.58,.4,1.82,.75,1.24h0Z"/></g><g><path class="bx" d="M158.83,136.61c-2.68,.54-5.65,2.79-8.22,6.19-2.56,3.41-4.7,7.95-5.89,12.55-.62,2.38-.92,5.18,.09,6.07,.36,.32,.85,.34,1.35,.18,2.14-.68,4.22-4.27,5.82-7.6,2.65-5.52,4.97-11.35,6.88-17.28"/><path class="bx" d="M158.91,135.85c-5.56,1.24-11.62,9.03-14.36,18.54-1.06,3.68-1.5,8.49,1.16,8.06,2.37-.38,4.69-4.29,6.36-7.69,2.82-5.73,5.21-11.85,7.22-18.04,.32-1-.55-1.01-.87-.02-1.52,4.69-3.29,9.32-5.28,13.78-1.48,3.32-3.3,7.51-5.54,9.52-1.14,1.02-2.51,1.41-2.87-.19-.33-1.43,.19-3.64,.7-5.41,1.21-4.19,3.23-8.3,5.6-11.35,2.46-3.17,5.19-5.12,7.73-5.68,.59-.13,.75-1.65,.16-1.52h0Z"/></g><g><path class="bx" d="M166.85,154.88c-3.43,1.45-6.45,4.57-8.35,8.61-1.9,4.04-2.65,8.96-2.09,13.6,.29,2.4,1.21,5.08,3.03,5.54,.65,.16,1.33,.01,1.94-.32,2.62-1.39,3.76-5.42,4.36-9.04,1.01-6.01,1.4-12.18,1.18-18.29"/><path class="bx" d="M166.6,154.16c-7.06,3.12-11.67,12.42-10.88,22.12,.3,3.75,2.01,8.32,5.47,6.98,3.08-1.2,4.41-5.61,5.08-9.32,1.13-6.26,1.49-12.72,1.28-19.11-.03-1.03-1.24-.73-1.21,.3,.16,4.84-.06,9.71-.67,14.51-.45,3.57-.95,8.06-3.07,10.7-1.08,1.34-2.78,2.19-4.05,.86-1.14-1.2-1.49-3.4-1.63-5.21-.35-4.27,.46-8.76,2.26-12.4,1.87-3.78,4.69-6.54,7.92-7.97,.75-.33,.24-1.78-.51-1.45h0Z"/></g><g><path class="bx" d="M156.61,82.33c3.43-1.45,6.45-4.57,8.35-8.61,1.9-4.04,2.65-8.96,2.09-13.6-.29-2.4-1.21-5.08-3.03-5.54-.65-.16-1.33-.01-1.94,.32-2.62,1.39-3.76,5.42-4.36,9.04-1.01,6.01-1.4,12.18-1.18,18.29"/><path class="bx" d="M156.87,83.06c7.06-3.12,11.67-12.42,10.88-22.12-.3-3.75-2.01-8.32-5.47-6.98-3.08,1.2-4.41,5.61-5.08,9.32-1.13,6.26-1.49,12.72-1.28,19.11,.03,1.03,1.24,.73,1.21-.3-.16-4.84,.06-9.71,.67-14.51,.45-3.57,.95-8.06,3.07-10.7,1.08-1.34,2.78-2.19,4.05-.86,1.14,1.2,1.49,3.4,1.63,5.21,.35,4.27-.46,8.76-2.26,12.4-1.87,3.78-4.69,6.54-7.92,7.97-.75,.33-.24,1.78,.51,1.45h0Z"/></g></g></g><path class="bx" d="M229.76,254.05c-32.74,3.91-33.81-14.34-61.81,1.81-21.12,12.18-22.88-5.19-39.52-17.4-2.52-1.85-4.67-3.4-5.77-5.93-7.27-16.68-7.94-13.87,5.93-29.28,18.38-20.44,51-11.93,74.29-3.46,17.56,6.39,37.37,11.04,55.07,14.15,2.68,.47,8.72,5.12,7.24,8.37-9.71,21.45-10.73,28.8-35.43,31.75Z"/></g><g id="au"><g id="av"/><g id="aw"/><g id="ax"/><g id="ay"/></g><g id="b`"><g id="ba"/><g id="bb"/><g id="bc"/></g><g id="bd"><g id="be"/><g id="bf"/></g><g id="bg"/><g id="bh"><g id="bi"/><g id="bj"/><g id="bk"/><g id="bl"><g id="bm"/><g id="bn"/><g id="bo"/><g id="bp"/></g><g id="bq"/><g id="br"/><g id="bs"/></g></svg>