<?xml version="1.0" encoding="UTF-8"?><svg xmlns="http://www.w3.org/2000/svg" width="250" height="300" viewBox="0 0 250 300"><defs><style>.bt{fill:#fa9499;}.bu{fill:#f76b00;}.bv{fill:#fbb03b;}.bw{fill:#ff1d25;}.bx{fill:#fddbb4;}.by{fill:#336;}.c`{fill:#231f20;}.ca{fill:#823abc;}.cb{fill:#fff;opacity:.81;}</style></defs><g id="a"/><g id="b"/><g id="c"><g id="d"/><g id="e"/><g id="f"/><g id="g"/></g><g id="h"><g id="i"/><g id="j"><g id="k"/><g id="l"/><g id="m"/><g id="n"/></g><g id="o"/><g id="p"><g id="q"><g id="r"><g id="s"/><g id="t"/></g></g><g id="u"/></g></g><g id="v"/><g id="w"><g id="x"/><g id="y"/><g id="a`"/><g id="aa"/><g id="ab"/><g id="ac"/><g id="ad"/></g><g id="ae"><g id="af"><path class="bu" d="M12.15,197.68C13.92,161.07,.05,149.87,0,119.96-.1,52.73,60.74,13.37,123.65,11.97c62.91-1.4,130.17,41.19,126.18,105.36-1.96,31.43-23.58,48.69-26.22,82.08"/></g><g id="ag"><rect class="bx" x="35.57" y="252.91" width="162.66" height="46.41"/><path class="by" d="M164.05,177.6c-1.37,.58-1.41,1.41-3.08,1.31-27.8-1.67-55.57-2.88-83.34-.57-1.86,.15-1.91-.58-3.03-1.46-27.63,25.58-55.25,82.77-42.26,120.43,18.58-6.31,60.19-8.66,83.85-4.9,23.66,3.75,52.12-12.09,84.13,1.12,1.05-44.92-6.73-80.6-36.27-115.93Z"/><path class="by" d="M53.55,223.71c-3.49-1.27-11.29-1.49-14.04-1.7-3.49-.26-8.96,4.76-8.58-2.19,1.01-18.44,3.96-34.08,18.97-48.54,5.66-5.45,9.77-4.36,14.68-1.99,3.86,1.87,6.38,5.49,8.63,8.05,2.86,3.25,4.79,6.78,1.1,10.98-9.79,11.14-9.79,17.17-11.38,30.87-.6,5.17-4.95,6.13-9.39,4.51Z"/><path class="by" d="M190.43,220.41c3.49-1.27,11.29-1.49,14.04-1.7,3.49-.26,8.96,4.76,8.58-2.19-1.01-18.44-3.96-34.08-18.97-48.54-5.66-5.45-9.77-4.36-14.68-1.99-3.86,1.87-6.38,5.49-8.63,8.05-2.86,3.25-4.79,6.78-1.1,10.98,9.79,11.14,9.79,17.17,11.38,30.87,.6,5.17,4.95,6.13,9.39,4.51Z"/><path d="M188.57,198.19c3.47,5.15,5.58,10.97,5.72,17.06,.02,.65,1.1,.65,1.09,0-.15-6.26-2.3-12.28-5.87-17.57-.37-.55-1.31-.04-.94,.51h0Z"/><path d="M53.57,202.17c-3.47,5.15-5.58,10.97-5.72,17.06-.02,.65-1.1,.65-1.09,0,.15-6.26,2.3-12.28,5.87-17.57,.37-.55,1.31-.04,.94,.51h0Z"/><path d="M136.03,230.2c7.1,5.33,15.75,7.11,24,6.43,8.58-.71,16.86-4.26,24.13-9.76,3.98-3.01,7.66-6.58,11.01-10.55,.48-.57-.26-1.47-.74-.9-11.84,14.04-28.39,22.78-45.11,19.33-4.5-.93-8.87-2.74-12.76-5.66-.57-.43-1.1,.66-.53,1.09h0Z"/><path d="M101.05,231.28c-6.36,4.27-14.11,5.71-21.5,5.16-7.68-.57-15.1-3.42-21.62-7.83-3.57-2.41-6.87-5.28-9.87-8.47-.43-.46,.23-1.18,.66-.72,10.61,11.27,25.44,18.28,40.42,15.52,4.03-.74,7.95-2.2,11.44-4.54,.51-.35,.98,.53,.47,.88h0Z"/><ellipse class="bx" cx="33.39" cy="226.01" rx="16.7" ry="15.47"/><ellipse class="bx" cx="200.41" cy="228.7" rx="16.7" ry="15.47"/><path class="bx" d="M177.14,172.37c.6,17.76-43.65,30.4-56.58,30.57-12.93,.17-55.13-13.89-54.49-30.94,.64-17.04,39.95-22.54,55.58-22.45,15.64,.09,54.89,5.06,55.49,22.82Z"/><path d="M111.75,194.14c4.76,.1,8.89,4,8.91,8.41l1.07-.13c-.59-2.64-1.26-6.16,1.37-8.09,2.25-1.65,5.58-1.25,8.14-.58,.68,.18,.96-.8,.29-.97-2.97-.78-6.7-1.1-9.24,.86-2.88,2.23-2.28,6.04-1.61,9.05,.13,.56,1.07,.43,1.07-.13-.02-4.96-4.64-9.31-10-9.42-.7-.01-.7,.99,0,1.01h0Z"/><path class="c`" d="M33.39,300c0-4.09,19.34-7.4,43.21-7.4s43.21,3.31,43.21,7.4"/><path class="c`" d="M116.19,299.33c0-3.71,18.85-6.73,42.11-6.73s42.11,3.01,42.11,6.73"/><path d="M117.62,297.5c1.04-1.72,1.39-3.57,1.22-5.38-.02-.25-.72-.25-.7,0,.17,1.78-.17,3.58-1.19,5.27-.15,.24,.53,.34,.67,.1h0Z"/></g><g><ellipse class="bx" cx="121.62" cy="100.9" rx="106.38" ry="80.72"/><path d="M121.62,181.95c-58.86,0-106.75-36.36-106.75-81.05S62.76,19.84,121.62,19.84s106.75,36.36,106.75,81.05-47.89,81.05-106.75,81.05Zm0-161.43C63.16,20.52,15.6,56.57,15.6,100.9s47.56,80.38,106.02,80.38,106.02-36.06,106.02-80.38S180.08,20.52,121.62,20.52Z"/></g><g id="ah"><path class="bu" d="M34.58,95.6c-8.93,9.11,24.2,70.09-7.33,59.7C-4.28,144.91-3,90.9,10.74,71.05,24.47,51.19,52.3,23.06,75.59,31.76c23.29,8.71-32.07,54.73-41,63.84Z"/><path class="bu" d="M58.27,74.39c-6.53,8.47-27.83,32.07-32.5,17.61-4.67-14.46-10.91-18.92,3.57-37.36,14.48-18.44,18.08-25.87,45.04-21.72,26.96,4.15-9.59,33-16.11,41.47Z"/><path class="bu" d="M187.56,31.47c-.62,13.88-54.06,15.7-67.4,13.61s-48.32,3.67-50.51-12.08c-2.19-15.75,43.99-19.23,54.55-17.56,10.56,1.67,63.98,2.16,63.36,16.03Z"/><path class="bu" d="M215.13,101.55c8.69,9.24-19.1,67.36,9.57,58.5,28.68-8.86,24.96-61.57,11.33-81.48-13.63-19.91-40.69-48.46-61.82-40.91-21.13,7.55,32.23,54.65,40.91,63.88Z"/><path class="bu" d="M176.57,63.79c5.37,6.58,23.3,24.64,29.27,12s12.4-16.97,.46-31.28c-11.94-14.31-14.62-20.27-40.85-14.36-26.23,5.91,5.75,27.06,11.11,33.65Z"/></g><g id="ai"><ellipse class="cb" cx="149.68" cy="94.43" rx="26.75" ry="31.54" transform="translate(-27.17 101.14) rotate(-34.42)"/><ellipse class="cb" cx="95.11" cy="94.64" rx="31.54" ry="26.75" transform="translate(-36.72 119.61) rotate(-55.58)"/><ellipse cx="140.86" cy="90.13" rx="5.08" ry="4.71"/><ellipse cx="109.64" cy="90.13" rx="5.08" ry="4.71"/></g><g id="aj"><path class="bt" d="M127.71,163.8c-1.97,.16-4.52,.29-6.49,.3-1.97,0-3.19-.52-4.48-1.9-1.3-1.39-2.92-3.25-4.19-4.7s-1.57-2.83-.46-4.46c1.11-1.63,2.57-3.73,3.99-5.15,1.42-1.43,2.23-2.91,4.6-1.08,2.37,1.83,3.76,1.48,5.72-.64,1.96-2.11,3.01-.31,4.36,.99,1.34,1.3,3,3.4,4.23,4.88,1.23,1.48,1.12,2.84,.16,4.41-.96,1.57-2.15,3.41-3.19,4.93-1.03,1.52-2.28,2.27-4.24,2.42Z"/><path d="M104.03,157.28c2.82-.8,6.07-1.52,9.36-1.93,3.29-.41,6.82-.58,10.23-.61,3.41-.03,6.82,.06,10.05,.46,3.23,.4,6.23,1.21,9.05,1.82,1.5,.32,3.06-.38,1.52-.79-3.06-.8-6.22-1.53-9.67-1.99-3.46-.45-7.06-.57-10.71-.53-3.65,.04-7.37,.18-10.94,.64-3.57,.46-7.19,1.16-10.2,2.12-1.47,.46-.17,1.22,1.31,.8-.05,.03,0,0,0,0Z"/></g><g id="ak"><path class="bv" d="M199.1,38.37c-31.71,26.65-115.55,13.5-153.03,3.89-4.27-1.1-6.18-3.29-3.68-5.19,.19-.15-.5-.2,0,0,2.5-1.9,6.94-7.02,12.06-6.36,44.88,5.76,92.42,12.25,136.25-1.33,5-1.55,4.6-1.57,8.38,.38,.46-.77,.46-.76,0,0,3.78,1.94,3.63,5.58,.01,8.62Z"/><ellipse class="bv" cx="126.7" cy="22.87" rx="17.07" ry="22.87"/><ellipse class="bv" cx="94.75" cy="34.3" rx="21.42" ry="13.45"/><ellipse class="bv" cx="157.93" cy="34.3" rx="22.15" ry="13.45"/><polygon class="bw" points="139.78 34.64 127.07 46.41 114 34.3 126.7 22.53 139.78 34.64"/><polygon class="ca" points="97.09 41.9 89.25 34.64 97.45 27.05 105.28 34.3 97.09 41.9"/><polygon class="ca" points="157.64 41.8 149.81 34.54 158 26.95 165.84 34.21 157.64 41.8"/></g></g><g id="al"><g id="am"/><g id="an"/></g><g id="ao"><g id="ap"/></g><g id="aq"><g id="ar"/><g id="as"><g id="at"/></g></g><g id="au"><g id="av"/><g id="aw"/><g id="ax"/><g id="ay"/></g><g id="b`"><g id="ba"/><g id="bb"/><g id="bc"/></g><g id="bd"><g id="be"/><g id="bf"/></g><g id="bg"/><g id="bh"><g id="bi"/><g id="bj"/><g id="bk"/><g id="bl"><g id="bm"/><g id="bn"/><g id="bo"/><g id="bp"/></g><g id="bq"/><g id="br"/><g id="bs"/></g></svg>