<?xml version="1.0" encoding="UTF-8"?><svg xmlns="http://www.w3.org/2000/svg" width="1744.24" height="307.98" viewBox="0 0 1744.24 307.98"><defs><style>.bs{fill:#fff;}.bt{fill:#fbb03b;}.bu{fill:#b58500;}.bv{opacity:.45;}.bw{opacity:.62;}.bx{opacity:.73;}</style></defs><g id="a"/><g id="b"/><g id="c"><g id="d"/><g id="e"/><g id="f"/><g id="g"/></g><g id="h"><g id="i"/><g id="j"><g id="k"/><g id="l"/><g id="m"/><g id="n"/></g><g id="o"/><g id="p"><g id="q"><g id="r"><g id="s"/><g id="t"/></g></g><g id="u"/></g></g><g id="v"><g class="bv"><g class="bv"><path class="bs" d="M1541.06,137.38c0,9.75,29.34,17.66,65.52,17.66,11.84,0,22.95-.85,32.54-2.33,8.27,5.53,19.25,8.91,31.29,8.91,21.6,0,39.77-10.85,45.07-25.58,17.42-5.02,29.14-14.38,29.14-25.1,0-16-26.13-28.98-58.36-28.98-.26,0-.52,0-.78,0-4.01-16.01-23.01-28.14-45.85-28.14-10.65,0-20.46,2.64-28.31,7.07-5.49-1.68-11.51-2.61-17.83-2.61-25.76,0-46.63,15.42-46.63,34.44,0,12.82,9.48,24,23.54,29.92-17.68,3.16-29.34,8.57-29.34,14.72Z"/></g></g><g class="bv"><g class="bv"><path class="bs" d="M171.7,128.27c0,9.75,29.34,17.66,65.52,17.66,11.84,0,22.95-.85,32.54-2.33,8.27,5.53,19.25,8.91,31.29,8.91,21.6,0,39.77-10.85,45.07-25.58,17.42-5.02,29.14-14.38,29.14-25.1,0-16-26.13-28.98-58.36-28.98-.26,0-.52,0-.78,0-4.01-16.01-23.01-28.14-45.85-28.14-10.65,0-20.46,2.64-28.31,7.07-5.49-1.68-11.51-2.61-17.83-2.61-25.76,0-46.63,15.42-46.63,34.44,0,12.82,9.48,24,23.54,29.92-17.68,3.16-29.34,8.57-29.34,14.72Z"/></g></g><polygon class="bt" points="156.23 259.23 140.41 259.23 143.74 230.22 160.24 231.06 156.23 259.23"/><polygon class="bt" points="140.9 259.51 145.93 252.62 182.54 270.44 173.46 282.85 140.9 259.51"/><polygon class="bt" points="156.23 306.44 163.23 271.29 163.23 271.29 182.54 270.44 156.23 306.44"/><g class="bw"><ellipse class="bu" cx="822.61" cy="81.18" rx="63.76" ry="63.11"/></g><g class="bx"><g class="bv"><path class="bs" d="M276.88,211c0,13.12-39.96,23.75-89.25,23.75-16.13,0-31.26-1.14-44.32-3.13-11.26,7.44-26.22,11.98-42.62,11.98-29.42,0-54.17-14.6-61.38-34.4C15.58,202.45-.38,189.86-.38,175.44c0-21.53,35.59-38.99,79.49-38.99,.36,0,.71,0,1.07,0,5.46-21.54,31.34-37.85,62.45-37.85,14.51,0,27.87,3.55,38.56,9.51,7.47-2.26,15.68-3.51,24.28-3.51,35.08,0,63.51,20.74,63.51,46.33,0,17.24-12.91,32.28-32.06,40.25,24.09,4.25,39.97,11.53,39.97,19.8Z"/></g></g><g class="bv"><g class="bv"><path class="bs" d="M480.23,163.66c0,9.75-29.34,17.66-65.52,17.66-11.84,0-22.95-.85-32.54-2.33-8.27,5.53-19.25,8.91-31.29,8.91-21.6,0-39.77-10.85-45.07-25.58-17.42-5.02-29.14-14.38-29.14-25.1,0-16,26.13-28.98,58.36-28.98,.26,0,.52,0,.78,0,4.01-16.01,23.01-28.14,45.85-28.14,10.65,0,20.46,2.64,28.31,7.07,5.49-1.68,11.51-2.61,17.83-2.61,25.76,0,46.63,15.42,46.63,34.44,0,12.82-9.48,24-23.54,29.92,17.68,3.16,29.34,8.57,29.34,14.72Z"/></g></g><g class="bv"><g class="bv"><path class="bs" d="M1446.77,100.44c0,11.56,32.52,20.92,72.63,20.92,13.13,0,25.44-1.01,36.07-2.76,9.17,6.56,21.34,10.56,34.69,10.56,23.94,0,44.09-12.86,49.96-30.3,19.31-5.95,32.3-17.04,32.3-29.74,0-18.96-28.96-34.34-64.69-34.34-.29,0-.58,0-.87,0-4.44-18.97-25.51-33.34-50.82-33.34-11.81,0-22.68,3.13-31.38,8.38-6.08-1.99-12.76-3.09-19.76-3.09-28.55,0-51.69,18.27-51.69,40.81,0,15.19,10.51,28.43,26.09,35.46-19.6,3.74-32.53,10.16-32.53,17.44Z"/></g></g><g class="bv"><g class="bv"><path class="bs" d="M809.96,120.05c0,9.75,29.34,17.66,65.52,17.66,11.84,0,22.95-.85,32.54-2.33,8.27,5.53,19.25,8.91,31.29,8.91,21.6,0,39.77-10.85,45.07-25.58,17.42-5.02,29.14-14.38,29.14-25.1,0-16-26.13-28.98-58.36-28.98-.26,0-.52,0-.78,0-4.01-16.01-23.01-28.14-45.85-28.14-10.65,0-20.46,2.64-28.31,7.07-5.49-1.68-11.51-2.61-17.83-2.61-25.76,0-46.63,15.42-46.63,34.44,0,12.82,9.48,24,23.54,29.92-17.68,3.16-29.34,8.57-29.34,14.72Z"/></g></g><polygon class="bt" points="389.31 196.85 378.54 196.85 380.81 178.88 392.04 179.41 389.31 196.85"/><polygon class="bt" points="378.87 197.02 382.3 192.76 407.22 203.8 401.04 211.48 378.87 197.02"/><polygon class="bt" points="389.31 226.09 394.07 204.32 394.07 204.32 407.22 203.8 389.31 226.09"/><polygon class="bt" points="1525.78 150.36 1509.96 150.36 1513.29 121.35 1529.79 122.2 1525.78 150.36"/><polygon class="bt" points="1510.45 150.64 1515.48 143.75 1552.09 161.57 1543.01 173.98 1510.45 150.64"/><polygon class="bt" points="1525.78 197.57 1532.78 162.42 1532.78 162.42 1552.09 161.57 1525.78 197.57"/></g><g id="w"><g id="x"/><g id="y"/><g id="a`"/><g id="aa"/><g id="ab"/><g id="ac"/><g id="ad"/></g><g id="ae"><g id="af"/><g id="ag"/><g id="ah"/><g id="ai"/><g id="aj"/></g><g id="ak"><g id="al"/><g id="am"/></g><g id="an"><g id="ao"/></g><g id="ap"><g id="aq"/><g id="ar"><g id="as"/></g></g><g id="at"><g id="au"/><g id="av"/><g id="aw"/><g id="ax"/></g><g id="ay"><g id="b`"/><g id="ba"/><g id="bb"/></g><g id="bc"><g id="bd"/><g id="be"/></g><g id="bf"/><g id="bg"><g id="bh"/><g id="bi"/><g id="bj"/><g id="bk"><g id="bl"/><g id="bm"/><g id="bn"/><g id="bo"/></g><g id="bp"/><g id="bq"/><g id="br"/></g></svg>