<?xml version="1.0" encoding="UTF-8"?><svg xmlns="http://www.w3.org/2000/svg" width="1920" height="1080" viewBox="0 0 1920 1080"><defs><style>.bs{fill:#f7931e;}.bt{fill:#fbb03b;}.bu{fill:#c1272d;}.bv{opacity:.69;}</style></defs><g id="a"><g><rect width="1920" height="1080"/><g class="bv"><rect class="bt" x="276.99" y="109.34" width="1410" height="840"/></g><g><rect class="bt" x="293.92" y="119.79" width="1380.48" height="810.31"/><path class="bs" d="M1675.72,931.69H292.6V118.2H1675.72V931.69Zm-1380.48-3.18H1673.08V121.38H295.24V928.51Z"/></g><g><g><rect class="bt" x="333.6" y="183.91" width="1279.41" height="688.77"/><path class="bs" d="M1615.03,875.06H331.58V181.53H1615.03V875.06Zm-1279.4-4.76H1610.98V186.29H335.62V870.29Z"/></g><g><path class="bt" d="M1614.23,874.03H332.38V182.56H1614.23V874.03Zm-1279.41-2.7H1611.78V185.26H334.82V871.33Z"/><path class="bs" d="M1614.9,874.82H331.7V181.77H1614.9V874.82Zm-1281.85-1.59H1613.55V183.35H333.05V873.23Zm1279.41-1.11H334.15V184.47H1612.46V872.12Zm-1276.96-1.59H1611.11V186.05H335.5V870.53Z"/></g></g><g><g><rect class="bt" x="392.49" y="227.51" width="1176.58" height="594.87"/><path class="bs" d="M1570.93,824.44H390.63V225.46H1570.93V824.44Zm-1176.58-4.12H1567.21V229.57H394.35V820.32Z"/></g><g><path class="bt" d="M1570.19,823.55H391.36V226.35H1570.19V823.55Zm-1176.58-2.33H1567.94V228.68H393.61V821.21Z"/><path class="bs" d="M1570.81,824.23H390.74V225.66H1570.81V824.23Zm-1178.83-1.37H1569.57V227.03H391.98V822.86Zm1176.58-.96H392.99V227.99H1568.56V821.9Zm-1174.33-1.37H1567.32V229.36H394.23V820.53Z"/></g></g><rect class="bu" x="409.72" y="245.43" width="1142.12" height="559.04"/><g><path d="M561.47,408.96h31.28c2.51,0,4.84,.54,6.99,1.6,2.14,1.07,3.51,2.54,4.1,4.39,.44-1.85,1.74-3.32,3.88-4.39,2.14-1.07,4.55-1.6,7.21-1.6h9.76v2.14c-2.37,0-4.44,.82-6.21,2.46-1.77,1.64-2.66,4.6-2.66,8.88v13.7c0,5.99-1.92,10.49-5.77,13.48-3.85,3-8.36,4.49-13.53,4.49-4.74,0-8.84-1-12.31-3-3.48-2-5.21-4.49-5.21-7.49,.44,.43,1.25,.64,2.44,.64,2.81,0,5.47-.96,7.99-2.89,2.51-1.93,3.77-4.89,3.77-8.88,0-6.85-3.85-10.27-11.53-10.27h-10.43c-2.37,0-4.44,.82-6.21,2.46-1.78,1.64-2.66,4.53-2.66,8.67v101.01c0,4.14,.89,7.03,2.66,8.67,1.77,1.64,3.84,2.46,6.21,2.46h11.76c2.07,0,3.99-.71,5.77-2.14,1.78-1.42,2.74-3.92,2.88-7.49-.44,.43-1.11,.64-2,.64-1.04,0-2.11-.32-3.22-.96-1.11-.64-1.74-1.53-1.88-2.67,.44,.29,.89,.43,1.33,.43,1.78,0,3.22-1.14,4.33-3.42,1.11-2.28,1.66-5.06,1.66-8.35v-26.96c0-4.28-.89-7.24-2.66-8.88-1.77-1.64-3.85-2.46-6.21-2.46-2.22,0-4.1,.68-5.66,2.03-1.55,1.36-2.33,3.53-2.33,6.53h-2.22v-21.83h19.96c2.51,0,4.84,.53,6.99,1.6,2.14,1.07,3.51,2.6,4.1,4.6,.44-2,1.74-3.53,3.88-4.6,2.14-1.07,4.55-1.6,7.21-1.6h9.76v2.14c-2.37,0-4.44,.86-6.21,2.57-1.77,1.71-2.66,4.64-2.66,8.77v61.85c0,4.28,.89,7.24,2.66,8.88,1.77,1.64,3.84,2.46,6.21,2.46v2.14h-9.76c-2.66,0-5.07-.54-7.21-1.61-2.15-1.07-3.44-2.53-3.88-4.39-.59,1.86-1.96,3.32-4.1,4.39-2.15,1.07-4.47,1.61-6.99,1.61h-31.28c-8.58,0-14.72-2.42-18.41-7.28-.74,.43-1.85,.64-3.33,.64-2.07,0-3.96-.54-5.66-1.61-1.7-1.07-2.55-2.75-2.55-5.03,.89,1,1.92,1.5,3.11,1.5,2.51,0,3.77-1.85,3.77-5.56v-5.56c-.44,.43-1.19,.64-2.22,.64s-2.11-.32-3.22-.96c-1.11-.64-1.74-1.53-1.89-2.67,.44,.29,.89,.43,1.33,.43,1.77,0,3.22-1.14,4.33-3.42,1.11-2.28,1.66-5.06,1.66-8.35v-95.23c0-3.71-1.26-5.56-3.77-5.56-1.18,0-2.22,.5-3.11,1.5,0-2.28,.85-3.96,2.55-5.03,1.7-1.07,3.58-1.61,5.66-1.61,1.48,0,2.59,.21,3.33,.64,3.69-4.85,9.83-7.28,18.41-7.28Z"/><path d="M667.72,408.96h8.43c2.66,0,4.92,.54,6.77,1.6,1.85,1.07,2.77,2.54,2.77,4.39,.15-1.85,1.14-3.32,2.99-4.39,1.85-1.07,4.1-1.6,6.77-1.6h8.43v2.14c-3.4,0-5.1,1.86-5.1,5.56,0,1.57,.29,3.5,.89,5.78l31.28,122.84c1.92,7.56,5.25,11.34,9.98,11.34v2.14h-7.32c-2.66,0-5.21-.54-7.65-1.61-2.44-1.07-4.1-2.53-4.99-4.39-.15,1.86-1.15,3.32-2.99,4.39-1.85,1.07-4.1,1.61-6.77,1.61h-10.2v-2.14c4.44,0,6.65-2.28,6.65-6.85,0-1.28-.22-2.78-.67-4.49l-2.44-9.42c-.3,.72-1.26,1.07-2.88,1.07-3.11,0-5.03-1.35-5.77-4.07,.74,.43,1.48,.64,2.22,.64,2.51,0,3.77-1.93,3.77-5.78,0-1.42-.22-3.07-.67-4.92-.3-1.28-.59-2.57-.89-3.85-1.77,1.43-3.55,2.14-5.32,2.14-2.66,0-6.14-2-10.43-5.99l-5.55-5.35c-1.63-1.57-3.11-2.78-4.44-3.64l-9.98,39.16c-.44,1.71-.67,3.21-.67,4.49,0,4.57,2.22,6.85,6.66,6.85v2.14h-10.2c-2.66,0-4.92-.54-6.77-1.61-1.85-1.07-2.85-2.53-3-4.39-.89,1.86-2.55,3.32-4.99,4.39-2.44,1.07-4.99,1.61-7.65,1.61h-7.32v-2.14c4.73,0,8.06-3.78,9.98-11.34l2.22-9.42c-.59,.72-1.41,1.07-2.44,1.07-1.19,0-2.22-.39-3.11-1.18-.89-.78-1.33-1.75-1.33-2.89,.59,.29,1.11,.43,1.55,.43,1.77,0,3.51-1.1,5.21-3.32,1.7-2.21,2.99-5.03,3.88-8.45l25.29-99.08c.59-2.28,.89-4.21,.89-5.78,0-3.71-1.7-5.56-5.1-5.56v-2.14Zm17.97,53.29l-6.88,27.61c.29-.14,.59-.21,.89-.21,2.66,0,6.13,2.07,10.43,6.21l5.54,5.35-9.98-38.95Z"/><path d="M777.74,404.46c2.66,0,4.88,.93,6.65,2.78-1.63,0-2.44,1.14-2.44,3.42,0,2,.59,4.28,1.78,6.85l16.86,37.02,16.86-37.02c1.33-2.57,2-4.85,2-6.85,0-2.28-.89-3.42-2.66-3.42,1.92-1.85,4.14-2.78,6.65-2.78h.22c2.66,0,4.99,.96,6.99,2.89,2,1.93,3,4.46,3,7.6,.44-1.85,1.74-3.32,3.88-4.39,2.14-1.07,4.55-1.6,7.21-1.6h9.54v2.14c-2.22,0-4.21,.82-5.99,2.46-1.77,1.64-2.66,4.6-2.66,8.88v122.84c0,4.28,.89,7.24,2.66,8.88,1.78,1.64,3.77,2.46,5.99,2.46v2.14h-9.54c-2.66,0-5.07-.54-7.21-1.61-2.15-1.07-3.44-2.53-3.88-4.39-.59,1.86-1.96,3.32-4.1,4.39-2.14,1.07-4.55,1.61-7.21,1.61h-9.54v-2.14c2.22,0,4.21-.82,5.99-2.46,1.77-1.64,2.66-4.6,2.66-8.88v-9.42c-.44,.43-1.11,.64-2,.64-1.19,0-2.29-.32-3.33-.96-1.04-.64-1.63-1.53-1.77-2.67,.44,.29,.89,.43,1.33,.43,1.62,0,2.99-1.14,4.1-3.42,1.11-2.28,1.66-5.06,1.66-8.35v-59.92c-1.92,4.28-4.85,10.7-8.76,19.26-3.92,8.56-6.84,14.98-8.76,19.26h-6.43c-2.07-4.28-5.07-10.7-8.98-19.26-3.92-8.56-6.84-14.98-8.76-19.26v83.67c0,4.28,.89,7.24,2.66,8.88,1.77,1.64,3.84,2.46,6.21,2.46v2.14h-9.76c-2.66,0-5.07-.54-7.21-1.61-2.15-1.07-3.44-2.53-3.88-4.39-.59,1.86-1.96,3.32-4.1,4.39-2.15,1.07-4.47,1.61-6.99,1.61h-9.76v-2.14c2.22,0,4.25-.82,6.1-2.46,1.85-1.64,2.77-4.6,2.77-8.88v-9.42c-.44,.43-1.19,.64-2.22,.64s-2.11-.32-3.22-.96c-1.11-.64-1.74-1.53-1.89-2.67,.44,.29,.89,.43,1.33,.43,1.77,0,3.22-1.14,4.33-3.42,1.11-2.28,1.66-5.06,1.66-8.35v-99.08c0-4.28-.93-7.24-2.77-8.88-1.85-1.64-3.88-2.46-6.1-2.46v-2.14h9.76c2.51,0,4.84,.54,6.99,1.6,2.14,1.07,3.51,2.54,4.1,4.39,0-3.14,1-5.67,2.99-7.6,2-1.93,4.33-2.89,6.99-2.89Z"/><path d="M860.48,408.96h9.76c2.51,0,4.84,.54,6.99,1.6,2.14,1.07,3.51,2.54,4.1,4.39,.44-1.85,1.74-3.32,3.88-4.39,2.14-1.07,4.55-1.6,7.21-1.6h30.61c2.51,0,4.84,.54,6.99,1.6,2.14,1.07,3.51,2.54,4.1,4.39,.44-1.85,1.74-3.32,3.88-4.39,2.14-1.07,4.55-1.6,7.21-1.6h9.76v2.14c-2.37,0-4.44,.82-6.21,2.46-1.77,1.64-2.66,4.6-2.66,8.88v13.7c0,5.99-1.92,10.49-5.77,13.48-3.85,3-8.43,4.49-13.75,4.49-4.59,0-8.62-1-12.09-3-3.48-2-5.21-4.49-5.21-7.49,.44,.43,1.25,.64,2.44,.64,2.66,0,5.29-.96,7.88-2.89,2.59-1.93,3.88-4.89,3.88-8.88,0-6.85-3.85-10.27-11.54-10.27h-9.76c-2.37,0-4.44,.82-6.21,2.46-1.78,1.64-2.66,4.53-2.66,8.67v39.8c4.58-4.71,9.91-7.06,15.97-7.06,3.55,0,6.4,1.11,8.54,3.32,2.14,2.21,3.22,4.67,3.22,7.38,0,2.43-.59,4.6-1.77,6.53-1.19,1.93-2.66,2.89-4.44,2.89,.15-.14,.22-.57,.22-1.28,0-1.42-.55-2.85-1.66-4.28-1.11-1.42-2.85-2.14-5.21-2.14-3.25,0-6.54,1.79-9.87,5.35-3.33,3.57-4.99,7.85-4.99,12.84v37.66c0,4.14,.89,7.03,2.66,8.67,1.77,1.64,3.84,2.46,6.21,2.46h7.1c9.46,0,14.2-4.42,14.2-13.27,0-3.99-.93-6.77-2.77-8.35-1.85-1.57-3.96-2.35-6.32-2.35l31.72-33.81v57.57c0,4.28,.89,7.24,2.66,8.88,1.77,1.64,3.84,2.46,6.21,2.46v2.14h-9.76c-2.66,0-5.07-.54-7.21-1.61-2.15-1.07-3.44-2.53-3.88-4.39-.59,1.86-1.96,3.32-4.1,4.39-2.15,1.07-4.47,1.61-6.99,1.61h-30.61c-2.66,0-5.07-.54-7.21-1.61-2.15-1.07-3.44-2.53-3.88-4.39-.59,1.86-1.96,3.32-4.1,4.39-2.15,1.07-4.47,1.61-6.99,1.61h-9.76v-2.14c2.22,0,4.25-.82,6.1-2.46,1.85-1.64,2.77-4.6,2.77-8.88v-9.42c-.44,.43-1.19,.64-2.22,.64s-2.11-.32-3.22-.96c-1.11-.64-1.74-1.53-1.89-2.67,.44,.29,.89,.43,1.33,.43,1.77,0,3.22-1.14,4.33-3.42,1.11-2.28,1.66-5.06,1.66-8.35v-99.08c0-4.28-.93-7.24-2.77-8.88-1.85-1.64-3.88-2.46-6.1-2.46v-2.14Z"/><path d="M1057.68,408.96h29.5c8.58,0,14.71,2.43,18.41,7.28,.74-.43,1.85-.64,3.33-.64,2.07,0,3.96,.54,5.66,1.61,1.7,1.07,2.55,2.75,2.55,5.03-1.04-1-2.07-1.5-3.11-1.5-2.52,0-3.77,1.86-3.77,5.56v115.13c0,3.71,1.25,5.56,3.77,5.56,1.03,0,2.07-.5,3.11-1.5,0,2.28-.85,3.96-2.55,5.03-1.7,1.07-3.59,1.61-5.66,1.61-1.48,0-2.59-.21-3.33-.64-3.7,4.85-9.84,7.28-18.41,7.28h-29.5c-8.58,0-14.72-2.42-18.41-7.28-.74,.43-1.85,.64-3.33,.64-2.07,0-3.96-.54-5.66-1.61-1.7-1.07-2.55-2.75-2.55-5.03,.89,1,1.92,1.5,3.11,1.5,2.51,0,3.77-1.85,3.77-5.56v-5.56c-.44,.43-1.19,.64-2.22,.64s-2.11-.32-3.22-.96c-1.11-.64-1.74-1.53-1.89-2.67,.44,.29,.89,.43,1.33,.43,1.77,0,3.22-1.14,4.33-3.42,1.11-2.28,1.66-5.06,1.66-8.35v-95.23c0-3.71-1.26-5.56-3.77-5.56-1.18,0-2.22,.5-3.11,1.5,0-2.28,.85-3.96,2.55-5.03,1.7-1.07,3.58-1.61,5.66-1.61,1.48,0,2.59,.21,3.33,.64,3.69-4.85,9.83-7.28,18.41-7.28Zm9.76,13.27c-2.37,0-4.44,.82-6.21,2.46-1.78,1.64-2.66,4.53-2.66,8.67v37.88c2.07-2,4.07-3,5.99-3,2.81,0,6.36,2,10.65,5.99l5.55,5.35c2.22,2.14,4.07,3.57,5.54,4.28v-50.5c0-4.14-.92-7.03-2.77-8.67-1.85-1.64-3.88-2.46-6.1-2.46h-9.98Zm-8.87,61.63v50.5c0,4.14,.89,7.03,2.66,8.67,1.77,1.64,3.84,2.46,6.21,2.46h9.98c2.07,0,3.99-.71,5.77-2.14,1.77-1.42,2.74-3.92,2.88-7.49-.3,.43-.96,.64-2,.64-1.19,0-2.29-.32-3.33-.96-1.04-.64-1.63-1.53-1.78-2.67,.44,.29,.89,.43,1.33,.43,1.63,0,3.03-1.14,4.21-3.42,1.18-2.28,1.77-5.06,1.77-8.35v-25.04c-2.07,2-4.14,3-6.21,3-2.81,0-6.29-2-10.43-5.99l-5.54-5.35c-2.22-2.14-4.07-3.56-5.55-4.28Z"/><path d="M1119.78,408.96h7.32c2.66,0,5.21,.54,7.65,1.6,2.44,1.07,4.1,2.54,4.99,4.39,.15-1.85,1.14-3.32,3-4.39,1.85-1.07,4.1-1.6,6.77-1.6h10.2v2.14c-4.44,0-6.66,2.28-6.66,6.85,0,1.28,.22,2.78,.67,4.49l21.07,83.03,21.29-83.03c.44-1.71,.67-3.21,.67-4.49,0-4.56-2.22-6.85-6.65-6.85v-2.14h10.2c2.66,0,4.91,.54,6.77,1.6,1.85,1.07,2.84,2.54,2.99,4.39,.89-1.85,2.55-3.32,4.99-4.39,2.44-1.07,4.99-1.6,7.65-1.6h7.32v2.14c-4.73,0-8.06,3.78-9.98,11.34l-31.28,122.84c-.59,2.28-.89,4.21-.89,5.78,0,3.71,1.7,5.56,5.1,5.56v2.14h-8.43c-2.66,0-4.92-.54-6.77-1.61-1.85-1.07-2.85-2.53-2.99-4.39,0,1.86-.93,3.32-2.77,4.39-1.85,1.07-4.1,1.61-6.77,1.61h-8.43v-2.14c3.4,0,5.1-1.85,5.1-5.56,0-1.57-.3-3.49-.89-5.78-.3-1-.7-2.57-1.22-4.71-.52-2.14-.92-3.71-1.22-4.71-.44,.72-1.41,1.07-2.88,1.07-3.11,0-5.03-1.35-5.77-4.07,.74,.43,1.48,.64,2.22,.64,2.51,0,3.77-1.93,3.77-5.78,0-1.42-.22-3.07-.67-4.92-2.52-9.84-6.66-26.03-12.42-48.58-5.77-22.54-10.13-39.8-13.09-51.79-1.92-7.56-5.25-11.34-9.98-11.34v-2.14Z"/><path d="M1236.02,408.96h9.76c2.51,0,4.84,.54,6.99,1.6,2.14,1.07,3.51,2.54,4.1,4.39,.44-1.85,1.74-3.32,3.88-4.39,2.14-1.07,4.55-1.6,7.21-1.6h30.61c2.51,0,4.84,.54,6.99,1.6,2.14,1.07,3.51,2.54,4.1,4.39,.44-1.85,1.74-3.32,3.88-4.39,2.14-1.07,4.55-1.6,7.21-1.6h9.76v2.14c-2.37,0-4.44,.82-6.21,2.46-1.77,1.64-2.66,4.6-2.66,8.88v13.7c0,5.99-1.92,10.49-5.77,13.48-3.85,3-8.43,4.49-13.75,4.49-4.59,0-8.62-1-12.09-3-3.48-2-5.21-4.49-5.21-7.49,.44,.43,1.25,.64,2.44,.64,2.66,0,5.29-.96,7.88-2.89,2.59-1.93,3.88-4.89,3.88-8.88,0-6.85-3.85-10.27-11.54-10.27h-9.76c-2.37,0-4.44,.82-6.21,2.46-1.78,1.64-2.66,4.53-2.66,8.67v39.8c4.58-4.71,9.91-7.06,15.97-7.06,3.55,0,6.4,1.11,8.54,3.32,2.14,2.21,3.22,4.67,3.22,7.38,0,2.43-.59,4.6-1.77,6.53-1.19,1.93-2.66,2.89-4.44,2.89,.15-.14,.22-.57,.22-1.28,0-1.42-.55-2.85-1.66-4.28-1.11-1.42-2.85-2.14-5.21-2.14-3.25,0-6.54,1.79-9.87,5.35-3.33,3.57-4.99,7.85-4.99,12.84v37.66c0,4.14,.89,7.03,2.66,8.67,1.77,1.64,3.84,2.46,6.21,2.46h7.1c9.46,0,14.2-4.42,14.2-13.27,0-3.99-.93-6.77-2.77-8.35-1.85-1.57-3.96-2.35-6.32-2.35l31.72-33.81v57.57c0,4.28,.89,7.24,2.66,8.88,1.77,1.64,3.84,2.46,6.21,2.46v2.14h-9.76c-2.66,0-5.07-.54-7.21-1.61-2.15-1.07-3.44-2.53-3.88-4.39-.59,1.86-1.96,3.32-4.1,4.39-2.15,1.07-4.47,1.61-6.99,1.61h-30.61c-2.66,0-5.07-.54-7.21-1.61-2.15-1.07-3.44-2.53-3.88-4.39-.59,1.86-1.96,3.32-4.1,4.39-2.15,1.07-4.47,1.61-6.99,1.61h-9.76v-2.14c2.22,0,4.25-.82,6.1-2.46,1.85-1.64,2.77-4.6,2.77-8.88v-9.42c-.44,.43-1.19,.64-2.22,.64s-2.11-.32-3.22-.96c-1.11-.64-1.74-1.53-1.89-2.67,.44,.29,.89,.43,1.33,.43,1.77,0,3.22-1.14,4.33-3.42,1.11-2.28,1.66-5.06,1.66-8.35v-99.08c0-4.28-.93-7.24-2.77-8.88-1.85-1.64-3.88-2.46-6.1-2.46v-2.14Z"/><path d="M1336.5,408.96h9.76c2.51,0,4.84,.54,6.99,1.6,2.14,1.07,3.51,2.54,4.1,4.39,.44-1.85,1.74-3.32,3.88-4.39,2.14-1.07,4.55-1.6,7.21-1.6h28.17c7.54,0,13.31,2,17.3,5.99,3.99,4,5.99,10.49,5.99,19.47v32.74c0,8.42-1.78,14.77-5.32,19.05,3.55,4.14,5.32,10.42,5.32,18.83v40.23c0,4.28,.89,7.24,2.66,8.88,1.77,1.64,3.77,2.46,5.99,2.46v2.14h-9.54c-2.66,0-5.07-.54-7.21-1.61-2.15-1.07-3.44-2.53-3.88-4.39-.59,1.86-1.96,3.32-4.1,4.39-2.15,1.07-4.55,1.61-7.21,1.61h-9.54v-2.14c2.22,0,4.21-.82,5.99-2.46,1.77-1.64,2.66-4.6,2.66-8.88v-9.42c-.44,.43-1.11,.64-2,.64-1.19,0-2.29-.32-3.33-.96-1.04-.64-1.63-1.53-1.77-2.67,.44,.29,.89,.43,1.33,.43,1.62,0,2.99-1.14,4.1-3.42,1.11-2.28,1.66-5.06,1.66-8.35v-17.55c0-4.14-.89-7.03-2.66-8.67-1.78-1.64-3.77-2.46-5.99-2.46h-17.75v52.43c0,4.28,.89,7.24,2.66,8.88,1.77,1.64,3.84,2.46,6.21,2.46v2.14h-9.76c-2.66,0-5.07-.54-7.21-1.61-2.15-1.07-3.44-2.53-3.88-4.39-.59,1.86-1.96,3.32-4.1,4.39-2.15,1.07-4.47,1.61-6.99,1.61h-9.76v-2.14c2.22,0,4.25-.82,6.1-2.46,1.85-1.64,2.77-4.6,2.77-8.88v-9.42c-.44,.43-1.19,.64-2.22,.64s-2.11-.32-3.22-.96c-1.11-.64-1.74-1.53-1.89-2.67,.44,.29,.89,.43,1.33,.43,1.77,0,3.22-1.14,4.33-3.42,1.11-2.28,1.66-5.06,1.66-8.35v-99.08c0-4.28-.93-7.24-2.77-8.88-1.85-1.64-3.88-2.46-6.1-2.46v-2.14Zm41.7,13.27c-2.37,0-4.44,.82-6.21,2.46-1.78,1.64-2.66,4.53-2.66,8.67v46.22h17.75c2.22,0,4.21-.82,5.99-2.46,1.77-1.64,2.66-4.6,2.66-8.88v-34.88c0-4.14-.89-7.03-2.66-8.67-1.78-1.64-3.77-2.46-5.99-2.46h-8.87Z"/></g></g></g><g id="b"/><g id="c"><g id="d"/><g id="e"/><g id="f"/><g id="g"/></g><g id="h"><g id="i"/><g id="j"><g id="k"/><g id="l"/><g id="m"/><g id="n"/></g><g id="o"/><g id="p"><g id="q"><g id="r"><g id="s"/><g id="t"/></g></g><g id="u"/></g></g><g id="v"/><g id="w"><g id="x"/><g id="y"/><g id="a`"/><g id="aa"/><g id="ab"/><g id="ac"/><g id="ad"/></g><g id="ae"><g id="af"/><g id="ag"/><g id="ah"/><g id="ai"/><g id="aj"/></g><g id="ak"><g id="al"/><g id="am"/></g><g id="an"><g id="ao"/></g><g id="ap"><g id="aq"/><g id="ar"><g id="as"/></g></g><g id="at"><g id="au"/><g id="av"/><g id="aw"/><g id="ax"/></g><g id="ay"><g id="b`"/><g id="ba"/><g id="bb"/></g><g id="bc"><g id="bd"/><g id="be"/></g><g id="bf"/><g id="bg"><g id="bh"/><g id="bi"/><g id="bj"/><g id="bk"><g id="bl"/><g id="bm"/><g id="bn"/><g id="bo"/></g><g id="bp"/><g id="bq"/><g id="br"/></g></svg>