<svg id="game-over" xmlns="http://www.w3.org/2000/svg" width="1920" height="1080" viewBox="0 0 1920 1080"><defs><style>.cls-1{opacity:0.69;}.cls-2{fill:#fbb03b;}.cls-3{fill:#f7931e;}.cls-4{fill:#c1272d;}</style></defs><rect width="1920" height="1080"/><g class="cls-1"><rect class="cls-2" x="75.82" y="89.62" width="1765.94" height="892.42"/></g><rect class="cls-2" x="97.02" y="100.72" width="1728.97" height="860.88"/><path class="cls-3" d="M1827.65,963.29H95.37V99H1827.65Zm-1729-3.38H1824.34V102.41H98.67Z"/><rect class="cls-2" x="146.72" y="168.84" width="1602.38" height="731.75"/><path class="cls-3" d="M1751.63,903.12H144.18V166.31H1751.63ZM149.25,898.06H1746.56V171.37H149.25Z"/><path class="cls-2" d="M1750.63,902H145.19V167.41H1750.63ZM148.25,899.15H1747.57V170.28H148.25Z"/><path class="cls-3" d="M1751.47,902.87H144.34V166.56H1751.47ZM146,901.18H1749.78V168.25H146ZM1748.41,900H147.4V169.43h1601ZM149.09,898.31H1746.72V171.12H149.09Z"/><rect class="cls-2" x="220.47" y="215.17" width="1473.6" height="631.99"/><path class="cls-3" d="M1696.4,849.34H218.14V213H1696.4ZM222.8,845H1691.74V217.35H222.8Z"/><path class="cls-2" d="M1695.48,848.39H219.06V213.93H1695.48Zm-1473.6-2.48H1692.66V216.41H221.88Z"/><path class="cls-3" d="M1696.25,849.12h-1478V213.2h1478ZM219.84,847.66H1694.7v-633H219.84Zm1473.6-1H221.1v-631H1693.44ZM222.66,845.19H1691.88V217.13H222.66Z"/><rect class="cls-4" x="242.05" y="234.2" width="1430.43" height="593.92"/><path d="M571.75,298.27h29.82a16.38,16.38,0,0,1,6.66,1.35,6.7,6.7,0,0,1,3.91,3.71c.42-1.57,1.66-2.8,3.7-3.71a16.88,16.88,0,0,1,6.87-1.35H632v1.81a9.07,9.07,0,0,0-5.92,2.07c-1.69,1.39-2.54,3.88-2.54,7.5V321.2q0,7.59-5.5,11.38a22.16,22.16,0,0,1-12.9,3.79,25.56,25.56,0,0,1-11.74-2.53q-5-2.52-5-6.32a3.65,3.65,0,0,0,2.32.55,13.35,13.35,0,0,0,7.61-2.44c2.4-1.63,3.6-4.12,3.6-7.5q0-8.67-11-8.66h-9.94a9.09,9.09,0,0,0-5.92,2.07q-2.53,2.08-2.53,7.32v85.23q0,5.24,2.53,7.31a9,9,0,0,0,5.92,2.08h11.21a9.32,9.32,0,0,0,5.5-1.8c1.69-1.21,2.61-3.31,2.75-6.33a2.82,2.82,0,0,1-1.9.55,6.64,6.64,0,0,1-3.07-.82,3,3,0,0,1-1.8-2.25,2.58,2.58,0,0,0,1.27.36q2.54,0,4.13-2.89a14.53,14.53,0,0,0,1.58-7V370.5c0-3.61-.84-6.11-2.54-7.49a9.08,9.08,0,0,0-5.92-2.08,8.52,8.52,0,0,0-5.39,1.72c-1.48,1.14-2.22,3-2.22,5.5h-2.12V349.73h19a16.39,16.39,0,0,1,6.66,1.36,6.61,6.61,0,0,1,3.91,3.88,5.89,5.89,0,0,1,3.7-3.88,16.88,16.88,0,0,1,6.87-1.36H632v1.81a8.8,8.8,0,0,0-5.92,2.17q-2.54,2.16-2.54,7.4V413.3q0,5.42,2.54,7.49a9,9,0,0,0,5.92,2.08v1.81h-9.31a16.72,16.72,0,0,1-6.87-1.36c-2-.9-3.28-2.13-3.7-3.7a6.66,6.66,0,0,1-3.91,3.7,16.23,16.23,0,0,1-6.66,1.36H571.75q-12.27,0-17.55-6.14a7.26,7.26,0,0,1-3.17.54,10.83,10.83,0,0,1-5.4-1.36,4.51,4.51,0,0,1-2.43-4.24,4.07,4.07,0,0,0,3,1.26q3.6,0,3.6-4.69v-4.7a3.23,3.23,0,0,1-2.12.55,6.57,6.57,0,0,1-3.06-.82,3,3,0,0,1-1.8-2.25,2.56,2.56,0,0,0,1.27.36q2.54,0,4.12-2.89a14.42,14.42,0,0,0,1.59-7V312.9q0-4.69-3.6-4.7a4,4,0,0,0-3,1.27,4.53,4.53,0,0,1,2.43-4.25,10.93,10.93,0,0,1,5.4-1.35,7.26,7.26,0,0,1,3.17.54Q559.48,298.27,571.75,298.27Z"/><path d="M673,298.27h8a14.1,14.1,0,0,1,6.45,1.35c1.76.91,2.64,2.14,2.64,3.71a4.62,4.62,0,0,1,2.85-3.71,14.1,14.1,0,0,1,6.45-1.35h8v1.81q-4.86,0-4.86,4.69a18,18,0,0,0,.84,4.88L733.31,413.3q2.75,9.57,9.52,9.57v1.81h-7a19.87,19.87,0,0,1-7.3-1.36,8.67,8.67,0,0,1-4.76-3.7,4.59,4.59,0,0,1-2.85,3.7,13.94,13.94,0,0,1-6.45,1.36h-9.73v-1.81q6.35,0,6.35-5.78a13.88,13.88,0,0,0-.64-3.79l-2.33-7.95c-.28.61-1.19.91-2.74.91-3,0-4.8-1.15-5.5-3.43a4.56,4.56,0,0,0,2.11.54q3.6,0,3.6-4.88a15.92,15.92,0,0,0-.64-4.15l-.84-3.25a8.75,8.75,0,0,1-5.08,1.8q-3.81,0-9.94-5.05l-5.28-4.52a30.06,30.06,0,0,0-4.23-3.07l-9.52,33.05a13.82,13.82,0,0,0-.63,3.79q0,5.79,6.34,5.78v1.81h-9.73a13.94,13.94,0,0,1-6.45-1.36,4.59,4.59,0,0,1-2.85-3.7,8.63,8.63,0,0,1-4.76,3.7,19.87,19.87,0,0,1-7.3,1.36h-7v-1.81q6.76,0,9.51-9.57l2.12-7.95a3,3,0,0,1-2.33.91,4.63,4.63,0,0,1-3-1,3,3,0,0,1-1.27-2.43,3.87,3.87,0,0,0,1.48.36q2.54,0,5-2.8a18.68,18.68,0,0,0,3.7-7.13l24.11-83.61a18,18,0,0,0,.84-4.88q0-4.69-4.86-4.69Zm17.13,45-6.56,23.3a2.2,2.2,0,0,1,.85-.18q3.81,0,9.94,5.24l5.29,4.51Z"/><path d="M777.93,294.48a9,9,0,0,1,6.34,2.34c-1.55,0-2.33,1-2.33,2.89a12.75,12.75,0,0,0,1.69,5.78l16.08,31.24,16.07-31.24a11.72,11.72,0,0,0,1.9-5.78c0-1.92-.84-2.89-2.54-2.89a9.5,9.5,0,0,1,6.35-2.34h.21a9.91,9.91,0,0,1,6.66,2.44,8,8,0,0,1,2.85,6.41c.43-1.57,1.66-2.8,3.71-3.71a16.85,16.85,0,0,1,6.87-1.35h9.09v1.81a8.81,8.81,0,0,0-5.71,2.07c-1.69,1.39-2.54,3.88-2.54,7.5V413.3q0,5.42,2.54,7.49a8.76,8.76,0,0,0,5.71,2.08v1.81h-9.09a16.69,16.69,0,0,1-6.87-1.36c-2-.9-3.28-2.13-3.71-3.7a6.63,6.63,0,0,1-3.91,3.7,16.69,16.69,0,0,1-6.87,1.36h-9.09v-1.81a8.78,8.78,0,0,0,5.71-2.08q2.54-2.07,2.53-7.49v-7.95a2.8,2.8,0,0,1-1.9.55,6.38,6.38,0,0,1-3.17-.82,3,3,0,0,1-1.69-2.25,2.53,2.53,0,0,0,1.27.36q2.32,0,3.91-2.89a14.42,14.42,0,0,0,1.58-7V342.69q-2.75,5.42-8.35,16.25t-8.35,16.26h-6.13q-3-5.42-8.57-16.26t-8.35-16.25V413.3c0,3.61.84,6.11,2.54,7.49a9,9,0,0,0,5.92,2.08v1.81H779a16.69,16.69,0,0,1-6.87-1.36q-3.08-1.35-3.7-3.7a6.69,6.69,0,0,1-3.91,3.7,16.23,16.23,0,0,1-6.66,1.36h-9.31v-1.81a9.19,9.19,0,0,0,5.82-2.08q2.64-2.07,2.64-7.49v-7.95a3.21,3.21,0,0,1-2.12.55,6.63,6.63,0,0,1-3.06-.82,3,3,0,0,1-1.8-2.25,2.56,2.56,0,0,0,1.27.36c1.69,0,3.07-1,4.12-2.89a14.42,14.42,0,0,0,1.59-7V309.65c0-3.62-.88-6.11-2.64-7.5a9.24,9.24,0,0,0-5.82-2.07v-1.81h9.31a16.38,16.38,0,0,1,6.66,1.35,6.73,6.73,0,0,1,3.91,3.71,8,8,0,0,1,2.85-6.41A10,10,0,0,1,777.93,294.48Z"/><path d="M856.8,298.27h9.31a16.38,16.38,0,0,1,6.66,1.35,6.73,6.73,0,0,1,3.91,3.71c.42-1.57,1.65-2.8,3.7-3.71a16.85,16.85,0,0,1,6.87-1.35h29.18a16.4,16.4,0,0,1,6.67,1.35,6.73,6.73,0,0,1,3.91,3.71c.42-1.57,1.65-2.8,3.7-3.71a16.85,16.85,0,0,1,6.87-1.35h9.31v1.81a9.07,9.07,0,0,0-5.92,2.07c-1.7,1.39-2.54,3.88-2.54,7.5V321.2q0,7.59-5.5,11.38a22.52,22.52,0,0,1-13.11,3.79,25,25,0,0,1-11.53-2.53q-5-2.52-5-6.32a3.71,3.71,0,0,0,2.33.55,13.57,13.57,0,0,0,7.51-2.44c2.46-1.63,3.7-4.12,3.7-7.5q0-8.67-11-8.66h-9.3a9.07,9.07,0,0,0-5.92,2.07c-1.7,1.39-2.54,3.83-2.54,7.32v33.58a21.94,21.94,0,0,1,15.22-6,11.66,11.66,0,0,1,8.15,2.8,8.34,8.34,0,0,1,3.06,6.23,9.4,9.4,0,0,1-1.69,5.51,5,5,0,0,1-4.23,2.44q.21-.18.21-1.08a5.55,5.55,0,0,0-1.58-3.62q-1.59-1.8-5-1.8-4.66,0-9.41,4.51a14.4,14.4,0,0,0-4.76,10.84v31.78c0,3.49.84,5.93,2.54,7.31a9,9,0,0,0,5.92,2.08h6.76q13.53,0,13.54-11.2,0-5-2.65-7a9.78,9.78,0,0,0-6-2l30.24-28.54V413.3c0,3.61.84,6.11,2.54,7.49a9,9,0,0,0,5.92,2.08v1.81h-9.31a16.69,16.69,0,0,1-6.87-1.36q-3.08-1.35-3.7-3.7a6.69,6.69,0,0,1-3.91,3.7,16.24,16.24,0,0,1-6.67,1.36H887.25a16.69,16.69,0,0,1-6.87-1.36q-3.07-1.35-3.7-3.7a6.69,6.69,0,0,1-3.91,3.7,16.23,16.23,0,0,1-6.66,1.36H856.8v-1.81a9.19,9.19,0,0,0,5.82-2.08q2.64-2.07,2.64-7.49v-7.95a3.21,3.21,0,0,1-2.12.55,6.63,6.63,0,0,1-3.06-.82,3,3,0,0,1-1.8-2.25,2.56,2.56,0,0,0,1.27.36c1.69,0,3.07-1,4.12-2.89a14.42,14.42,0,0,0,1.59-7V309.65c0-3.62-.88-6.11-2.64-7.5a9.24,9.24,0,0,0-5.82-2.07Z"/><path d="M1044.79,298.27h28.13q12.25,0,17.55,6.14a7.2,7.2,0,0,1,3.17-.54,10.92,10.92,0,0,1,5.39,1.35,4.53,4.53,0,0,1,2.44,4.25,4.57,4.57,0,0,0-3-1.27q-3.59,0-3.59,4.7v97.15q0,4.69,3.59,4.69a4.61,4.61,0,0,0,3-1.26,4.52,4.52,0,0,1-2.44,4.24,10.82,10.82,0,0,1-5.39,1.36,7.2,7.2,0,0,1-3.17-.54q-5.29,6.13-17.55,6.14h-28.13q-12.27,0-17.55-6.14a7.23,7.23,0,0,1-3.17.54,10.79,10.79,0,0,1-5.39-1.36,4.5,4.5,0,0,1-2.44-4.24,4.07,4.07,0,0,0,3,1.26q3.6,0,3.6-4.69v-4.7a3.2,3.2,0,0,1-2.11.55,6.64,6.64,0,0,1-3.07-.82,3,3,0,0,1-1.8-2.25,2.56,2.56,0,0,0,1.27.36c1.69,0,3.07-1,4.12-2.89a14.42,14.42,0,0,0,1.59-7V312.9q0-4.69-3.6-4.7a4,4,0,0,0-3,1.27,4.52,4.52,0,0,1,2.44-4.25,10.89,10.89,0,0,1,5.39-1.35,7.23,7.23,0,0,1,3.17.54Q1032.52,298.27,1044.79,298.27Zm9.31,11.2a9.07,9.07,0,0,0-5.92,2.07c-1.7,1.39-2.54,3.83-2.54,7.32v32a8.92,8.92,0,0,1,5.71-2.53q4,0,10.15,5.06l5.28,4.51a22.43,22.43,0,0,0,5.29,3.61V318.86q0-5.24-2.64-7.32a9.24,9.24,0,0,0-5.82-2.07Zm-8.46,52v42.62c0,3.49.84,5.93,2.54,7.31a9,9,0,0,0,5.92,2.08h9.51a9.3,9.3,0,0,0,5.5-1.8c1.69-1.21,2.61-3.31,2.75-6.33-.28.37-.92.55-1.9.55a6.44,6.44,0,0,1-3.18-.82,3,3,0,0,1-1.69-2.25,2.58,2.58,0,0,0,1.27.36q2.33,0,4-2.89a13.69,13.69,0,0,0,1.69-7V372.13a9.13,9.13,0,0,1-5.92,2.53q-4,0-9.94-5.06l-5.29-4.52A22.84,22.84,0,0,0,1045.64,361.47Z"/><path d="M1104,298.27h7a20.07,20.07,0,0,1,7.3,1.35,8.66,8.66,0,0,1,4.75,3.71,4.61,4.61,0,0,1,2.86-3.71,14,14,0,0,1,6.45-1.35h9.73v1.81q-6.35,0-6.35,5.77a13.57,13.57,0,0,0,.64,3.8l20.09,70.06,20.3-70.06a13.89,13.89,0,0,0,.63-3.8q0-5.78-6.34-5.77v-1.81h9.72a14,14,0,0,1,6.45,1.35,4.61,4.61,0,0,1,2.86,3.71,8.65,8.65,0,0,1,4.76-3.71,20,20,0,0,1,7.29-1.35h7v1.81q-6.76,0-9.52,9.57L1169.77,413.3a17.73,17.73,0,0,0-.85,4.88q0,4.69,4.87,4.69v1.81h-8a13.92,13.92,0,0,1-6.45-1.36,4.57,4.57,0,0,1-2.85-3.7c0,1.57-.89,2.8-2.65,3.7a13.92,13.92,0,0,1-6.45,1.36h-8v-1.81q4.86,0,4.86-4.69a17.73,17.73,0,0,0-.85-4.88c-.28-.84-.67-2.17-1.16-4s-.88-3.13-1.16-4c-.42.61-1.34.91-2.75.91-3,0-4.8-1.15-5.5-3.43a4.6,4.6,0,0,0,2.12.54q3.58,0,3.59-4.88a16.3,16.3,0,0,0-.63-4.15l-11.85-41q-8.23-28.53-12.47-43.7-2.76-9.57-9.52-9.57Z"/><path d="M1214.81,298.27h9.3a16.31,16.31,0,0,1,6.66,1.35,6.72,6.72,0,0,1,3.92,3.71c.42-1.57,1.65-2.8,3.7-3.71a16.85,16.85,0,0,1,6.87-1.35h29.18a16.31,16.31,0,0,1,6.66,1.35,6.75,6.75,0,0,1,3.92,3.71c.42-1.57,1.65-2.8,3.7-3.71a16.85,16.85,0,0,1,6.87-1.35h9.3v1.81a9.09,9.09,0,0,0-5.92,2.07c-1.69,1.39-2.54,3.88-2.54,7.5V321.2q0,7.59-5.49,11.38a22.52,22.52,0,0,1-13.11,3.79,25,25,0,0,1-11.53-2.53q-5-2.52-5-6.32a3.69,3.69,0,0,0,2.33.55,13.54,13.54,0,0,0,7.5-2.44c2.47-1.63,3.7-4.12,3.7-7.5q0-8.67-11-8.66h-9.31a9.09,9.09,0,0,0-5.92,2.07q-2.54,2.08-2.53,7.32v33.58a21.92,21.92,0,0,1,15.22-6,11.63,11.63,0,0,1,8.14,2.8,8.35,8.35,0,0,1,3.07,6.23,9.47,9.47,0,0,1-1.69,5.51,5,5,0,0,1-4.23,2.44q.21-.18.21-1.08a5.52,5.52,0,0,0-1.59-3.62q-1.58-1.8-5-1.8-4.65,0-9.41,4.51a14.43,14.43,0,0,0-4.75,10.84v31.78q0,5.24,2.53,7.31a9,9,0,0,0,5.92,2.08h6.77q13.53,0,13.53-11.2,0-5-2.64-7a9.79,9.79,0,0,0-6-2l30.24-28.54V413.3q0,5.42,2.54,7.49a9,9,0,0,0,5.92,2.08v1.81h-9.3a16.69,16.69,0,0,1-6.87-1.36q-3.08-1.35-3.7-3.7a6.71,6.71,0,0,1-3.92,3.7,16.16,16.16,0,0,1-6.66,1.36h-29.18a16.69,16.69,0,0,1-6.87-1.36q-3.08-1.35-3.7-3.7a6.68,6.68,0,0,1-3.92,3.7,16.16,16.16,0,0,1-6.66,1.36h-9.3v-1.81a9.16,9.16,0,0,0,5.81-2.08c1.76-1.38,2.65-3.88,2.65-7.49v-7.95a3.23,3.23,0,0,1-2.12.55,6.57,6.57,0,0,1-3.06-.82,3,3,0,0,1-1.8-2.25,2.53,2.53,0,0,0,1.27.36q2.54,0,4.12-2.89a14.42,14.42,0,0,0,1.59-7V309.65c0-3.62-.89-6.11-2.65-7.5a9.21,9.21,0,0,0-5.81-2.07Z"/><path d="M1310.6,298.27h9.3a16.4,16.4,0,0,1,6.67,1.35,6.73,6.73,0,0,1,3.91,3.71c.42-1.57,1.65-2.8,3.7-3.71a16.85,16.85,0,0,1,6.87-1.35h26.86q10.78,0,16.49,5.06t5.71,16.43v27.63q0,10.65-5.07,16.07,5.07,5.24,5.07,15.89V413.3q0,5.42,2.54,7.49a8.74,8.74,0,0,0,5.71,2.08v1.81h-9.09a16.73,16.73,0,0,1-6.88-1.36q-3.06-1.35-3.7-3.7a6.66,6.66,0,0,1-3.91,3.7,16.72,16.72,0,0,1-6.87,1.36h-9.1v-1.81a8.74,8.74,0,0,0,5.71-2.08c1.7-1.38,2.54-3.88,2.54-7.49v-7.95a2.82,2.82,0,0,1-1.9.55,6.38,6.38,0,0,1-3.17-.82,3,3,0,0,1-1.7-2.25,2.58,2.58,0,0,0,1.27.36q2.32,0,3.92-2.89a14.53,14.53,0,0,0,1.58-7V378.45c0-3.49-.84-5.93-2.54-7.32a8.79,8.79,0,0,0-5.71-2.07H1341.9V413.3q0,5.42,2.53,7.49a9.07,9.07,0,0,0,5.93,2.08v1.81h-9.31a16.69,16.69,0,0,1-6.87-1.36q-3.08-1.35-3.7-3.7a6.69,6.69,0,0,1-3.91,3.7,16.24,16.24,0,0,1-6.67,1.36h-9.3v-1.81a9.16,9.16,0,0,0,5.81-2.08q2.65-2.07,2.65-7.49v-7.95a3.21,3.21,0,0,1-2.12.55,6.6,6.6,0,0,1-3.06-.82,3,3,0,0,1-1.8-2.25,2.56,2.56,0,0,0,1.27.36q2.54,0,4.12-2.89a14.42,14.42,0,0,0,1.59-7V309.65c0-3.62-.88-6.11-2.65-7.5a9.21,9.21,0,0,0-5.81-2.07Zm39.76,11.2a9.12,9.12,0,0,0-5.93,2.07q-2.54,2.08-2.53,7.32v39h16.91a8.74,8.74,0,0,0,5.71-2.08c1.7-1.38,2.54-3.88,2.54-7.49V318.86c0-3.49-.84-5.93-2.54-7.32a8.79,8.79,0,0,0-5.71-2.07Z"/></svg>