<?xml version="1.0" encoding="UTF-8"?><svg xmlns="http://www.w3.org/2000/svg" width="250" height="215" viewBox="0 0 250 215"><defs><style>.bs{fill:#fbb03b;}.bt{fill:#fddbb4;}.bu{fill:#a22428;}.bv{fill:#d4145a;}.bw{fill:#231f20;}.bx{fill:#403675;}.by{fill:#2c4026;}.c`{fill:#603813;}.ca{fill:#754c24;}.cb{fill:#4d4d4d;}.cc{fill:#fff;opacity:.81;}</style></defs><g id="a"/><g id="b"/><g id="c"><g id="d"/><g id="e"/><g id="f"/><g id="g"/></g><g id="h"><g id="i"/><g id="j"><g id="k"/><g id="l"/><g id="m"/><g id="n"/></g><g id="o"/><g id="p"><g id="q"><g id="r"><g id="s"/><g id="t"/></g></g><g id="u"/></g></g><g id="v"/><g id="w"><g id="x"/><g id="y"/><g id="a`"/><g id="aa"/><g id="ab"/><g id="ac"/><g id="ad"/></g><g id="ae"><g id="af"/><g id="ag"/><g id="ah"/><g id="ai"/><g id="aj"/></g><g id="ak"><g id="al"/><g id="am"/></g><g id="an"><g id="ao"/></g><g id="ap"><g id="aq"/><g id="ar"><g id="as"/></g></g><g id="at"><g id="au"/><g id="av"/><g id="aw"/><g id="ax"><g><polygon class="c`" points="166.52 214.51 171.66 215 196.12 67.24 190.97 66.75 166.52 214.51"/><polygon class="cb" points="242.89 43.9 240.39 78.93 237.89 113.96 211.3 95.31 184.7 76.66 213.8 60.28 242.89 43.9"/><polygon class="cb" points="172.24 94.32 175.19 76.47 178.15 58.61 187.41 68.56 196.67 78.5 184.45 86.41 172.24 94.32"/><path class="cb" d="M242.96,44.47s7.96,18.37,6.96,33.98c-1.08,16.77-12.19,35.4-12.19,35.4,0,0-7.63-20.2-6.12-36.71,1.34-14.76,11.35-32.67,11.35-32.67Z"/><path class="ca" d="M156.86,214.17c-47.87-.03-95.73,0-143.6,.07,0-8.47,0-16.94,0-25.41,47.87-.07,95.75-.12,143.62-.03-.01,8.46-.02,16.91-.02,25.37Z"/><path class="bu" d="M120.83,105.91c-.39,.8-.44,1.51-1.74,1.64-21.55,2.17-43.24,.17-64.85,0-1.45-.01-1.87-.7-2.05-1.65C7.27,132.16,5.98,174.41,.8,213.81c26.31-9.19,49.35-10.35,79.14-12.08,29.79-1.73,58.17-.79,85.38,12.5-2.33-36.24-4.04-83.84-44.49-108.33Z"/><path class="by" d="M118.39,110.58c-.65,.52-.51,1.3-1.68,1.36-19.36,1.03-37.11-1.6-56.3-1.96-1.29-.02-1.35-.76-1.87-1.44C22.52,134.58,11.6,174.09,13.46,210.72c22.46-6.14,44.36-7.13,68.53-6.8,24.17,.34,51.88-1.51,74.65,7.41-.44-37.4-3.15-71.92-38.25-100.76Z"/><g><path class="by" d="M135.43,132.45l21.34,12.33c2.76,1.59,3.42,4.33,1.47,6.09l-2.63,2.36c-1.95,1.75-5.8,1.89-8.56,.29l-24.23-14"/><path d="M151.33,154.82c-1.58,0-3.15-.41-4.44-1.16l-24.23-14,.32-.29,24.23,14c1.29,.74,2.85,1.12,4.41,1.07,1.55-.05,2.89-.53,3.79-1.33l2.63-2.36c1.87-1.68,1.23-4.29-1.43-5.83l-21.34-12.33,.32-.29,21.34,12.33c2.88,1.66,3.55,4.51,1.51,6.35l-2.63,2.36c-.99,.89-2.47,1.41-4.17,1.47-.1,0-.21,0-.31,0Z"/></g><path class="by" d="M181.81,121.83l-4.43-2.64c-2.53-1.51-6.26-1.2-8.28,.68l-26.73,24.85c-2.03,1.88-1.62,4.66,.91,6.17l4.43,2.64c2.53,1.51,6.26,1.2,8.28-.68l26.73-24.85c2.03-1.88,1.62-4.66-.91-6.17Z"/><ellipse class="bt" cx="182.67" cy="117.52" rx="12.23" ry="8.45"/><path d="M84.28,200.22c1.1,1.77,1.08,3.84,.96,5.85-.12,2-.34,4,.08,5.98,.11,.51,.89,.29,.78-.21-.83-3.95,1.15-8.36-1.12-12.02-.27-.44-.97-.04-.7,.41h0Z"/><path class="bw" d="M0,214.24c14.42-.02,28.83-.06,43.26-.09,14.42-.03,28.85-.06,43.28-.06-1.9-6.79-37.51-7.32-43.26-7.31-5.75,.01-41.39,.69-43.28,7.46Z"/><path class="bw" d="M85.07,214.08c13.68,0,27.34,0,41.02,.02,13.68,.01,27.38,.03,41.06,.04-1.92-6.33-35.55-6.89-41.05-6.9-5.5,0-39.12,.48-41.04,6.84Z"/><ellipse cx="87.51" cy="132.15" rx="2.67" ry="2.02"/><ellipse cx="90.18" cy="169.49" rx="2.67" ry="2.02"/><ellipse cx="90.18" cy="190.35" rx="2.67" ry="2.02"/><ellipse cx="88.84" cy="150.32" rx="2.67" ry="2.02"/><path class="bt" d="M56.83,111.63s9.95,1.55,31.11,1.55c21.16,0,31.14-1.55,31.14-1.55,0,3.9-13.94,7.06-31.13,7.06-17.19,0-31.13-3.16-31.13-7.06Z"/><path d="M84.67,119.41c-.31,2.79-.57,5.61-.85,8.41s-.61,5.48-.8,8.32c-.18,2.72-.13,5.14,.28,7.82,.39,2.55,1.1,4.65,1.41,7.42,.32,2.93,.32,5,.39,8.44,.07,3.44,.03,6.48,.09,10.8,.11,8.53-.69,9.82-1.83,17.11-1.28,8.18-.03,9.31,1.55,15.95,.18,.76,.86,.21,.6-.8-3.99-15.6-.02-13.65,.36-28.87,.09-3.8,.01-8.54-.02-12.02-.03-3.33-.05-5.42-.2-8.4-.08-1.51-.24-2.69-.45-4.08-.2-1.27-.49-2.36-.74-3.58s-.55-2.42-.69-3.73c-.15-1.3-.21-2.56-.15-3.9,.13-3.12,.49-6.03,.79-9.13,.3-3.1,.67-6.33,.92-9.51,.06-.72-.57-.98-.65-.26-.03-.01-.02,0,0,0Z"/><path class="bt" d="M23.25,76.15c.03,26.29,37.62,39.35,67.79,39.22,30.17-.13,67.8-13.22,67.77-39.45-.02-26.23-37.6-39.31-67.79-39.28-30.18,.04-67.81,13.22-67.78,39.5Z"/><path class="cc" d="M63.57,68.29c-5.73,5.94-8.06,14.24,.79,19.12,8.86,4.88,18.58,.65,24.31-5.29,5.73-5.94,8.06-14.22-.79-19.1s-18.58-.68-24.31,5.27Z"/><path class="cc" d="M96.87,81.04c4.88,6.37,13.96,11.26,23.44,7.11,9.47-4.15,8.37-12.54,3.49-18.91-4.88-6.37-13.96-11.28-23.43-7.13-9.47,4.15-8.38,12.56-3.49,18.93Z"/><path d="M105.64,76.34c0,1.47-1.6,2.48-3.49,2.49-1.89,0-3.49-1-3.5-2.47,0-1.47,1.6-2.48,3.49-2.49,1.89,0,3.49,1,3.5,2.47Z"/><path d="M89.2,76.38c0,1.47-1.6,2.48-3.49,2.49s-3.49-1-3.5-2.47c0-1.47,1.6-2.48,3.49-2.49s3.49,1,3.5,2.47Z"/><path d="M90.71,61.53c-3.82-1.58-7.63-3.16-11.45-4.74-5.19,.89-10.37,1.78-15.56,2.67-.1-.33-.2-.66-.29-.98,5.35-.92,10.7-1.84,16.05-2.75,3.96,1.64,7.93,3.28,11.89,4.92-.21,.3-.43,.59-.64,.89Z"/><path d="M95.87,60.85c-.21-.29-.43-.59-.64-.88,3.96-1.65,7.93-3.3,11.89-4.96,5.35,.9,10.7,1.8,16.05,2.7-.1,.33-.2,.66-.29,.98-5.19-.87-10.37-1.75-15.56-2.62-3.82,1.59-7.63,3.18-11.45,4.77Z"/><path class="bv" d="M79.45,105.14c0-1.74,.01-3.47,.02-5.21,0-1.74,.01-3.47,.02-5.21,4.89,.87,9.77,1.73,14.66,2.6,4.89,.87,9.78,1.73,14.67,2.6-4.9,.87-9.79,1.74-14.69,2.61-4.89,.87-9.79,1.75-14.69,2.62Z"/><path class="bw" d="M156.1,87.48c-10.27,15.02-44.35,19.43-64.53,19.48-20.18,.05-53.13-3.06-64.59-17.11,6.91,19.77,40.56,26.59,64.58,26.47,24.02-.12,59.12-8.41,64.54-28.84Z"/><path class="bw" d="M94.57,114.99c-1.34,.05-2.3-.05-3.56-.07-.14,0-.33-.01-.48-.02-11.71-.56-26.11-1.23-26.71-12.46-.18-3.32,2.17-6.07,5.31-8.24,5.84-4.05,17.88-4.84,23.98-4.29,10.02,.91,17.88,2.47,23.42,7.26,3.01,2.59,2.61,4.17,2,6.9,.35,0,0,0,0,0-1.06,4.72-5.6,7.51-11.26,9.33-3.85,1.24-8.58,1.44-12.7,1.59Zm-6.09-22.31c-5.64,.22-12.3,.96-16.71,3.81-2.7,1.74-4.05,3.38-3.92,6.08,.42,8.55,14.12,8.92,22.95,9.32,.09,0,.31,.02,.5,.03,10,.2,19.71-.21,23.33-8.45,.3,.06,0,0,0,0,.74-1.67,.62-2.77-1.29-4.55-4.27-3.98-13.21-5.27-20.33-6.01-.93-.1-3.03-.28-4.52-.22Z"/><path class="bx" d="M48.38,15.09C48.38,4.76,77.51,.02,87.95,0c10.44-.02,41.73,4.75,41.73,15.01,0,10.26-31.3,15.09-41.74,15.1s-39.56-4.68-39.56-15.01Z"/><path class="bs" d="M89.72,2.62c4.88,6.39,9.76,12.78,14.63,19.17,4.88,6.39,9.75,12.78,14.63,19.17-10.13,.17-20.25,.33-30.37,.5-10.13,.16-20.25,.33-30.38,.49,5.25-6.55,10.5-13.11,15.75-19.66,5.25-6.55,10.5-13.11,15.74-19.67Z"/><path class="bs" d="M84.57,46.37c16.47-.63,32.95-.84,49.44-.32,.77-14.72,1.72-29.43,2.41-44.16"/><path class="bs" d="M96.81,47.32c-17.48,.03-34.95,.04-52.43,.05,0-14.91,.03-29.81,.03-44.72"/><ellipse class="bs" cx="89.07" cy="46.2" rx="44.69" ry="7.91"/></g></g></g><g id="ay"><g id="b`"/><g id="ba"/><g id="bb"/></g><g id="bc"><g id="bd"/><g id="be"/></g><g id="bf"/><g id="bg"><g id="bh"/><g id="bi"/><g id="bj"/><g id="bk"><g id="bl"/><g id="bm"/><g id="bn"/><g id="bo"/></g><g id="bp"/><g id="bq"/><g id="br"/></g></svg>