<?xml version="1.0" encoding="UTF-8"?><svg xmlns="http://www.w3.org/2000/svg" width="150" height="75" viewBox="0 0 150 75"><defs><style>.bs{fill:#f7931e;}.bt{fill:#fbb03b;}.bu{opacity:.58;}</style></defs><g id="a"/><g id="b"/><g id="c"><g id="d"/><g id="e"/><g id="f"/><g id="g"/></g><g id="h"><g id="i"/><g id="j"><g id="k"/><g id="l"/><g id="m"/><g id="n"/></g><g id="o"/><g id="p"/></g><g id="q"><g id="r"/><g id="s"/><g id="t"/><g id="u"/><g id="v"/><g id="w"/><g id="x"/></g><g id="y"><g id="a`"><g id="aa"><g id="ab"/><g id="ac"/></g></g><g id="ad"/></g><g id="ae"><g id="af"/><g id="ag"/><g id="ah"/><g id="ai"/><g id="aj"/></g><g id="ak"><g id="al"/><g id="am"/></g><g id="an"><g id="ao"/></g><g id="ap"><g id="aq"/><g id="ar"><g id="as"/></g></g><g id="at"><g id="au"/><g id="av"/><g id="aw"/><g id="ax"/></g><g id="ay"><g id="b`"/><g id="ba"/><g id="bb"/></g><g id="bc"><g id="bd"/><g id="be"/></g><g id="bf"/><g id="bg"><g id="bh"/><g id="bi"/><g id="bj"/><g id="bk"><g id="bl"/><g id="bm"/><g id="bn"/><g id="bo"/></g><g id="bp"/><g id="bq"><g><rect class="bt" x="3.45" y="6.38" width="143.09" height="61.54" rx="12" ry="12"/><path class="bs" d="M140.52,69.38H9.48c-3.88,0-7.03-4.58-7.03-10.2V15.12c0-5.62,3.15-10.2,7.03-10.2H140.52c3.88,0,7.03,4.58,7.03,10.2V59.18c0,5.62-3.15,10.2-7.03,10.2ZM9.48,7.84c-2.77,0-5.02,3.27-5.02,7.29V59.18c0,4.02,2.25,7.29,5.02,7.29H140.52c2.77,0,5.02-3.27,5.02-7.29V15.12c0-4.02-2.25-7.29-5.02-7.29H9.48Z"/></g><g class="bu"><rect class="bt" x="1" y="6.38" width="147.99" height="67.16" rx="12" ry="12"/><path class="bs" d="M142.97,75H7.03c-3.88,0-7.03-4.58-7.03-10.2V15.12C0,9.5,3.15,4.92,7.03,4.92H142.97c3.88,0,7.03,4.58,7.03,10.2v49.68c0,5.62-3.15,10.2-7.03,10.2ZM7.03,7.84c-2.77,0-5.02,3.27-5.02,7.29v49.68c0,4.02,2.25,7.29,5.02,7.29H142.97c2.77,0,5.02-3.27,5.02-7.29V15.12c0-4.02-2.25-7.29-5.02-7.29H7.03Z"/></g><g class="bu"><rect class="bt" x="1" y="1.46" width="147.99" height="67.16" rx="12" ry="12"/><path class="bs" d="M142.97,70.08H7.03c-3.88,0-7.03-4.58-7.03-10.2V10.2C0,4.58,3.15,0,7.03,0H142.97c3.88,0,7.03,4.58,7.03,10.2V59.88c0,5.62-3.15,10.2-7.03,10.2ZM7.03,2.91c-2.77,0-5.02,3.27-5.02,7.29V59.88c0,4.02,2.25,7.29,5.02,7.29H142.97c2.77,0,5.02-3.27,5.02-7.29V10.2c0-4.02-2.25-7.29-5.02-7.29H7.03Z"/></g></g><g id="br"/></g></svg>