<?xml version="1.0" encoding="UTF-8"?><svg xmlns="http://www.w3.org/2000/svg" width="150" height="75" viewBox="0 0 150 75"><defs><style>.bs{fill:#f7931e;}.bt{fill:#fbb03b;}.bu{fill:#c1272d;}.bv{opacity:.58;}</style></defs><g id="a"/><g id="b"/><g id="c"><g id="d"/><g id="e"/><g id="f"/><g id="g"/></g><g id="h"><g id="i"/><g id="j"><g id="k"/><g id="l"/><g id="m"/><g id="n"/></g><g id="o"/><g id="p"><g id="q"><g id="r"><g id="s"/><g id="t"/></g></g><g id="u"/></g></g><g id="v"/><g id="w"><g id="x"/><g id="y"/><g id="a`"/><g id="aa"/><g id="ab"/><g id="ac"/><g id="ad"/></g><g id="ae"><g id="af"/><g id="ag"/><g id="ah"/><g id="ai"/><g id="aj"/></g><g id="ak"><g id="al"/><g id="am"/></g><g id="an"><g id="ao"/></g><g id="ap"><g id="aq"/><g id="ar"><g id="as"/></g></g><g id="at"><g id="au"/><g id="av"/><g id="aw"/><g id="ax"/></g><g id="ay"><g id="b`"/><g id="ba"/><g id="bb"/></g><g id="bc"><g id="bd"/><g id="be"/></g><g id="bf"/><g id="bg"><g id="bh"/><g id="bi"/><g id="bj"/><g id="bk"><g id="bl"/><g id="bm"/><g id="bn"/><g id="bo"/></g><g id="bp"/><g id="bq"><g><rect class="bt" x="3.45" y="6.38" width="143.09" height="61.54" rx="12" ry="12"/><path class="bs" d="M140.52,69.38H9.48c-3.88,0-7.03-4.58-7.03-10.2V15.12c0-5.62,3.15-10.2,7.03-10.2H140.52c3.88,0,7.03,4.58,7.03,10.2V59.18c0,5.62-3.15,10.2-7.03,10.2ZM9.48,7.84c-2.77,0-5.02,3.27-5.02,7.29V59.18c0,4.02,2.25,7.29,5.02,7.29H140.52c2.77,0,5.02-3.27,5.02-7.29V15.12c0-4.02-2.25-7.29-5.02-7.29H9.48Z"/></g><g class="bv"><rect class="bt" x="1" y="6.38" width="147.99" height="67.16" rx="12" ry="12"/><path class="bs" d="M142.97,75H7.03c-3.88,0-7.03-4.58-7.03-10.2V15.12C0,9.5,3.15,4.92,7.03,4.92H142.97c3.88,0,7.03,4.58,7.03,10.2v49.68c0,5.62-3.15,10.2-7.03,10.2ZM7.03,7.84c-2.77,0-5.02,3.27-5.02,7.29v49.68c0,4.02,2.25,7.29,5.02,7.29H142.97c2.77,0,5.02-3.27,5.02-7.29V15.12c0-4.02-2.25-7.29-5.02-7.29H7.03Z"/></g><g class="bv"><rect class="bt" x="1" y="1.46" width="147.99" height="67.16" rx="12" ry="12"/><path class="bs" d="M142.97,70.08H7.03c-3.88,0-7.03-4.58-7.03-10.2V10.2C0,4.58,3.15,0,7.03,0H142.97c3.88,0,7.03,4.58,7.03,10.2V59.88c0,5.62-3.15,10.2-7.03,10.2ZM7.03,2.91c-2.77,0-5.02,3.27-5.02,7.29V59.88c0,4.02,2.25,7.29,5.02,7.29H142.97c2.77,0,5.02-3.27,5.02-7.29V10.2c0-4.02-2.25-7.29-5.02-7.29H7.03Z"/></g><g><path class="bu" d="M53.07,21.42h2.59c.3,0,.57,.09,.8,.27,.23,.18,.38,.43,.45,.75,.07-.32,.22-.56,.45-.75,.23-.18,.5-.27,.8-.27h1.11v.36c-.27,0-.5,.14-.7,.42-.2,.28-.3,.78-.3,1.51v2.33c0,1.02-.22,1.79-.65,2.29-.44,.51-.95,.77-1.53,.77-.54,0-1-.17-1.39-.51-.39-.34-.59-.76-.59-1.27,.05,.07,.14,.11,.28,.11,.32,0,.62-.16,.9-.49,.29-.33,.43-.83,.43-1.51,0-1.17-.54-1.75-1.61-1.75h-.53c-1,0-1.51,1.07-1.51,3.21v1.86c0,.73,.1,1.31,.31,1.75,.21,.44,.44,.68,.69,.73l2.59,.36c.9,.15,1.57,.56,1.98,1.26,.42,.69,.63,1.82,.63,3.37v5.39c0,1.85-.34,3.19-1.03,4.04-.69,.85-1.58,1.27-2.69,1.27h-2.59c-.3,0-.57-.09-.82-.27-.24-.18-.39-.43-.44-.75-.07,.32-.22,.56-.46,.75-.24,.18-.51,.27-.79,.27h-1.1v-.36c.25,0,.48-.14,.69-.42,.21-.28,.31-.78,.31-1.51v-1.6c-.05,.07-.13,.11-.25,.11s-.24-.05-.36-.16c-.12-.11-.2-.26-.21-.46,.05,.05,.1,.07,.15,.07,.2,0,.36-.19,.49-.58,.12-.39,.19-.86,.19-1.42v-5.76l3.59,5.76c-.28,0-.53,.13-.73,.4-.2,.27-.3,.74-.3,1.42,0,1.51,.54,2.26,1.61,2.26h.53c.69,0,1.14-.51,1.36-1.53h-.1c-.12,0-.23-.05-.35-.16s-.19-.26-.23-.46c.05,.05,.1,.07,.15,.07,.2,0,.36-.19,.49-.58,.13-.39,.19-.86,.19-1.42v-4.12c0-.73-.1-1.31-.31-1.75-.21-.44-.44-.68-.69-.73l-2.59-.36c-.89-.12-1.54-.58-1.97-1.37-.43-.79-.64-1.99-.64-3.59v-1.93c0-1.85,.34-3.19,1.03-4.04,.69-.85,1.58-1.28,2.69-1.28Z"/><path class="bu" d="M59.95,21.42h1.1c.29,0,.55,.09,.79,.27,.24,.18,.4,.43,.46,.75,.05-.32,.2-.56,.44-.75,.24-.18,.51-.27,.82-.27h1.91c.3,0,.57,.09,.82,.27,.24,.18,.39,.43,.44,.75,.07-.32,.22-.56,.46-.75,.24-.18,.51-.27,.79-.27h1.93c.28,0,.55,.09,.79,.27,.24,.18,.4,.43,.46,.75,.05-.32,.2-.56,.44-.75,.24-.18,.51-.27,.82-.27h1.1v.36c-.27,0-.5,.14-.7,.42-.2,.28-.3,.78-.3,1.51v9.8l-3.59-5.76c.25,0,.49-.18,.7-.55,.22-.36,.33-.9,.33-1.6,0-.8-.06-1.32-.18-1.57-.12-.24-.35-.36-.7-.36-.25,0-.48,.14-.68,.42-.2,.28-.3,.77-.3,1.48v19.05c0,.73,.1,1.23,.3,1.51,.2,.28,.43,.42,.68,.42v.36h-1.1c-.29,0-.55-.09-.79-.27-.24-.18-.4-.43-.46-.75-.05,.32-.2,.56-.44,.75-.24,.18-.51,.27-.82,.27h-1.11v-.36c.27,0,.5-.14,.7-.42,.2-.28,.3-.78,.3-1.51v-1.6c-.05,.07-.13,.11-.23,.11-.13,0-.26-.05-.38-.16-.12-.11-.19-.26-.23-.46,.07,.05,.13,.07,.18,.07,.18,0,.34-.19,.46-.58,.12-.39,.19-.86,.19-1.42v-15.01c0-.7-.1-1.2-.3-1.48-.2-.28-.44-.42-.7-.42-.35,0-.58,.12-.69,.36-.11,.24-.16,.77-.16,1.57,0,.71,.11,1.24,.33,1.6s.45,.55,.7,.55l-3.59,5.76v-9.8c0-.73-.1-1.23-.31-1.51-.21-.28-.44-.42-.69-.42v-.36Z"/><path class="bu" d="M75.19,21.42h.95c.3,0,.56,.09,.77,.27,.21,.18,.31,.43,.31,.75,.02-.32,.13-.56,.34-.75,.21-.18,.46-.27,.77-.27h.95v.36c-.39,0-.58,.32-.58,.95,0,.27,.03,.6,.1,.98l3.54,20.91c.22,1.29,.59,1.93,1.13,1.93v.36h-.83c-.3,0-.59-.09-.87-.27-.28-.18-.46-.43-.56-.75-.02,.32-.13,.56-.34,.75-.21,.18-.46,.27-.77,.27h-1.15v-.36c.5,0,.75-.39,.75-1.17,0-.22-.03-.47-.08-.76l-.28-1.6c-.03,.12-.14,.18-.33,.18-.35,0-.57-.23-.65-.69,.08,.07,.17,.11,.25,.11,.29,0,.43-.33,.43-.98,0-.24-.02-.52-.08-.84-.03-.22-.07-.44-.1-.66-.2,.24-.4,.36-.6,.36-.3,0-.69-.34-1.18-1.02l-.63-.91c-.18-.27-.35-.47-.5-.62l-1.13,6.67c-.05,.29-.08,.55-.08,.76,0,.78,.25,1.17,.75,1.17v.36h-1.16c-.3,0-.56-.09-.77-.27-.21-.18-.32-.43-.34-.75-.1,.32-.29,.56-.56,.75-.28,.18-.57,.27-.87,.27h-.83v-.36c.54,0,.91-.64,1.13-1.93l.25-1.6c-.07,.12-.16,.18-.28,.18-.13,0-.25-.07-.35-.2-.1-.13-.15-.3-.15-.49,.07,.05,.13,.07,.18,.07,.2,0,.4-.19,.59-.56,.19-.38,.34-.86,.44-1.44l2.86-16.87c.07-.39,.1-.72,.1-.98,0-.63-.19-.95-.58-.95v-.36Zm2.03,9.07l-.78,4.7s.07-.04,.1-.04c.3,0,.69,.35,1.18,1.06l.63,.91-1.13-6.63Z"/><path class="bu" d="M84.15,21.42h1.1c.29,0,.55,.09,.79,.27,.24,.18,.4,.43,.46,.75,.05-.32,.2-.56,.44-.75,.24-.18,.51-.27,.82-.27h3.19c.85,0,1.51,.34,1.96,1.02,.45,.68,.68,1.79,.68,3.32v5.57c0,1.43-.2,2.51-.6,3.24,.4,.71,.6,1.77,.6,3.21v6.85c0,.73,.1,1.23,.3,1.51,.2,.28,.43,.42,.68,.42v.36h-1.08c-.3,0-.57-.09-.82-.27-.24-.18-.39-.43-.44-.75-.07,.32-.22,.56-.46,.75-.24,.18-.51,.27-.82,.27h-1.08v-.36c.25,0,.48-.14,.68-.42,.2-.28,.3-.78,.3-1.51v-1.6c-.05,.07-.13,.11-.23,.11-.13,0-.26-.05-.38-.16s-.18-.26-.2-.46c.05,.05,.1,.07,.15,.07,.18,0,.34-.19,.46-.58,.13-.39,.19-.86,.19-1.42v-2.99c0-.7-.1-1.2-.3-1.47-.2-.28-.43-.42-.68-.42h-2.01v8.92c0,.73,.1,1.23,.3,1.51,.2,.28,.43,.42,.7,.42v.36h-1.11c-.3,0-.57-.09-.82-.27-.24-.18-.39-.43-.44-.75-.07,.32-.22,.56-.46,.75-.24,.18-.51,.27-.79,.27h-1.1v-.36c.25,0,.48-.14,.69-.42,.21-.28,.31-.78,.31-1.51v-1.6c-.05,.07-.13,.11-.25,.11s-.24-.05-.36-.16c-.12-.11-.2-.26-.21-.46,.05,.05,.1,.07,.15,.07,.2,0,.36-.19,.49-.58,.12-.39,.19-.86,.19-1.42V23.72c0-.73-.1-1.23-.31-1.51-.21-.28-.44-.42-.69-.42v-.36Zm4.72,2.26c-.27,0-.5,.14-.7,.42-.2,.28-.3,.77-.3,1.48v7.87h2.01c.25,0,.48-.14,.68-.42,.2-.28,.3-.78,.3-1.51v-5.94c0-.7-.1-1.2-.3-1.48-.2-.28-.43-.42-.68-.42h-1Z"/><path class="bu" d="M95.28,21.42h1.1c.29,0,.55,.09,.79,.27,.24,.18,.4,.43,.46,.75,.05-.32,.2-.56,.44-.75,.24-.18,.51-.27,.82-.27h1.91c.3,0,.57,.09,.82,.27,.24,.18,.39,.43,.44,.75,.07-.32,.22-.56,.46-.75,.24-.18,.51-.27,.79-.27h1.93c.28,0,.55,.09,.79,.27,.24,.18,.4,.43,.46,.75,.05-.32,.2-.56,.44-.75,.24-.18,.51-.27,.82-.27h1.1v.36c-.27,0-.5,.14-.7,.42-.2,.28-.3,.78-.3,1.51v9.8l-3.59-5.76c.25,0,.49-.18,.7-.55,.22-.36,.33-.9,.33-1.6,0-.8-.06-1.32-.18-1.57-.12-.24-.35-.36-.7-.36-.25,0-.48,.14-.68,.42-.2,.28-.3,.77-.3,1.48v19.05c0,.73,.1,1.23,.3,1.51,.2,.28,.43,.42,.68,.42v.36h-1.1c-.29,0-.55-.09-.79-.27-.24-.18-.4-.43-.46-.75-.05,.32-.2,.56-.44,.75-.24,.18-.51,.27-.82,.27h-1.11v-.36c.27,0,.5-.14,.7-.42,.2-.28,.3-.78,.3-1.51v-1.6c-.05,.07-.13,.11-.23,.11-.13,0-.26-.05-.38-.16-.12-.11-.19-.26-.23-.46,.07,.05,.13,.07,.18,.07,.18,0,.34-.19,.46-.58,.12-.39,.19-.86,.19-1.42v-15.01c0-.7-.1-1.2-.3-1.48-.2-.28-.44-.42-.7-.42-.35,0-.58,.12-.69,.36-.11,.24-.16,.77-.16,1.57,0,.71,.11,1.24,.33,1.6s.45,.55,.7,.55l-3.59,5.76v-9.8c0-.73-.1-1.23-.31-1.51-.21-.28-.44-.42-.69-.42v-.36Z"/></g></g><g id="br"/></g></svg>