<?xml version="1.0" encoding="UTF-8"?><svg xmlns="http://www.w3.org/2000/svg" width="55" height="65" viewBox="0 0 55 65"><defs><style>.bs{fill:#0071bc;}.bt{fill:#fff;}.bu{fill:#fbb03b;}.bv{fill:#fddbb4;}.bw{fill:#29abe2;}</style></defs><g id="a"/><g id="b"/><g id="c"><g id="d"/><g id="e"/><g id="f"/><g id="g"/></g><g id="h"><g id="i"/><g id="j"><g id="k"/><g id="l"/><g id="m"/><g id="n"/></g><g id="o"/><g id="p"><g id="q"><g id="r"><g id="s"/><g id="t"/></g></g><g id="u"/></g></g><g id="v"/><g id="w"><g id="x"/><g id="y"/><g id="a`"/><g id="aa"/><g id="ab"/><g id="ac"/><g id="ad"/></g><g id="ae"><g id="af"/><g id="ag"/><g id="ah"/><g id="ai"/><g id="aj"/></g><g id="ak"><g id="al"/><g id="am"/></g><g id="an"><g id="ao"/></g><g id="ap"><g id="aq"/><g id="ar"><g id="as"/></g></g><g id="at"><g id="au"/><g id="av"/><g id="aw"/><g id="ax"/></g><g id="ay"><g id="b`"/><g id="ba"/><g id="bb"/></g><g id="bc"><g id="bd"/><g id="be"/></g><g id="bf"/><g id="bg"><g id="bh"/><g id="bi"><g><path class="bs" d="M3.44,12.11C1.76,7.8,8.3,3.64,10.91,2.84c2.62-.79,11.24-1.15,12.91,3.13,1.67,4.28-5.4,8.64-8.02,9.43s-10.69,1.02-12.36-3.29Z"/><path class="bu" d="M11.78,3.8c2.26,2.3,4.52,4.6,6.79,6.9,2.26,2.3,4.52,4.6,6.78,6.9-2.51,.83-5.03,1.66-7.54,2.49s-5.03,1.66-7.54,2.48c.25-3.13,.5-6.26,.76-9.38,.25-3.13,.5-6.26,.75-9.38Z"/><path class="bu" d="M17.6,22.44c4.03-1.5,8.13-2.82,12.35-3.84-2.2-6.2-4.35-12.41-6.57-18.6"/><path class="bu" d="M20.82,21.92c-4.38,1.32-8.76,2.64-13.14,3.95C5.26,19.66,2.84,13.44,.42,7.22"/><ellipse class="bu" cx="18.7" cy="22.03" rx="11.71" ry="3.53" transform="translate(-5.4 6.08) rotate(-16.18)"/><ellipse class="bv" cx="27.5" cy="40.91" rx="27.5" ry="24.09"/><ellipse class="bt" cx="15.39" cy="42.93" rx="12.9" ry="10.72" transform="translate(-24.27 20.41) rotate(-40.68)"/><ellipse class="bt" cx="39.16" cy="42.79" rx="10.72" ry="12.9" transform="translate(-18.81 44.59) rotate(-49.32)"/><path d="M17.22,57.57c2.64,2.38,6.34,3.35,10.07,3.27,3.69-.08,7.88-.89,10.49-3.32,.18-.17-.11-.43-.29-.26-2.53,2.36-6.62,3.14-10.2,3.22s-7.2-.85-9.77-3.17c-.19-.17-.48,.09-.29,.26h0Z"/><path d="M39.47,19.68c.59-.83,1.12-1.73,1.45-2.66,.17-.47,.29-1.34-.43-1.54-.65-.18-1.12,.97-1.05,1.39,.11,.76,1.19,.84,1.88,.77,2.01-.21,3.3-1.88,3.69-3.5,.15-.65-.5-.99-1.15-.72-.25,.1-.68,.33-.74,.59-.08,.32,.37,.58,.6,.74,.81,.58,1.87,.71,2.85,.4s1.74-1.03,2.25-1.83c.1-.15-.17-.29-.27-.14-.82,1.27-2.59,2.44-4.27,1.58-.29-.15-1.01-.53-.71-.85,.09-.1,.4-.26,.54-.3,.48-.13,.63,.19,.57,.58-.12,.72-.6,1.5-1.13,2.05s-1.29,.98-2.12,1.1c-.38,.06-.83,.06-1.19-.06-.72-.23-.47-.86-.16-1.29,.17-.24,.35-.36,.58-.07,.11,.14,.11,.35,.1,.52-.03,.3-.15,.59-.28,.87-.34,.78-.77,1.51-1.27,2.22-.11,.15,.16,.29,.27,.14h0Z"/><path d="M34.46,19.74c1.1-1.11,1.9-2.43,2.31-3.86,.16-.57,.47-1.46,.13-2.01-.23-.39-.82-.55-1.17-.18-.39,.41-.56,1.17-.18,1.61,.41,.47,1.22,.55,1.83,.47,1.5-.19,2.57-1.3,2.95-2.53,.35-1.12,.58-3.66-1.28-3.86-.2-.02-.27,.24-.08,.26,1.69,.18,1.35,2.68,1.01,3.66-.43,1.25-1.81,2.46-3.42,2.19-.57-.1-1.01-.42-.9-.98,.03-.16,.09-.34,.18-.47,.24-.35,.59-.31,.81,.03,.18,.29,0,.84-.05,1.14s-.15,.63-.25,.94c-.41,1.26-1.15,2.42-2.13,3.41-.13,.13,.09,.32,.22,.19h0Z"/><ellipse cx="22.12" cy="43.08" rx="1.24" ry="1.09"/><ellipse cx="32.26" cy="43.26" rx="1.24" ry="1.09"/><ellipse class="bw" cx="33.08" cy="60.29" rx="4.14" ry="3.62"/><ellipse class="bs" cx="33.08" cy="60.29" rx="1.65" ry="1.45"/><path class="bs" d="M34.08,63.45c-.3,0-.6-.09-.88-.27-.37-.24-.65-.61-.79-1.03-.29-.9,.13-1.8,.95-2,.82-.2,1.72,.36,2.01,1.27,.14,.43,.12,.87-.05,1.24-.18,.39-.5,.66-.9,.76-.11,.03-.23,.04-.35,.04Zm-.37-2.99c-.08,0-.16,0-.23,.03-.6,.15-.9,.85-.67,1.56,.11,.35,.34,.65,.63,.84,.28,.18,.59,.24,.87,.17,.28-.07,.5-.26,.63-.55,.14-.3,.15-.66,.03-1.01h0c-.2-.62-.74-1.04-1.27-1.04Z"/></g></g><g id="bj"/><g id="bk"><g id="bl"/><g id="bm"/><g id="bn"/><g id="bo"/></g><g id="bp"/><g id="bq"/><g id="br"/></g></svg>