<?xml version="1.0" encoding="UTF-8"?><svg xmlns="http://www.w3.org/2000/svg" width="300" height="350" viewBox="0 0 300 350"><defs><style>.bs{fill:#f4a593;}.bt,.bu{fill:#f2f2f2;}.bv{fill:#e7e2d3;}.bw{fill:#fff;}.bx{fill:#fbb03b;}.by{fill:#ff1d25;}.c`{fill:#999;}.ca{fill:#666;}.cb{fill:#d39b2f;}.cc{fill:gray;}.cd{fill:#fddbb4;}.cd,.bu{stroke-width:.25px;}.cd,.bu,.ce{stroke-miterlimit:10;}.cd,.ce{stroke:#000;}.bu{stroke:#999;}.ce{stroke-width:.5px;}.cf{opacity:.6;}</style></defs><g id="a"/><g id="b"/><g id="c"><g id="d"/><g id="e"/><g id="f"/><g id="g"/></g><g id="h"><g id="i"/><g id="j"><g id="k"/><g id="l"/><g id="m"/><g id="n"/></g><g id="o"/><g id="p"><g id="q"><g id="r"><g id="s"/><g id="t"/></g></g><g id="u"/></g></g><g id="v"/><g id="w"><g id="x"/><g id="y"/><g id="a`"/><g id="aa"/><g id="ab"/><g id="ac"/><g id="ad"/></g><g id="ae"><g id="af"/><g id="ag"/><g id="ah"/><g id="ai"/><g id="aj"/></g><g id="ak"><g id="al"/><g id="am"/></g><g id="an"><g id="ao"/></g><g id="ap"><g id="aq"/><g id="ar"><g id="as"/></g></g><g id="at"><g id="au"/><g id="av"/><g id="aw"/><g id="ax"/></g><g id="ay"><g id="b`"/><g id="ba"/><g id="bb"/></g><g id="bc"><path class="by" d="M196.71,338.66c-19.43,1.69-20.12-6.87-36.71,.58-12.51,5.62-13.61-2.53-23.52-8.33-1.5-.88-2.78-1.62-3.44-2.81-4.37-7.85-4.75-6.54,3.44-13.71,10.86-9.5,30.26-5.38,44.11-1.31,10.45,3.07,22.23,5.34,32.75,6.87,1.59,.23,5.19,2.44,4.33,3.96-5.71,10.02-6.29,13.46-20.95,14.74Z"/><g id="bd"><ellipse class="ce" cx="67.87" cy="342.76" rx="36.4" ry="5.09"/><ellipse cx="68.92" cy="333.28" rx="25.2" ry="16.72"/><path class="bt" d="M115.84,331c-26.65,11.01-86.59-2.66-92.28,2.67-.94,.88-4.91-6.97-3.25-13.04,17.93-65.46,7.45-146.54,18.2-216.96,1-6.53,2.46-8.23,6.16-6.91,22.41,8.02,31.83,8.09,54.54,4.5,3.75-.59,5.41,1.32,6.2,7.85,8.55,70.46,4.25,142.99,14.97,211.96,.99,6.39-.15,8.12-4.55,9.94Z"/><g><path class="bu" d="M78.09,172.22l1.04-3.46c1.6-5.31,6.45-8.06,10.78-6.1l40.62,18.3c4.34,1.95,6.58,7.9,4.98,13.21l-1.04,3.46c-1.6,5.31-6.45,8.06-10.78,6.1l-40.62-18.3c-4.34-1.95-6.58-7.9-4.98-13.21Z"/><path class="bu" d="M126.58,204.57c-.99,0-1.99-.21-2.95-.65l-40.62-18.3c-4.44-2-6.72-8.05-5.09-13.48l1.04-3.46c.79-2.62,2.37-4.72,4.46-5.9,2.09-1.18,4.41-1.3,6.55-.33l40.62,18.3c2.14,.96,3.85,2.9,4.81,5.46,.96,2.55,1.06,5.4,.27,8.02l-1.04,3.46c-.79,2.62-2.37,4.72-4.46,5.9-1.15,.65-2.38,.98-3.61,.98Zm-39.55-42.33c-1.18,0-2.35,.31-3.46,.94-2,1.13-3.52,3.14-4.27,5.65l-1.04,3.46c-1.57,5.21,.62,11.01,4.88,12.93l40.62,18.3c2.05,.92,4.29,.81,6.29-.32,2-1.13,3.52-3.14,4.27-5.65l1.04-3.46c.76-2.51,.66-5.25-.26-7.7-.92-2.45-2.56-4.31-4.62-5.23l-40.62-18.3c-.92-.41-1.87-.62-2.83-.62Z"/></g><g><path class="bu" d="M58.57,173.79l-1.04-3.46c-1.6-5.31-6.45-8.06-10.78-6.1L6.13,182.53c-4.34,1.95-6.58,7.9-4.98,13.21l1.04,3.46c1.6,5.31,6.45,8.06,10.78,6.1l40.62-18.3c4.34-1.95,6.58-7.9,4.98-13.21Z"/><path class="bu" d="M10.07,206.15c-3.49,0-6.78-2.63-8.06-6.88l-1.04-3.46c-1.63-5.43,.65-11.48,5.09-13.48l40.62-18.3c4.44-2,9.38,.79,11.01,6.23l1.04,3.46c.79,2.62,.69,5.47-.27,8.03-.96,2.55-2.67,4.49-4.81,5.45l-40.62,18.3c-.97,.44-1.97,.65-2.95,.65Zm39.56-42.33c-.94,0-1.9,.2-2.83,.62L6.19,182.74c-4.26,1.92-6.45,7.72-4.88,12.93l1.04,3.46c1.57,5.21,6.3,7.89,10.56,5.98l40.62-18.3c2.05-.92,3.69-2.78,4.62-5.23,.92-2.45,1.02-5.18,.26-7.7l-1.04-3.46c-1.22-4.07-4.38-6.59-7.73-6.59Z"/></g><path class="bt" d="M4.96,201.1l3.77,2.07c4.22,2.31,9.21-.02,11.1-5.18l31.19-85.2c1.89-5.16-.01-11.28-4.23-13.59l-3.77-2.07c-4.22-2.31-9.21,.02-11.1,5.18L.73,187.5c-1.89,5.16,.01,11.28,4.23,13.59Z"/><path class="bt" d="M131.68,200.99h0c-4.22,2.31-9.21-.02-11.1-5.18l-29.76-81.31c-1.89-5.16,.01-11.28,4.23-13.59h0c4.22-2.31,9.21,.02,11.1,5.18l29.76,81.31c1.89,5.16-.01,11.28-4.23,13.59Z"/><path class="bv" d="M123.83,173.18c-38.88,12.14-70.12,16.76-109.67,3.15-9.67-3.33-13.06-4.02-8.29-12.74,12.82-23.44,8.21-44.97,22.16-61.21,5.19-6.04,14.48-11.66,18.14-7.65,14.95,16.39,39.52,18.5,54.71,2.78,3.71-3.84,7.48-1.38,11.51,5.72,10.83,19.1,4.51,36.18,16.95,58.06,4.63,8.14,3.99,8.92-5.52,11.89Z"/><polygon class="c`" points="120.3 185.19 108.4 178.33 108.55 177.94 120.45 184.8 120.3 185.19"/><polygon class="c`" points="17.54 185.2 17.41 184.7 26.79 180.51 26.92 181.01 17.54 185.2"/><g class="cf"><path class="ca" d="M70.38,110.48c.92,28.85,1.42,57.63,1.07,86.55-.35,29.23-1.12,58.55-1.39,87.82-.15,16.65-.22,33.37-.19,50.01,0,.42,.51,.42,.51,0-.02-29.63,.22-59.34,.71-88.94,.48-29.26,1.19-58.42,.89-87.65-.16-15.97-.59-31.85-1.09-47.79-.01-.41-.53-.42-.51,0-.02,0,0,0,0,0Z"/></g><ellipse class="cd" cx="55.62" cy="169.99" rx="16.45" ry="18.43"/><ellipse class="cd" cx="86.42" cy="169.99" rx="16.45" ry="18.43"/><g><line class="bx" x1="88.87" y1="106.99" x2="70.81" y2="131.25"/><path class="bx" d="M88.3,106.38l-15.85,21.28-2.21,2.97c-.64,.86,.49,2.08,1.14,1.22l15.85-21.28,2.21-2.97c.64-.86-.49-2.08-1.14-1.22h0Z"/></g><rect class="bx" x="68.92" y="127.99" width="2.8" height="28.29"/><rect class="bx" x="68.61" y="130.42" width="3.43" height="14" transform="translate(-67.1 207.74) rotate(-90)"/><g><line class="bx" x1="49.67" y1="103.56" x2="68.99" y2="129.66"/><path class="bx" d="M49.1,104.17l16.95,22.9,2.37,3.2c.64,.87,1.77-.36,1.14-1.22l-16.95-22.9-2.37-3.2c-.64-.87-1.77,.36-1.14,1.22h0Z"/></g><ellipse class="ca" cx="74.52" cy="290.43" rx="1.4" ry="2.14"/><ellipse class="ca" cx="74.52" cy="272.43" rx="1.4" ry="2.14"/><ellipse class="ca" cx="74.52" cy="254.42" rx="1.4" ry="2.14"/><ellipse class="ca" cx="74.52" cy="238.14" rx="1.4" ry="2.14"/><ellipse class="ca" cx="74.52" cy="222.71" rx="1.4" ry="2.14"/><ellipse class="ca" cx="74.52" cy="207.28" rx="1.4" ry="2.14"/><ellipse class="ca" cx="74.52" cy="191.85" rx="1.4" ry="2.14"/><ellipse class="ca" cx="74.52" cy="308.43" rx="1.4" ry="2.14"/><polyline points="69.62 323.43 69.62 344 57.72 344"/><ellipse class="ca" cx="74.52" cy="148.99" rx="1.4" ry="2.14"/><ellipse class="ca" cx="74.52" cy="130.99" rx="1.4" ry="2.14"/><ellipse class="ca" cx="74.52" cy="117.28" rx="1.4" ry="2.14"/><path class="by" d="M111.05,110.76c-.23,.66-.89,.33-1.23-.12-.34-.45-.77-1.25-1.03-1.84-.14,.3-.07,.62-.44,.71-.83,.2-1.49-.22-2.19-.79-.23-.19-.43-.57-.62-.81,.15,1.44,.39,3.08,.5,4.47,.05,.67-.3,1.11-.74,.77-.98-.75-1.41-2.22-1.59-3.55-.18-1.33-.29-5.58-1.95-4.51-1.66,1.07-.32,4.48-.02,6.09,.29,1.61,.28,3.35,.03,4.78-.25,1.43-.67,2.3-1.68,2.69-1.02,.38-1.6-.9-2.02-1.64-.42-.73-.62-1.37-.96-1.99-.34-.62-.32-1.49-.93-1.71-.61-.22-.89,.93-1.37,1.12-.48,.19-.7-.27-1.05-.53-.37,3.04-1.46,4.45-3.68,5.83-.33,.21-.72-.03-.94-.46-.42-.8-.54-1.88-.8-2.76-.43-1.44-.7-2.45-2-2.96-1.69-.67-3.63-.85-5.39-1.22,.68,2.11,1.48,3.96,1.13,6.3-.25,1.69-1.23,2.73-2.66,2.56-.83-.1-1.26-1.07-1.85-1.78-.59-.72-1.69-1.78-2.28-2.46-1.05-1.2-3.08-3.6-3.77-4.32-.69-.72-.19-.14-.42-.39-.23-.25-.17-.13-.21-.08-1.04,1.3-1.86,2.76-3.06,3.84-.62,.55-1.29,1.31-2.11,.91-1.71-.83-2.44-2.88-3.22-4.77-.52-1.26-.96-2.43-1.5-3.64,0-.02-.02-.1-.03-.04s0,.16,0,.25c-.01,.91,.14,2.12-.2,2.91-.53,1.25-1.69,1.86-2.65,2.03-1.59,.28-2.31-.37-3.43-1.55-1.12-1.18-2.05-2.72-3.15-3.92-.96,1.63-1.81,3.39-3.64,3.33-1.09-.04-1.06-1.53-1.39-2.57s-.78-2.33-1.22-3.37c-.41,.8-.68,1.54-1.18,2.32-.5,.78-1.06,1.85-1.96,2.01-.9,.16-1.41-.69-1.74-1.6-.5-1.36-.95-2.72-1.45-4.07-.31,.4-.59,.93-.91,1.3-.58,.69-1.22,.56-1.54-.31-.18-.49-.14-1.13-.24-1.55-.1-.42-.1-.57-.2-.93-1.65,1.13-2.82,2.75-4.08,4.43-.53,.71-1.2,.11-1.13-.83,.2-2.57,.44-5,1.29-7.52,.43-1.26,2.02-1.95,3.04-2.57,1.02-.61,2.04-1.33,3.11-1.85,.83-1.12,2.9-1.8,3.98-1.42,1.08,.38,1.53,.86,2.53,1.15,1.58-.14,2.48,1.23,3.29,2.68,.32,.56,.81,.77,1.17,1,1.89,1.22,4.21,1.83,5.89,2.28,0,0-2.66-.18,4.09-.28,6.75-.1,29.01,4.55,38.12,.98,2.79-2.81,4.51-4.48,7.96-4.89,1.63-.2,3.62,2.31,4.68,3.84,1.93,1.41-.07,4.77,.5,6.8,.56,2.03,1.2,2.39,.57,4.23Z"/></g><g id="be"><path class="cd" d="M211.35,169.08c-3.9,2.31-14.57,15.36-12.51,18.06,2.06,2.7,10.11-6.67,13.99-7.16,3.89-.48,9.61-5.21,8.58-9.73-1.03-4.52-6.16-3.47-10.06-1.17Z"/><path class="cd" d="M153.01,92.47c-2.34,4.46-14.2,15.88-16.14,13.05-1.94-2.83,6.62-11.49,7.48-16.15,.86-4.67,5.38-11.06,8.92-9.26,3.54,1.79,2.08,7.9-.26,12.37Z"/><g><path class="cd" d="M205.66,177.23c-21.46,19.47-50.32,25.15-67.98-2.63-17.65-27.79-7.87-58.63,11.93-80.59,19.8-21.96,53.22-32.95,74.24-4.25,21.02,28.7,3.26,67.99-18.2,87.47Z"/><path class="cd" d="M139.48,177.57c-.66-.91-1.3-1.85-1.93-2.84-8.34-13.13-11.07-27.48-8.11-42.66,2.6-13.33,9.53-26.54,20.06-38.22,13.02-14.44,29.88-22.49,45.09-21.52,11.49,.73,21.66,6.71,29.4,17.28,7.21,9.86,10.34,21.46,9.26,34.47-1.54,18.64-12.33,39.56-27.48,53.31l-.1-.17,.1,.17c-20.27,18.39-48.21,25.15-66.29,.17Zm84.42-87.44c-.05-.08-.11-.15-.16-.22-7.79-10.64-17.6-16.41-29.16-17.14-15.12-.96-31.88,7.04-44.83,21.41-10.48,11.62-17.38,24.76-19.96,38-2.93,15.05-.23,29.28,8.05,42.3,17.82,28.07,46.87,21.53,67.73,2.59,15.08-13.68,25.81-34.49,27.34-53.01,1.06-12.79-1.97-24.2-9.01-33.92Z"/></g><ellipse class="bw" cx="191.59" cy="141.97" rx="20.21" ry="11.95" transform="translate(22.88 310.5) rotate(-81.51)"/><ellipse class="bw" cx="173.79" cy="117.33" rx="16.75" ry="14.42" transform="translate(-26.61 55.62) rotate(-16.91)"/><path d="M208.79,142.04c.37-4.5-.95-10.39-2.82-14.47-.55-1.2-1.09-.97-.54-2.17-.22-.03-.2,0,0,0,.55-1.2,1.29-.63,1.8,.87,1.74,5.11,2.94,11.56,2.36,16.78-.17,1.53-.48,2.37-1.02,1.9-.36,.57,.24,.21,0,0-.55-.47,.12-1.58,.23-2.9Z"/><path d="M178.57,98.55c3.54,.64,8.28,3.56,11.3,6.38,.88,.83,.5,1.34,1.61,.97,0,.22-.03,.16,0,0,1.12-.37,.79-1.46-.34-2.26-3.88-2.74-9.03-6.25-13.22-6.34-1.23-.03-1.83,.51-1.63,.99-.34,.16-.09-.21,0,0,.21,.48,1.24,.08,2.28,.27Z"/><g><path class="cc" d="M183.51,74.21c-1.53-.37-3.17-.56-4.69-.18-1.51,.38-2.85,1.21-4.2,1.92-2.46,1.3-5.03,2.18-7.46,3.42-2.43,1.23-4.04,2.8-5.51,5.41,.55,.9,1.39,1.04,2.24,.9,3.41-.53,6.78-1.35,10.09-2.38,.36,.72-.33,1.74,.24,2.24,.11,.09,.27,.07,.4,.01,2.24-.99,4.12-2.99,6.29-4.16,2.18-1.17,4.22-2.37,6.38-3.52-1.16-1.31-2.43-2.42-3.68-3.58"/><path class="cc" d="M183.51,73.08c-2.01-.58-4.02-.65-6.11,.12-2.09,.77-4.22,2.15-6.33,3.06-4.13,1.79-7.64,3.37-10.27,7.83-.29,.49-.19,1.09,.11,1.52,1.51,2.16,3.92,1.32,5.8,.88,2.68-.62,5.07-.93,7.56-1.96-.29-.05-.79-.1-.97-.28s-.06-.47-.18-.28-.05,.19-.09,.42c-.04,.23-.14,.61-.09,.91,.13,.72,.37,1.27,1.08,1.39,1.53,.28,3.2-1.4,4.28-2.32,2.95-2.51,6.4-3.6,9.59-5.36,.63-.35,.64-1.4,.17-1.95-1.02-1.21-2.58-2.53-3.63-3.43-1.05-.9-2.57,.06-1.55,1.34,1.02,1.29,2.54,2.36,3.55,3.73,.12-.63,.18-1.26,.25-1.9-2.8,1.59-5.56,3.15-8.29,4.98-.61,.41-1.29,1.05-1.89,1.52-.24,.18-.59,.45-.81,.58-.22,.13-1.06,.5-1.07,.54-.11,.35,.35,.73,.41,.49,.06-.24,.05-.22,.08-.4,.03-.18,.07-.36,.08-.56,.03-.71-.07-1.19-.47-1.73-.24-.32-.67-.34-1-.23-2.09,.7-4.21,1.2-6.31,1.71-.99,.24-1.78,.4-2.81,.6-.73,.14-1.67,.49-2.27-.34,.05,.52,.11,1.02,.15,1.54,2.44-4.17,5.83-5.33,9.66-6.95,1.88-.79,3.55-1.97,5.48-2.83,1.92-.86,3.84-.71,5.9-.44,1.4,.18,1.28-1.83-.02-2.21,.06-.03,0,0,0,0Z"/></g><g><path class="cc" d="M230.99,130.42c0,1.96-.19,3.99-.76,5.9-.56,1.91-1.28,3.4-1.98,5.27-1.28,3.41-1.88,6.77-3.29,10.29-1.41,3.53-3.73,6.47-6.68,8.42-.64-1.01-.19-2.4,.23-3.57,1.71-4.71,2.58-9.12,3.67-13.94-.7-.48-1.59,.6-2.19-.06-.11-.12-.1-.33-.08-.51,.3-3.13,1.49-5.82,3.13-8.43,1.64-2.62,3.44-4.94,4.91-7.67,1.07,1.32,2.04,2.72,2.98,4.17"/><path class="cc" d="M232.08,130.4c.06,2.63-.35,4.94-1.26,7.69-.91,2.75-1.98,5.01-2.91,8.18-1.84,6.23-4.13,11.75-9.35,15.32-.57,.39-1,.17-1.27-.35-1.34-2.59,.76-6.46,1.65-8.94,1.26-3.54,1.29-6.37,2.13-9.79,.11,.34,.19,1.02,.32,1.25s.41,.05,.22,.23c-.18,.18-.16,.08-.38,.16-.22,.08-.56,.21-.84,.19-.66-.05-1.3-.38-1.51-1.19-.45-1.75,.28-4.06,.99-5.7,1.94-4.49,4.81-7.85,7.14-11.97,.47-.82,1.33-.95,1.8-.37,1.03,1.26,2.19,2.76,2.93,4.16,.74,1.39-.65,3.22-1.66,1.98-1-1.24-1.94-2.88-3.03-4.08,.61-.14,1.21-.26,1.82-.39-2.02,3.55-4.51,6.7-6.4,10.34-.42,.81-.74,1.69-1,2.55-.1,.34-.21,.76-.25,1.05-.04,.29-.11,1.33-.14,1.36-.24,.22-.88-.33-.65-.44,.23-.11,.2-.09,.38-.15,.17-.07,.33-.13,.51-.16,.66-.12,1.15,0,1.64,.47,.28,.28,.39,.83,.28,1.28-.65,2.83-1.06,5.44-1.78,8.29-.34,1.35-.86,2.78-1.38,4.24-.37,1.03-1.28,2.64-.76,3.72-.44-.1-.86-.22-1.29-.35,4.68-3.42,6.32-8.23,7.94-13.9,.8-2.77,1.63-4.71,2.57-7.24,.95-2.52,1.24-4.77,1.35-7.39,.08-1.78,2.15-1.74,2.19-.04,.08-.06,0,0,0,0Z"/></g><path class="bt" d="M188.22,69.43c-1.24-2.63,3.37-21.05,5.89-23.8,10.53-11.52,79.35-48.89,92.38-31.78,12.35,16.22-23.68,90.29-33.89,106.77-2.43,3.91-15.47,10.08-20.13,8.99"/><path class="bt" d="M215.53,90.2c-11.76-18.72-15.12-39.62-4.32-54.94C222,19.94,289.1-2.22,298.6,.18c9.5,2.4-32.25,97-39.84,105.84-7.59,8.84-31.47,2.9-43.23-15.82Z"/><path class="bt" d="M229.19,136.36c-24.09-41.72-16.38-29.5-45.78-63.29,2.74-5.01,7.19-7.6,9.82-12.75,29.71,29.43,26.6,26.64,47.45,65.33-4.42,2.62-7.39,7.52-11.49,10.71Z"/><path class="bx" d="M229.28,136.38c-13.91-22.38-27.25-45.61-46.23-62.14,1.87-3.67,4.87-5.56,5.55-10.01,21.81,13.63,36.57,39.1,49.29,63.87-3.38,2.04-5.57,5.65-8.61,8.27Z"/><path class="bx" d="M277.19,13.87c12.12-9.5,20.12-13.82,22.01-11.24,1.91,2.61-2.71,11.9-12.15,25.6"/><path class="bx" d="M287.93,26.25l-71.66,77.79c-1.52,1.64-5.05-.18-7.86-4.06h0c-2.81-3.88-3.87-8.4-2.35-10.05L277.72,12.14"/><polygon class="cb" points="226.13 83.03 224.27 80.46 249.94 52.6 251.8 55.17 226.13 83.03"/><polygon class="cb" points="246.55 71.18 236.33 57.06 238.43 54.79 248.65 68.9 246.55 71.18"/><g><polygon points="180.34 116.98 179.86 115.64 169.1 121.12 169.58 122.46 180.34 116.98"/><polygon points="174.53 112.81 175.77 112.97 174.27 126.55 173.04 126.39 174.53 112.81"/></g><g><path class="cd" d="M158.13,113.42c1.28-9.32,4.97-12.99,12.96-13.37,7.99-.38,15.18,3.64,18.86,12.74-10.62-1.99-21.23-1.89-31.82,.63Z"/><path class="cd" d="M158.03,113.59s0-.12,0-.17c1.04-9.29,5.19-13.12,12.89-13.47,8.37-.38,15.22,3.61,19.16,12.86,.02,.04,.04,.14,.02,.16s-.09-.02-.13-.03c-6.46-1.39-12.93-1.7-19.49-1.28-4.12,.26-8.28,.74-12.31,1.91-.04,.01-.11,.03-.15,.01Zm27.12-8.61c-4.21-3.3-9.07-5.45-14.15-4.92-7.59,.79-11.61,3.99-12.73,13.23,4-1.09,8.07-1.6,12.15-1.85,6.52-.4,12.96-.12,19.42,1.23-1.21-3.22-2.07-5.62-4.7-7.69Z"/></g><g><polygon points="195.2 134.73 194.72 133.39 183.96 138.87 184.44 140.21 195.2 134.73"/><polygon points="189.39 130.56 190.63 130.72 189.14 144.3 187.9 144.14 189.39 130.56"/></g><g><path class="cd" d="M195.49,160.23c7.59-2.02,10.42-6.7,10.34-16.47-.08-9.76-3.74-18.33-11.4-22.38,2.17,12.85,2.61,25.81,1.07,38.85Z"/><path class="cd" d="M195.37,160.18c.76-4.97,.95-10.06,.96-15.11,.01-8.01-.56-15.9-2.02-23.71,0-.04-.05-.12-.03-.15s.1,0,.13,.01c7.79,4.35,11.41,12.51,11.52,22.74,.1,9.41-2.84,14.66-10.42,16.39-.04,0-.13,.05-.14,0-.01-.04,0-.13,0-.18Zm-.83-38.68c1.43,7.81,1.98,15.65,1.98,23.63,0,4.99-.21,9.99-.91,14.92,7.54-1.82,9.96-6.89,10.23-16.18,.18-6.21-1.83-12.04-4.75-17.01-1.83-3.11-3.85-4.03-6.55-5.35Z"/></g><ellipse cx="155.67" cy="155.88" rx="7.19" ry="12.21" transform="translate(-49.48 75.6) rotate(-23.67)"/><path class="bs" d="M161.27,165.71c-3.43,8.55-8.26,14.25-10.8,12.73-2.54-1.52-1.81-9.69,1.62-18.24"/><g><path class="by" d="M128.55,150.07c-.53,.62-1.27,.92-1.81,1.5-.54,.57-.74,1.43-.08,1.95,.25,.19,.58,.16,.85,.27,1.58,.63,2.08,2.24,1.98,4.1-.11,1.86-.41,3.32,.69,4.75,.7,.91,1.84,1.02,2.43,2.15,.58,1.13,.02,2.33-.39,3.49-.41,1.15-.68,2.56,.38,3.33,1.06,.78,2.65,.3,3.66,1.24,.31,.29,.41,.64,.49,1.05,.24,1.15,.22,2.07-.03,3.25-.25,1.18-.82,2.56,.2,3.5,.57,.52,1.41,.46,2.11,.28,.69-.19,1.34-.63,2.01-.93,.23-.11,.48-.22,.74-.18,.26,.04,.52,.2,.69,.44,.94,1.34,.43,2.84,.64,4.42,.21,1.58,.89,2.64,2.12,3.39,1.23,.75,2.75,.73,4.04,.04,.21-.11,.42-.27,.64-.25s.41,.2,.55,.38c.93,1.29,1.5,2.61,1.81,4.28,.04,.24,.06,.46,.26,.6,.2,.14,.46,.13,.7,.08,.63-.13,1.22-.37,1.79-.71,.34-.2,.63-.47,1.02-.52,.76-.11,1.29,.42,1.77,1.05,.92,1.21,1.43,2.52,2.32,3.81,.66,.96,1.63,1.74,2.77,1.33,1.43-.51,1.95-2.17,2.8-3.52,.81,.13,1.57,.07,2.38-.12-.82-1.88-2.81-1.46-4.41-1.27-1.6,.19-2.87-.52-4.41-1.08-1.83-.67-3.17-1.98-4.76-3.12-.9-.64-1.96-1.06-2.86-1.6-2.6-1.56-4.74-3.83-6.77-6.19-1.82-2.11-3.53-4.06-4.74-6.65-.7-1.49-.99-2.95-1.76-4.31-.77-1.36-1.85-2.37-2.76-3.53-2.18-2.81-3.76-5.79-4.65-9.49-.64-2.68-.87-5.06-2.52-7.13"/><path class="by" d="M128.15,149.68c-.89,.88-2.18,1.33-2.46,2.86-.11,.61,.21,1.18,.69,1.48s1.19,.24,1.64,.67c.8,.73,.96,1.91,.91,3.03-.06,1.45-.33,2.64,.07,4.03,.19,.66,.58,1.16,1.05,1.6,.47,.44,1.14,.71,1.59,1.18,1.17,1.21,.31,2.59-.1,3.93-.41,1.35-.44,2.51,.49,3.44,.93,.93,2.31,.57,3.39,1.09,.62,.3,.76,.81,.87,1.63,.12,.82,0,1.68-.18,2.58-.24,1.23-.8,2.47,.15,3.61s2.52,.9,3.75,.36c.34-.15,.64-.36,1-.51,.35-.15,.62-.46,1.01-.02,.38,.44,.48,1.22,.49,1.92,.02,1.48-.11,2.76,.59,4.1,.71,1.34,1.87,2.11,3.17,2.45,.65,.17,1.41,.12,2.06,0,.32-.06,.71-.24,.94-.35,.24-.11,.26-.22,.46-.27,.2-.05,.24,.08,.37,.25,.43,.6,.8,1.27,1.1,1.99,.14,.36,.22,.71,.34,1.08,.11,.37,.04,.78,.23,1.13,.84,1.61,2.65,.57,3.75-.13,.31-.2,.55-.37,.88-.27,.33,.1,.55,.37,.75,.65,.58,.78,.97,1.5,1.51,2.37,.84,1.35,1.63,2.93,3.15,3.18,1.52,.25,2.63-.77,3.49-2.15,.41-.65,.61-1.28,1.02-1.89-.34,.18-.68,.35-1.02,.51,.89,.17,1.87,.06,2.72-.09,.33-.06,.76-.5,.63-.81-.91-2.24-3.09-1.86-4.83-1.7-1.04,.1-1.96,.2-2.88-.36-.93-.56-1.89-.73-2.77-1.21-.88-.48-1.43-1.03-2.25-1.66-.81-.63-1.75-1.25-2.67-1.74-.92-.49-1.95-1.02-2.81-1.64-.86-.62-1.65-1.31-2.4-2.07-1.5-1.52-2.87-3.14-4.26-4.79-1.39-1.65-2.61-3.41-3.47-5.52-.44-1.09-.73-2.18-1.24-3.19-.51-1.01-1.17-1.82-1.85-2.64-1.39-1.69-2.74-3.3-3.81-5.34-1.07-2.04-1.73-4.35-2.22-6.68-.48-2.33-.97-4.35-2.39-6.03-.46-.55-1.24,.18-.79,.77,1.22,1.6,1.63,3.34,2.05,5.41,.42,2.07,.88,3.89,1.73,5.81,.85,1.93,2.04,3.74,3.31,5.35,.66,.83,1.46,1.63,2.09,2.5,.63,.87,1.08,1.84,1.47,2.87,.39,1.03,.7,2.04,1.18,3,.49,.96,1.03,1.83,1.66,2.67,1.3,1.73,2.75,3.36,4.16,4.95s2.85,2.99,4.52,4.16c.87,.61,1.87,1.06,2.79,1.57,.91,.51,1.69,1.11,2.53,1.78,.84,.67,1.6,1.36,2.58,1.8,.98,.44,1.97,.85,3,1.35,1.03,.5,2.5,.03,3.54-.02,1.03-.05,2.21-.17,2.69,1.03,.21-.27,.44-.54,.65-.82-.65,.15-1.31,.17-1.96,.09-.37-.05-.76,.19-.97,.49-.41,.57-.65,1.15-.99,1.73-.34,.58-.62,1.11-1.2,1.35-1.41,.58-2.41-1.08-2.98-2.15-.58-1.08-.88-1.82-1.38-2.55-.51-.74-.76-1.03-1.41-1.34-.65-.31-1.27-.17-1.92,.15-.65,.32-1.31,.82-2.03,.91-.36,.04-.3-.25-.37-.6-.07-.35-.15-.73-.27-1.09-.23-.69-.5-1.35-.88-1.98-.37-.63-.72-1.32-1.37-1.58-.65-.26-1.18,.3-1.8,.49-1.28,.4-2.61,.16-3.63-.82-1.02-.98-1.16-2.19-1.18-3.63s.1-2.84-.98-3.72c-1.29-1.04-2.61,.35-3.91,.72-.58,.17-1.3,.14-1.66-.41s-.18-.99-.07-1.62c.11-.63,.35-1.26,.43-1.99,.08-.73,.06-1.73-.09-2.46-.15-.73-.42-1.29-.9-1.69-.47-.4-1.04-.5-1.55-.59-.98-.17-2.34-.1-2.46-1.56-.12-1.46,.84-2.41,.96-3.89,.12-1.48-.73-2.43-1.77-3.13-.49-.33-1.07-.72-1.37-1.28-.31-.57-.34-1.17-.35-1.79,0-1.26,.27-2.46,.09-3.7-.19-1.24-.69-2.06-1.56-2.74-.21-.16-.47-.22-.73-.33-.26-.11-.65,.06-.87-.34s.27-.94,.56-1.18c.53-.43,1.11-.68,1.55-1.26,.44-.59-.3-1.27-.81-.77,0-.03,0,0,0,0Z"/></g></g><g><path class="by" d="M129.76,179.46c-1.92,.82-4.19,3.16-6.28,6.47-2.09,3.31-3.97,7.56-5.2,11.73-.64,2.16-1.1,4.65-.47,5.3,.22,.23,.56,.19,.93-.02,1.56-.87,3.32-4.28,4.72-7.4,2.33-5.17,4.46-10.57,6.31-16"/><path class="by" d="M129.88,178.78c-3.99,1.8-8.9,9.39-11.64,18.07-1.06,3.35-1.78,7.62,.11,6.9,1.69-.64,3.65-4.35,5.11-7.54,2.47-5.38,4.67-11.04,6.61-16.71,.31-.91-.3-.81-.61,.1-1.47,4.3-3.11,8.57-4.89,12.73-1.32,3.09-2.96,6.99-4.7,9.04-.88,1.04-1.88,1.56-1.99,.21-.1-1.21,.45-3.21,.96-4.83,1.21-3.82,2.98-7.68,4.9-10.65,2-3.09,4.07-5.14,5.9-5.97,.42-.19,.67-1.54,.25-1.35h0Z"/></g><g><path class="by" d="M136.46,189.34c-2.1,1.65-3.73,4.39-4.49,7.59s-.66,6.8,.29,9.97c.49,1.64,1.44,3.36,2.7,3.36,.45,0,.88-.23,1.25-.58,1.57-1.46,1.83-4.51,1.78-7.17-.07-4.42-.57-8.85-1.48-13.12"/><path class="by" d="M136.2,188.87c-4.32,3.48-6.23,10.88-4.51,17.58,.67,2.59,2.37,5.5,4.5,3.93,1.9-1.4,2.24-4.75,2.23-7.49-.02-4.62-.58-9.25-1.51-13.72-.15-.72-.92-.29-.77,.43,.71,3.39,1.16,6.86,1.35,10.36,.14,2.6,.37,5.86-.72,8.11-.55,1.14-1.58,2.05-2.59,1.34-.9-.64-1.41-2.13-1.73-3.38-.76-2.95-.78-6.27-.03-9.16,.78-3.01,2.31-5.47,4.29-7.06,.46-.37-.06-1.3-.52-.93h0Z"/></g><g><path class="by" d="M120.72,135.9c.08-1.88-.4-3.79-1.35-5.27-.94-1.49-2.33-2.53-3.84-2.9-.78-.19-1.74-.1-2.16,.72-.15,.29-.21,.65-.2,1,.02,1.48,1.08,2.59,2.1,3.38,1.68,1.32,3.51,2.36,5.42,3.1"/><path class="by" d="M120.98,135.88c.14-3.89-2-7.43-5.09-8.38-1.19-.37-2.86-.16-2.98,1.72-.11,1.67,1.04,2.93,2.07,3.77,1.74,1.42,3.66,2.48,5.65,3.26,.32,.13,.41-.51,.1-.63-1.51-.59-2.96-1.37-4.34-2.32-1.02-.71-2.32-1.57-2.8-2.98-.25-.71-.24-1.66,.36-2.1,.54-.39,1.27-.26,1.85-.08,1.36,.42,2.61,1.43,3.45,2.82,.87,1.44,1.28,3.2,1.22,4.98-.01,.41,.51,.36,.52-.05h0Z"/></g><g><path class="by" d="M125.76,145.6c-1.49-1.73-4.28-3.17-7.72-4-3.44-.83-7.5-1.02-11.2-.54-1.92,.25-4,.84-4.21,1.8-.07,.34,.11,.69,.43,1,1.36,1.31,4.73,1.74,7.72,1.91,4.96,.28,9.99,.24,14.92-.12"/><path class="by" d="M126.33,145.44c-3.16-3.55-11.11-5.58-18.9-4.78-3.01,.31-6.55,1.38-5.16,3.13,1.25,1.56,4.94,2.07,8,2.27,5.17,.34,10.44,.27,15.59-.1,.83-.06,.48-.68-.35-.62-3.91,.28-7.87,.36-11.81,.23-2.93-.09-6.61-.17-8.95-1.17-1.19-.51-2.02-1.36-1.06-2.07,.87-.64,2.62-.91,4.07-1.06,3.43-.35,7.14-.11,10.25,.68,3.23,.82,5.72,2.18,7.17,3.81,.34,.38,1.46,.05,1.13-.32h0Z"/></g><g><path class="by" d="M126.3,136.99c1.47-2.24,2.3-5.73,2.3-9.63,0-3.9-.85-8.18-2.34-11.82-.77-1.89-1.95-3.8-3.04-3.63-.39,.06-.72,.4-.96,.85-1.06,1.95-.64,5.61-.04,8.77,.99,5.25,2.34,10.44,4.02,15.4"/><path class="by" d="M126.62,137.51c3-4.72,3.11-13.78,.22-21.51-1.12-2.99-3.2-6.22-4.72-4.06-1.35,1.92-.94,5.96-.36,9.21,.99,5.49,2.43,10.92,4.17,16.1,.28,.84,.85,.22,.57-.61-1.32-3.93-2.44-8-3.34-12.13-.67-3.07-1.54-6.91-1.08-9.74,.24-1.43,.94-2.65,1.96-1.94,.92,.64,1.66,2.34,2.2,3.79,1.28,3.41,1.98,7.35,1.94,10.89-.04,3.68-.86,6.81-2.23,8.97-.32,.5,.33,1.54,.64,1.04h0Z"/></g><g><path class="by" d="M129.76,141.24c2.57-.36,5.38-2.27,7.74-5.26,2.36-3,4.27-7.06,5.26-11.22,.52-2.16,.71-4.71-.3-5.58-.36-.31-.83-.36-1.31-.23-2.05,.52-3.93,3.71-5.37,6.68-2.38,4.93-4.42,10.16-6.06,15.51"/><path class="by" d="M129.7,141.94c5.34-.85,10.93-7.69,13.26-16.28,.9-3.32,1.15-7.72-1.41-7.46-2.28,.23-4.39,3.7-5.89,6.73-2.53,5.12-4.63,10.61-6.36,16.19-.28,.9,.57,.95,.84,.06,1.31-4.23,2.86-8.38,4.63-12.38,1.32-2.97,2.93-6.72,5.03-8.46,1.07-.88,2.38-1.16,2.79,.32,.36,1.33-.06,3.33-.49,4.94-1.02,3.79-2.84,7.46-5.02,10.13-2.27,2.78-4.84,4.43-7.29,4.82-.57,.09-.67,1.48-.1,1.39h0Z"/></g><g><path class="by" d="M153.6,214.4c-2.1,1.65-3.73,4.39-4.49,7.59-.76,3.19-.66,6.8,.29,9.97,.49,1.64,1.44,3.36,2.7,3.36,.45,0,.88-.23,1.25-.58,1.57-1.46,1.83-4.51,1.78-7.17-.07-4.42-.57-8.85-1.48-13.12"/><path class="by" d="M153.34,213.93c-4.32,3.48-6.23,10.88-4.51,17.58,.67,2.59,2.37,5.5,4.5,3.93,1.9-1.4,2.24-4.75,2.23-7.49-.02-4.62-.58-9.25-1.51-13.72-.15-.72-.92-.29-.77,.43,.71,3.39,1.16,6.86,1.35,10.36,.14,2.6,.37,5.86-.72,8.11-.55,1.14-1.58,2.05-2.59,1.34-.9-.64-1.41-2.13-1.73-3.38-.76-2.95-.78-6.27-.03-9.16,.78-3.01,2.31-5.47,4.29-7.06,.46-.37-.06-1.3-.52-.93h0Z"/></g><g><path class="by" d="M141.07,234.05c-1.43,2.5-2.09,5.8-1.81,9.1,.28,3.31,1.5,6.6,3.36,9.1,.96,1.29,2.37,2.44,3.54,1.85,.42-.21,.75-.63,.98-1.11,1.01-2.08,.3-5.02-.57-7.47-1.44-4.06-3.27-7.92-5.43-11.46"/><path class="by" d="M140.69,233.74c-2.92,5.22-2.4,12.96,1.27,18.36,1.42,2.09,3.9,3.99,5.38,1.55,1.33-2.18,.6-5.44-.26-7.97-1.45-4.27-3.4-8.29-5.64-11.99-.36-.6-.94,.16-.58,.75,1.7,2.81,3.2,5.81,4.46,8.96,.94,2.34,2.15,5.25,1.85,7.84-.16,1.31-.83,2.63-1.98,2.44-1.03-.17-1.96-1.32-2.65-2.33-1.62-2.38-2.66-5.44-2.86-8.46-.21-3.15,.45-6.13,1.78-8.52,.31-.55-.46-1.17-.77-.62h0Z"/></g><g><path class="by" d="M158.4,253.06c-1.17,1.71-2,4.73-2.28,8.33-.28,3.6-.02,7.75,.73,11.47,.39,1.93,1.05,3.98,1.82,4.08,.27,.04,.52-.19,.72-.56,.87-1.54,.85-5.02,.68-8.08-.29-5.08-.84-10.19-1.62-15.17"/><path class="by" d="M158.22,252.5c-2.41,3.63-3.15,11.96-1.74,19.79,.55,3.03,1.73,6.51,2.93,4.88,1.07-1.45,1.08-5.27,.92-8.41-.27-5.3-.86-10.65-1.67-15.86-.13-.84-.57-.41-.44,.43,.61,3.95,1.08,7.97,1.39,11.99,.23,2.99,.55,6.75,.02,9.24-.27,1.27-.84,2.22-1.48,1.32-.58-.81-.97-2.56-1.23-4.02-.62-3.45-.82-7.25-.53-10.51,.3-3.39,1.09-6.08,2.19-7.74,.26-.38-.11-1.5-.36-1.11h0Z"/></g><g><path class="by" d="M149.73,283.18c-1.22,1.22-2.14,3.31-2.54,5.77-.4,2.46-.27,5.26,.36,7.75,.32,1.29,.92,2.65,1.68,2.68,.27,.01,.52-.16,.74-.41,.91-1.09,1.01-3.45,.93-5.52-.13-3.43-.5-6.88-1.12-10.23"/><path class="by" d="M149.57,282.81c-2.51,2.58-3.52,8.28-2.37,13.52,.45,2.03,1.52,4.34,2.76,3.17,1.11-1.04,1.25-3.63,1.19-5.76-.1-3.59-.52-7.19-1.15-10.69-.1-.56-.55-.25-.45,.31,.48,2.65,.82,5.36,1,8.08,.13,2.02,.33,4.56-.28,6.28-.31,.87-.91,1.55-1.52,.97-.55-.52-.88-1.69-1.1-2.67-.51-2.31-.58-4.89-.19-7.11,.41-2.31,1.28-4.18,2.43-5.36,.27-.27-.06-1.01-.33-.74h0Z"/></g></g><g id="bf"/><g id="bg"><g id="bh"/><g id="bi"/><g id="bj"/><g id="bk"><g id="bl"/><g id="bm"/><g id="bn"/><g id="bo"/></g><g id="bp"/><g id="bq"/><g id="br"/></g></svg>