<?xml version="1.0" encoding="UTF-8"?><svg xmlns="http://www.w3.org/2000/svg" width="150" height="400" viewBox="0 0 150 400"><defs><style>.bs,.bt{fill:#f2f2f2;}.bu{fill:#e7e2d3;}.bv{fill:#fff;}.bw{fill:#fbb03b;}.bx,.by{fill:#fddbb4;}.c`{fill:#999;}.ca{fill:#666;}.cb{fill:#d39b2f;}.cc{fill:gray;}.by,.bt{stroke-width:.25px;}.by,.bt,.cd{stroke-miterlimit:10;}.by,.cd{stroke:#000;}.bt{stroke:#999;}.cd{stroke-width:.5px;}.ce{opacity:.6;}</style></defs><g id="a"/><g id="b"/><g id="c"><g id="d"/><g id="e"/><g id="f"/><g id="g"/></g><g id="h"><g id="i"/><g id="j"><g id="k"/><g id="l"/><g id="m"/><g id="n"/></g><g id="o"/><g id="p"><g id="q"><g id="r"><g id="s"/><g id="t"/></g></g><g id="u"/></g></g><g id="v"/><g id="w"><g id="x"/><g id="y"/><g id="a`"/><g id="aa"/><g id="ab"/><g id="ac"/><g id="ad"/></g><g id="ae"><g id="af"/><g id="ag"/><g id="ah"/><g id="ai"/><g id="aj"/></g><g id="ak"><g id="al"/><g id="am"/></g><g id="an"><g id="ao"/></g><g id="ap"><g id="aq"/><g id="ar"><g id="as"/></g></g><g id="at"><g id="au"/><g id="av"/><g id="aw"/><g id="ax"/></g><g id="ay"><g id="b`"><ellipse class="cd" cx="74.73" cy="395.57" rx="39.84" ry="4.09"/><ellipse cx="75.88" cy="386.71" rx="27.58" ry="13.29"/><path class="bs" d="M127.24,384.81c-29.17,8.97-94.77-2.17-101,2.17-1.03,.72-5.38-5.68-3.56-10.63,19.62-53.36,8.15-119.45,19.92-176.85,1.09-5.32,2.7-6.71,6.75-5.63,24.53,6.54,34.83,6.59,59.7,3.67,4.1-.48,5.92,1.07,6.79,6.4,9.35,57.44,4.65,116.56,16.39,172.77,1.09,5.21-.16,6.62-4.98,8.1Z"/><g><path class="bt" d="M85.92,258.67l1.14-2.75c1.75-4.22,7.06-6.4,11.8-4.85l44.46,14.55c4.75,1.55,7.2,6.28,5.45,10.5l-1.14,2.75c-1.75,4.22-7.06,6.4-11.8,4.85l-44.46-14.55c-4.75-1.55-7.2-6.28-5.45-10.5Z"/><path class="bt" d="M138.99,284.39c-1.09,0-2.18-.17-3.23-.51l-44.46-14.55c-4.86-1.59-7.36-6.4-5.57-10.72l1.14-2.75c.86-2.08,2.59-3.75,4.88-4.69,2.28-.94,4.83-1.03,7.17-.26l44.46,14.55c2.34,.77,4.21,2.31,5.27,4.34,1.05,2.03,1.16,4.3,.3,6.38l-1.14,2.75c-.86,2.08-2.59,3.75-4.88,4.69-1.26,.52-2.6,.78-3.95,.78Zm-43.29-33.65c-1.29,0-2.58,.25-3.79,.75-2.19,.9-3.85,2.5-4.68,4.49l-1.14,2.75c-1.71,4.14,.68,8.75,5.34,10.28l44.46,14.55c2.25,.74,4.69,.64,6.88-.25,2.19-.9,3.85-2.5,4.68-4.49l1.14-2.75c.83-2,.73-4.17-.29-6.12-1.01-1.95-2.81-3.43-5.05-4.16l-44.46-14.55c-1-.33-2.05-.49-3.09-.49Z"/></g><g><path class="bt" d="M64.55,259.92l-1.14-2.75c-1.75-4.22-7.06-6.4-11.8-4.85l-44.46,14.55c-4.75,1.55-7.2,6.28-5.45,10.5l1.14,2.75c1.75,4.22,7.06,6.4,11.8,4.85l44.46-14.55c4.75-1.55,7.2-6.28,5.45-10.5Z"/><path class="bt" d="M11.47,285.64c-3.82,0-7.42-2.09-8.82-5.47l-1.14-2.75c-1.79-4.32,.71-9.13,5.57-10.72l44.46-14.55c4.86-1.59,10.26,.63,12.05,4.95l1.14,2.75c.86,2.08,.76,4.35-.3,6.38-1.05,2.03-2.93,3.57-5.27,4.34l-44.46,14.55c-1.07,.35-2.16,.51-3.23,.51Zm43.3-33.65c-1.03,0-2.08,.16-3.1,.49l-44.46,14.55c-4.66,1.52-7.06,6.14-5.34,10.28l1.14,2.75c1.71,4.14,6.9,6.27,11.56,4.75l44.46-14.55c2.25-.74,4.04-2.21,5.05-4.16,1.01-1.95,1.11-4.12,.29-6.12l-1.14-2.75c-1.34-3.23-4.79-5.24-8.46-5.24Z"/></g><path class="bs" d="M5.43,281.45l4.58,1.82c4.61,1.84,10.08-.01,12.15-4.12l34.93-69.31c2.07-4.1-.02-8.97-4.63-10.81l-4.58-1.82c-4.61-1.84-10.08,.01-12.15,4.12L.8,270.64c-2.07,4.1,.02,8.97,4.63,10.81Z"/><path class="bs" d="M144.57,281.54h0c-4.61,1.84-10.08-.01-12.15-4.12l-33.84-67.15c-2.07-4.1,.02-8.97,4.63-10.81h0c4.61-1.84,10.08,.01,12.15,4.12l33.84,67.15c2.07,4.1-.02,8.97-4.63,10.81Z"/><path class="bu" d="M135.98,259.43c-42.55,9.65-76.74,13.33-120.03,2.5-10.58-2.65-14.29-3.2-9.07-10.13,14.03-18.63,8.98-35.75,24.26-48.66,5.68-4.8,15.85-9.27,19.85-6.08,16.37,13.03,43.25,14.71,59.88,2.21,4.06-3.05,8.19-1.1,12.6,4.54,11.86,15.18,4.93,28.76,18.55,46.16,5.06,6.47,4.37,7.09-6.04,9.45Z"/><polygon class="c`" points="132.12 268.98 119.09 263.53 119.26 263.22 132.28 268.67 132.12 268.98"/><polygon class="c`" points="19.64 268.99 19.5 268.59 29.77 265.26 29.91 265.66 19.64 268.99"/><g class="ce"><path class="ca" d="M77.48,209.59c1,22.93,1.55,45.81,1.18,68.8-.38,23.23-1.23,46.54-1.52,69.82-.17,13.23-.24,26.53-.21,39.76,0,.33,.56,.34,.56,0-.02-23.55,.24-47.18,.77-70.71,.53-23.26,1.3-46.44,.98-69.68-.18-12.7-.64-25.32-1.2-37.99-.01-.33-.57-.33-.56,0-.02,0,0,0,0,0Z"/></g><ellipse class="bx" cx="61.32" cy="256.9" rx="18.01" ry="14.65"/><ellipse class="bx" cx="95.04" cy="256.9" rx="18.01" ry="14.65"/><g><line class="bw" x1="97.72" y1="206.81" x2="77.95" y2="226.1"/><path class="bw" d="M97.19,206.28l-17.34,16.91-2.43,2.37c-.69,.68,.37,1.74,1.06,1.06l17.34-16.91,2.43-2.37c.69-.68-.37-1.74-1.06-1.06h0Z"/></g><rect class="bw" x="75.88" y="223.51" width="3.06" height="22.49"/><rect class="bw" x="76.05" y="223.34" width="2.73" height="15.32" transform="translate(-153.59 308.42) rotate(-90)"/><g><line class="bw" x1="54.81" y1="204.09" x2="75.96" y2="224.84"/><path class="bw" d="M54.28,204.62l18.52,18.17,2.63,2.58c.69,.68,1.75-.38,1.06-1.06l-18.52-18.17-2.63-2.58c-.69-.68-1.75,.38-1.06,1.06h0Z"/></g><ellipse class="ca" cx="82.01" cy="352.64" rx="1.53" ry="1.7"/><ellipse class="ca" cx="82.01" cy="338.33" rx="1.53" ry="1.7"/><ellipse class="ca" cx="82.01" cy="324.02" rx="1.53" ry="1.7"/><ellipse class="ca" cx="82.01" cy="311.07" rx="1.53" ry="1.7"/><ellipse class="ca" cx="82.01" cy="298.81" rx="1.53" ry="1.7"/><ellipse class="ca" cx="82.01" cy="286.54" rx="1.53" ry="1.7"/><ellipse class="ca" cx="82.01" cy="274.28" rx="1.53" ry="1.7"/><ellipse class="ca" cx="82.01" cy="366.95" rx="1.53" ry="1.7"/><polyline points="76.65 378.88 76.65 395.23 63.62 395.23"/><ellipse class="ca" cx="82.01" cy="240.2" rx="1.53" ry="1.7"/><ellipse class="ca" cx="82.01" cy="225.89" rx="1.53" ry="1.7"/><ellipse class="ca" cx="82.01" cy="214.99" rx="1.53" ry="1.7"/></g><g id="ba"><path class="by" d="M127.3,152.91c-1.29,4.06-.31,18.71,2.99,18.64,3.3-.08,2.87-10.88,5.37-13.97,2.5-3.08,3.49-9.75-.28-11.38-3.77-1.64-6.8,2.65-8.09,6.71Z"/><path class="by" d="M33.7,155c1.29,4.06,.31,18.71-2.99,18.64-3.3-.08-2.87-10.88-5.37-13.97-2.5-3.08-3.49-9.75,.28-11.38,3.77-1.64,6.8,2.65,8.09,6.71Z"/><g><path class="by" d="M128.62,161.35c-2.56,25.9-19.72,49.92-51.12,48.12-31.4-1.8-44.93-25.19-45.24-51.19s16.6-56.14,51.06-56.32c34.46-.17,47.85,33.48,45.29,59.38Z"/><path class="by" d="M80.8,209.74c-1.08,0-2.18-.03-3.3-.1-14.84-.85-26.42-6.43-34.42-16.59-7.03-8.92-10.83-20.94-10.99-34.77-.2-17.1,6.65-33.62,18.34-44.19,8.83-7.98,20.21-12.24,32.91-12.3,11.83-.05,21.86,3.79,29.78,11.44,11.35,10.95,17.51,29.84,15.71,48.13h0c-2.41,24.46-18.18,48.37-48.02,48.37Zm2.8-107.6c-.09,0-.18,0-.27,0-12.77,.06-23.75,4.17-32.64,12.2-11.62,10.5-18.44,26.93-18.23,43.94,.16,13.76,3.94,25.71,10.93,34.58,7.93,10.07,19.42,15.6,34.13,16.45,31.71,1.82,48.43-22.79,50.91-47.97,1.8-18.2-4.33-36.98-15.61-47.87-7.79-7.52-17.62-11.33-29.23-11.33Z"/></g><ellipse class="bv" cx="94.83" cy="153.01" rx="12.38" ry="16.97" transform="translate(-80.44 111.97) rotate(-45.03)"/><ellipse class="bv" cx="65.42" cy="152.97" rx="16.97" ry="12.38" transform="translate(-88.97 90.97) rotate(-44.97)"/><path d="M107.36,140.51c-2.74-2.65-7.64-4.79-11.73-5.58-1.2-.23-1.44,.28-1.84-.75-.18,.14-.15,.15,0,0-.4-1.03,.52-1.27,1.89-.85,4.68,1.43,9.87,3.96,12.93,7.13,.9,.93,1.24,1.59,.53,1.75,.12,.56,.31-.07,0,0-.71,.15-.98-.92-1.78-1.7Z"/><ellipse cx="73.58" cy="149.91" rx="1.53" ry="1.36"/><ellipse cx="87.38" cy="149.91" rx="1.53" ry="1.36"/><path d="M56.33,139.59c3-2.24,8.39-4.16,12.47-4.86,1.2-.21,1.26,.34,1.82-.66,.15,.11,.08,.1,0,0,.56-1.01-.4-1.35-1.76-.94-4.65,1.38-10.74,3.28-13.84,6.29-.91,.88-.99,1.61-.52,1.71-.14,.33-.21-.04,0,0,.47,.1,.96-.86,1.84-1.52Z"/><path d="M69.25,185c6.3-.67,12.86-.06,18.74,2.13,.68,.25,.98-.74,.31-.99-5.95-2.22-12.66-2.84-19.05-2.16-.73,.08-.73,1.1,0,1.02h0Z"/><g><path class="cc" d="M43.64,123.16c-1.36,.92-2.68,2.01-3.53,3.32-.84,1.3-1.26,2.71-1.76,4.07-.92,2.48-2.19,4.82-3.13,7.24-.94,2.42-1.06,4.42-.38,6.87,1.01,.07,1.7-.46,2.23-1.15,2.12-2.77,4.02-5.65,5.74-8.61,.74,.12,.93,1.16,1.67,1.01,.14-.03,.24-.16,.3-.28,.97-2.15,.99-4.58,1.78-6.78,.8-2.2,1.48-4.33,2.28-6.5-1.72,.15-3.38,.49-5.07,.79"/><path class="cc" d="M42.88,122.56c-1.85,1.16-3.36,2.59-4.36,4.51-1,1.93-1.63,4.21-2.55,6.22-1.81,3.95-3.29,7.35-2.22,11.61,.12,.47,.59,.71,1.1,.72,2.54,.04,3.73-2.16,4.8-3.76,1.53-2.28,3.06-4.18,4.18-6.54-.24,.18-.64,.52-.89,.56s-.36-.2-.32-.01,.09,.13,.21,.29,.31,.43,.55,.54c.58,.28,1.11,.4,1.72-.05,1.3-.97,1.39-3.08,1.56-4.34,.46-3.48,2.24-6.56,3.37-9.81,.23-.65-.47-1.21-1.18-1.16-1.55,.11-3.57,.54-4.93,.83-1.36,.29-1.83,1.9-.23,1.84,1.6-.06,3.42-.6,5.08-.62-.34-.42-.71-.79-1.09-1.18-.97,2.88-1.93,5.71-2.69,8.66-.17,.66-.23,1.49-.36,2.18-.05,.27-.12,.66-.2,.89-.07,.23-.43,1.03-.41,1.07,.15,.27,.75,.13,.63-.04-.12-.17-.11-.15-.21-.27s-.19-.25-.31-.35c-.45-.4-.84-.58-1.5-.57-.39,0-.72,.31-.88,.6-1.05,1.89-2.26,3.7-3.44,5.5-.56,.85-1.03,1.51-1.64,2.36-.44,.61-.89,1.47-1.88,1.48,.38,.23,.76,.46,1.14,.7-1.02-3.98,.67-7.05,2.37-10.7,.83-1.78,1.26-3.63,2.08-5.48,.82-1.85,2.32-3.17,3.99-4.53,1.14-.92-.29-1.9-1.49-1.15,.02-.06,0,0,0,0Z"/></g><g><path class="cc" d="M115.7,118.21c1.31,1.03,2.53,2.24,3.4,3.66,.87,1.42,1.34,2.73,2.08,4.22,1.36,2.73,3.16,4.94,4.49,7.83,1.33,2.89,1.62,6.13,.79,9.3-1.14-.07-1.74-1.12-2.22-2.05-1.91-3.73-4.23-6.68-6.66-10.02-.83,.26-.76,1.48-1.63,1.57-.16,.02-.29-.1-.4-.21-1.87-1.87-2.81-4.15-3.37-6.72-.56-2.57-.81-5.11-1.57-7.62,1.66-.08,3.3-.05,4.95,.03"/><path class="cc" d="M116.48,117.41c1.8,1.35,3.05,2.86,4.23,4.98,1.18,2.11,1.91,4.08,3.36,6.44,2.83,4.63,4.86,9.21,3.46,14.89-.15,.62-.62,.82-1.16,.74-2.7-.39-3.77-3.96-4.79-5.92-1.45-2.79-3.32-4.3-5-6.71,.31,.1,.82,.4,1.07,.43s.33-.27,.31-.04c-.01,.23-.07,.16-.17,.36-.1,.2-.27,.52-.48,.71-.52,.46-1.2,.75-1.9,.47-1.5-.6-2.52-2.35-3.1-3.72-1.59-3.78-1.76-7.64-2.82-11.52-.21-.77,.33-1.47,1.06-1.51,1.59-.08,3.44-.14,4.91,.06,1.47,.2,1.68,2.17,.12,2.25-1.56,.08-3.33-.11-4.93,.05,.35-.52,.71-1.02,1.06-1.53,.91,3.34,1.2,6.82,2.27,10.11,.24,.74,.6,1.43,.98,2.07,.15,.25,.36,.56,.52,.74,.16,.18,.81,.79,.81,.82-.03,.29-.86,.47-.77,.24s.09-.19,.17-.35c.08-.16,.16-.31,.26-.46,.4-.54,.84-.84,1.5-.94,.39-.06,.84,.16,1.06,.47,1.42,1.97,2.87,3.64,4.25,5.67,.66,.96,1.24,2.09,1.83,3.24,.42,.81,.84,2.32,1.94,2.52-.38,.27-.77,.51-1.17,.76,1.11-5.21-.92-8.94-3.53-13.11-1.28-2.04-1.97-3.67-2.97-5.69-1-2.02-2.29-3.42-3.96-4.89-1.13-.99,.4-2.49,1.56-1.61,.01-.09,0,0,0,0Z"/></g></g><g id="bb"><path class="bs" d="M43.85,117.21c-2.66-.48-11.63-13.56-11.65-16.84-.06-13.75,24.92-83.58,45.82-84.05,19.82-.45,43.2,64.86,46.8,80.99,.86,3.83-4.49,16.58-8.6,19.41"/><path class="bs" d="M77.58,108.26c-21.06-1.31-37.48-9.88-39.89-25.82C35.28,66.5,69.18,5.94,77.68,.28c8.5-5.65,41.46,74.65,41.87,84.84,.41,10.19-20.91,24.45-41.97,23.14Z"/><path class="bs" d="M118.37,122.66c-45.4-4.45-31.63-3.63-75.58-.03-1.36-4.63,.13-9.24-1.39-13.88,41.26-6.12,37.14-5.33,78.15-.11-1.46,4.61-.33,9.35-1.18,14.02Z"/><path class="bw" d="M118.45,122.6c-25.07-1.68-50.29-4.2-75.13,.9-1.1-3.3-.18-6.48-2.67-9.32,24.96-8.7,52.7-6.02,78.51-2.22-1.09,3.54-.27,7.04-.72,10.63Z"/><path class="bw" d="M70.14,22.09C72.52,8.21,75.41,.08,78.52,.08s6.07,8.31,8.47,22.49"/><path class="bw" d="M87.38,21.81V115.02c0,1.97-3.79,3.58-8.43,3.58h0c-4.64,0-8.43-1.61-8.43-3.58V21.81"/><rect class="cb" x="77.42" y="63.37" width="3.06" height="33.39"/><rect class="cb" x="70.52" y="72.91" width="16.86" height="2.73"/></g></g><g id="bc"><g id="bd"/><g id="be"/></g><g id="bf"/><g id="bg"><g id="bh"/><g id="bi"/><g id="bj"/><g id="bk"><g id="bl"/><g id="bm"/><g id="bn"/><g id="bo"/></g><g id="bp"/><g id="bq"/><g id="br"/></g></svg>