<?xml version="1.0" encoding="UTF-8"?><svg xmlns="http://www.w3.org/2000/svg" width="50" height="60" viewBox="0 0 50 60"><defs><style>.bs{fill:#8c0000;}</style></defs><g id="a"/><g id="b"/><g id="c"><g id="d"/><g id="e"/><g id="f"/><g id="g"/></g><g id="h"><g id="i"/><g id="j"><g id="k"/><g id="l"/><g id="m"/><g id="n"/></g><g id="o"/><g id="p"><g id="q"><g id="r"><g id="s"/><g id="t"/></g></g><g id="u"/></g></g><g id="v"/><g id="w"><g id="x"/><g id="y"/><g id="a`"/><g id="aa"/><g id="ab"/><g id="ac"/><g id="ad"/></g><g id="ae"><g id="af"/><g id="ag"/><g id="ah"/><g id="ai"/><g id="aj"/></g><g id="ak"><g id="al"/><g id="am"/></g><g id="an"><g id="ao"/></g><g id="ap"><g id="aq"/><g id="ar"><g id="as"/></g></g><g id="at"><g id="au"/><g id="av"/><g id="aw"/><g id="ax"/></g><g id="ay"><g id="b`"/><g id="ba"/><g id="bb"/></g><g id="bc"><g id="bd"/><g id="be"/></g><g id="bf"/><g id="bg"><g id="bh"/><g id="bi"/><g id="bj"><g><path class="bs" d="M0,7.25L10.35,0h.83V53.08c0,1.67,.3,2.82,.91,3.46,.6,.64,1.31,.96,2.12,.96v.83h-3.32c-.91,0-1.72-.21-2.45-.63s-1.17-.99-1.32-1.71c-.2,.72-.67,1.29-1.4,1.71s-1.52,.63-2.38,.63H0v-.83c.75,0,1.45-.32,2.08-.96,.63-.64,.94-1.79,.94-3.46v-3.67c-.15,.17-.4,.25-.75,.25s-.72-.13-1.1-.38c-.38-.25-.59-.6-.64-1.04,.15,.11,.3,.17,.45,.17,.6,0,1.1-.44,1.47-1.33s.57-1.97,.57-3.25V12.5c0-1.67-.32-2.82-.94-3.46-.63-.64-1.32-.96-2.08-.96v-.83Z"/><path class="bs" d="M21.6,1.67h3.32c.86,0,1.65,.21,2.38,.63,.73,.42,1.2,.99,1.4,1.71,.15-.72,.59-1.29,1.32-1.71,.73-.42,1.55-.63,2.45-.63h9.59c2.57,0,4.53,.78,5.89,2.33,1.36,1.56,2.04,4.08,2.04,7.58v12.75c0,3.56-.68,6.11-2.04,7.67-1.36,1.56-3.32,2.33-5.89,2.33h-9.29v20.42c0,1.67,.3,2.82,.91,3.46,.6,.64,1.31,.96,2.12,.96v.83h-3.32c-.91,0-1.72-.21-2.45-.63s-1.17-.99-1.32-1.71c-.2,.72-.67,1.29-1.4,1.71s-1.52,.63-2.38,.63h-3.32v-.83c.75,0,1.45-.32,2.08-.96,.63-.64,.94-1.79,.94-3.46v-3.67c-.15,.17-.4,.25-.75,.25s-.72-.13-1.1-.38c-.38-.25-.59-.6-.64-1.04,.15,.11,.3,.17,.45,.17,.6,0,1.1-.44,1.47-1.33s.57-1.97,.57-3.25V6.92c0-1.67-.32-2.82-.94-3.46-.63-.64-1.32-.96-2.08-.96v-.83Zm14.2,5.17c-.81,0-1.51,.32-2.12,.96s-.91,1.76-.91,3.37V29.17h6.04c.75,0,1.43-.32,2.04-.96,.6-.64,.91-1.79,.91-3.46V11.17c0-1.61-.3-2.74-.91-3.37s-1.28-.96-2.04-.96h-3.02Z"/></g></g><g id="bk"><g id="bl"/><g id="bm"/><g id="bn"/><g id="bo"/></g><g id="bp"/><g id="bq"/><g id="br"/></g></svg>