<?xml version="1.0" encoding="UTF-8"?><svg xmlns="http://www.w3.org/2000/svg" width="800" height="450" viewBox="0 0 800 450"><defs><style>.bs{fill:#f7931e;}.bt{fill:#fbb03b;}.bu{fill:#c1272d;}.bv{opacity:.69;}</style></defs><g id="a"/><g id="b"/><g id="c"><g id="d"/><g id="e"/><g id="f"/><g id="g"/></g><g id="h"><g id="i"/><g id="j"><g id="k"/><g id="l"/><g id="m"/><g id="n"/></g><g id="o"/><g id="p"><g id="q"><g id="r"><g id="s"/><g id="t"/></g></g><g id="u"/></g></g><g id="v"/><g id="w"><g id="x"/><g id="y"/><g id="a`"/><g id="aa"/><g id="ab"/><g id="ac"/><g id="ad"/></g><g id="ae"><g id="af"/><g id="ag"/><g id="ah"/><g id="ai"/><g id="aj"/></g><g id="ak"><g id="al"/><g id="am"/></g><g id="an"><g id="ao"/></g><g id="ap"><g id="aq"/><g id="ar"><g id="as"/></g></g><g id="at"><g id="au"/><g id="av"/><g id="aw"/><g id="ax"/></g><g id="ay"><g id="b`"/><g id="ba"/><g id="bb"/></g><g id="bc"><g id="bd"/><g id="be"/></g><g id="bf"/><g id="bg"><g id="bh"/><g id="bi"/><g id="bj"/><g id="bk"><g id="bl"/><g id="bm"/><g id="bn"/><g id="bo"/></g><g id="bp"><g><g class="bv"><rect class="bt" width="800" height="450"/></g><g><rect class="bt" x="9.61" y="5.6" width="783.25" height="434.1"/><path class="bs" d="M793.61,440.55H8.86V4.75H793.61V440.55Zm-783.25-1.7H792.11V6.45H10.35V438.84Z"/></g><g><g><rect class="bt" x="32.12" y="39.95" width="725.9" height="368.98"/><path class="bs" d="M759.17,410.21H30.97V38.67H759.17V410.21Zm-725.9-2.55H756.88V41.23H33.27V407.65Z"/></g><g><path class="bt" d="M758.72,409.65H31.43V39.23H758.72V409.65Zm-725.9-1.45H757.33V40.67H32.81V408.21Z"/><path class="bs" d="M759.1,410.08H31.04V38.8H759.1V410.08Zm-727.29-.85H758.33V39.65H31.81V409.23Zm725.9-.6H32.43V40.25H757.71V408.63Zm-724.52-.85H756.95V41.1H33.2V407.78Z"/></g></g><g><g><rect class="bt" x="65.53" y="63.31" width="667.56" height="318.68"/><path class="bs" d="M734.15,383.09H64.48V62.21H734.15V383.09Zm-667.56-2.2H732.04V64.41H66.59V380.88Z"/></g><g><path class="bt" d="M733.73,382.61H64.89V62.68H733.73V382.61Zm-667.56-1.25H732.46V63.93H66.17V381.36Z"/><path class="bs" d="M734.08,382.98H64.54V62.32H734.08V382.98Zm-668.84-.73H733.38V63.05H65.24V382.24Zm667.56-.51H65.82V63.57H732.81V381.73Zm-666.29-.73H732.1V64.3H66.52V380.99Z"/></g></g><rect class="bu" x="75.31" y="72.9" width="648.01" height="299.49"/><g><path class="bt" d="M249.84,128.16h5.8c.47,0,.9,.12,1.3,.35,.4,.23,.65,.55,.76,.96,.08-.41,.32-.73,.72-.96,.4-.23,.84-.35,1.34-.35h1.81v.47c-.44,0-.82,.18-1.15,.54-.33,.36-.49,1.01-.49,1.94v3c0,1.31-.36,2.29-1.07,2.95-.71,.66-1.55,.98-2.51,.98-.88,0-1.64-.22-2.28-.66-.64-.44-.97-.98-.97-1.64,.08,.09,.23,.14,.45,.14,.52,0,1.02-.21,1.48-.63,.47-.42,.7-1.07,.7-1.94,0-1.5-.71-2.25-2.14-2.25h-1.93c-.44,0-.82,.18-1.15,.54-.33,.36-.49,.99-.49,1.9v22.09c0,.91,.16,1.54,.49,1.9,.33,.36,.71,.54,1.15,.54h2.18c.38,0,.74-.16,1.07-.47,.33-.31,.51-.86,.54-1.64-.08,.09-.21,.14-.37,.14-.19,0-.39-.07-.6-.21-.21-.14-.32-.34-.35-.58,.08,.06,.16,.09,.25,.09,.33,0,.6-.25,.8-.75,.21-.5,.31-1.11,.31-1.83v-5.9c0-.94-.16-1.58-.49-1.94-.33-.36-.71-.54-1.15-.54-.41,0-.76,.15-1.05,.44-.29,.3-.43,.77-.43,1.43h-.41v-4.77h3.7c.47,0,.9,.12,1.3,.35,.4,.23,.65,.57,.76,1.01,.08-.44,.32-.77,.72-1.01,.4-.23,.84-.35,1.34-.35h1.81v.47c-.44,0-.82,.19-1.15,.56-.33,.37-.49,1.01-.49,1.92v13.52c0,.94,.16,1.58,.49,1.94,.33,.36,.71,.54,1.15,.54v.47h-1.81c-.49,0-.94-.12-1.34-.35-.4-.23-.64-.55-.72-.96-.11,.41-.36,.73-.76,.96-.4,.23-.83,.35-1.3,.35h-5.8c-1.59,0-2.73-.53-3.42-1.59-.14,.09-.34,.14-.62,.14-.38,0-.73-.12-1.05-.35-.32-.23-.47-.6-.47-1.1,.16,.22,.36,.33,.58,.33,.47,0,.7-.41,.7-1.22v-1.22c-.08,.09-.22,.14-.41,.14s-.39-.07-.6-.21c-.21-.14-.32-.34-.35-.58,.08,.06,.16,.09,.25,.09,.33,0,.6-.25,.8-.75,.21-.5,.31-1.11,.31-1.83v-20.82c0-.81-.23-1.22-.7-1.22-.22,0-.41,.11-.58,.33,0-.5,.16-.87,.47-1.1,.31-.23,.66-.35,1.05-.35,.27,0,.48,.05,.62,.14,.69-1.06,1.82-1.59,3.42-1.59Z"/><path class="bt" d="M262.68,133.4h1.77c.49,0,.93,.12,1.32,.35,.38,.23,.62,.55,.7,.96,.11-.41,.36-.73,.74-.96,.38-.23,.82-.35,1.32-.35h1.77v.47c-.41,0-.78,.18-1.11,.54-.33,.36-.49,.99-.49,1.9v21.71c0,.91,.16,1.54,.49,1.9,.33,.36,.7,.54,1.11,.54v.47h-1.77c-.49,0-.93-.12-1.32-.35-.38-.23-.63-.55-.74-.96-.08,.41-.32,.73-.72,.96-.4,.23-.83,.35-1.3,.35h-1.77v-.47c.41,0,.78-.18,1.11-.54,.33-.36,.49-.99,.49-1.9v-2.11c-.08,.09-.21,.14-.37,.14-.22,0-.43-.07-.62-.21-.19-.14-.32-.34-.37-.58,.11,.06,.21,.09,.29,.09,.3,0,.56-.25,.76-.75,.21-.5,.31-1.11,.31-1.83v-16.47c0-.9-.16-1.54-.49-1.9-.33-.36-.7-.54-1.11-.54v-.47Z"/><path class="bt" d="M271.4,133.4h1.36c.47,0,.92,.12,1.36,.35,.44,.23,.75,.55,.95,.96,0-.41,.17-.73,.51-.96,.34-.23,.76-.35,1.26-.35h1.85v.47c-.8,0-1.19,.48-1.19,1.45,0,.28,.04,.61,.12,.98l2.84,13.15,2.84-13.15c.08-.37,.12-.7,.12-.98,0-.97-.4-1.45-1.19-1.45v-.47h1.85c.49,0,.91,.12,1.23,.35,.33,.23,.51,.55,.54,.96,.16-.41,.47-.73,.93-.96,.45-.23,.91-.35,1.38-.35h1.36v.47c-.85,0-1.46,.81-1.81,2.43l-4.69,21.71c-.11,.47-.16,.87-.16,1.22,0,.81,.3,1.22,.91,1.22v.47h-1.56c-.47,0-.87-.12-1.21-.35-.34-.23-.51-.55-.51-.96,0,.41-.17,.73-.51,.96-.34,.23-.76,.35-1.26,.35h-1.52v-.47c.6,0,.91-.41,.91-1.22,0-.34-.06-.75-.16-1.22l-.45-2.11c-.06,.16-.23,.23-.53,.23-.58,0-.92-.3-1.03-.89,.11,.09,.23,.14,.37,.14,.47,0,.7-.42,.7-1.26,0-.31-.04-.67-.12-1.08l-3.62-16.75c-.36-1.62-.96-2.43-1.81-2.43v-.47Z"/><path class="bt" d="M290.62,133.4h1.77c.47,0,.9,.12,1.3,.35,.4,.23,.64,.55,.72,.96,.11-.41,.36-.73,.74-.96,.38-.23,.82-.35,1.32-.35h5.06c.49,0,.94,.12,1.34,.35,.4,.23,.65,.55,.76,.96,.08-.41,.32-.73,.72-.96,.4-.23,.84-.35,1.34-.35h1.77v.47c-.41,0-.78,.18-1.11,.54-.33,.36-.49,.99-.49,1.9v3.04c0,1.31-.36,2.29-1.09,2.95-.73,.66-1.57,.98-2.53,.98-.85,0-1.6-.22-2.24-.66-.65-.44-.97-.98-.97-1.64,.05,.06,.21,.09,.45,.09,.49,0,.97-.2,1.44-.61,.47-.41,.7-1.04,.7-1.92,0-1.53-.7-2.29-2.1-2.29h-1.28c-.41,0-.78,.18-1.11,.54-.33,.36-.49,.99-.49,1.9v7.44c.85-1.03,1.82-1.54,2.92-1.54,.69,0,1.23,.24,1.63,.73,.4,.48,.6,1.02,.6,1.61,0,.56-.11,1.05-.33,1.47-.22,.42-.49,.63-.82,.63,.03-.06,.04-.17,.04-.33,0-.31-.1-.62-.31-.94-.21-.31-.53-.47-.97-.47-.6,0-1.21,.39-1.83,1.17-.62,.78-.93,1.72-.93,2.81v4.31c0,.91,.16,1.54,.49,1.9,.33,.36,.7,.54,1.11,.54h1.28c1.4,0,2.1-.75,2.1-2.25,0-.87-.23-1.52-.7-1.94-.47-.42-.95-.63-1.44-.63-.25,0-.4,.05-.45,.14,0-.66,.32-1.2,.97-1.64,.64-.44,1.39-.66,2.24-.66,.96,0,1.8,.33,2.53,.98,.73,.66,1.09,1.64,1.09,2.95v3.04c0,.91,.16,1.54,.49,1.9,.33,.36,.7,.54,1.11,.54v.47h-1.77c-.49,0-.94-.12-1.34-.35-.4-.23-.64-.55-.72-.96-.11,.41-.36,.73-.76,.96-.4,.23-.84,.35-1.34,.35h-5.06c-.49,0-.93-.12-1.32-.35-.38-.23-.63-.55-.74-.96-.08,.41-.32,.73-.72,.96-.4,.23-.83,.35-1.3,.35h-1.77v-.47c.41,0,.78-.18,1.11-.54,.33-.36,.49-.99,.49-1.9v-2.11c-.08,.09-.21,.14-.37,.14-.22,0-.43-.07-.62-.21-.19-.14-.32-.34-.37-.58,.11,.06,.21,.09,.29,.09,.3,0,.56-.25,.76-.75,.21-.5,.31-1.11,.31-1.83v-16.47c0-.9-.16-1.54-.49-1.9-.33-.36-.7-.54-1.11-.54v-.47Z"/><path class="bt" d="M320.87,128.16h1.81c.47,0,.9,.12,1.3,.35,.4,.23,.65,.55,.76,.96,.08-.41,.32-.73,.72-.96,.4-.23,.84-.35,1.34-.35h1.81v.47c-.44,0-.82,.18-1.15,.54-.33,.36-.49,1.01-.49,1.94v10.58h2.39c.41,0,.78-.19,1.11-.56,.33-.37,.49-1.01,.49-1.92v-8.1c0-.94-.16-1.58-.49-1.94-.33-.36-.7-.54-1.11-.54v-.47h1.81c1.21,.19,1.89,.62,2.06,1.31,.08-.41,.32-.73,.72-.96,.4-.23,.84-.35,1.34-.35h1.77v.47c-.41,0-.78,.18-1.11,.54-.33,.36-.49,1.01-.49,1.94v7.86c0,1.37-.19,2.5-.58,3.37,1.21,.81,1.81,2.45,1.81,4.91v10.72c0,.94,.16,1.58,.49,1.94,.33,.36,.7,.54,1.11,.54v.47h-1.81c-.47,0-.9-.12-1.3-.35-.4-.23-.65-.55-.76-.96-.08,.41-.32,.73-.72,.96-.4,.23-.84,.35-1.34,.35h-1.81v-.47c.44,0,.82-.18,1.15-.54,.33-.36,.49-1.01,.49-1.94v-2.06c-.08,.09-.21,.14-.37,.14-.22,0-.43-.07-.62-.21-.19-.14-.32-.34-.37-.58,.11,.06,.21,.09,.29,.09,.3,0,.56-.25,.76-.75,.21-.5,.31-1.11,.31-1.83v-5.76c0-.94-.16-1.58-.49-1.94-.33-.36-.71-.54-1.15-.54h-3.58v13.43c0,.94,.16,1.58,.49,1.94,.33,.36,.71,.54,1.15,.54v.47h-1.81c-.49,0-.94-.12-1.34-.35-.4-.23-.64-.55-.72-.96-.11,.41-.36,.73-.76,.96-.4,.23-.83,.35-1.3,.35h-1.81v-.47c.41,0,.79-.18,1.13-.54,.34-.36,.51-1.01,.51-1.94v-2.06c-.08,.09-.22,.14-.41,.14s-.39-.07-.6-.21c-.21-.14-.32-.34-.35-.58,.08,.06,.16,.09,.25,.09,.33,0,.6-.25,.8-.75,.21-.5,.31-1.11,.31-1.83v-21.67c0-.94-.17-1.58-.51-1.94-.34-.36-.72-.54-1.13-.54v-.47Z"/><path class="bt" d="M339.44,133.4h1.77c.49,0,.93,.12,1.32,.35,.38,.23,.62,.55,.7,.96,.11-.41,.36-.73,.74-.96,.38-.23,.82-.35,1.32-.35h1.77v.47c-.41,0-.78,.18-1.11,.54-.33,.36-.49,.99-.49,1.9v21.71c0,.91,.17,1.54,.49,1.9,.33,.36,.7,.54,1.11,.54v.47h-1.77c-.49,0-.93-.12-1.32-.35-.39-.23-.63-.55-.74-.96-.08,.41-.32,.73-.72,.96-.4,.23-.83,.35-1.3,.35h-1.77v-.47c.41,0,.78-.18,1.11-.54,.33-.36,.49-.99,.49-1.9v-2.11c-.08,.09-.21,.14-.37,.14-.22,0-.43-.07-.62-.21-.19-.14-.32-.34-.37-.58,.11,.06,.21,.09,.29,.09,.3,0,.56-.25,.76-.75,.21-.5,.31-1.11,.31-1.83v-16.47c0-.9-.16-1.54-.49-1.9-.33-.36-.7-.54-1.11-.54v-.47Z"/><path class="bt" d="M353.76,132.27h.04c.49,0,.91,.2,1.24,.61-.3,0-.45,.25-.45,.75,0,.44,.11,.94,.33,1.5,.52,1.37,1.3,3.4,2.35,6.08,1.04,2.68,1.82,4.71,2.35,6.08v-11c0-.9-.16-1.54-.47-1.9-.32-.36-.69-.54-1.13-.54v-.47h1.77c.49,0,.93,.12,1.32,.35,.38,.23,.63,.55,.74,.96,.08-.41,.32-.73,.72-.96,.4-.23,.83-.35,1.3-.35h1.77v.47c-.41,0-.78,.18-1.11,.54-.33,.36-.49,.99-.49,1.9v21.71c0,.91,.16,1.54,.49,1.9,.33,.36,.7,.54,1.11,.54v.47h-1.77c-.47,0-.9-.12-1.3-.35-.4-.23-.64-.55-.72-.96-.11,.41-.36,.73-.74,.96-.38,.23-.82,.35-1.32,.35h-1.77v-.47c.44,0,.82-.18,1.13-.54,.31-.36,.47-.99,.47-1.9v-1.78c-2.91-7.52-4.72-12.2-5.43-14.04v15.82c0,.91,.16,1.54,.49,1.9,.33,.36,.7,.54,1.11,.54v.47h-1.77c-.49,0-.93-.12-1.32-.35-.39-.23-.63-.55-.74-.96-.08,.41-.32,.73-.72,.96-.4,.23-.83,.35-1.3,.35h-1.77v-.47c.41,0,.78-.18,1.11-.54,.33-.36,.49-.99,.49-1.9v-2.11c-.08,.09-.21,.14-.37,.14-.22,0-.43-.07-.62-.21-.19-.14-.32-.34-.37-.58,.11,.06,.21,.09,.29,.09,.3,0,.56-.25,.76-.75,.21-.5,.31-1.11,.31-1.83v-16.47c0-.9-.16-1.54-.49-1.9-.33-.36-.7-.54-1.11-.54v-.47h1.77c.47,0,.89,.1,1.26,.3,.37,.2,.62,.49,.76,.87,0-.69,.18-1.24,.53-1.66s.78-.63,1.28-.63Z"/><path class="bt" d="M372.32,133.4h5.14c.49,0,.94,.12,1.34,.35,.4,.23,.64,.55,.72,.96,.11-.41,.36-.73,.76-.96,.4-.23,.84-.35,1.34-.35h1.77v.47c-.44,0-.82,.18-1.13,.54-.32,.36-.47,.99-.47,1.9v3.04c0,1.31-.36,2.29-1.09,2.95-.73,.66-1.57,.98-2.53,.98-.85,0-1.6-.22-2.24-.66-.65-.44-.97-.98-.97-1.64,.05,.06,.21,.09,.45,.09,.49,0,.97-.2,1.44-.61,.47-.41,.7-1.04,.7-1.92,0-1.53-.7-2.29-2.1-2.29h-1.32c-.41,0-.79,.19-1.13,.56-.34,.37-.51,1.01-.51,1.92v16.85c0,.91,.17,1.54,.51,1.9,.34,.36,.72,.54,1.13,.54h1.65c.38,0,.73-.16,1.05-.47,.31-.31,.5-.86,.56-1.64-.08,.09-.21,.14-.37,.14-.22,0-.43-.07-.62-.21-.19-.14-.32-.34-.37-.58,.08,.06,.18,.09,.29,.09,.3,0,.56-.25,.76-.75,.21-.5,.31-1.11,.31-1.83v-1.4c0-.9-.16-1.54-.49-1.89-.33-.36-.7-.54-1.11-.54s-.76,.15-1.05,.44c-.29,.3-.43,.76-.43,1.38h-.41v-4.73h3.66c.47,0,.9,.12,1.3,.35,.4,.23,.64,.55,.72,.96,.11-.41,.36-.73,.74-.96,.38-.23,.82-.35,1.32-.35h1.77v.47c-.44,0-.82,.18-1.13,.54-.32,.36-.47,.99-.47,1.9v9.08c0,.91,.16,1.54,.47,1.9,.31,.36,.69,.54,1.13,.54v.47h-1.77c-.49,0-.93-.12-1.32-.35-.38-.23-.63-.55-.74-.96-.08,.41-.32,.73-.72,.96-.4,.23-.83,.35-1.3,.35h-5.23c-1.54,0-2.65-.53-3.33-1.59-.14,.09-.34,.14-.62,.14-.38,0-.73-.12-1.05-.35-.32-.23-.47-.58-.47-1.05,.16,.22,.36,.33,.58,.33,.47,0,.7-.41,.7-1.22v-1.26c-.08,.09-.22,.14-.41,.14s-.39-.07-.6-.21c-.21-.14-.32-.34-.35-.58,.08,.06,.17,.09,.25,.09,.33,0,.6-.25,.8-.75,.21-.5,.31-1.11,.31-1.83v-15.63c0-.81-.23-1.22-.7-1.22-.22,0-.41,.11-.58,.33,0-.5,.16-.87,.47-1.1,.31-.23,.67-.35,1.05-.35,.27,0,.48,.06,.62,.19,.69-1.06,1.8-1.59,3.33-1.59Z"/><path class="bt" d="M396.81,128.16h1.81c.47,0,.9,.12,1.3,.35,.4,.23,.65,.55,.76,.96,.08-.41,.32-.73,.72-.96,.4-.23,.84-.35,1.34-.35h1.81v.47c-.44,0-.82,.18-1.15,.54-.33,.36-.49,1.01-.49,1.94v10.72c.38-.47,.78-.7,1.19-.7,.52,0,1.17,.44,1.93,1.31l1.03,1.17c.44,.47,.8,.8,1.07,.98v-13.48c0-.94-.16-1.58-.49-1.94-.33-.36-.71-.54-1.15-.54v-.47h1.81c.49,0,.94,.12,1.34,.35,.4,.23,.64,.55,.72,.96,.11-.41,.36-.73,.76-.96,.4-.23,.83-.35,1.3-.35h1.81v.47c-.41,0-.78,.18-1.11,.54-.33,.36-.49,1.01-.49,1.94v26.86c0,.94,.17,1.58,.49,1.94,.33,.36,.7,.54,1.11,.54v.47h-1.81c-.47,0-.9-.12-1.3-.35-.4-.23-.65-.55-.76-.96-.08,.41-.32,.73-.72,.96-.4,.23-.84,.35-1.34,.35h-1.81v-.47c.44,0,.82-.18,1.15-.54,.33-.36,.49-1.01,.49-1.94v-2.06c-.08,.09-.21,.14-.37,.14-.22,0-.43-.07-.62-.21-.19-.14-.32-.34-.37-.58,.11,.06,.21,.09,.29,.09,.3,0,.56-.25,.76-.75,.21-.5,.31-1.11,.31-1.83v-5.52c-.38,.47-.78,.7-1.19,.7-.49,0-1.14-.44-1.93-1.31l-1.03-1.17c-.44-.47-.8-.8-1.07-.98v13.48c0,.94,.16,1.58,.49,1.94,.33,.36,.71,.54,1.15,.54v.47h-1.81c-.49,0-.94-.12-1.34-.35-.4-.23-.64-.55-.72-.96-.11,.41-.36,.73-.76,.96-.4,.23-.83,.35-1.3,.35h-1.81v-.47c.41,0,.79-.18,1.13-.54,.34-.36,.51-1.01,.51-1.94v-2.06c-.08,.09-.22,.14-.41,.14s-.39-.07-.6-.21c-.21-.14-.32-.34-.35-.58,.08,.06,.16,.09,.25,.09,.33,0,.6-.25,.8-.75,.21-.5,.31-1.11,.31-1.83v-21.67c0-.94-.17-1.58-.51-1.94-.34-.36-.72-.54-1.13-.54v-.47Z"/><path class="bt" d="M415.38,133.4h1.77c.47,0,.9,.12,1.3,.35,.4,.23,.64,.55,.72,.96,.11-.41,.36-.73,.74-.96,.38-.23,.82-.35,1.32-.35h5.06c.49,0,.94,.12,1.34,.35,.4,.23,.65,.55,.76,.96,.08-.41,.32-.73,.72-.96,.4-.23,.84-.35,1.34-.35h1.77v.47c-.41,0-.78,.18-1.11,.54-.33,.36-.49,.99-.49,1.9v3.04c0,1.31-.36,2.29-1.09,2.95-.73,.66-1.57,.98-2.53,.98-.85,0-1.6-.22-2.24-.66-.64-.44-.97-.98-.97-1.64,.05,.06,.21,.09,.45,.09,.49,0,.97-.2,1.44-.61,.47-.41,.7-1.04,.7-1.92,0-1.53-.7-2.29-2.1-2.29h-1.28c-.41,0-.78,.18-1.11,.54-.33,.36-.49,.99-.49,1.9v7.44c.85-1.03,1.82-1.54,2.92-1.54,.69,0,1.23,.24,1.63,.73,.4,.48,.6,1.02,.6,1.61,0,.56-.11,1.05-.33,1.47-.22,.42-.49,.63-.82,.63,.03-.06,.04-.17,.04-.33,0-.31-.1-.62-.31-.94-.21-.31-.53-.47-.97-.47-.6,0-1.21,.39-1.83,1.17-.62,.78-.93,1.72-.93,2.81v4.31c0,.91,.16,1.54,.49,1.9,.33,.36,.7,.54,1.11,.54h1.28c1.4,0,2.1-.75,2.1-2.25,0-.87-.23-1.52-.7-1.94-.47-.42-.95-.63-1.44-.63-.25,0-.4,.05-.45,.14,0-.66,.32-1.2,.97-1.64,.64-.44,1.39-.66,2.24-.66,.96,0,1.8,.33,2.53,.98,.73,.66,1.09,1.64,1.09,2.95v3.04c0,.91,.16,1.54,.49,1.9,.33,.36,.7,.54,1.11,.54v.47h-1.77c-.49,0-.94-.12-1.34-.35-.4-.23-.64-.55-.72-.96-.11,.41-.36,.73-.76,.96-.4,.23-.84,.35-1.34,.35h-5.06c-.49,0-.93-.12-1.32-.35-.39-.23-.63-.55-.74-.96-.08,.41-.32,.73-.72,.96-.4,.23-.83,.35-1.3,.35h-1.77v-.47c.41,0,.78-.18,1.11-.54,.33-.36,.49-.99,.49-1.9v-2.11c-.08,.09-.21,.14-.37,.14-.22,0-.43-.07-.62-.21-.19-.14-.32-.34-.37-.58,.11,.06,.21,.09,.29,.09,.3,0,.56-.25,.76-.75,.21-.5,.31-1.11,.31-1.83v-16.47c0-.9-.16-1.54-.49-1.9-.33-.36-.7-.54-1.11-.54v-.47Z"/><path class="bt" d="M438.92,132.27h.04c.49,0,.91,.2,1.24,.61-.3,0-.45,.25-.45,.75,0,.44,.11,.94,.33,1.5,.52,1.37,1.3,3.4,2.35,6.08,1.04,2.68,1.82,4.71,2.35,6.08v-11c0-.9-.16-1.54-.47-1.9-.32-.36-.69-.54-1.13-.54v-.47h1.77c.49,0,.93,.12,1.32,.35,.38,.23,.63,.55,.74,.96,.08-.41,.32-.73,.72-.96,.4-.23,.83-.35,1.3-.35h1.77v.47c-.41,0-.78,.18-1.11,.54-.33,.36-.49,.99-.49,1.9v21.71c0,.91,.16,1.54,.49,1.9,.33,.36,.7,.54,1.11,.54v.47h-1.77c-.47,0-.9-.12-1.3-.35-.4-.23-.64-.55-.72-.96-.11,.41-.36,.73-.74,.96-.38,.23-.82,.35-1.32,.35h-1.77v-.47c.44,0,.82-.18,1.13-.54s.47-.99,.47-1.9v-1.78c-2.91-7.52-4.72-12.2-5.43-14.04v15.82c0,.91,.16,1.54,.49,1.9,.33,.36,.7,.54,1.11,.54v.47h-1.77c-.49,0-.93-.12-1.32-.35-.39-.23-.63-.55-.74-.96-.08,.41-.32,.73-.72,.96-.4,.23-.83,.35-1.3,.35h-1.77v-.47c.41,0,.78-.18,1.11-.54,.33-.36,.49-.99,.49-1.9v-2.11c-.08,.09-.21,.14-.37,.14-.22,0-.43-.07-.62-.21-.19-.14-.32-.34-.37-.58,.11,.06,.21,.09,.29,.09,.3,0,.56-.25,.76-.75,.21-.5,.31-1.11,.31-1.83v-16.47c0-.9-.16-1.54-.49-1.9-.33-.36-.7-.54-1.11-.54v-.47h1.77c.47,0,.89,.1,1.26,.3,.37,.2,.62,.49,.76,.87,0-.69,.18-1.24,.53-1.66,.36-.42,.78-.63,1.28-.63Z"/><path class="bt" d="M451.92,133.4h1.77c.47,0,.9,.12,1.3,.35,.4,.23,.64,.55,.72,.96,.11-.41,.36-.73,.74-.96,.38-.23,.82-.35,1.32-.35h4.77c1.4,0,2.46,.43,3.17,1.29,.71,.86,1.07,2.29,1.07,4.28v4.07c0,1.84-.32,3.21-.95,4.12,.63,.94,.95,2.32,.95,4.16v6.69c0,.91,.16,1.54,.49,1.9,.33,.36,.7,.54,1.11,.54v.47h-1.77c-.47,0-.9-.12-1.3-.35-.4-.23-.64-.55-.72-.96-.11,.41-.36,.73-.74,.96s-.82,.35-1.32,.35h-1.77v-.47c.41,0,.78-.18,1.11-.54,.33-.36,.49-.99,.49-1.9v-2.11c-.08,.09-.21,.14-.37,.14-.22,0-.43-.07-.62-.21-.19-.14-.3-.34-.33-.58,.08,.06,.16,.09,.25,.09,.3,0,.56-.25,.76-.75,.21-.5,.31-1.11,.31-1.83v-1.68c0-.9-.17-1.54-.49-1.92-.33-.37-.7-.56-1.11-.56h-2.84v9.41c0,.91,.16,1.54,.49,1.9,.33,.36,.7,.54,1.11,.54v.47h-1.77c-.49,0-.93-.12-1.32-.35-.39-.23-.63-.55-.74-.96-.08,.41-.32,.73-.72,.96-.4,.23-.83,.35-1.3,.35h-1.77v-.47c.41,0,.78-.18,1.11-.54,.33-.36,.49-.99,.49-1.9v-2.11c-.08,.09-.21,.14-.37,.14-.22,0-.43-.07-.62-.21-.19-.14-.32-.34-.37-.58,.11,.06,.21,.09,.29,.09,.3,0,.56-.25,.76-.75,.21-.5,.31-1.11,.31-1.83v-16.47c0-.9-.16-1.54-.49-1.9-.33-.36-.7-.54-1.11-.54v-.47Zm7.62,2.85c-.41,0-.78,.18-1.11,.54-.33,.36-.49,.99-.49,1.9v7.07h2.84c.41,0,.78-.19,1.11-.56,.33-.37,.49-1.01,.49-1.92v-4.54c0-.9-.17-1.54-.49-1.92-.33-.37-.7-.56-1.11-.56h-1.23Z"/><path class="bt" d="M467.89,133.4h1.61c.49,0,.97,.12,1.44,.35,.47,.23,.82,.55,1.07,.96-.05-.41,.07-.73,.37-.96,.3-.23,.69-.35,1.15-.35h1.98v.47c-.66,0-.99,.34-.99,1.03,0,.37,.11,.84,.33,1.4l1.98,5.15,1.98-5.15c.22-.56,.33-1.03,.33-1.4,0-.69-.33-1.03-.99-1.03v-.47h1.93c.49,0,.89,.12,1.19,.35,.3,.23,.41,.55,.33,.96,.27-.41,.64-.73,1.11-.96,.47-.23,.95-.35,1.44-.35h1.6v.47c-1.07,0-1.92,.81-2.55,2.43l-4.2,10.86v10.86c0,.91,.16,1.54,.49,1.9,.33,.36,.7,.54,1.11,.54v.47h-1.77c-.47,0-.9-.12-1.3-.35-.4-.23-.64-.55-.72-.96-.11,.41-.36,.73-.74,.96-.38,.23-.81,.35-1.28,.35h-1.81v-.47c.44,0,.82-.18,1.13-.54s.47-.99,.47-1.9v-2.11c-.06,.09-.18,.14-.37,.14-.22,0-.43-.07-.62-.21-.19-.14-.3-.34-.33-.58,.08,.06,.17,.09,.25,.09,.3,0,.56-.25,.76-.75,.21-.5,.31-1.11,.31-1.83v-5.62l-4.16-10.86c-.63-1.62-1.48-2.43-2.55-2.43v-.47Z"/><path class="bt" d="M499.17,128.16h1.36c.49,0,.97,.12,1.42,.35,.45,.23,.76,.55,.93,.96,.03-.41,.21-.73,.56-.96,.34-.23,.76-.35,1.25-.35h1.89v.47c-.82,0-1.24,.5-1.24,1.5,0,.28,.04,.61,.12,.98l3.91,18.16,3.95-18.16c.08-.37,.12-.7,.12-.98,0-1-.41-1.5-1.24-1.5v-.47h1.89c.49,0,.91,.12,1.25,.35,.34,.23,.53,.55,.56,.96,.16-.41,.47-.73,.93-.96,.45-.23,.93-.35,1.42-.35h1.36v.47c-.88,0-1.5,.83-1.85,2.48l-5.8,26.86c-.11,.5-.16,.92-.16,1.26,0,.81,.31,1.22,.95,1.22v.47h-1.56c-.49,0-.91-.12-1.26-.35-.34-.23-.53-.55-.56-.96,0,.41-.17,.73-.51,.96-.34,.23-.76,.35-1.26,.35h-1.56v-.47c.63,0,.95-.41,.95-1.22,0-.34-.05-.76-.16-1.26-.06-.22-.13-.56-.23-1.03-.1-.47-.17-.81-.23-1.03-.08,.16-.26,.23-.53,.23-.58,0-.93-.3-1.07-.89,.14,.09,.27,.14,.41,.14,.47,0,.7-.42,.7-1.26,0-.31-.04-.67-.12-1.08-.47-2.15-1.24-5.69-2.3-10.62-1.07-4.93-1.88-8.7-2.43-11.32-.36-1.65-.97-2.48-1.85-2.48v-.47Z"/><path class="bt" d="M520.74,128.16h1.81c.47,0,.9,.12,1.3,.35,.4,.23,.65,.55,.76,.96,.08-.41,.32-.73,.72-.96,.4-.23,.84-.35,1.34-.35h1.81v.47c-.44,0-.82,.18-1.15,.54-.33,.36-.49,1.01-.49,1.94v26.86c0,.94,.16,1.58,.49,1.94,.33,.36,.71,.54,1.15,.54v.47h-1.81c-.49,0-.94-.12-1.34-.35-.4-.23-.64-.55-.72-.96-.11,.41-.36,.73-.76,.96-.4,.23-.83,.35-1.3,.35h-1.81v-.47c.41,0,.79-.18,1.13-.54,.34-.36,.51-1.01,.51-1.94v-2.06c-.08,.09-.22,.14-.41,.14s-.39-.07-.6-.21c-.21-.14-.32-.34-.35-.58,.08,.06,.16,.09,.25,.09,.33,0,.6-.25,.8-.75,.21-.5,.31-1.11,.31-1.83v-21.67c0-.94-.17-1.58-.51-1.94-.34-.36-.72-.54-1.13-.54v-.47Z"/><path class="bt" d="M529.59,128.16h1.81c.47,0,.9,.12,1.3,.35,.4,.23,.65,.55,.76,.96,.08-.41,.32-.73,.72-.96,.4-.23,.84-.35,1.34-.35h1.81v.47c-.44,0-.82,.18-1.15,.54-.33,.36-.49,1.01-.49,1.94v26.86c0,.94,.16,1.58,.49,1.94,.33,.36,.71,.54,1.15,.54v.47h-1.81c-.49,0-.94-.12-1.34-.35-.4-.23-.64-.55-.72-.96-.11,.41-.36,.73-.76,.96-.4,.23-.83,.35-1.3,.35h-1.81v-.47c.41,0,.79-.18,1.13-.54,.34-.36,.51-1.01,.51-1.94v-2.06c-.08,.09-.22,.14-.41,.14s-.39-.07-.6-.21c-.21-.14-.32-.34-.35-.58,.08,.06,.16,.09,.25,.09,.33,0,.6-.25,.8-.75,.21-.5,.31-1.11,.31-1.83v-21.67c0-.94-.17-1.58-.51-1.94-.34-.36-.72-.54-1.13-.54v-.47Z"/><path class="bt" d="M538.44,128.16h1.81c.47,0,.9,.12,1.3,.35,.4,.23,.65,.55,.76,.96,.08-.41,.32-.73,.72-.96,.4-.23,.84-.35,1.34-.35h1.81v.47c-.44,0-.82,.18-1.15,.54-.33,.36-.49,1.01-.49,1.94v26.86c0,.94,.16,1.58,.49,1.94,.33,.36,.71,.54,1.15,.54v.47h-1.81c-.49,0-.94-.12-1.34-.35-.4-.23-.64-.55-.72-.96-.11,.41-.36,.73-.76,.96-.4,.23-.83,.35-1.3,.35h-1.81v-.47c.41,0,.79-.18,1.13-.54,.34-.36,.51-1.01,.51-1.94v-2.06c-.08,.09-.22,.14-.41,.14s-.39-.07-.6-.21c-.21-.14-.32-.34-.35-.58,.08,.06,.16,.09,.25,.09,.33,0,.6-.25,.8-.75,.21-.5,.31-1.11,.31-1.83v-21.67c0-.94-.17-1.58-.51-1.94-.34-.36-.72-.54-1.13-.54v-.47Z"/><path class="bt" d="M314.31,189.55h1.52c.49,0,.91,.12,1.26,.35,.34,.23,.51,.55,.51,.96,0-.41,.17-.73,.51-.96,.34-.23,.75-.35,1.21-.35h1.56v.47c-.6,0-.91,.39-.91,1.17,0,.34,.05,.76,.16,1.26l4.69,21.71c.36,1.62,.96,2.43,1.81,2.43v.47h-1.36c-.47,0-.93-.12-1.38-.35-.45-.23-.76-.55-.93-.96-.03,.41-.21,.73-.54,.96s-.74,.35-1.23,.35h-1.85v-.47c.8,0,1.19-.48,1.19-1.45,0-.28-.04-.61-.12-.98l-.33-1.4c-.36,.41-.71,.61-1.07,.61-.52,0-1.18-.44-1.98-1.31l-1.03-1.17c-.16-.19-.32-.36-.45-.52l-.82,3.79c-.08,.37-.12,.7-.12,.98,0,.97,.4,1.45,1.19,1.45v.47h-1.85c-.49,0-.91-.12-1.26-.35-.34-.23-.51-.55-.51-.96-.19,.41-.51,.73-.95,.96-.44,.23-.89,.35-1.36,.35h-1.36v-.47c.85,0,1.45-.81,1.81-2.43l.45-2.11c-.14,.16-.3,.23-.49,.23s-.38-.09-.56-.26c-.18-.17-.25-.38-.23-.63,.08,.06,.18,.09,.29,.09,.3,0,.61-.24,.93-.73,.32-.48,.56-1.1,.72-1.85l3.58-16.47c.11-.5,.16-.92,.16-1.26,0-.78-.3-1.17-.91-1.17v-.47Zm3.29,11.46l-1.19,5.52c.47,.13,1.03,.56,1.69,1.31l1.07,1.17c.08,.09,.15,.19,.21,.28l-1.77-8.28Z"/><path class="bt" d="M344.85,188.43h.04c.49,0,.9,.2,1.24,.61-.3,0-.45,.25-.45,.75,0,.44,.11,.94,.33,1.5l3.13,8.05,3.09-8.05c.25-.56,.37-1.06,.37-1.5,0-.5-.17-.75-.49-.75,.33-.41,.74-.61,1.24-.61h.04c.49,0,.92,.21,1.28,.63s.53,.98,.53,1.66c.14-.37,.4-.66,.78-.87,.38-.2,.8-.3,1.24-.3h1.77v.47c-.41,0-.78,.18-1.11,.54-.33,.36-.49,.99-.49,1.9v21.71c0,.91,.17,1.54,.49,1.9,.33,.36,.7,.54,1.11,.54v.47h-1.77c-.47,0-.9-.12-1.3-.35-.4-.23-.64-.55-.72-.96-.11,.41-.36,.73-.74,.96-.38,.23-.82,.35-1.32,.35h-1.77v-.47c.41,0,.78-.18,1.11-.54,.33-.36,.49-.99,.49-1.9v-2.11c-.08,.09-.21,.14-.37,.14-.22,0-.43-.07-.62-.21-.19-.14-.3-.34-.33-.58,.08,.06,.17,.09,.25,.09,.3,0,.56-.25,.76-.75,.21-.5,.31-1.11,.31-1.83v-10.58c-1.1,2.81-2.18,5.62-3.25,8.42h-1.19c-1.45-3.74-2.54-6.55-3.25-8.42v15.82c0,.91,.17,1.54,.49,1.9,.33,.36,.7,.54,1.11,.54v.47h-1.77c-.49,0-.93-.12-1.32-.35-.39-.23-.63-.55-.74-.96-.08,.41-.32,.73-.72,.96-.4,.23-.83,.35-1.3,.35h-1.77v-.47c.41,0,.78-.18,1.11-.54,.33-.36,.49-.99,.49-1.9v-2.11c-.08,.09-.21,.14-.37,.14-.22,0-.43-.07-.62-.21-.19-.14-.32-.34-.37-.58,.11,.06,.21,.09,.29,.09,.3,0,.56-.25,.76-.75,.21-.5,.31-1.11,.31-1.83v-16.47c0-.9-.16-1.54-.49-1.9-.33-.36-.7-.54-1.11-.54v-.47h1.77c.47,0,.88,.1,1.26,.3,.37,.2,.62,.49,.76,.87,0-.69,.18-1.24,.53-1.66,.36-.42,.78-.63,1.28-.63Z"/><path class="bt" d="M365.88,189.55h1.52c.49,0,.91,.12,1.26,.35,.34,.23,.51,.55,.51,.96,0-.41,.17-.73,.51-.96,.34-.23,.75-.35,1.21-.35h1.56v.47c-.6,0-.91,.39-.91,1.17,0,.34,.05,.76,.17,1.26l4.69,21.71c.36,1.62,.96,2.43,1.81,2.43v.47h-1.36c-.47,0-.93-.12-1.38-.35-.45-.23-.76-.55-.93-.96-.03,.41-.21,.73-.53,.96-.33,.23-.74,.35-1.24,.35h-1.85v-.47c.8,0,1.19-.48,1.19-1.45,0-.28-.04-.61-.12-.98l-.33-1.4c-.36,.41-.71,.61-1.07,.61-.52,0-1.18-.44-1.98-1.31l-1.03-1.17c-.17-.19-.32-.36-.45-.52l-.82,3.79c-.08,.37-.12,.7-.12,.98,0,.97,.4,1.45,1.19,1.45v.47h-1.85c-.49,0-.91-.12-1.26-.35-.34-.23-.51-.55-.51-.96-.19,.41-.51,.73-.95,.96-.44,.23-.89,.35-1.36,.35h-1.36v-.47c.85,0,1.45-.81,1.81-2.43l.45-2.11c-.14,.16-.3,.23-.49,.23s-.38-.09-.56-.26c-.18-.17-.25-.38-.23-.63,.08,.06,.18,.09,.29,.09,.3,0,.61-.24,.93-.73,.31-.48,.56-1.1,.72-1.85l3.58-16.47c.11-.5,.16-.92,.16-1.26,0-.78-.3-1.17-.91-1.17v-.47Zm3.29,11.46l-1.19,5.52c.47,.13,1.03,.56,1.69,1.31l1.07,1.17c.08,.09,.15,.19,.21,.28l-1.77-8.28Z"/><path class="bt" d="M379.34,189.55h1.77c.47,0,.9,.12,1.3,.35,.4,.23,.64,.55,.72,.96,.11-.41,.36-.73,.74-.96,.38-.23,.82-.35,1.32-.35h1.77v.47c-.41,0-.78,.18-1.11,.54-.33,.36-.49,.99-.49,1.9v19.28c0,.91,.16,1.54,.49,1.9,.33,.36,.7,.54,1.11,.54s.76-.15,1.05-.44c.29-.3,.43-.76,.43-1.38h.41v4.73h-3.66c-.49,0-.93-.12-1.32-.35-.39-.23-.63-.55-.74-.96-.08,.41-.32,.73-.72,.96-.4,.23-.83,.35-1.3,.35h-1.77v-.47c.41,0,.78-.18,1.11-.54,.33-.36,.49-.99,.49-1.9v-2.11c-.08,.09-.21,.14-.37,.14-.22,0-.43-.07-.62-.21-.19-.14-.32-.34-.37-.58,.11,.06,.21,.09,.29,.09,.3,0,.56-.25,.76-.75,.21-.5,.31-1.11,.31-1.83v-16.47c0-.9-.16-1.54-.49-1.9-.33-.36-.7-.54-1.11-.54v-.47Z"/><path class="bt" d="M390.37,189.55h1.77c.47,0,.9,.12,1.3,.35,.4,.23,.64,.55,.72,.96,.11-.41,.36-.73,.74-.96,.38-.23,.82-.35,1.32-.35h5.06c.49,0,.94,.12,1.34,.35,.4,.23,.65,.55,.76,.96,.08-.41,.32-.73,.72-.96,.4-.23,.84-.35,1.34-.35h1.77v.47c-.41,0-.78,.18-1.11,.54-.33,.36-.49,.99-.49,1.9v3.04c0,1.31-.36,2.29-1.09,2.95-.73,.66-1.57,.98-2.53,.98-.85,0-1.6-.22-2.24-.66-.64-.44-.97-.98-.97-1.64,.05,.06,.21,.09,.45,.09,.49,0,.97-.2,1.44-.61,.47-.41,.7-1.04,.7-1.92,0-1.53-.7-2.29-2.1-2.29h-1.28c-.41,0-.78,.18-1.11,.54-.33,.36-.49,.99-.49,1.9v7.44c.85-1.03,1.82-1.54,2.92-1.54,.69,0,1.23,.24,1.63,.73,.4,.48,.6,1.02,.6,1.61,0,.56-.11,1.05-.33,1.47-.22,.42-.49,.63-.82,.63,.03-.06,.04-.17,.04-.33,0-.31-.1-.62-.31-.94-.21-.31-.53-.47-.97-.47-.6,0-1.21,.39-1.83,1.17-.62,.78-.93,1.72-.93,2.81v4.31c0,.91,.16,1.54,.49,1.9,.33,.36,.7,.54,1.11,.54h1.28c1.4,0,2.1-.75,2.1-2.25,0-.87-.23-1.52-.7-1.94-.47-.42-.95-.63-1.44-.63-.25,0-.4,.05-.45,.14,0-.66,.32-1.2,.97-1.64,.64-.44,1.39-.66,2.24-.66,.96,0,1.8,.33,2.53,.98,.73,.66,1.09,1.64,1.09,2.95v3.04c0,.91,.16,1.54,.49,1.9,.33,.36,.7,.54,1.11,.54v.47h-1.77c-.49,0-.94-.12-1.34-.35-.4-.23-.64-.55-.72-.96-.11,.41-.36,.73-.76,.96-.4,.23-.84,.35-1.34,.35h-5.06c-.49,0-.93-.12-1.32-.35-.39-.23-.63-.55-.74-.96-.08,.41-.32,.73-.72,.96-.4,.23-.83,.35-1.3,.35h-1.77v-.47c.41,0,.78-.18,1.11-.54,.33-.36,.49-.99,.49-1.9v-2.11c-.08,.09-.21,.14-.37,.14-.22,0-.43-.07-.62-.21-.19-.14-.32-.34-.37-.58,.11,.06,.21,.09,.29,.09,.3,0,.56-.25,.76-.75,.21-.5,.31-1.11,.31-1.83v-16.47c0-.9-.16-1.54-.49-1.9-.33-.36-.7-.54-1.11-.54v-.47Z"/><path class="bt" d="M420.62,189.55h1.77c.49,0,.93,.12,1.32,.35,.38,.23,.62,.55,.7,.96,.11-.41,.36-.73,.74-.96,.38-.23,.82-.35,1.32-.35h1.77v.47c-.41,0-.78,.18-1.11,.54-.33,.36-.49,.99-.49,1.9v7.96c.33-.37,.66-.56,.99-.56,.52,0,1.17,.45,1.93,1.36l1.07,1.17c.33,.37,.62,.66,.86,.84v-10.76c0-.9-.16-1.54-.49-1.9-.33-.36-.7-.54-1.11-.54v-.47h1.77c.49,0,.93,.12,1.32,.35,.38,.23,.63,.55,.74,.96,.08-.41,.32-.73,.72-.96,.4-.23,.83-.35,1.3-.35h1.77v.47c-.41,0-.78,.18-1.11,.54-.33,.36-.49,.99-.49,1.9v21.71c0,.91,.16,1.54,.49,1.9,.33,.36,.7,.54,1.11,.54v.47h-1.77c-.47,0-.9-.12-1.3-.35-.4-.23-.64-.55-.72-.96-.11,.41-.36,.73-.74,.96-.38,.23-.82,.35-1.32,.35h-1.77v-.47c.41,0,.78-.18,1.11-.54,.33-.36,.49-.99,.49-1.9v-2.11c-.08,.09-.21,.14-.37,.14-.22,0-.43-.07-.62-.21-.19-.14-.3-.34-.33-.58,.08,.06,.16,.09,.25,.09,.3,0,.56-.25,.76-.75,.21-.5,.31-1.11,.31-1.83v-2.71c-.33,.34-.66,.51-.99,.51-.52,0-1.17-.44-1.93-1.31l-1.07-1.17c-.33-.41-.62-.7-.86-.89v10.81c0,.91,.16,1.54,.49,1.9,.33,.36,.7,.54,1.11,.54v.47h-1.77c-.49,0-.93-.12-1.32-.35-.39-.23-.63-.55-.74-.96-.08,.41-.32,.73-.72,.96-.4,.23-.83,.35-1.3,.35h-1.77v-.47c.41,0,.78-.18,1.11-.54,.33-.36,.49-.99,.49-1.9v-2.11c-.08,.09-.21,.14-.37,.14-.22,0-.43-.07-.62-.21-.19-.14-.32-.34-.37-.58,.11,.06,.21,.09,.29,.09,.3,0,.56-.25,.76-.75,.21-.5,.31-1.11,.31-1.83v-16.47c0-.9-.16-1.54-.49-1.9-.33-.36-.7-.54-1.11-.54v-.47Z"/><path class="bt" d="M438.65,189.55h1.77c.47,0,.9,.12,1.3,.35,.4,.23,.64,.55,.72,.96,.11-.41,.36-.73,.74-.96,.38-.23,.82-.35,1.32-.35h5.06c.49,0,.94,.12,1.34,.35,.4,.23,.65,.55,.76,.96,.08-.41,.32-.73,.72-.96,.4-.23,.84-.35,1.34-.35h1.77v.47c-.41,0-.78,.18-1.11,.54-.33,.36-.49,.99-.49,1.9v3.04c0,1.31-.36,2.29-1.09,2.95-.73,.66-1.57,.98-2.53,.98-.85,0-1.6-.22-2.24-.66-.64-.44-.97-.98-.97-1.64,.05,.06,.21,.09,.45,.09,.49,0,.97-.2,1.44-.61,.47-.41,.7-1.04,.7-1.92,0-1.53-.7-2.29-2.1-2.29h-1.28c-.41,0-.78,.18-1.11,.54-.33,.36-.49,.99-.49,1.9v7.44c.85-1.03,1.82-1.54,2.92-1.54,.69,0,1.23,.24,1.63,.73,.4,.48,.6,1.02,.6,1.61,0,.56-.11,1.05-.33,1.47-.22,.42-.49,.63-.82,.63,.03-.06,.04-.17,.04-.33,0-.31-.1-.62-.31-.94-.21-.31-.53-.47-.97-.47-.6,0-1.21,.39-1.83,1.17-.62,.78-.93,1.72-.93,2.81v4.31c0,.91,.16,1.54,.49,1.9,.33,.36,.7,.54,1.11,.54h1.28c1.4,0,2.1-.75,2.1-2.25,0-.87-.23-1.52-.7-1.94s-.95-.63-1.44-.63c-.25,0-.4,.05-.45,.14,0-.66,.32-1.2,.97-1.64,.64-.44,1.39-.66,2.24-.66,.96,0,1.8,.33,2.53,.98,.73,.66,1.09,1.64,1.09,2.95v3.04c0,.91,.16,1.54,.49,1.9,.33,.36,.7,.54,1.11,.54v.47h-1.77c-.49,0-.94-.12-1.34-.35-.4-.23-.64-.55-.72-.96-.11,.41-.36,.73-.76,.96-.4,.23-.84,.35-1.34,.35h-5.06c-.49,0-.93-.12-1.32-.35-.39-.23-.63-.55-.74-.96-.08,.41-.32,.73-.72,.96-.4,.23-.83,.35-1.3,.35h-1.77v-.47c.41,0,.78-.18,1.11-.54,.33-.36,.49-.99,.49-1.9v-2.11c-.08,.09-.21,.14-.37,.14-.22,0-.43-.07-.62-.21-.19-.14-.32-.34-.37-.58,.11,.06,.21,.09,.29,.09,.3,0,.56-.25,.76-.75,.21-.5,.31-1.11,.31-1.83v-16.47c0-.9-.16-1.54-.49-1.9-.33-.36-.7-.54-1.11-.54v-.47Z"/><path class="bt" d="M456.6,189.55h1.77c.49,0,.93,.12,1.32,.35,.38,.23,.62,.55,.7,.96,.11-.41,.36-.73,.74-.96,.38-.23,.82-.35,1.32-.35h1.77v.47c-.41,0-.78,.18-1.11,.54-.33,.36-.49,.99-.49,1.9v21.71c0,.91,.16,1.54,.49,1.9,.33,.36,.7,.54,1.11,.54v.47h-1.77c-.49,0-.93-.12-1.32-.35-.39-.23-.63-.55-.74-.96-.08,.41-.32,.73-.72,.96-.4,.23-.83,.35-1.3,.35h-1.77v-.47c.41,0,.78-.18,1.11-.54,.33-.36,.49-.99,.49-1.9v-2.11c-.08,.09-.21,.14-.37,.14-.22,0-.43-.07-.62-.21-.19-.14-.32-.34-.37-.58,.11,.06,.21,.09,.29,.09,.3,0,.56-.25,.76-.75,.21-.5,.31-1.11,.31-1.83v-16.47c0-.9-.16-1.54-.49-1.9-.33-.36-.7-.54-1.11-.54v-.47Z"/><path class="bt" d="M465.32,189.55h1.77c.47,0,.9,.12,1.3,.35,.4,.23,.64,.55,.72,.96,.11-.41,.36-.73,.74-.96,.38-.23,.82-.35,1.32-.35h4.77c1.4,0,2.46,.43,3.17,1.29,.71,.86,1.07,2.29,1.07,4.28v4.07c0,1.84-.32,3.21-.95,4.12,.63,.94,.95,2.32,.95,4.16v6.69c0,.91,.16,1.54,.49,1.9,.33,.36,.7,.54,1.11,.54v.47h-1.77c-.47,0-.9-.12-1.3-.35-.4-.23-.64-.55-.72-.96-.11,.41-.36,.73-.74,.96-.38,.23-.82,.35-1.32,.35h-1.77v-.47c.41,0,.78-.18,1.11-.54,.33-.36,.49-.99,.49-1.9v-2.11c-.08,.09-.21,.14-.37,.14-.22,0-.43-.07-.62-.21-.19-.14-.3-.34-.33-.58,.08,.06,.16,.09,.25,.09,.3,0,.56-.25,.76-.75,.21-.5,.31-1.11,.31-1.83v-1.68c0-.9-.17-1.54-.49-1.92-.33-.37-.7-.56-1.11-.56h-2.84v9.41c0,.91,.16,1.54,.49,1.9,.33,.36,.7,.54,1.11,.54v.47h-1.77c-.49,0-.93-.12-1.32-.35-.39-.23-.63-.55-.74-.96-.08,.41-.32,.73-.72,.96-.4,.23-.83,.35-1.3,.35h-1.77v-.47c.41,0,.78-.18,1.11-.54,.33-.36,.49-.99,.49-1.9v-2.11c-.08,.09-.21,.14-.37,.14-.22,0-.43-.07-.62-.21-.19-.14-.32-.34-.37-.58,.11,.06,.21,.09,.29,.09,.3,0,.56-.25,.76-.75,.21-.5,.31-1.11,.31-1.83v-16.47c0-.9-.16-1.54-.49-1.9-.33-.36-.7-.54-1.11-.54v-.47Zm7.62,2.85c-.41,0-.78,.18-1.11,.54-.33,.36-.49,.99-.49,1.9v7.07h2.84c.41,0,.78-.19,1.11-.56,.33-.37,.49-1.01,.49-1.92v-4.54c0-.9-.17-1.54-.49-1.92-.33-.37-.7-.56-1.11-.56h-1.23Z"/></g></g></g><g id="bq"/><g id="br"/></g></svg>