<?xml version="1.0" encoding="UTF-8"?><svg xmlns="http://www.w3.org/2000/svg" width="90" height="130" viewBox="0 0 90 130"><defs><style>.bu{fill:#42210b;}.bv{fill:#5f4100;}.bw{fill:#ccc;opacity:.8;}</style></defs><g id="a"/><g id="b"/><g id="c"><g id="d"/><g id="e"/><g id="f"/><g id="g"/></g><g id="h"><g id="i"/><g id="j"><g id="k"/><g id="l"/><g id="m"/><g id="n"/></g><g id="o"/><g id="p"><g id="q"><g id="r"><g id="s"/><g id="t"/></g></g><g id="u"/></g></g><g id="v"/><g id="w"><g id="x"/><g id="y"/><g id="a`"/><g id="aa"/><g id="ab"/><g id="ac"/><g id="ad"/></g><g id="ae"><g id="af"/><g id="ag"/><g id="ah"/><g id="ai"/><g id="aj"/></g><g id="ak"><g id="al"/><g id="am"/></g><g id="an"><g id="ao"/></g><g id="ap"><g id="aq"/><g id="ar"><g id="as"/></g></g><g id="at"><g id="au"/><g id="av"/><g id="aw"/><g id="ax"/></g><g id="ay"><g id="b`"/><g id="ba"/><g id="bb"/></g><g id="bc"><g id="bd"/><g id="be"/></g><g id="bf"/><g id="bg"><g id="bh"><g><g id="bi"><rect class="bv" x="14.61" y="6.98" width="60.78" height="8.24" rx="4.12" ry="4.12"/><rect class="bu" x="0" y="0" width="90" height="7.61" rx="3.8" ry="3.8"/><rect class="bu" x="4.68" y="7.61" width="5.84" height="114.78"/><rect class="bu" x="0" y="122.39" width="90" height="7.61" rx="3.8" ry="3.8"/><rect class="bv" x="14.61" y="114.15" width="60.78" height="8.24" rx="4.12" ry="4.12"/><rect class="bu" x="80.06" y="7.61" width="5.84" height="114.78"/><ellipse class="bv" cx="7.31" cy="65.63" rx="5.55" ry="6.02"/><ellipse class="bv" cx="82.69" cy="65" rx="5.55" ry="6.02"/></g><g id="bj"><path class="bw" d="M50.84,61.51v6.03c-1.95-.87-3.97-1.33-6.07-1.33-1.93,0-3.81,.39-5.62,1.14v-5.68c1.79,.72,3.65,1.1,5.55,1.1,2.11,0,4.17-.47,6.13-1.35,0,.03,0,.06,0,.08Z"/><path class="bw" d="M44.71,62.78c-1.91,0-3.76-.38-5.55-1.1v-.16c0-2.09,1.58-3.8,3.51-3.8h4.68c1.91,0,3.47,1.67,3.5,3.72-1.96,.88-4.02,1.35-6.13,1.35Z"/><path class="bw" d="M50.84,67.54v1.58c0,2.09-1.58,3.8-3.51,3.8h-4.68c-1.93,0-3.51-1.71-3.51-3.8v-1.77c1.81-.75,3.69-1.14,5.62-1.14,2.09,0,4.12,.46,6.07,1.33Z"/><path class="bw" d="M70.71,14.59c0,22.7-8.47,41.74-19.88,46.84-.04-2.05-1.6-3.72-3.5-3.72h-4.68c-1.93,0-3.51,1.71-3.51,3.8v.16c-11.69-4.71-20.45-24.01-20.45-47.09h52.01Z"/><path class="bw" d="M70.78,114.41H18.77c0-23.04,8.73-42.3,20.38-47.06v1.77c0,2.09,1.58,3.8,3.51,3.8h4.68c1.93,0,3.51-1.71,3.51-3.8v-1.58c11.44,5.06,19.94,24.12,19.94,46.87Z"/></g></g></g><g id="bk"/><g id="bl"/><g id="bm"><g id="bn"/><g id="bo"/><g id="bp"/><g id="bq"/></g><g id="br"/><g id="bs"/><g id="bt"/></g></svg>