<?xml version="1.0" encoding="UTF-8"?><svg xmlns="http://www.w3.org/2000/svg" width="313.3" height="348.94" viewBox="0 0 313.3 348.94"><defs><style>.bt{fill:#006837;}.bu{fill:#1d1d1b;}.bv{fill:#754c24;}.bw{opacity:.85;}</style></defs><g id="a"/><g id="b"/><g id="c"><g id="d"/><g id="e"/><g id="f"/><g id="g"/></g><g id="h"><g id="i"/><g id="j"><g id="k"/><g id="l"/><g id="m"/><g id="n"/></g><g id="o"/><g id="p"><g id="q"><g id="r"><g id="s"/><g id="t"/></g></g><g id="u"/></g></g><g id="v"/><g id="w"><g id="x"/><g id="y"/><g id="a`"/><g id="aa"/><g id="ab"/><g id="ac"/><g id="ad"/></g><g id="ae"><g id="af"/><g id="ag"/><g id="ah"/><g id="ai"/><g id="aj"/></g><g id="ak"><g id="al"/><g id="am"/></g><g id="an"><g id="ao"/></g><g id="ap"><g id="aq"/><g id="ar"><g id="as"/></g></g><g id="at"><g id="au"/><g id="av"/><g id="aw"/><g id="ax"/></g><g id="ay"><g id="b`"/><g id="ba"/><g id="bb"/></g><g id="bc"><g id="bd"/><g id="be"/></g><g id="bf"/><g id="bg"><g id="bh"/><g id="bi"/><g id="bj"/><g id="bk"><rect class="bv" x="135.67" y="312.5" width="55.94" height="34.48"/><g class="bw"><g><g><path class="bt" d="M308.62,265.15c-119.25,70.53-183.22,65.2-303.77,7.01,31.57-23.98,52.41-42.96,70.46-62.9-16.33-5.81-33.7-13.25-52.74-22.2,38.74-28.65,58.48-48.68,79.48-74.94-13.73-4.12-28.41-9.66-44.69-16.5C105.2,63.99,114.79,47.86,152.65,3.68c2.05,.02,4.11,.1,6.16,.18,36.73,42.52,48.31,58.39,94.18,87.84-17.85,9.19-33.77,16.09-48.67,20.84,20.48,24.14,40.47,42.89,76.45,68.72-15.4,8.88-29.72,16.3-43.29,22.33,18.63,19.92,39.69,38.38,71.14,61.55Z"/><path class="bu" d="M156.31,317.42c-41.77,0-85.81-13.03-151.67-44.82l-.73-.35,.64-.49c30.06-22.83,51-41.49,69.89-62.29-15.09-5.4-32.14-12.59-52.08-21.97l-.75-.35,.67-.49c39.66-29.33,59.08-49.51,78.93-74.28-12.76-3.86-26.78-9.05-44.04-16.31l-.85-.36,.77-.51c40.26-26.62,53.26-42.09,79.17-72.92,4.72-5.62,10.07-11.98,16.03-18.93l.15-.18h.23c1.81,.02,3.61,.09,5.42,.15l.97,.03,.14,.16c3.33,3.86,6.46,7.5,9.42,10.95,29.53,34.37,43,50.06,84.65,76.8l.72,.46-.76,.39c-18,9.27-33.73,16.03-48.04,20.65,21.67,25.46,42.31,43.96,75.88,68.08l.62,.45-.66,.38c-15.55,8.96-29.53,16.19-42.7,22.07,19.11,20.36,40.27,38.63,70.6,60.99l.6,.44-.64,.38c-61.09,36.13-106.45,51.64-151.65,51.85-.3,0-.61,0-.92,0ZM5.79,272.06c65.31,31.47,109.06,44.37,150.51,44.37,.3,0,.61,0,.91,0,44.85-.2,89.9-15.56,150.5-51.33-30.31-22.38-51.45-40.7-70.6-61.17l-.47-.51,.63-.28c13.14-5.84,27.07-13.02,42.58-21.93-33.53-24.12-54.15-42.7-75.92-68.36l-.48-.57,.71-.22c14.25-4.54,29.9-11.23,47.83-20.42-41.2-26.54-54.72-42.28-84.14-76.53-2.92-3.4-6-6.98-9.28-10.78l-.53-.02c-1.72-.06-3.44-.12-5.17-.15-5.89,6.88-11.19,13.18-15.87,18.75-25.8,30.7-38.84,46.21-78.61,72.6,17.15,7.19,31.09,12.32,43.79,16.13l.7,.21-.46,.57c-19.95,24.95-39.3,45.19-78.9,74.53,19.9,9.33,36.9,16.47,51.94,21.83l.7,.25-.5,.55c-18.93,20.92-39.85,39.63-69.88,62.47Z"/></g><g><path class="bt" d="M156.31,318.14c-41.72,.22-88.33-13.89-153.71-45.75,29.69-22.41,51.89-41.98,70.65-62.6-15.13-5.44-33.4-13.23-52.98-22.5,38.94-28.51,60.37-50.2,79.77-74.53-12.77-3.88-28.34-9.75-45.2-16.91C102.83,65.24,119.02,41.23,152.17,2.47c2.39,.02,4.79,.12,7.15,.2,32.77,38.21,50.39,60.77,96.04,89.15-17.71,9.22-34.61,16.64-49.01,21.33,21.45,25.18,43.31,44.5,76.59,68.23-15.41,8.94-30.21,16.68-43.48,22.64,18.98,20.18,41.33,39.29,71.29,61.25-61.33,36.55-108.43,53-154.45,52.87ZM7.11,271.92c128.41,59.06,177.19,61.62,299.37-6.88-30.55-22.63-51.33-40.73-70.99-61.86,13.66-6.02,27.32-13.01,43.1-22.03-33.65-24.29-54.19-42.96-76.31-69.21,14.95-4.68,30.08-11.07,48.33-20.35-43.77-27.79-60.29-49.34-92.31-86.53-1.7-.06-3.44-.13-5.17-.15-32.32,37.64-47.31,60.44-93.28,90.48,17.43,7.26,30.74,12.12,44.19,16.09-20.6,25.85-39.38,45.72-79.18,75.35,20.27,9.46,36.69,16.32,52.49,21.89-19.42,21.61-39.99,40.09-70.26,63.2Z"/><path class="bu" d="M155.34,318.63c-41.3,0-87.13-13.73-152.96-45.8l-.73-.35,.64-.49c29.95-22.61,51.6-41.75,70.09-61.99-14.69-5.32-32.76-13.01-52.33-22.26l-.75-.36,.67-.49c34.42-25.2,57.42-46.64,79.23-73.87-12.25-3.76-27.63-9.53-44.55-16.71l-.86-.37,.79-.5c40.76-26.01,58.62-47.34,83.34-76.86,4.39-5.24,8.92-10.66,13.87-16.44l.15-.18h.23c2.08,.02,4.2,.1,6.24,.17l1.14,.04,.14,.16c2.34,2.73,4.61,5.38,6.81,7.96,28.18,32.99,46.8,54.78,89.12,81.09l.74,.46-.77,.4c-17.72,9.23-34.43,16.53-48.38,21.13,21.08,24.65,42.46,43.65,76.03,67.59l.62,.45-.66,.39c-15.5,8.99-29.93,16.52-42.89,22.38,18.7,19.81,40.55,38.55,70.74,60.68l.6,.44-.64,.38c-61.41,36.6-108.99,52.94-154.17,52.95-.18,0-.35,0-.53,0-.32,0-.65,0-.97,0ZM3.54,272.3c65.29,31.74,110.81,45.35,151.8,45.35,.32,0,.64,0,.97,0h0c.18,0,.35,0,.53,0,44.84,0,92.09-16.19,153.03-52.42-30.19-22.16-52.03-40.96-70.75-60.87l-.48-.5,.63-.28c12.91-5.8,27.3-13.28,42.77-22.23-33.54-23.96-54.9-43.03-76.06-67.87l-.48-.56,.7-.23c13.84-4.5,30.48-11.72,48.16-20.9-41.94-26.18-60.54-47.96-88.62-80.83-2.16-2.53-4.38-5.12-6.67-7.79l-.71-.03c-1.96-.07-3.99-.14-5.98-.16-4.89,5.72-9.37,11.08-13.72,16.26-24.62,29.39-42.45,50.68-82.78,76.55,16.87,7.13,32.16,12.84,44.28,16.52l.7,.21-.45,.57c-21.86,27.39-44.84,48.91-79.2,74.13,19.56,9.23,37.59,16.87,52.19,22.12l.7,.25-.5,.55c-18.51,20.34-40.14,39.54-70.08,62.17Zm153.45,44.52c-44.43,0-90.49-17.04-150.09-44.45l-.75-.34,.65-.5c30.17-23.04,50.42-41.21,69.69-62.59-15.56-5.51-31.59-12.21-51.84-21.67l-.75-.35,.66-.49c39.24-29.22,58.01-48.87,78.63-74.69-13.15-3.92-26.22-8.7-43.53-15.9l-.86-.36,.78-.51c38.36-25.07,55.17-45.15,78.43-72.94,4.64-5.54,9.43-11.26,14.74-17.45l.15-.18h.23c1.63,.03,3.28,.09,4.89,.15l.5,.02,.14,.16c2.82,3.27,5.51,6.42,8.12,9.46,26.63,31.11,44.22,51.67,84.08,76.97l.73,.46-.77,.39c-18.23,9.27-32.98,15.51-47.7,20.16,21.94,25.97,42.54,44.61,75.74,68.57l.62,.45-.67,.38c-15.56,8.9-29.09,15.83-42.51,21.77,19.52,20.93,39.98,38.73,70.44,61.29l.61,.45-.67,.37c-64.98,36.44-106.36,50.83-147.58,51.34-.71,0-1.43,.01-2.15,.01ZM8.06,271.81c80.99,37.19,117.87,44.42,151.06,44.01,40.9-.51,82-14.77,146.45-50.84-30.42-22.57-50.87-40.41-70.44-61.47l-.47-.51,.64-.28c13.4-5.9,26.89-12.78,42.39-21.62-33.14-23.97-53.73-42.68-75.77-68.85l-.48-.57,.71-.22c14.7-4.6,29.37-10.76,47.48-19.93-39.47-25.17-57.05-45.71-83.57-76.7-2.56-2.99-5.21-6.09-7.97-9.3h-.07c-1.53-.06-3.09-.11-4.64-.14-5.25,6.11-9.99,11.78-14.58,17.26-23.16,27.67-39.94,47.71-77.87,72.62,17.16,7.12,30.14,11.84,43.27,15.72l.7,.21-.46,.57c-20.73,26.02-39.45,45.72-78.61,74.95,20.17,9.39,36.14,16.04,51.7,21.53l.7,.25-.49,.55c-19.33,21.51-39.55,39.73-69.67,62.77Z"/></g></g></g></g><g id="bl"><g id="bm"/><g id="bn"/><g id="bo"/><g id="bp"/></g><g id="bq"/><g id="br"/><g id="bs"/></g></svg>