<?xml version="1.0" encoding="UTF-8"?><svg xmlns="http://www.w3.org/2000/svg" width="1920" height="1080" viewBox="0 0 1920 1080"><defs><style>.bs{fill:#f7931e;}.bt{fill:#fbb03b;}.bu{fill:#c1272d;}.bv{opacity:.69;}</style></defs><g id="a"/><g id="b"><rect width="1920" height="1080"/><g class="bv"><rect class="bt" x="252.83" y="120" width="1410" height="840"/></g><g><rect class="bt" x="269.76" y="130.45" width="1380.48" height="810.31"/><path class="bs" d="M1651.56,942.35H268.44V128.86H1651.56V942.35Zm-1380.48-3.18H1648.92V132.04H271.08V939.18Z"/></g><g><g><rect class="bt" x="309.44" y="194.57" width="1279.41" height="688.77"/><path class="bs" d="M1590.87,885.72H307.42V192.19H1590.87V885.72Zm-1279.4-4.76H1586.82V196.95H311.46V880.95Z"/></g><g><path class="bt" d="M1590.07,884.69H308.22V193.22H1590.07V884.69Zm-1279.41-2.7H1587.62V195.92H310.66V881.99Z"/><path class="bs" d="M1590.74,885.48H307.54V192.43H1590.74V885.48Zm-1281.85-1.59H1589.39V194.02H308.89V883.89Zm1279.41-1.11H309.99V195.13H1588.3V882.78Zm-1276.96-1.59H1586.95V196.72H311.34V881.19Z"/></g></g><g><g><rect class="bt" x="368.33" y="238.17" width="1176.58" height="594.87"/><path class="bs" d="M1546.77,835.1H366.47V236.12H1546.77V835.1Zm-1176.58-4.12H1543.04V240.23H370.19V830.98Z"/></g><g><path class="bt" d="M1546.03,834.21H367.2V237.01H1546.03V834.21Zm-1176.58-2.33H1543.78V239.34H369.45V831.88Z"/><path class="bs" d="M1546.65,834.89H366.58V236.32H1546.65V834.89Zm-1178.83-1.37H1545.41V237.69H367.82V833.52Zm1176.58-.96H368.83V238.66H1544.4V832.56Zm-1174.33-1.37H1543.16V240.03H370.07V831.19Z"/></g></g><rect class="bu" x="385.56" y="256.09" width="1142.12" height="559.04"/><g><path d="M570.59,419.62h8.65c2.66,0,5.32,.54,7.99,1.6,2.66,1.07,4.66,2.54,5.99,4.39-.3-1.85,.37-3.32,2-4.39,1.63-1.07,3.77-1.6,6.43-1.6h10.65v2.14c-3.7,0-5.55,1.64-5.55,4.92,0,1.71,.59,3.85,1.77,6.42l15.75,34.67,15.53-34.67c1.18-2.57,1.77-4.71,1.77-6.42,0-3.28-1.85-4.92-5.54-4.92v-2.14h10.65c2.66,0,4.8,.54,6.43,1.6,1.62,1.07,2.29,2.54,2,4.39,1.48-1.85,3.51-3.32,6.1-4.39,2.58-1.07,5.21-1.6,7.88-1.6h8.65v2.14c-5.77,0-10.35,3.78-13.75,11.34l-27.73,61.42v61.42c0,4.28,.89,7.24,2.66,8.88,1.78,1.64,3.77,2.46,5.99,2.46v2.14h-9.54c-2.66,0-5.07-.54-7.21-1.61-2.15-1.07-3.44-2.53-3.88-4.39-.59,1.86-1.96,3.32-4.1,4.39-2.15,1.07-4.55,1.61-7.21,1.61h-9.54v-2.14c2.22,0,4.21-.82,5.99-2.46,1.77-1.64,2.66-4.6,2.66-8.88v-9.42c-.44,.43-1.11,.64-2,.64-1.19,0-2.29-.32-3.33-.96-1.04-.64-1.63-1.53-1.77-2.67,.44,.29,.89,.43,1.33,.43,1.62,0,2.99-1.14,4.1-3.42,1.11-2.28,1.66-5.06,1.66-8.35v-37.66l-27.51-61.42c-3.4-7.56-8.06-11.34-13.97-11.34v-2.14Z"/><path d="M714.33,419.62h29.5c8.58,0,14.71,2.43,18.41,7.28,.74-.43,1.85-.64,3.33-.64,2.07,0,3.96,.54,5.66,1.61,1.7,1.07,2.55,2.75,2.55,5.03-1.04-1-2.07-1.5-3.11-1.5-2.52,0-3.77,1.86-3.77,5.56v115.13c0,3.71,1.25,5.56,3.77,5.56,1.03,0,2.07-.5,3.11-1.5,0,2.28-.85,3.96-2.55,5.03-1.7,1.07-3.59,1.61-5.66,1.61-1.48,0-2.59-.21-3.33-.64-3.7,4.85-9.84,7.28-18.41,7.28h-29.5c-8.58,0-14.72-2.42-18.41-7.28-.74,.43-1.85,.64-3.33,.64-2.07,0-3.96-.54-5.66-1.61-1.7-1.07-2.55-2.75-2.55-5.03,.89,1,1.92,1.5,3.11,1.5,2.51,0,3.77-1.85,3.77-5.56v-5.56c-.44,.43-1.19,.64-2.22,.64s-2.11-.32-3.22-.96c-1.11-.64-1.74-1.53-1.89-2.67,.44,.29,.89,.43,1.33,.43,1.77,0,3.22-1.14,4.33-3.42,1.11-2.28,1.66-5.06,1.66-8.35v-95.23c0-3.71-1.26-5.56-3.77-5.56-1.18,0-2.22,.5-3.11,1.5,0-2.28,.85-3.96,2.55-5.03,1.7-1.07,3.58-1.61,5.66-1.61,1.48,0,2.59,.21,3.33,.64,3.69-4.85,9.83-7.28,18.41-7.28Zm9.76,13.27c-2.37,0-4.44,.82-6.21,2.46-1.78,1.64-2.66,4.53-2.66,8.67v37.88c2.07-2,4.07-3,5.99-3,2.81,0,6.36,2,10.65,5.99l5.55,5.35c2.22,2.14,4.07,3.57,5.54,4.28v-50.5c0-4.14-.92-7.03-2.77-8.67-1.85-1.64-3.88-2.46-6.1-2.46h-9.98Zm-8.87,61.63v50.5c0,4.14,.89,7.03,2.66,8.67,1.77,1.64,3.84,2.46,6.21,2.46h9.98c2.07,0,3.99-.71,5.77-2.14,1.77-1.42,2.74-3.92,2.88-7.49-.3,.43-.96,.64-2,.64-1.19,0-2.29-.32-3.33-.96-1.04-.64-1.63-1.53-1.78-2.67,.44,.29,.89,.43,1.33,.43,1.63,0,3.03-1.14,4.21-3.42,1.18-2.28,1.77-5.06,1.77-8.35v-25.04c-2.07,2-4.14,3-6.21,3-2.81,0-6.29-2-10.43-5.99l-5.54-5.35c-2.22-2.14-4.07-3.56-5.55-4.28Z"/><path d="M779.77,419.62h9.76c2.51,0,4.84,.54,6.99,1.6,2.14,1.07,3.51,2.54,4.1,4.39,.44-1.85,1.74-3.32,3.88-4.39,2.14-1.07,4.55-1.6,7.21-1.6h9.76v2.14c-2.37,0-4.44,.82-6.21,2.46-1.78,1.64-2.66,4.6-2.66,8.88v111.92c0,4.14,.89,7.03,2.66,8.67,1.77,1.64,3.84,2.46,6.21,2.46h9.98c2.07,0,3.99-.71,5.77-2.14,1.77-1.42,2.74-3.92,2.88-7.49-.3,.43-.96,.64-2,.64-1.19,0-2.29-.32-3.33-.96-1.04-.64-1.63-1.53-1.78-2.67,.44,.29,.89,.43,1.33,.43,1.63,0,3.03-1.14,4.21-3.42,1.18-2.28,1.77-5.06,1.77-8.35v-99.08c0-4.28-.92-7.24-2.77-8.88-1.85-1.64-3.88-2.46-6.1-2.46v-2.14h9.76c2.51,0,4.84,.54,6.99,1.6,2.14,1.07,3.51,2.54,4.1,4.39,.44-1.85,1.74-3.32,3.88-4.39,2.14-1.07,4.55-1.6,7.21-1.6h9.76v2.14c-2.37,0-4.44,.82-6.21,2.46-1.77,1.64-2.66,4.6-2.66,8.88v118.98c0,3.71,1.25,5.56,3.77,5.56,1.03,0,2.07-.5,3.11-1.5,0,2.28-.85,3.96-2.55,5.03-1.7,1.07-3.59,1.61-5.66,1.61-1.48,0-2.59-.21-3.33-.64-3.7,4.85-9.84,7.28-18.41,7.28h-29.5c-8.58,0-14.72-2.42-18.41-7.28-.74,.43-1.85,.64-3.33,.64-2.07,0-3.96-.54-5.66-1.61-1.7-1.07-2.55-2.75-2.55-5.03,1.03,1,2.07,1.5,3.11,1.5,2.51,0,3.77-1.85,3.77-5.56v-5.56c-.44,.43-1.19,.64-2.22,.64s-2.11-.32-3.22-.96c-1.11-.64-1.74-1.53-1.89-2.67,.44,.29,.89,.43,1.33,.43,1.77,0,3.22-1.14,4.33-3.42,1.11-2.28,1.66-5.06,1.66-8.35v-99.08c0-4.28-.93-7.24-2.77-8.88-1.85-1.64-3.88-2.46-6.1-2.46v-2.14Z"/><path d="M945.47,419.62h7.32c2.66,0,5.21,.54,7.65,1.6,2.44,1.07,4.1,2.54,4.99,4.39,.15-1.85,1.14-3.32,3-4.39,1.85-1.07,4.1-1.6,6.77-1.6h10.2v2.14c-4.44,0-6.66,2.28-6.66,6.85,0,1.28,.22,2.78,.67,4.49l21.07,83.03c9.32-36.52,16.42-64.27,21.29-83.25h8.65c11.39,44.94,18.41,72.69,21.07,83.25l21.29-83.03c.44-1.71,.67-3.21,.67-4.49,0-4.56-2.22-6.85-6.65-6.85v-2.14h10.2c2.66,0,4.92,.54,6.77,1.6,1.85,1.07,2.85,2.54,3,4.39,.89-1.85,2.55-3.32,4.99-4.39,2.44-1.07,4.99-1.6,7.65-1.6h7.32v2.14c-4.73,0-8.06,3.78-9.98,11.34l-31.28,122.84c-.59,2.28-.89,4.21-.89,5.78,0,3.71,1.7,5.56,5.1,5.56v2.14h-8.43c-2.66,0-4.92-.54-6.77-1.61-1.85-1.07-2.85-2.53-2.99-4.39,0,1.86-.93,3.32-2.77,4.39-1.85,1.07-4.1,1.61-6.77,1.61h-8.43v-2.14c3.4,0,5.1-1.85,5.1-5.56,0-1.57-.3-3.49-.89-5.78-.3-.71-.59-1.71-.89-3-.3-1.28-.59-2.42-.89-3.42-.3-1-.52-2-.67-3-.44,.72-1.41,1.07-2.88,1.07-3.11,0-5.03-1.35-5.77-4.07,.74,.43,1.48,.64,2.22,.64,2.51,0,3.77-1.93,3.77-5.78,0-1.42-.22-3.07-.67-4.92l3.33,13.05c-5.77-22.4-8.87-34.38-9.32-35.95l-11.54,45.37c-.59,2.28-.89,4.21-.89,5.78,0,3.71,1.7,5.56,5.1,5.56v2.14h-8.43c-2.66,0-4.92-.54-6.77-1.61-1.85-1.07-2.85-2.53-2.99-4.39,0,1.86-.93,3.32-2.77,4.39-1.85,1.07-4.1,1.61-6.77,1.61h-8.43v-2.14c3.4,0,5.1-1.85,5.1-5.56,0-1.57-.3-3.49-.89-5.78-.89-3.14-1.7-6.28-2.44-9.42-.44,.72-1.41,1.07-2.88,1.07-3.11,0-5.03-1.35-5.77-4.07,.74,.43,1.48,.64,2.22,.64,2.51,0,3.77-1.93,3.77-5.78,0-1.42-.22-3.07-.67-4.92l3.33,13.05c-2.22-8.56-5.25-20.47-9.09-35.74-3.85-15.26-7.4-29.25-10.65-41.94-3.25-12.7-6.29-24.61-9.09-35.74-1.92-7.56-5.25-11.34-9.98-11.34v-2.14Z"/><path d="M1143.11,419.62h29.5c8.58,0,14.71,2.43,18.41,7.28,.74-.43,1.85-.64,3.33-.64,2.07,0,3.96,.54,5.66,1.61,1.7,1.07,2.55,2.75,2.55,5.03-1.04-1-2.07-1.5-3.11-1.5-2.52,0-3.77,1.86-3.77,5.56v115.13c0,3.71,1.25,5.56,3.77,5.56,1.03,0,2.07-.5,3.11-1.5,0,2.28-.85,3.96-2.55,5.03-1.7,1.07-3.59,1.61-5.66,1.61-1.48,0-2.59-.21-3.33-.64-3.7,4.85-9.84,7.28-18.41,7.28h-29.5c-8.58,0-14.72-2.42-18.41-7.28-.74,.43-1.85,.64-3.33,.64-2.07,0-3.96-.54-5.66-1.61-1.7-1.07-2.55-2.75-2.55-5.03,.89,1,1.92,1.5,3.11,1.5,2.51,0,3.77-1.85,3.77-5.56v-5.56c-.44,.43-1.19,.64-2.22,.64s-2.11-.32-3.22-.96c-1.11-.64-1.74-1.53-1.89-2.67,.44,.29,.89,.43,1.33,.43,1.77,0,3.22-1.14,4.33-3.42,1.11-2.28,1.66-5.06,1.66-8.35v-95.23c0-3.71-1.26-5.56-3.77-5.56-1.18,0-2.22,.5-3.11,1.5,0-2.28,.85-3.96,2.55-5.03,1.7-1.07,3.58-1.61,5.66-1.61,1.48,0,2.59,.21,3.33,.64,3.69-4.85,9.83-7.28,18.41-7.28Zm9.76,13.27c-2.37,0-4.44,.82-6.21,2.46-1.78,1.64-2.66,4.53-2.66,8.67v37.88c2.07-2,4.07-3,5.99-3,2.81,0,6.36,2,10.65,5.99l5.55,5.35c2.22,2.14,4.07,3.57,5.54,4.28v-50.5c0-4.14-.92-7.03-2.77-8.67-1.85-1.64-3.88-2.46-6.1-2.46h-9.98Zm-8.87,61.63v50.5c0,4.14,.89,7.03,2.66,8.67,1.77,1.64,3.84,2.46,6.21,2.46h9.98c2.07,0,3.99-.71,5.77-2.14,1.77-1.42,2.74-3.92,2.88-7.49-.3,.43-.96,.64-2,.64-1.19,0-2.29-.32-3.33-.96-1.04-.64-1.63-1.53-1.78-2.67,.44,.29,.89,.43,1.33,.43,1.63,0,3.03-1.14,4.21-3.42,1.18-2.28,1.77-5.06,1.77-8.35v-25.04c-2.07,2-4.14,3-6.21,3-2.81,0-6.29-2-10.43-5.99l-5.54-5.35c-2.22-2.14-4.07-3.56-5.55-4.28Z"/><path d="M1239.38,415.13c2.66,0,4.88,.93,6.65,2.78-1.63,0-2.44,1.14-2.44,3.42,0,2,.59,4.28,1.78,6.85l24.18,52.86v-47.94c0-4.28-.89-7.24-2.66-8.88-1.77-1.64-3.85-2.46-6.21-2.46v-2.14h9.76c2.66,0,5.06,.54,7.21,1.6,2.14,1.07,3.44,2.54,3.88,4.39,.59-1.85,1.96-3.32,4.1-4.39,2.14-1.07,4.47-1.6,6.99-1.6h9.76v2.14c-2.22,0-4.21,.82-5.99,2.46-1.77,1.64-2.66,4.6-2.66,8.88v122.84c0,4.28,.89,7.24,2.66,8.88,1.78,1.64,3.77,2.46,5.99,2.46v2.14h-9.76c-2.52,0-4.85-.54-6.99-1.61-2.15-1.07-3.51-2.53-4.1-4.39-.44,1.86-1.74,3.32-3.88,4.39-2.14,1.07-4.55,1.61-7.21,1.61h-9.76v-2.14c2.36,0,4.44-.82,6.21-2.46,1.77-1.64,2.66-4.6,2.66-8.88v-9.42c-.44,.43-1.11,.64-2,.64-1.19,0-2.29-.32-3.33-.96-1.04-.64-1.7-1.53-2-2.67,.59,.29,1.11,.43,1.55,.43,1.48,0,2.77-1,3.88-3,1.11-2,1.74-4.49,1.89-7.49l-28.17-61.2v83.67c0,4.28,.89,7.24,2.66,8.88,1.77,1.64,3.84,2.46,6.21,2.46v2.14h-9.76c-2.66,0-5.07-.54-7.21-1.61-2.15-1.07-3.44-2.53-3.88-4.39-.59,1.86-1.96,3.32-4.1,4.39-2.15,1.07-4.47,1.61-6.99,1.61h-9.76v-2.14c2.22,0,4.25-.82,6.1-2.46,1.85-1.64,2.77-4.6,2.77-8.88v-9.42c-.44,.43-1.19,.64-2.22,.64s-2.11-.32-3.22-.96c-1.11-.64-1.74-1.53-1.89-2.67,.44,.29,.89,.43,1.33,.43,1.77,0,3.22-1.14,4.33-3.42,1.11-2.28,1.66-5.06,1.66-8.35v-99.08c0-4.28-.93-7.24-2.77-8.88-1.85-1.64-3.88-2.46-6.1-2.46v-2.14h9.76c2.51,0,4.84,.54,6.99,1.6,2.14,1.07,3.51,2.54,4.1,4.39,0-3.14,1-5.67,2.99-7.6,2-1.93,4.33-2.89,6.99-2.89Z"/><path d="M1308.59,419.62h9.54c2.66,0,5.03,.54,7.1,1.6,2.07,1.07,3.33,2.54,3.77,4.39,.59-1.85,1.92-3.32,3.99-4.39,2.07-1.07,4.44-1.6,7.1-1.6h9.54v2.14c-2.22,0-4.21,.82-5.99,2.46-1.77,1.64-2.66,4.53-2.66,8.67v88.6c0,4.14,.89,7.03,2.66,8.67,1.78,1.64,3.77,2.46,5.99,2.46v2.14h-9.54c-2.66,0-5.03-.54-7.1-1.61-2.07-1.07-3.4-2.53-3.99-4.39-.44,1.86-1.74,3.32-3.88,4.39-2.15,1.07-4.47,1.61-6.99,1.61h-9.54v-2.14c2.22,0,4.21-.82,5.99-2.46,1.77-1.64,2.66-4.53,2.66-8.67v-88.6c0-4.14-.89-7.03-2.66-8.67-1.77-1.64-3.77-2.46-5.99-2.46v-2.14Zm10.43,126.26c2.81-2.71,6.17-4.07,10.09-4.07s7.28,1.36,10.09,4.07c2.81,2.71,4.21,5.96,4.21,9.74s-1.41,7.03-4.21,9.74c-2.81,2.71-6.18,4.07-10.09,4.07s-7.29-1.35-10.09-4.07c-2.81-2.71-4.21-5.96-4.21-9.74s1.4-7.03,4.21-9.74Z"/></g></g><g id="c"><g id="d"/><g id="e"/><g id="f"/><g id="g"/></g><g id="h"><g id="i"/><g id="j"><g id="k"/><g id="l"/><g id="m"/><g id="n"/></g><g id="o"/><g id="p"><g id="q"><g id="r"><g id="s"/><g id="t"/></g></g><g id="u"/></g></g><g id="v"/><g id="w"><g id="x"/><g id="y"/><g id="a`"/><g id="aa"/><g id="ab"/><g id="ac"/><g id="ad"/></g><g id="ae"><g id="af"/><g id="ag"/><g id="ah"/><g id="ai"/><g id="aj"/></g><g id="ak"><g id="al"/><g id="am"/></g><g id="an"><g id="ao"/></g><g id="ap"><g id="aq"/><g id="ar"><g id="as"/></g></g><g id="at"><g id="au"/><g id="av"/><g id="aw"/><g id="ax"/></g><g id="ay"><g id="b`"/><g id="ba"/><g id="bb"/></g><g id="bc"><g id="bd"/><g id="be"/></g><g id="bf"/><g id="bg"><g id="bh"/><g id="bi"/><g id="bj"/><g id="bk"><g id="bl"/><g id="bm"/><g id="bn"/><g id="bo"/></g><g id="bp"/><g id="bq"/><g id="br"/></g></svg>