<svg xmlns="http://www.w3.org/2000/svg" width="1920" height="1080" viewBox="0 0 1920 1080"><defs><style>.cls-1{opacity:0.69;}.cls-2{fill:#fbb03b;}.cls-3{fill:#f7931e;}.cls-4{fill:#c1272d;}.cls-5{fill:#010101;}</style></defs><g id="vinder"><rect width="1920" height="1080"/><g class="cls-1"><rect class="cls-2" x="75.82" y="89.62" width="1765.94" height="892.42"/></g><rect class="cls-2" x="97.02" y="100.72" width="1728.97" height="860.88"/><path class="cls-3" d="M1827.65,963.29H95.37V99H1827.65Zm-1729-3.38H1824.34V102.41H98.67Z"/><rect class="cls-2" x="146.72" y="168.84" width="1602.38" height="731.75"/><path class="cls-3" d="M1751.63,903.12H144.18V166.31H1751.63ZM149.25,898.06H1746.56V171.37H149.25Z"/><path class="cls-2" d="M1750.63,902H145.19V167.41H1750.63ZM148.25,899.15H1747.57V170.28H148.25Z"/><path class="cls-3" d="M1751.47,902.87H144.34V166.56H1751.47ZM146,901.18H1749.78V168.25H146ZM1748.41,900H147.4V169.43h1601ZM149.09,898.31H1746.72V171.12H149.09Z"/><rect class="cls-2" x="220.47" y="215.17" width="1473.6" height="631.99"/><path class="cls-3" d="M1696.4,849.34H218.14V213H1696.4ZM222.8,845H1691.74V217.35H222.8Z"/><path class="cls-2" d="M1695.48,848.39H219.06V213.93H1695.48Zm-1473.6-2.48H1692.66V216.41H221.88Z"/><path class="cls-3" d="M1696.25,849.12h-1478V213.2h1478ZM219.84,847.66H1694.7v-633H219.84Zm1473.6-1H221.1v-631H1693.44ZM222.66,845.19H1691.88V217.13H222.66Z"/><rect class="cls-4" x="242.05" y="234.2" width="1430.43" height="593.92"/><path class="cls-5" d="M575.79,296.31h8.1a22.28,22.28,0,0,1,7.46,1.32,12.34,12.34,0,0,1,5.61,3.61,3.25,3.25,0,0,1,1.86-3.61,12,12,0,0,1,6-1.32h10v1.76q-5.19,0-5.19,4.05a12,12,0,0,0,1.66,5.28L626,335.91l14.53-28.51a12.11,12.11,0,0,0,1.66-5.28q0-4-5.19-4.05v-1.76h10a12,12,0,0,1,6,1.32,3.25,3.25,0,0,1,1.86,3.61,13.93,13.93,0,0,1,5.71-3.61,21.43,21.43,0,0,1,7.37-1.32H676v1.76q-8.1,0-12.87,9.33l-25.93,50.51v50.51q0,5.28,2.49,7.31a8.63,8.63,0,0,0,5.6,2v1.76h-8.92a16.66,16.66,0,0,1-6.75-1.32q-3-1.32-3.63-3.61a6.52,6.52,0,0,1-3.83,3.61,16.66,16.66,0,0,1-6.75,1.32H606.5v-1.76a8.63,8.63,0,0,0,5.6-2q2.49-2,2.49-7.31v-7.74a2.84,2.84,0,0,1-1.87.53,6.4,6.4,0,0,1-3.11-.8,2.93,2.93,0,0,1-1.66-2.2,2.49,2.49,0,0,0,1.25.36q2.28,0,3.84-2.82a14.08,14.08,0,0,0,1.55-6.86v-31L588.86,307.4q-4.77-9.33-13.07-9.33Z"/><path class="cls-5" d="M710.24,296.31h27.59q12,0,17.22,6a7.2,7.2,0,0,1,3.12-.52,10.76,10.76,0,0,1,5.29,1.32,4.4,4.4,0,0,1,2.38,4.13,4.5,4.5,0,0,0-2.9-1.23q-3.53,0-3.53,4.58v94.68c0,3.06,1.18,4.58,3.53,4.58a4.5,4.5,0,0,0,2.9-1.23,4.39,4.39,0,0,1-2.38,4.13,10.76,10.76,0,0,1-5.29,1.32,7.2,7.2,0,0,1-3.12-.52q-5.17,6-17.22,6H710.24q-12,0-17.22-6a7.18,7.18,0,0,1-3.11.52,10.77,10.77,0,0,1-5.3-1.32,4.39,4.39,0,0,1-2.38-4.13,4,4,0,0,0,2.9,1.23c2.35,0,3.53-1.52,3.53-4.58v-4.57a3.22,3.22,0,0,1-2.07.53,6.59,6.59,0,0,1-3-.8,2.93,2.93,0,0,1-1.77-2.2,2.49,2.49,0,0,0,1.25.36q2.49,0,4-2.82a14,14,0,0,0,1.56-6.86V310.57q0-4.57-3.53-4.58a4,4,0,0,0-2.9,1.23,4.4,4.4,0,0,1,2.38-4.13,10.77,10.77,0,0,1,5.3-1.32,7.18,7.18,0,0,1,3.11.52Q698.2,296.32,710.24,296.31Zm9.13,10.91a8.93,8.93,0,0,0-5.81,2q-2.49,2-2.49,7.12v31.16a8.77,8.77,0,0,1,5.6-2.47q3.95,0,10,4.93l5.19,4.4a22.17,22.17,0,0,0,5.18,3.52V316.37q0-5.1-2.59-7.12a9.07,9.07,0,0,0-5.71-2Zm-8.3,50.69v41.54c0,3.4.83,5.78,2.49,7.12a8.93,8.93,0,0,0,5.81,2h9.33a9.19,9.19,0,0,0,5.4-1.76c1.66-1.17,2.56-3.23,2.7-6.16a2.41,2.41,0,0,1-1.87.53,6.35,6.35,0,0,1-3.11-.8,2.91,2.91,0,0,1-1.66-2.2,2.45,2.45,0,0,0,1.24.36q2.28,0,3.94-2.82a13.25,13.25,0,0,0,1.66-6.86v-20.6a9,9,0,0,1-5.81,2.47q-3.95,0-9.75-4.93l-5.18-4.4A22.4,22.4,0,0,0,711.07,357.91Z"/><path class="cls-5" d="M771.44,296.31h9.13a16.13,16.13,0,0,1,6.54,1.32,6.57,6.57,0,0,1,3.84,3.61q.62-2.3,3.63-3.61a16.58,16.58,0,0,1,6.74-1.32h9.13v1.76a9,9,0,0,0-5.81,2q-2.49,2-2.49,7.31v92.05c0,3.4.83,5.78,2.49,7.12a8.94,8.94,0,0,0,5.81,2h9.34a9.18,9.18,0,0,0,5.39-1.76c1.66-1.17,2.56-3.23,2.7-6.16a2.39,2.39,0,0,1-1.87.53,6.37,6.37,0,0,1-3.11-.8,2.93,2.93,0,0,1-1.66-2.2,2.45,2.45,0,0,0,1.24.36c1.53,0,2.84-.94,3.95-2.82a13.35,13.35,0,0,0,1.66-6.86V307.4q0-5.28-2.6-7.31a9.11,9.11,0,0,0-5.7-2v-1.76h9.13a16,16,0,0,1,6.53,1.32,6.52,6.52,0,0,1,3.84,3.61q.63-2.3,3.63-3.61a16.66,16.66,0,0,1,6.75-1.32h9.12v1.76a9,9,0,0,0-5.81,2c-1.66,1.35-2.48,3.79-2.48,7.31v97.85c0,3.06,1.17,4.58,3.52,4.58a4.52,4.52,0,0,0,2.91-1.23,4.39,4.39,0,0,1-2.39,4.13,10.73,10.73,0,0,1-5.29,1.32,7.15,7.15,0,0,1-3.11-.52q-5.19,6-17.22,6h-27.6q-12,0-17.22-6a7.15,7.15,0,0,1-3.11.52,10.73,10.73,0,0,1-5.29-1.32,4.39,4.39,0,0,1-2.39-4.13,4.52,4.52,0,0,0,2.91,1.23c2.35,0,3.52-1.52,3.52-4.58v-4.57a3.2,3.2,0,0,1-2.07.53,6.62,6.62,0,0,1-3-.8,2.89,2.89,0,0,1-1.76-2.2,2.45,2.45,0,0,0,1.24.36q2.49,0,4.05-2.82a14.08,14.08,0,0,0,1.55-6.86V307.4q0-5.28-2.59-7.31a9.12,9.12,0,0,0-5.71-2Z"/><path class="cls-5" d="M926.43,296.31h6.85a19.73,19.73,0,0,1,7.16,1.32,8.48,8.48,0,0,1,4.67,3.61,4.48,4.48,0,0,1,2.8-3.61,13.83,13.83,0,0,1,6.32-1.32h9.55v1.76q-6.22,0-6.23,5.63a13.19,13.19,0,0,0,.63,3.7l19.71,68.29q13.07-45.06,19.92-68.47h8.09q16,55.44,19.71,68.47l19.92-68.29a13.51,13.51,0,0,0,.62-3.7q0-5.62-6.22-5.63v-1.76h9.54a13.84,13.84,0,0,1,6.33,1.32,4.49,4.49,0,0,1,2.8,3.61,8.45,8.45,0,0,1,4.67-3.61,19.73,19.73,0,0,1,7.16-1.32h6.84v1.76q-6.64,0-9.33,9.33l-29.26,101a17.5,17.5,0,0,0-.83,4.75c0,3.06,1.59,4.58,4.77,4.58v1.76h-7.88a13.84,13.84,0,0,1-6.33-1.32,4.49,4.49,0,0,1-2.8-3.61c0,1.53-.87,2.73-2.59,3.61a13.87,13.87,0,0,1-6.33,1.32h-7.89v-1.76c3.18,0,4.78-1.52,4.78-4.58a17.5,17.5,0,0,0-.83-4.75,13.87,13.87,0,0,1-.83-2.46c-.28-1.06-.56-2-.83-2.82a15.87,15.87,0,0,1-.63-2.46c-.41.59-1.31.88-2.69.88q-4.37,0-5.4-3.35a4.43,4.43,0,0,0,2.08.53q3.52,0,3.52-4.75a15.49,15.49,0,0,0-.62-4.05l3.11,10.74q-8.09-27.63-8.71-29.57L991,408.42a17.5,17.5,0,0,0-.83,4.75c0,3.06,1.59,4.58,4.77,4.58v1.76H987a13.84,13.84,0,0,1-6.33-1.32,4.48,4.48,0,0,1-2.8-3.61q0,2.3-2.6,3.61a13.8,13.8,0,0,1-6.32,1.32h-7.89v-1.76c3.18,0,4.77-1.52,4.77-4.58a17.11,17.11,0,0,0-.83-4.75q-1.24-3.87-2.28-7.74c-.41.59-1.31.88-2.7.88q-4.35,0-5.39-3.35a4.43,4.43,0,0,0,2.07.53c2.36,0,3.53-1.58,3.53-4.75a15.92,15.92,0,0,0-.62-4.05l3.11,10.74q-3.11-10.56-8.51-29.39t-10-34.5q-4.57-15.66-8.51-29.39-2.7-9.33-9.34-9.33Z"/><path class="cls-5" d="M1111.3,296.31h27.59q12,0,17.23,6a7.12,7.12,0,0,1,3.11-.52,10.76,10.76,0,0,1,5.29,1.32,4.4,4.4,0,0,1,2.39,4.13A4.52,4.52,0,0,0,1164,306q-3.52,0-3.53,4.58v94.68c0,3.06,1.18,4.58,3.53,4.58a4.52,4.52,0,0,0,2.91-1.23,4.39,4.39,0,0,1-2.39,4.13,10.76,10.76,0,0,1-5.29,1.32,7.12,7.12,0,0,1-3.11-.52q-5.19,6-17.23,6H1111.3q-12,0-17.22-6a7.15,7.15,0,0,1-3.11.52,10.7,10.7,0,0,1-5.29-1.32,4.38,4.38,0,0,1-2.39-4.13,4,4,0,0,0,2.9,1.23c2.36,0,3.53-1.52,3.53-4.58v-4.57a3.22,3.22,0,0,1-2.07.53,6.62,6.62,0,0,1-3-.8,2.93,2.93,0,0,1-1.77-2.2,2.49,2.49,0,0,0,1.25.36q2.49,0,4.05-2.82a14.08,14.08,0,0,0,1.55-6.86V310.57c0-3.05-1.17-4.58-3.53-4.58a4,4,0,0,0-2.9,1.23,4.39,4.39,0,0,1,2.39-4.13,10.7,10.7,0,0,1,5.29-1.32,7.15,7.15,0,0,1,3.11.52Q1099.26,296.32,1111.3,296.31Zm9.13,10.91a8.94,8.94,0,0,0-5.81,2q-2.49,2-2.49,7.12v31.16a8.79,8.79,0,0,1,5.6-2.47q3.94,0,10,4.93l5.19,4.4a22.17,22.17,0,0,0,5.18,3.52V316.37q0-5.1-2.59-7.12a9.06,9.06,0,0,0-5.7-2Zm-8.3,50.69v41.54c0,3.4.83,5.78,2.49,7.12a8.94,8.94,0,0,0,5.81,2h9.34a9.18,9.18,0,0,0,5.39-1.76c1.66-1.17,2.56-3.23,2.7-6.16a2.39,2.39,0,0,1-1.87.53,6.35,6.35,0,0,1-3.11-.8,2.91,2.91,0,0,1-1.66-2.2,2.45,2.45,0,0,0,1.24.36q2.28,0,4-2.82a13.35,13.35,0,0,0,1.65-6.86v-20.6a9,9,0,0,1-5.8,2.47q-3.94,0-9.76-4.93l-5.18-4.4A22.4,22.4,0,0,0,1112.13,357.91Z"/><path class="cls-5" d="M1201.34,292.61a8.89,8.89,0,0,1,6.23,2.29q-2.28,0-2.28,2.82a12.39,12.39,0,0,0,1.66,5.63l22.61,43.47V307.4q0-5.28-2.49-7.31a9,9,0,0,0-5.81-2v-1.76h9.13a16.66,16.66,0,0,1,6.75,1.32q3,1.32,3.63,3.61a6.52,6.52,0,0,1,3.83-3.61,16.13,16.13,0,0,1,6.54-1.32h9.13v1.76a8.68,8.68,0,0,0-5.6,2q-2.49,2-2.49,7.31v101q0,5.28,2.49,7.31a8.63,8.63,0,0,0,5.6,2v1.76h-9.13a16.13,16.13,0,0,1-6.54-1.32,6.52,6.52,0,0,1-3.83-3.61q-.63,2.3-3.63,3.61a16.66,16.66,0,0,1-6.75,1.32h-9.13v-1.76a8.94,8.94,0,0,0,5.81-2q2.49-2,2.49-7.31v-7.74a2.84,2.84,0,0,1-1.87.53,6.4,6.4,0,0,1-3.11-.8,3.58,3.58,0,0,1-1.86-2.2,3.7,3.7,0,0,0,1.45.36q2.07,0,3.63-2.47a12.67,12.67,0,0,0,1.76-6.16l-26.35-50.33v68.81q0,5.28,2.49,7.31a8.94,8.94,0,0,0,5.81,2v1.76h-9.13a16.58,16.58,0,0,1-6.74-1.32q-3-1.32-3.63-3.61a6.57,6.57,0,0,1-3.84,3.61,16.13,16.13,0,0,1-6.54,1.32h-9.13v-1.76a9.06,9.06,0,0,0,5.71-2q2.6-2,2.59-7.31v-7.74a3.2,3.2,0,0,1-2.07.53,6.62,6.62,0,0,1-3-.8,2.89,2.89,0,0,1-1.76-2.2,2.45,2.45,0,0,0,1.24.36q2.49,0,4-2.82a14,14,0,0,0,1.55-6.86V307.4q0-5.28-2.59-7.31a9.12,9.12,0,0,0-5.71-2v-1.76h9.13a16.13,16.13,0,0,1,6.54,1.32,6.57,6.57,0,0,1,3.84,3.61,7.79,7.79,0,0,1,2.8-6.25A9.81,9.81,0,0,1,1201.34,292.61Z"/><path class="cls-5" d="M1266.08,296.31H1275a15.9,15.9,0,0,1,6.64,1.32,5.79,5.79,0,0,1,3.53,3.61,6.5,6.5,0,0,1,3.73-3.61,15.9,15.9,0,0,1,6.64-1.32h8.92v1.76a8.7,8.7,0,0,0-5.6,2q-2.49,2-2.49,7.13v72.87c0,3.4.83,5.78,2.49,7.12a8.6,8.6,0,0,0,5.6,2V391h-8.92a15.9,15.9,0,0,1-6.64-1.32,6.5,6.5,0,0,1-3.73-3.61q-.63,2.3-3.63,3.61A16.13,16.13,0,0,1,1275,391h-8.92v-1.76a8.6,8.6,0,0,0,5.6-2c1.66-1.34,2.49-3.72,2.49-7.12V307.22q0-5.1-2.49-7.13a8.7,8.7,0,0,0-5.6-2Zm9.75,103.84a15,15,0,0,1,18.88,0,10.11,10.11,0,0,1,0,16,15,15,0,0,1-18.88,0,10.11,10.11,0,0,1,0-16Z"/></g></svg>